<svg xmlns="http://www.w3.org/2000/svg" viewBox="0 0 148.15 83.07"><defs><style>.cls-1{fill:#fff;}</style></defs><g id="Layer_2" data-name="Layer 2"><g id="Layer_1-2" data-name="Layer 1"><g id="Layer_2-2" data-name="Layer 2"><g id="Layer_1-2-2" data-name="Layer 1-2"><path class="cls-1" d="M145.79,31.73H2.51A2.33,2.33,0,0,1,.18,29.4h0a2.33,2.33,0,0,1,2.33-2.33H145.79a2.33,2.33,0,0,1,2.34,2.33h0a2.33,2.33,0,0,1-2.34,2.33Z"/><path class="cls-1" d="M110.56,31.73H1.91A2.11,2.11,0,0,1,.14,29.4h0a2.11,2.11,0,0,1,1.77-2.33H110.56a2.11,2.11,0,0,1,1.77,2.33h0A2.11,2.11,0,0,1,110.56,31.73Z"/><path class="cls-1" d="M145.81,7.47H2.53A2.33,2.33,0,0,1,.2,5.13h0A2.33,2.33,0,0,1,2.53,2.8H145.81a2.33,2.33,0,0,1,2.34,2.33h0a2.34,2.34,0,0,1-2.34,2.34Z"/><path class="cls-1" d="M51.73,7.47H1.5A2.56,2.56,0,0,1,.23,4.07,2.61,2.61,0,0,1,1.5,2.8H51.73c.45,0,.82,1,.82,2.33C52.55,5.13,52.18,7.47,51.73,7.47Z"/><path class="cls-1" d="M145.79,79.8H2.51A2.33,2.33,0,0,1,.18,77.47h0a2.33,2.33,0,0,1,2.33-2.34H145.79a2.34,2.34,0,0,1,2.34,2.34h0a2.33,2.33,0,0,1-2.34,2.33Z"/><path class="cls-1" d="M110.56,79.8H1.91A2.12,2.12,0,0,1,.14,77.47h0a2.12,2.12,0,0,1,1.77-2.34H110.56a2.12,2.12,0,0,1,1.77,2.34h0A2.12,2.12,0,0,1,110.56,79.8Z"/><path class="cls-1" d="M145.81,56H2.53A2.33,2.33,0,0,1,.2,53.67h0a2.33,2.33,0,0,1,2.33-2.34H145.81a2.34,2.34,0,0,1,2.34,2.34h0A2.33,2.33,0,0,1,145.81,56Z"/><circle class="cls-1" cx="112.87" cy="29.17" r="5.37"/><circle class="cls-1" cx="51.74" cy="5.37" r="5.37"/><circle class="cls-1" cx="112.87" cy="77.7" r="5.37"/><circle class="cls-1" cx="51.74" cy="53.43" r="5.37"/><path class="cls-1" d="M51.73,56H1.5A2.56,2.56,0,0,1,.23,52.6,2.61,2.61,0,0,1,1.5,51.33H51.73c.45,0,.82,1.05.82,2.34C52.55,53.67,52.18,56,51.73,56Z"/></g></g></g></g></svg>