<svg xmlns="http://www.w3.org/2000/svg" viewBox="0 0 200.98 82.11">
  <defs>
    <style>
      .cls-1, .cls-2 {
        fill: #d2e49a;
      }

      .cls-1 {
        stroke: #d2e49a;
        stroke-miterlimit: 10;
        stroke-width: 2px;
      }
    </style>
  </defs>
  <g id="Layer_2" data-name="Layer 2">
    <g id="mortar-pestle-logo">
      <g id="greater-less-than">
        <path class="cls-1" d="M199.67,41.12l-38.1-21.35a.63.63,0,0,0-.93.54v8.36a.64.64,0,0,0,.32.55L190.6,45.51a.63.63,0,0,1,.33.55.64.64,0,0,1-.32.54L161,63a.63.63,0,0,0-.32.54V71.8a.63.63,0,0,0,.93.55L199.67,51a.62.62,0,0,0,.31-.54V41.66A.63.63,0,0,0,199.67,41.12Z"/>
        <path class="cls-1" d="M39.42,19.77,1.32,41.12a.62.62,0,0,0-.32.54v8.79a.61.61,0,0,0,.32.54l38.1,21.36a.62.62,0,0,0,.92-.55V63.53A.61.61,0,0,0,40,63L10.38,46.6a.62.62,0,0,1,0-1.09L40,29.22a.62.62,0,0,0,.32-.55V20.31A.62.62,0,0,0,39.42,19.77Z"/>
      </g>
      <path id="mortar-pestle" class="cls-2" d="M142.76,0a4.86,4.86,0,0,0-3.41,1.37L121,17.45H57.12c-1,0-1.78.45-1.78,1v7.8c0,.56.8,1,1.78,1h2c-2.55,15.08,1.24,30,10.45,39.45a32.28,32.28,0,0,0,4.92,4.13v9.06a2.55,2.55,0,0,0,.29,1.24.85.85,0,0,0,.72.51q11.72.45,24.26.45,12.21,0,23.65-.45c.56,0,1-.78,1-1.75V70.85a32.28,32.28,0,0,0,4.92-4.13c9.2-9.43,13-24.37,10.45-39.45h1.94c1,0,1.79-.45,1.79-1v-7.8a.87.87,0,0,0-.52-.71,2.82,2.82,0,0,0-1.27-.3h-4.35c2.7-3.2,5.48-6.3,8.39-9.17a4.85,4.85,0,0,0,.71-6.56A4.63,4.63,0,0,0,142.76,0Z"/>
    </g>
  </g>
</svg>
