<?xml version="1.0" encoding="utf-8"?>
<!-- Generator: Adobe Illustrator 25.2.3, SVG Export Plug-In . SVG Version: 6.00 Build 0)  -->
<svg version="1.1" id="Layer_1" xmlns="http://www.w3.org/2000/svg" xmlns:xlink="http://www.w3.org/1999/xlink" x="0px" y="0px"
	 viewBox="0 0 435 653" style="enable-background:new 0 0 435 653;" xml:space="preserve">
<style type="text/css">
	.st0{fill:none;stroke:#FFFFFF;stroke-width:1.0223;stroke-miterlimit:10;}
	.st1{fill:#FFFFFF;stroke:#FFFFFF;stroke-width:1.0223;stroke-miterlimit:10;}
	.st2{fill:#FFFFFF;}
</style>
<path class="st0" d="M286.1,399.4H142.8c-1.3,0-2.3-1-2.3-2.3l0,0c0-1.3,1-2.3,2.3-2.3h143.3c1.3,0,2.3,1,2.3,2.3l0,0
	C288.4,398.4,287.4,399.4,286.1,399.4z"/>
<path class="st1" d="M250.9,399.4H142.2c-1,0-1.8-1-1.8-2.3l0,0c0-1.3,0.8-2.3,1.8-2.3h108.7c1,0,1.8,1,1.8,2.3l0,0
	C252.6,398.4,251.8,399.4,250.9,399.4z"/>
<path class="st0" d="M286.1,375.1H142.8c-1.3,0-2.3-1-2.3-2.3l0,0c0-1.3,1-2.3,2.3-2.3h143.3c1.3,0,2.3,1,2.3,2.3l0,0
	C288.4,374.1,287.4,375.1,286.1,375.1z"/>
<path class="st1" d="M192,375.1h-50.2c-1.3-0.6-1.9-2.1-1.3-3.4c0.3-0.6,0.7-1,1.3-1.3H192c0.5,0,0.8,1,0.8,2.3
	C192.8,372.8,192.5,375.1,192,375.1z"/>
<path class="st0" d="M286.1,447.5H142.8c-1.3,0-2.3-1-2.3-2.3l0,0c0-1.3,1-2.3,2.3-2.3h143.3c1.3,0,2.3,1,2.3,2.3l0,0
	C288.4,446.4,287.4,447.5,286.1,447.5z"/>
<path class="st1" d="M250.9,447.5H142.2c-1,0-1.8-1-1.8-2.3l0,0c0-1.3,0.8-2.3,1.8-2.3h108.7c1,0,1.8,1,1.8,2.3l0,0
	C252.6,446.4,251.8,447.5,250.9,447.5z"/>
<path class="st0" d="M286.1,423.7H142.8c-1.3,0-2.3-1-2.3-2.3l0,0c0-1.3,1-2.3,2.3-2.3h143.3c1.3,0,2.3,1,2.3,2.3l0,0
	C288.4,422.6,287.4,423.7,286.1,423.7z"/>
<circle class="st2" cx="253.2" cy="396.8" r="5.4"/>
<circle class="st2" cx="192" cy="373" r="5.4"/>
<circle class="st2" cx="253.2" cy="445.4" r="5.4"/>
<circle class="st2" cx="192" cy="421.1" r="5.4"/>
<path class="st1" d="M192,423.7h-50.2c-1.3-0.6-1.9-2.1-1.3-3.4c0.3-0.6,0.7-1,1.3-1.3H192c0.5,0,0.8,1,0.8,2.3
	C192.8,421.3,192.5,423.7,192,423.7z"/>
<path class="st2" d="M309.8,321.9c-5.6,0-11.1,0-16.7-0.1c-4.1-3.5-7.9-7.2-11.3-11.3c-8-9.6-14-20.2-19.1-31.2
	c-6.5-14.2-11.4-28.8-15.5-43.7c-2.7-10-5.3-20.1-7.6-30.3c-2.2-9.5-3.9-19.1-5.9-28.7c0-0.1-0.1-0.3-0.1-0.4c-0.1,0-0.2,0-0.3,0
	c0,1,0,2.1,0,3.1c-0.1,9.6-0.2,19.2-0.3,28.8c-0.1,8.1-0.2,16.1-0.3,24.2c-0.1,5.1-0.1,10.2-0.2,15.3c0,2.7-0.1,5.4-0.1,8.1
	c0,0.2,0,0.4-0.1,0.6c-0.1,0.2-0.4,0.6-0.6,0.6c-0.2,0-0.6-0.2-0.7-0.5c-0.4-1-0.7-2-1.1-3c-4.3-12.8-7.8-25.7-10.8-38.8
	c-1.8-7.9-3.5-15.7-5.2-23.6c-0.9-4.2-1.6-8.4-2.7-12.6c0,1.7,0,3.5,0,5.2c-0.1,7.2-0.1,14.4-0.2,21.6c-0.1,5.2-0.1,10.3-0.2,15.5
	c-0.1,7.8-0.1,15.6-0.2,23.4c-0.1,4.8-0.1,9.6-0.2,14.4c0,0.2,0.1,0.4,0,0.6c-0.2,0.3-0.4,0.6-0.7,0.7c-0.1,0.1-0.6-0.3-0.7-0.5
	c-0.3-0.6-0.5-1.3-0.7-1.9c-3.8-11.1-7.2-22.3-9.9-33.6c-2.4-9.9-4.6-19.9-6.9-29.9c-0.7-3.2-1.3-6.4-1.9-9.7c0-0.2-0.1-0.4-0.3-0.6
	c0,0.3-0.1,0.6-0.1,0.8c0,6.5-0.1,13-0.1,19.5c-0.1,7.9-0.2,15.8-0.3,23.8c-0.1,10.4-0.2,20.8-0.4,31.2c0,1.7,0,3.5-0.1,5.2
	c0,0.2,0,0.4,0,0.6c-0.2,0.3-0.4,0.6-0.7,0.8c-0.3-0.2-0.7-0.4-0.8-0.7c-0.6-1.6-1.3-3.2-1.8-4.8c-2.1-6.3-4.3-12.5-6.1-18.9
	c-1.9-6.4-3.6-12.8-5.2-19.3c-1.9-7.6-3.6-15.3-5.4-22.9c-0.3-1.4-0.6-2.8-0.9-4.3c-0.1,0-0.2,0-0.3,0c0,0.3-0.1,0.7-0.1,1
	c-0.1,9.6-0.2,19.2-0.3,28.8c-0.1,7.9-0.2,15.8-0.2,23.8c-0.1,7.8-0.2,15.6-0.3,23.5c0,1.4,0,2.8-0.1,4.2c0,0.4-0.4,0.8-0.6,1.3
	c-0.4-0.3-0.9-0.6-1-0.9c-1.2-2.9-2.4-5.7-3.6-8.6c-4.7-11.8-8.4-23.8-11.7-35.9c-1.3-4.8-2.4-9.6-3.7-14.4c-0.1-0.4-0.2-0.7-0.5-1
	c-0.1,1.2-0.2,2.4-0.2,3.6c-0.1,7-0.1,14.1-0.1,21.1c0,5.4-0.1,10.9-0.2,16.3c-0.1,6.6,0.1,13.5-0.2,22.7
	c-0.3,10.7-0.7,11.3-1.1,11.4c-2.1,0.4-7.3-17.3-10-29.2c-1.4-6.2-2.3-11.5-2.9-15c-1,16.6-2.4,33.6-4.2,51.1
	c-0.8,7.7-1.7,15.3-2.6,22.8c-0.1,0-0.2,0-0.2,0c0.2-56.2,0.4-112.4,0.5-168.6c-0.1-1.6-1.6-2.9-3.2-2.9c-1.6,0-3,1.3-3.1,2.9
	c-0.1,109,0,144.3,0,149.1c0,1.6,0,8.7,0,12.8c0,1.2-0.1,2.5-0.1,4.4c0,1.9,0,2.6,0.1,3.3c0.2,2.6,0.2,3.8,0.9,4.6
	c0.8,0.9,1.9,1,4.9,1c3.8,0.1,5.7,0,7.1,0c0,0,5.8,0,12.3,0c7,0,155,0.6,167.2,0c1.7-0.1,2.9-1.5,2.9-3.1
	C312.6,323.2,311.4,321.9,309.8,321.9z"/>
</svg>
