<?xml version="1.0" encoding="utf-8"?>
<!-- Generator: Adobe Illustrator 25.2.3, SVG Export Plug-In . SVG Version: 6.00 Build 0)  -->
<svg version="1.1" id="Layer_1" xmlns="http://www.w3.org/2000/svg" xmlns:xlink="http://www.w3.org/1999/xlink" x="0px" y="0px"
	 viewBox="0 0 103.5 141.7" style="enable-background:new 0 0 103.5 141.7;" xml:space="preserve">
<style type="text/css">
	.st0{fill:#231F20;}
</style>
<g id="Layer_2">
</g>
<g id="Layer_2_1_">
	<g id="capsule">
		<path class="st0" d="M87,3.5L87,3.5C71.7-4.4,52.9,1.6,45,16.9L3.6,96c-8.1,15.2-2.3,34.1,12.9,42.1l0,0c7.3,3.8,15.8,4.5,23.7,2
			c7.9-2.6,14.4-8.1,18.3-15.4l20.6-39.3l20.8-39.8C108,30.4,102.2,11.6,87,3.5z M53,118.5c-2.2,4.6-5.8,8.5-10.3,11
			c-8.8,5.1-18.2,3-22.3,1.7C9,125.2,5,110.2,11.5,97.8C17.6,86,23.8,74.1,29.9,62.3c6.3,6.2,13.4,11.3,21.2,15.4
			c6.2,3.2,12.8,5.6,19.5,7.2L53,118.5z M60.3,17.5c-1.1,1.4-2.1,2.9-3,4.4c-5.6,10-13.4,24.7-15.4,28.5c-1.4-0.7-2.7-1.8-3.6-3.1
			l14.1-27.9c2.5-4,5.8-7.3,9.7-9.8c1.7-1.1,3.5-2,5.3-2.7l2.8-0.8l2.5,2.1C67.9,10.2,63.6,13.4,60.3,17.5L60.3,17.5z"/>
	</g>
</g>
</svg>
