<svg xmlns="http://www.w3.org/2000/svg" viewBox="0 0 103.5041 141.6624"><defs><style>.cls-1{fill:#fff}</style></defs><g id="Layer_2" data-name="Layer 2"><g id="capsule"><path class="cls-1" d="M86.9689,3.4975h0a31.16,31.16,0,0,0-41.973,13.4161L3.6126,96.0373a31.16,31.16,0,0,0,12.9226,42.1275l0,0a30.6982,30.6982,0,0,0,23.6628,2.0168,32.2341,32.2341,0,0,0,18.31-15.4329l20.5544-39.3L99.8914,45.625A31.16,31.16,0,0,0,86.9689,3.4975Zm-33.94,115.003a25.5716,25.5716,0,0,1-10.3063,11.0234c-8.7729,5.124-18.2435,2.9531-22.2834,1.73C8.9578,125.17,4.9621,110.2141,11.5144,97.85Q20.7,80.0627,29.8855,62.2762A86.87,86.87,0,0,0,51.0868,77.6325a86.652,86.652,0,0,0,19.5337,7.22Zm7.23-100.9528A30.6351,30.6351,0,0,0,57.29,21.9712c-5.6372,10.0153-13.3951,24.7342-15.358,28.4649a9.7561,9.7561,0,0,1-3.6255-3.0712L52.44,19.4483A31.4576,31.4576,0,0,1,62.1763,9.6a30.4538,30.4538,0,0,1,5.3054-2.6749l2.8328-.85,2.5364,2.14A32.0808,32.0808,0,0,0,60.2581,17.5477Z"/></g></g></svg>