<svg xmlns="http://www.w3.org/2000/svg" viewBox="0 0 340.1 254.3">
  <defs>
    <linearGradient id="linear-gradient" x1="-5" y1="126.9" x2="345" y2="126.9" gradientUnits="userSpaceOnUse">
      <stop offset="0" stop-color="#fff"/>
      <stop offset="1" stop-color="#fff" stop-opacity="0"/>
    </linearGradient>
    <linearGradient id="linear-gradient-2" y1="124.9" x2="5.5" y2="124.9" gradientUnits="userSpaceOnUse">
      <stop offset="0" stop-color="#fff"/>
      <stop offset="1"/>
    </linearGradient>
    <filter id="luminosity-invert-noclip" x="-5" y="-6.1" width="350" height="266" filterUnits="userSpaceOnUse" color-interpolation-filters="sRGB">
      <feColorMatrix values="-1 0 0 0 1 0 -1 0 0 1 0 0 -1 0 1 0 0 0 1 0" result="invert"/>
      <feFlood flood-color="#fff" result="bg"/>
      <feBlend in="invert" in2="bg"/>
    </filter>
    <style>
      .cls-6{fill:none;stroke:#000;stroke-miterlimit:10}
    </style>
    <mask id="mask" x="-5" y="-6.1" width="350" height="266" maskUnits="userSpaceOnUse">
      <path fill="url(#linear-gradient)" filter="url(#luminosity-invert-noclip)" d="M-5-6.1h350v266H-5z"/>
    </mask>
  </defs>
  <g id="Layer_2" data-name="Layer 2">
    <g id="Layer_1-2" data-name="Layer 1">
      <g mask="url(#mask)" id="Layer_1-2-2" data-name="Layer 1-2">
        <g opacity=".5">
          <path d="M171.3 131.9c0-7.4-.2-14.7 0-22l.3-13.4a6.5 6.5 0 01.1-1c0-.6.3-1 .9-1 .5 0 .8.5.8 1l1 7 3 22.3a18.1 18.1 0 001.4 6.2v-8.6c.3-7.8.6-15.7.6-23.5a29.2 29.2 0 01.3-3.4c0-.5.2-1 .8-1a.8.8 0 01.7.8c.2.8.4 1.6.4 2.5a698 698 0 004.6 33.6l.3.3c0-6.5.6-12.8.6-19.1 0-5.4.2-10.8.3-16.1v-.7c.1-.5.2-1.2.8-1.2.8 0 1 .6 1 1.2l1.5 11.7c1 7.8 2 15.5 3.3 23.4 1-.5.6-1.2.6-1.8.1-4.1 0-8.3.2-12.4.4-6.5.3-13 .4-19.5a4.4 4.4 0 010-.7c.1-.7-.2-2 1-2 1 0 .8 1.1 1 1.8 1 9 2.2 17.9 3.5 26.8l1.5 9.9a5.4 5.4 0 00.2-2.3c.3-10.8.6-21.7.6-32.6a18.2 18.2 0 01.3-2.7c0-.4.2-.7.6-.8.6 0 .8.4.9.8l.8 5.8c1.3 10.3 2.7 20.5 4.5 30.8.1-3 .4-5.8.4-8.7l.4-25.8a20 20 0 01.2-2.2.8.8 0 011.5-.1l.6 3.6a603 603 0 004.3 32 397 397 0 009.1 44.6 140 140 0 0010.5 28.5c4 7.6 8.8 14.6 16 19.7a47.8 47.8 0 0015.6 7.1 104 104 0 0021.7 3.2l13.3.8c.4 0 1 0 1.3.3 1 1.6 2.5 1.2 3.9 1.2 5.3 0 10.7 0 16 .3H32a1.1 1.1 0 01-1.3-1.3v-2-45.6V73a4.6 4.6 0 01.2-2 7.5 7.5 0 01.1 2.5v102.4c0 2.8 0 5.4 1.3 8.1 1.5 3.4 2.4 7 3.8 10.5a3 3 0 00.7 1.3c.6-.5.4-1 .4-1.5.1-7.8 0-15.6.3-23.4.3-6.6.2-13.1.4-19.7 0-.9-.3-2.3 1-2.4 1.1 0 1 1.3 1.2 2.1 1 6 2.5 11.9 3.8 17.7.2.9.2 1.8 1.3 2.5 0-4-.2-8 0-12 .3-8 .3-16.1.4-24.2l.3-5.4c0-.6 0-1.4.8-1.4s1 .7 1 1.3l2 11.8c.8 5 1.8 10 2.9 14.9.4-5.1.6-10.1.6-15.2l.5-23.5a8.1 8.1 0 010-1.2c.2-.4.4-.9 1-.9.5 0 .7.5.8 1l1 6.4c1 7.7 2.2 15.4 3.7 23a1.1 1.1 0 00.6 1v-2l.7-34.9c0-.8-.3-2.2.9-2.2 1.3-.1 1.1 1.4 1.2 2.2 1.3 10.4 2.9 20.8 4.6 31.2 0 .2 0 .4.4.6l.5-20.2c0-5.7.3-11.3.4-17a8.4 8.4 0 010-.9c.1-.5.3-1 .8-1a.9.9 0 011 .9l.5 4.5c1.3 9.9 2.7 19.7 4.3 29.8a6.9 6.9 0 00.6-3.4c0-5.4 0-10.8.2-16.1.3-5.5.3-11 .4-16.6v-.6c0-.6 0-1.4.8-1.5 1 0 1 .8 1 1.4l1.9 14 3.1 21.6h.5v-16.7c.3-6.6.3-13.3.4-19.9l.1-1.1c0-.6.2-1.2.8-1.2.9-.1 1 .6 1 1.2l1.8 13.2 3.1 22.2h.5v-7.6c.6-8.4 0-16.8.7-25.2v-3.1c0-.7-.1-1.6.8-1.7 1 0 1 .9 1.2 1.6l.9 7.9q1.6 13.2 3.9 26.4a9.6 9.6 0 00.5-3.6c0-5.7 0-11.4.2-17l.3-14a6 6 0 01.1-1.2c.1-.5.3-1 .8-1 .6 0 .8.5 1 1 .6 2.1.6 4.4.8 6.6.9 7.2 1.8 14.4 3 21.6.4 2.5.4 5 1.7 7.5 0-4.1-.2-8.3 0-12.4.4-7.4.3-14.8.4-22.2 0-1-.2-2.4 1-2.4s1.1 1.3 1.2 2.1c1 9.8 2.5 19.5 3.8 29.2.2 2 .6 3.8 1 6a10.9 10.9 0 00.2-3.2l.6-24.5.3-8.3c0-.7-.2-1.6.8-1.6.9 0 1 .8 1 1.5l1.9 15c.9 6.5 1.8 13 2.9 19.5a33.5 33.5 0 00.6-8.2c0-8.4.7-16.9.6-25.3 0-1-.6-2.6 1-2.6 1.2 0 .9 1.5 1 2.4.7 5.5 1.2 11 2.1 16.6 1 6.1 1.5 12.3 3.2 18.3 0-3.3-.2-6.6 0-9.9.4-8.1.4-16.3.4-24.5a15.5 15.5 0 01.2-2.2c0-.5.3-1 .9-1 .5 0 .7.6.8 1l.8 6c1.3 10.2 2.5 20.3 4.5 30.3l.4-11.4c.2-6.9-.1-13.8.4-20.6a23.2 23.2 0 010-3.6c.2-.6 0-1.6.9-1.6s1 .8 1 1.5l1 7.2a417 417 0 003 22c.4 2.4.5 4.9 1.5 7.3v-17c0-6.3.5-12.6.4-18.8a1 1 0 010-.3c.2-.7-.2-1.9 1-2 1 0 .8 1.1 1 1.8l2.6 20.5 2.3 15.4h.4v-9c.3-8.7.5-17.4.5-26 0-1-.4-2.7 1-2.7 1.3 0 1 1.6 1.2 2.6l2.8 21.8q.8 6.2 2 12.5c.3-3.2.4-6.3.5-9.4.2-6.8.2-13.7.3-20.6l.2-5.6c0-.6 0-1.4.9-1.4.7 0 .9.8 1 1.3l.9 7.2c.9 7.5 1.8 14.9 3 22.2a66.6 66.6 0 001 6.7zM31.4 187.4H31v44.9c0 3.9 0 3.9 4 3.9h250.4a5.9 5.9 0 002.8-.3l-3.2-.6a102.4 102.4 0 01-16.7-2.8 47 47 0 01-26.7-18c-7.7-10.5-12-22.5-15.6-34.7-3-9.9-5.1-20-7-30-1.7-8.5-3.2-17.1-4.4-25.7-.5-3.5-1.3-7-1.5-10.9a5.4 5.4 0 00-.6 3c.2 8.6-.5 17-.5 25.5a8 8 0 01-.2 1.5 1 1 0 01-.8 1c-.6 0-.8-.4-1-.8a4.2 4.2 0 01-.3-.9l-2.3-14.5-2.4-15.7c-.2 8.6-.8 17.2-.8 25.8 0 1.7-.2 3.3-.3 5 0 .4-.2 1-.7 1-.7.2-1-.3-1.1-.8a4.7 4.7 0 01-.2-1l-2.2-12.9c-.9-5.4-1.6-10.8-2.4-16.3a19 19 0 00-.6 4.3c.1 8-.5 16.1-.6 24.2 0 1 .5 2.5-1 2.6-1.3 0-1.1-1.6-1.3-2.6l-2.8-17.4c-.8-4.1-.9-8.3-2-12.3 0 5.8-.3 11.6-.5 17.4l-.1 11.6a18.3 18.3 0 01-.2 2.2c0 .6-.3 1.1-1 1.1-.6 0-.8-.5-1-1a5 5 0 010-.7l-3-17c-.6-4-.8-8.3-2-12.3 0 2.6-.5 5.1-.4 7.7l-.2 19.3a10.8 10.8 0 01-.2 2.9c-.2.6-.4 1.2-1.1 1.1-.7 0-.8-.6-1-1.1l-.9-5.4q-2-11.8-3.6-23.7c0-.3.1-1-.6-1l-.1 1c0 9 0 18-.5 27.1v2c-.2.6-.4 1-1 1s-.8-.4-1-.8l-.4-2.2c-1.8-9.9-3.2-19.8-4.7-29.9a6.3 6.3 0 00-.1.8c0 9.7-.5 19.3-.6 29v1.8c-.1.6-.2 1.3-1 1.4-.8 0-1-.6-1-1.2-.4-1.1-.6-2.2-.8-3.3-1.6-9.3-3-18.6-4.3-27.8l-.6 25.3c0 1.9-.2 3.7-.3 5.6 0 .6-.1 1.3-1 1.4-.7.1-.9-.5-1-1.2l-.5-2.4q-2.3-13.7-4.3-27.4l-.5 7.8c-.1 7-.1 13.8-.5 20.6 0 1 .4 2.4-.8 2.6-1.5.2-1.3-1.5-1.5-2.4-1.3-7.6-2.4-15.3-3.8-23-.3-2.2 0-4.4-1-6.5.1 9-.7 18-.6 27.1l-.1 2.8c0 .8 0 2-1.2 2-1 0-1-1.2-1.1-2l-3.2-19.2-1.4-10.2-.6 9.5c-.2 6.6-.2 13.1-.6 19.7 0 .8.4 2.1-.8 2.3-1.3 0-1.1-1.3-1.3-2-1.5-8.4-2.9-16.7-4-25.1a10.1 10.1 0 00-.8-3.8 1.8 1.8 0 00-.3 1c.2 9-.6 18-.5 27.1a13.9 13.9 0 010 1.6c-.1.6-.3 1.3-1 1.3-.8 0-1-.6-1.2-1.2a7 7 0 01-.1-.9l-2.4-14.7c-.9-5-1.2-10-2.4-15.2-.2 8.6-.7 16.8-.6 25l-.1 5.7c0 .7-.2 1.5-1 1.5-1 0-1-.7-1.2-1.4l-1.4-7.8-3.3-21.8c-.3 2.6-.7 5.1-.7 7.7 0 7.3.2 14.5-.4 21.8 0 .7.2 1.6-1 1.7-.8.1-.9-.8-1-1.4-1.3-6.5-2.4-13-3.2-19.4a49.8 49.8 0 00-1.5-8.4c-.8.6-.6 1.2-.6 1.8 0 8.3 0 16.7-.5 25.1 0 1 .5 2.7-1 2.8-1.3 0-1.1-1.7-1.3-2.6-1.9-9.8-3.2-19.7-4.8-30v1.3c0 9.5-.7 18.9-.6 28.3a22.7 22.7 0 01-.2 2.7c0 .6-.3 1.1-.9 1.2-.7 0-.9-.5-1-1a8.5 8.5 0 01-.3-1.1l-2.2-13c-.9-5.3-1.6-10.7-2.4-16 0 4.9-.7 9.8-.6 14.7 0 5.3-.4 10.5-.5 15.8 0 .7.1 1.7-1 1.8-1 0-1-1-1-1.7l-1.1-6-2.8-16-.7-6a27.3 27.3 0 00-.6 5.5c0 7.9-.5 15.7-.6 23.6 0 1 .4 2.4-.9 2.5-1.4.1-1.2-1.4-1.4-2.4L73 131c-.8-4-.8-8-2-11.8-.1 5.7-.1 11.5-.5 17.3-.2 4-.1 8.2-.1 12.3a14 14 0 01-.4 2.9c0 .4-.2 1-.7 1-.7 0-1-.5-1.1-1L68 150l-2.6-14.7c-.8-3.6-.8-7.3-2-10.8-.1 2.6-.5 5.2-.5 7.8 0 7.7-.4 15.4-.5 23.1a10.2 10.2 0 01-.2 1.8.8.8 0 01-1.5.2 6.3 6.3 0 01-.4-1.3c-1.2-6.3-2.6-12.6-3.5-19l-1.1-6.1a.8.8 0 00-.5.9c0 6.7-.1 13.4-.4 20.1-.2 4-.1 8-.2 12 0 .9.2 2-.9 2.1-1.2.2-1.1-1-1.3-1.7l-1-4.9c-1.5-6.3-2.7-12.6-3.9-19l-.4 16.3c-.3 6.6-.2 13.1-.3 19.7a17.3 17.3 0 010 2c-.1.6-.3 1.2-1 1.2-.7.2-1-.5-1.1-1l-1.5-5.3-3.4-14c-.6 7.3-.6 14.1-.6 21 0 6.4-.3 12.8-.4 19.2 0 .8.1 1.7-.9 1.9-.8 0-1-.8-1.3-1.4-1-2-1.8-4.1-2.6-6.2l-2.5-6.5zM318.5 250.7v-1.2c.2-2 1.3-3.3 2.8-3.3 1.4 0 2.4 1.1 2.7 3a6.5 6.5 0 01-.1 2.7 2.7 2.7 0 01-2.5 2.3 2.8 2.8 0 01-2.7-2.3 6.2 6.2 0 01-.2-1.2zm1.3-.7v1.4c.2.9.4 1.7 1.4 1.8 1.1 0 1.4-.8 1.5-1.6a7.6 7.6 0 00.2-1.6c0-1.8-.7-3-1.6-2.8-1.6.3-1.4 1.7-1.5 2.8zM226.9 250.1v-.7c.2-2 1.2-3.2 2.7-3.2 1.5 0 2.5 1.2 2.8 3a6 6 0 01-.3 3 2.6 2.6 0 01-5-.3 14.8 14.8 0 01-.3-1.8zm4.2 0a16 16 0 00-.2-1.6c-.1-.7-.5-1.2-1.3-1.3-.8 0-1.2.5-1.4 1.2a5.8 5.8 0 000 3.8 1.3 1.3 0 001.4 1 1.3 1.3 0 001.3-1.1 16 16 0 00.2-2zM281.7 250.1l-.3 1.8a2.7 2.7 0 01-2.7 2.3c-1.4-.1-2.1-1-2.5-2.3a6 6 0 01.1-3.8 2.4 2.4 0 012.5-1.9 2.6 2.6 0 012.5 2 18.4 18.4 0 01.4 2zm-4.5 0l.1 1.6a1.6 1.6 0 001.4 1.5c1 0 1.3-.7 1.5-1.4a7.1 7.1 0 00.2-1.8c0-1.8-.7-3-1.6-2.8-1.7.3-1.5 1.7-1.6 3zM225.7 250.1v.2c0 2.5-1.1 4-2.9 3.9-1.6 0-2.7-1.6-2.7-4s1-4 2.8-4c1.7 0 2.7 1.4 2.8 3.9zm-4.3.4a11.7 11.7 0 00.2 1.3 1.5 1.5 0 001.3 1.4c.8 0 1.2-.5 1.4-1.2a5.7 5.7 0 00-.2-4 1.3 1.3 0 00-1.2-.8 1.3 1.3 0 00-1.2.9 5.7 5.7 0 00-.3 2.4zM183.3 250.2l-.3 1.8a2.6 2.6 0 01-2.5 2.2c-1.5 0-2.2-.9-2.6-2.1a6 6 0 010-3.8 2.5 2.5 0 012.4-2 2.6 2.6 0 012.6 2 17 17 0 01.4 1.9zm-1.3.1a12 12 0 00-.2-1.6c-.1-.8-.5-1.5-1.4-1.5-.9 0-1.3.7-1.4 1.5a9.1 9.1 0 000 3.2 1.5 1.5 0 001.3 1.3c.9 0 1.3-.5 1.5-1.2a11 11 0 00.2-1.7zM12.5 180c0 2.6-1 4-2.8 4-1.7 0-2.8-1.4-2.8-3.9a8 8 0 010-.9c.3-1.9 1.3-3 2.8-3s2.5 1 2.8 3v.8zm-1.3.3c0-2.2-.3-3-1.4-3-1.1 0-1.7 1-1.7 2.9 0 1.7.5 2.7 1.5 2.8 1.1 0 1.5-.7 1.6-2.7zM7 207.8c0-2.4 1-3.9 2.7-3.9 1.7 0 2.8 1.4 2.8 3.9a7.3 7.3 0 010 .9c-.3 1.9-1.2 3-2.7 3-1.6 0-2.7-1.1-2.8-3.2v-.7zm4.2.3v-.6c-.1-1.1.1-2.6-1.5-2.5-1.6 0-1.4 1.4-1.6 2.5a1.2 1.2 0 000 .2c0 1.9.6 3 1.6 3 1.8-.2 1.3-1.7 1.5-2.6zM140.4 250.2c0 2.5-1 4-2.7 4-1.8 0-2.9-1.5-2.8-4.1 0-2.5 1-4 2.8-3.9 1.7 0 2.7 1.5 2.7 4zm-1.1.2c0-1.9-.6-3.1-1.5-3.2-1-.1-1.9 1.3-1.8 3.2 0 1.6.7 2.8 1.7 2.8s1.5-1 1.6-2.8zM125 250.6c0-2.7 1.2-4.4 2.8-4.4 1.7 0 3 1.7 2.9 4.1a7.7 7.7 0 01-.3 1.8 2.6 2.6 0 01-2.6 2 2.5 2.5 0 01-2.5-2 10.7 10.7 0 01-.3-1.5zm4.4-.5c0-2-.6-3-1.6-2.9-1.6.3-1.5 1.7-1.5 2.8 0 2.2.5 3.3 1.6 3.2 1 0 1.5-1 1.5-3zM325.3 250.1c0-2.5 1-3.9 2.7-3.9 1.6 0 2.8 1.6 2.8 4 0 2.3-1 4-2.7 4-1.8 0-2.9-1.4-2.8-4zm4.2-.2a10.4 10.4 0 00-.2-1.4 1.5 1.5 0 00-1.3-1.3 1.4 1.4 0 00-1.4 1.2 5.7 5.7 0 00.1 4 1.3 1.3 0 001.3.8 1.4 1.4 0 001.2-.9 5.8 5.8 0 00.3-2.4zM88 250.2c0 2.4-1.2 4-2.8 4-1.7 0-2.8-1.6-2.9-4 0-2.2 1.1-4 2.7-4 1.8 0 3 1.6 3 4zm-4.4-.2c0 2.2.5 3.3 1.7 3.2 1 0 1.5-1.2 1.4-3.1 0-1.8-.6-3-1.5-3-1 0-1.5 1-1.6 3zM78 250.3l-.2 1.6a2.6 2.6 0 01-5.1.2 6 6 0 010-4 2.6 2.6 0 015 .3c.2.6.2 1.3.3 1.9zm-1.2-.1c0-2-.5-3-1.6-3-1 0-1.5 1-1.5 3s.5 3 1.5 3 1.6-1 1.6-3zM22.4 69.3l-.1 1.3c-.4 1.8-1.4 2.8-2.8 2.8-1.5 0-2.5-1.2-2.6-3.2a11.3 11.3 0 010-2.2c.3-1.7 1-2.4 2.5-2.4 1.5-.1 2.3.5 2.8 2.1a16 16 0 01.2 1.6zm-1.3 0v-.7c0-1-.2-2.1-1.5-2.1s-1.5 1-1.6 2v.7c-.1 2 .5 3.2 1.6 3.1 1 0 1.5-1 1.5-3zM16.9 152.3a15 15 0 01.1-1.7 2.4 2.4 0 012.4-2 2.4 2.4 0 012.7 1.9 6.3 6.3 0 010 3.8 2.6 2.6 0 01-2.8 2A2.6 2.6 0 0117 154l-.1-1.7zm4.2.2v-.7c0-1-.1-2.3-1.6-2.2-1.4 0-1.5 1.3-1.6 2.3v.5c0 2 .6 3 1.7 3 1 0 1.5-.8 1.5-2.9zM16.9 235.8c0-3 1-4.3 2.7-4.2 1.8 0 2.8 1.5 2.8 4a7 7 0 01-.3 1.7 2.5 2.5 0 01-2.8 2A2.5 2.5 0 0117 237a11.4 11.4 0 01-.1-1.2zm4.2-.4v-1.1c-.1-1-.4-1.7-1.5-1.7a1.6 1.6 0 00-1.6 1.5v.1a12.6 12.6 0 000 2.5c0 .9.5 1.6 1.5 1.7 1.2 0 1.5-.9 1.6-1.9v-1zM33.8 250.3v.2c-.2 2.3-1.3 3.7-2.9 3.7-1.6 0-2.6-1.4-2.7-3.7a6.1 6.1 0 01.3-2.5 2.6 2.6 0 012.4-1.8 2.4 2.4 0 012.4 1.7 5.5 5.5 0 01.5 2.4zm-1.3 0q0-3-1.6-3.1c-1 0-1.6 1.1-1.6 3 0 1.2 0 2.6 1.5 3 1 .2 1.6-1 1.7-3zM118.4 250.7v-.7c0-2.5 1-3.8 2.8-3.8 1.6 0 2.7 1.5 2.7 3.8a7.9 7.9 0 01-.4 2.2 2.4 2.4 0 01-2.4 2 2.5 2.5 0 01-2.5-2.1 9.5 9.5 0 01-.2-1.4zm1.1-.4v.4c0 1.6.7 2.7 1.7 2.5 1.3-.2 1.4-1.3 1.4-2.4v-.5c0-2-.5-3.2-1.6-3.1-1 0-1.5 1.1-1.5 3zM92.4 246.3c1 0 1.2.5 1.3 1v2.7c0 .7-.2 1.4.5 2 1 .8-.5 1-.6 1.6-.3.9-.8.2-1.1-.2-.6-.8-1.5-.4-2.3-.5-.8-.1-1.5-.3-1.1-1.2a28.4 28.4 0 012.9-5l.4-.4zm-2.2 5.5c2.6 0 2.9-.6 2-3.5a11.6 11.6 0 00-2 3.5zM143.5 254c.6-1.2 1.7-1.7 2-2.8-.3-.5-.7-.2-1-.2-1.5 0-2.6-.8-2.7-2a2.7 2.7 0 015.1-1c1 2.2-.6 5.1-3.4 6zm2.4-5.4c0-.8-.5-1.4-1.3-1.4-1 0-1.5.5-1.5 1.5a1.3 1.3 0 001.4 1.4c1 0 1.3-.6 1.4-1.5zM.9 99.6c.5-.4 1 .2 1.4.3a1.5 1.5 0 001.6-.3 1.7 1.7 0 00.2-2 1.2 1.2 0 00-1.5-.6c-1.1.3-2 .6-2-1 0-2.2.3-2.7 2-2.8a3.8 3.8 0 012.2.3c-.2.8-1 .6-1.5.6-.8.1-1.5.3-1.5 1.3 0 1.2 1 .5 1.5.6a2.4 2.4 0 012.3 2.3 2.7 2.7 0 01-2 2.6c-1.3.4-2 0-2.7-1.3zM3.6 65.7c-.3 1.2-1.6 1.6-1.5 2.8.4.3.9.2 1.3.2C5 69 5.8 70 5.6 71.2a2.6 2.6 0 01-3 2.1 2.7 2.7 0 01-2.1-1.7c-.9-2.1.5-5 3.1-6zm.7 5.2A1.3 1.3 0 003 69.5 1.3 1.3 0 001.6 71 1.2 1.2 0 003 72.3c.9 0 1.3-.5 1.3-1.4zM20.4 93.4c-.5 1.1-1.6 1.5-1.6 2.6.2.6.7.4 1.1.4a2.1 2.1 0 012.3 1.5 2.2 2.2 0 01-1 2.6 2.6 2.6 0 01-2.9.2 2.8 2.8 0 01-1.4-2.4 4.5 4.5 0 013.5-5zm-.8 3.8c-.8.1-1.5.5-1.5 1.3 0 1 .6 1.5 1.5 1.5a1.2 1.2 0 001.4-1.4 1.4 1.4 0 00-1.4-1.4z"/>
          <path d="M4.2 128.8c-.5-1.6-1.7-1.4-2.8-1.4-1.5-.1-1.7-.4-1-1.6.6-1.4 1.5-2.8 2.3-4.1a1.2 1.2 0 011.4-.7c.6.1.6.7.7 1.2.2 1.5-.4 3.1.6 4.6.3.4-.6 1.2-1.2 2zM1.5 126c2.3.3 2.7-.4 1.8-3.3a12.8 12.8 0 00-1.8 3.3z" fill="url(#linear-gradient-2)"/>
          <path d="M12.6 100.5c-1.9.9-3.4.5-5 .3C10.4 99.4 9 97 9.2 95h-.5c-.5.2-1 1.4-1.6.6-.4-.5.4-1 .8-1.5a1.7 1.7 0 012-.6c.7.3.6 1 .6 1.6v2.4c0 1.3-.4 2.9 2 3.1zM335 252.6c1.5 0 3 1.7 3.7-.3.6-1.5-1.1-1.4-2-2 .6-1 2.7-.8 1.8-2.5-.4-.8-.9-.7-2.8 0a1.8 1.8 0 012.5-1.5c1.3.3 2 1.3 1.6 2.5a3.1 3.1 0 00.2 2.6c.5 1.2-.2 2-1.3 2.5-1.4.7-2.6.3-3.7-1.3zM111.8 248.6a2.3 2.3 0 01.3-.7c.7-.8 1.3-2 2.5-1.5 1.1.4.6 1.7.7 2.6a11.8 11.8 0 010 2c-.1 1.3 0 2.4 1.7 2.7a7.4 7.4 0 01-5.2.1c3.8-1.2 1.5-3.8 2.3-5.7-1-.3-1.3 1-2.3.5zM264.4 253c1.1.6 2.2 0 3.2.7-1.4 1-2.9.6-4.3.4-.6-.1-.6-.8-.2-1.3l1.8-1.7a4.8 4.8 0 001.2-1.6 1.7 1.7 0 00-.2-2c-.7-.6-1.3-.3-1.9.2-.2.2-.5.6-1 .4a2 2 0 012.6-1.9 2.3 2.3 0 012 2.6v.2a4.1 4.1 0 01-1.3 2l-2 2zM238.6 253c1.1.6 2.2 0 3.2.8-1.4.8-2.9.5-4.2.3-.8 0-.8-.8-.3-1.3l1.8-1.8a4.5 4.5 0 001.2-1.6 1.7 1.7 0 00-.2-1.9c-.6-.6-1.2-.3-1.8.1-.4.3-.8 1-1.2.2-.3-.6.3-1 .8-1.2a2.8 2.8 0 013.3.4 2.2 2.2 0 010 3.1c-.7 1-1.6 1.9-2.6 3zM175.8 246.6c-.5.6-1 .5-1.6.5-.8 0-1.6 0-1.6 1 0 1.1.8 1 1.4 1 1.9.4 2.7 1.6 2.2 3.3a2.7 2.7 0 01-4.1 1.4c-.4-.2-.9-.5-.5-1 .2-.5.6-.1 1 0a1.8 1.8 0 001.2.4 1.5 1.5 0 001.3-1.7 1.5 1.5 0 00-1.8-1.5c-1.8.3-1.8.3-1.8-1.4 0-2.6 1-3 4.3-2zM187.8 248.7c-.3-.7.2-1 .5-1.3.5-.5 1-1.4 2-1 1 .2.8 1.2.8 2a21 21 0 010 3c-.1 1.2.3 2 2.1 2.2a6.6 6.6 0 01-5.2.3c3-1.4 1.3-3.8 1.8-5.6-1-.6-1.2.7-2 .4zM313.4 250c.9-.5 2.4-.5 1.8-2-.6-1.7-1.8-.3-2.9-.2.8-1.5 1.8-2 3-1.4a2 2 0 011.2 2.8c-.2.5-.5.8-.3 1.4.8 2 .6 2.6-.6 3.3-1.3.7-2.4.4-3.7-1 .5-.7 1 0 1.4.1 1 .4 1.8.4 2.2-.7.3-1-.5-1.4-1.4-1.6-.3 0-.6-.1-.7-.7zM274.3 246.6a2.5 2.5 0 01-2 .5c-.7 0-1.3.2-1.3 1.1 0 .9.6.9 1.2 1 2.1.4 3 1.8 2.2 3.5a2.8 2.8 0 01-4.2 1c-.2-.3-.5-.5-.3-.9.1-.3.4-.3.7-.1a1 1 0 01.2 0c.9.7 1.7.8 2.4-.1a1.6 1.6 0 000-2c-.6-1-1.4-.8-2.3-.2a.7.7 0 01-.8 0c-.7-.6 0-4 .7-4.1a5 5 0 013.5.3zM12.6 155.9a3.6 3.6 0 01-2.4.5 6.5 6.5 0 01-2.8-.3c2.9-1.3 1.7-3.6 2-5.4-1-.6-1.3.7-2 .4a.4.4 0 01-.2-.6 6.7 6.7 0 01.7-1c.5-.6 1.2-1.2 2-.8.9.3.7 1.1.7 1.8a18.2 18.2 0 010 2.5 2.3 2.3 0 002 2.9zM66 253c1-.6 1.4 0 1.8.1a1.4 1.4 0 001.8-.5 1.7 1.7 0 000-2 1.3 1.3 0 00-1.6-.6c-1.5.8-1.7 0-1.7-1.1 0-2.9 1.4-3.6 4.2-2.2-.4.6-1 .4-1.6.4-.7 0-1.4 0-1.5 1 0 1 .6 1 1.3 1a2.3 2.3 0 012.5 2.1v.1a2.5 2.5 0 01-1.7 2.7 2.7 2.7 0 01-3.5-1zM287.7 253.1c1.2.4 2.3 0 3.2.4-.9.8-3.8 1-4.5.5a.7.7 0 010-1.2l1.6-1.5a6.1 6.1 0 001.5-1.7 1.6 1.6 0 00-.2-2 1.3 1.3 0 00-1.8 0c-.4.3-.8.9-1.2.3-.4-.5.2-1 .6-1.2a2.8 2.8 0 013.4.2 2.5 2.5 0 01.1 3.3 37.8 37.8 0 01-2.7 3zM213.8 248a2.2 2.2 0 012.5-1.8h.2a2.2 2.2 0 011.9 2.5 3.9 3.9 0 01-1.4 2.5l-1.7 1.9c1 .5 2.2-.2 3.3.7a7 7 0 01-4.4.3c-.7-.1-.8-.7-.4-1.2l1.2-1a9.8 9.8 0 001.8-2 1.7 1.7 0 000-2.3c-.7-.7-1.4-.4-2 .1-.3.3-.6.6-1 .3zM9.3 122.5c-1 0-1.1 1.2-2 .8-.3-.8.4-1.1.8-1.6a1.6 1.6 0 011.8-.7c.8.3.7 1 .7 1.7v2.2c0 1.4-.2 3 1.8 3.4-1.7.7-3.2.4-4.8.2 2.9-1.4 1.4-3.9 1.7-6zM.6 149.9a2.5 2.5 0 013.4-1 1.8 1.8 0 01.9 2.6 1.4 1.4 0 000 1.6 1.8 1.8 0 01-.7 2.9c-1.5.8-2.7.5-3.8-1 .6-.5 1 .2 1.6.3.8.1 1.7.2 2-.9.2-.9-.4-1.3-1.2-1.5-.3-.1-.6 0-.9-.5.6-.7 2.5-.6 1.8-2.2-.7-1.5-2 0-3-.3zM18.6 124.6c.6-.6 2.4-.5 1.7-2-.6-1.5-2-.3-3-.4a2.5 2.5 0 013.4-1 1.8 1.8 0 01.8 2.7c-.2.4-.7.7-.2 1.2a1.8 1.8 0 01-.2 3 3 3 0 01-3.6.2 1 1 0 01-.6-.8c.7-.7 1.1 0 1.7.1.7.2 1.6.2 1.9-.7.3-1-.2-1.6-1.2-1.8-.3 0-.6 0-.7-.5zM5.5 211.5a9.6 9.6 0 01-4.7 0c2-1.5 2-1.8 1.6-5.6-.8-.5-1 .8-2 .4a2.9 2.9 0 011.8-2.2c.8-.4 1.5-.1 1.6.9v3c0 2.2 0 2.2 1.7 3.5zM.6 178a2.4 2.4 0 013.5-1.5 2.3 2.3 0 01.7 3.5 28.8 28.8 0 01-2.4 2.7c.8.9 2.2-.1 3 1a11 11 0 01-4.3.3c-.8 0-.8-.7-.4-1.1l2-2a9.4 9.4 0 001-1.3 1.5 1.5 0 00.1-2 1.5 1.5 0 00-2 0c-.3.1-.5.5-1.2.4zM7.3 67.3a2.4 2.4 0 013.4-1.6 2.3 2.3 0 011 3.2c-.5 1.3-1.8 2-2.5 3.1.9.8 2.1 0 3 1-1.5.7-3 .4-4.4.3-.7 0-.8-.6-.3-1.1.5-.7 1.1-1.2 1.7-1.8a11.5 11.5 0 001.3-1.5 1.5 1.5 0 000-2 1.4 1.4 0 00-2 0 1 1 0 01-1.2.4zM16.7 210.1c1.5.2 3 1.5 3.7-.2.7-1.4-.9-1.5-1.9-2 1-.6 2.4-.9 1.9-2.3-.6-1.5-2-.2-3-.4 1-1.4 2.1-1.7 3.3-1a1.8 1.8 0 01.8 2.7 1.2 1.2 0 00-.1 1.4c1 2 0 3.5-2.4 3.4a2.5 2.5 0 01-2.3-1.6zM169.6 253.7c-1.7.8-3.2.6-5.2.2 3.6-1.3 1.6-3.8 2.2-5.8-1-.3-1.2.9-2 .5-.3-.7.3-1 .7-1.4.4-.5.9-1.1 1.7-.9.9.3.6 1.1.7 1.7v2.8c0 1.3-.3 2.7 1.9 3zM18.7 184c-.5-1 .2-1.8.5-2.6.2-.8.6-1.5.9-2.3.2-.6.9-1.3 0-1.8a1.5 1.5 0 00-2.1.5c-.2.2-.2.5-.6.5-.6-1.7-.5-2 1-2 4.2-.2 4.3 0 2.7 3.4-.7 1.4-1 3.1-2.4 4.4zM15.4 72.5c-.1.5-.3.8-.7.7a.6.6 0 11.7-.7zM133.4 253.3a.6.6 0 01-.6.7.6.6 0 01-.6-.5.6.6 0 01.6-.8c.3 0 .5.2.6.6zM186 253.5c-.1.3-.4.6-.8.5a.6.6 0 01-.4-.8.6.6 0 01.6-.5.7.7 0 01.6.7zM235.1 253.4a.6.6 0 01-.5.6.6.6 0 01-.1 0 .6.6 0 01-.6-.5.6.6 0 01.6-.8c.4 0 .6.2.6.7zM284.4 253.3a.6.6 0 01-.7.7.6.6 0 01-.6-.7.6.6 0 01.6-.6.6.6 0 01.7.6zM333.5 253.3c0 .4-.1.7-.6.7a.7.7 0 01-.1-1.3c.4 0 .6.2.7.6z"/>
        </g>
        <g opacity=".6">
          <path class="cls-6" d="M220.8 26.6H115.3M92.4 26.6H38.6M219.3 6.9c0-2.8-1.9-5-4.4-2.7-.9.9-.8 4.7 0 5.7 2.2 3 4.5-.2 4.4-2.8M56 31.4h-5.6l-.2 5c10.8-3 6 11-.5 4.2M95.2 17.3c4.4 5.5 4.4 12 0 17.6M313.3 17.3c4.4 5.5 4.4 12 0 17.6M35.7 17.8c-4.9 3.6-4.7 13 0 16.5M191.7 8.5h-17.2M194.2.4c5 3 4.6 12.7 0 15.8M276.3 20.3h-16.8M171.6.4c-5 3.1-3.8 13.7 0 15.8M256.3 12.3c-4.6 3.5-4.4 12.3.3 15.7M164.8 30.2a10.6 10.6 0 000 15.8M187.4 30.2c4.6 3.3 4.5 12.1 0 15.6M184.2 38h-16.5M280 12.6c3.5 4.6 3.4 12.6-1.2 15.4M241.2 17.3c-3.7 5-5 12-.2 16.8M152.4 43.5h5.8c.5-3-1.9-5.1-4.5-3.3-3.8 3.7-1.3 10 4.3 6.5M150.8 17.1c-2.8 2-6.5 1.4-5.7-3h5.9c.3-2.6.1-3-2.4-4-1.8.6-3.4 1.4-3.3 3.8M249.4 29.3c-2.8 2-6.5 1.4-5.7-3h6c.3-2.7 0-3-2.5-4-1.7.6-3.4 1.4-3.3 3.8M178.4 1.3h-3v2.5c.9-.2 1.6-.1 2.1-.7l1.8 1.8c-1.7 1.5-2.2 2.7-4 1M178.4 10.3h-3v2.5c.9-.3 1.6-.2 2.1-.7l1.8 1.7c-1.7 1.6-2.2 2.8-4 1M263 22.1h-2.8l-.2 2.6 1.8-.5c3.2 1.8.4 5-1.8 2.6M263 13.2h-2.8l-.2 2.5 1.8-.4c3.2 1.7.4 4.9-1.8 2.5M205.7 6.9l2.4-.5c2.4-5.5-7-3.1-2.8.3M200.7 36.5c4-3.2-4.2-5.8-3.2-.8.8.5 1.5 1.5 2.8 1"/>
          <path class="cls-6" d="M198.5 36.8l-1.5 1.8c1.2 2.5 2.1 2.8 4.7 1.4 0-1.1.5-2.4-1-3.2M127.5 37.4l.2 10M120.7 7.6v10.6M43.6 8l.2 10M306.8 20.3h3.6c.5-1.6-.5-2.1-1.5-2.5-3.2 1-3.7 5.2-.4 5.8l2-1M205.3 7c-1.4.7-1 2-1 3.1 2.3 1.6 3.6 1.3 4.7-1.3l-1.5-1.7M303 23.7c0-2 2-5.1-.8-6l-2 1.2M164.5 10.8c.4-1.8 1.7-6.8-2-5l-1-.3M145 42.4h-7.4M138 13.3h-7.3M290.7 16.2c-1.4 1.3-.9 4-1.5 5.7a1.2 1.2 0 001.1 1.7M293.6 18c-.5 1.9-.3 4-1.5 5.6M159 7.2l-5.7.2M296.4 18.5a17.3 17.3 0 01-1.4 5M161.6 6.2a17.3 17.3 0 01-1.4 4.8M171.6 39.7h-3v2.4l1.8-.3a1.8 1.8 0 01-.5 3.5l-1.9-1.1M171.6 30.7h-3v2.4l1.8-.2a1.8 1.8 0 01-.5 3.5l-1.9-1.2M296.4 18c4.8 0 3.4 1.7 2.9 5.4M46.8 18.4h-6.4M130.7 47.8h-6.4M124 18.7h-6.5M43.7 7.4c-1 .8-2.7.7-3.1 2.4M127.6 36.8c-1 .8-2.7.7-3.1 2.4M120.2 8.1l-2.4 1.3M288.5 17.8h2.9M273.8 13c-2.1 1-1.7 3.1-1.2 5 2.9 2.9 4-3.5 1.4-5M76.8 31.3c-3.8 1-3.6 11.4.9 11 5 .2 4.8-12.3-.7-11M182 30.6c-2.4.3-2.2 5.7.2 5.7 2.4-1.5 2.4-4.4 0-5.7M174.9 30.6c-2.2 1-1.8 3.1-1.2 5 2.8 2.9 4-3.5 1.3-5M189.2 1.1c-2.1 1-1.8 3.2-1.2 5 2.9 3 4-3.4 1.4-5M273.8 22c-2.1 1-1.7 3.1-1.2 5 2.9 2.9 4-3.5 1.4-5M266.3 22c-2.4.3-2.2 5.7.1 5.7 2.5-1.5 2.5-4.4 0-5.8M174.9 39.5c-2.2 1-1.8 3.2-1.2 5 2.8 3 4-3.5 1.3-5M182 39.5c-2.4.4-2.2 5.7.2 5.8 2.4-1.5 2.4-4.4 0-5.8M62 7.2c-3.7 1-3.5 11.4 1 11.2 5 0 4.8-12.4-.7-11.2M52.4 7.2c-4 1.2-3.7 12.6 1.8 11.2a7.3 7.3 0 000-11.2h-1.6M209.3 32.9c-2.9 1.8-2.6 10 2 7.3 1.5-1.9 1.4-7.1-1.8-7.3M62 31.3c-3.7 1-3.5 11.4 1 11 5 .2 4.8-12.3-.7-11M181.7 10.1c-2.5.4-2.3 5.7.1 5.8 2.4-1.5 2.4-4.4 0-5.8M266.3 13c-2.4.3-2.2 5.7.1 5.7 2.5-1.5 2.5-4.3 0-5.7M181.7 1.1c-2.5.4-2.3 5.8.1 5.8 2.4-1.5 2.4-4.4 0-5.8M86.5 7.2C83 8.4 82.8 18 87 18.4c5.4.8 5.4-12.6-.4-11.2M71.8 7.2c-3.5 1.2-3.7 10.8.5 11.2 5.4.8 5.4-12.6-.4-11.2M189.2 10.1c-2.1 1-1.8 3.2-1.2 5 2.9 3 4-3.5 1.4-5"/>
        </g>
      </g>
    </g>
  </g>
</svg>