<svg xmlns="http://www.w3.org/2000/svg" viewBox="0 0 404.93 86.07"><defs><style>.cls-1{fill:#231f20;}</style></defs><g id="Layer_2" data-name="Layer 2"><g id="Layer_1-2" data-name="Layer 1"><path class="cls-1" d="M.36.74H15q9,0,13.35,2.48a23.13,23.13,0,0,1,7.87,7.84q3.48,5.35,3.48,13.55,0,10.31-6.08,17.21T16.86,48.73H.36Zm11,8.82V39.69H16q6.13,0,9.12-4.59a19.31,19.31,0,0,0,3-10.77,19.17,19.17,0,0,0-1.7-8.07,11.24,11.24,0,0,0-4.23-5.2,11.68,11.68,0,0,0-6.07-1.5Z"/><path class="cls-1" d="M69,.74l15,48H71.91l-3-9.88H53.44l-3,9.88H40.57L56,.74ZM56.14,30H66.3l-5-16.84Z"/><path class="cls-1" d="M122.52.74,108,48.73H95.94L81.53.74h12l9.6,34.31L113.1.74Z"/><path class="cls-1" d="M138.06.74v48H126.85V.74Z"/><path class="cls-1" d="M147.7.74h14.64q9,0,13.35,2.48a23.13,23.13,0,0,1,7.87,7.84Q187,16.42,187,24.61q0,10.31-6.08,17.21T164.2,48.73H147.7Zm11,8.82V39.69h4.64q6.13,0,9.12-4.59a19.31,19.31,0,0,0,3-10.77,19.17,19.17,0,0,0-1.7-8.07,11.24,11.24,0,0,0-4.23-5.2,11.68,11.68,0,0,0-6.07-1.5Z"/><path class="cls-1" d="M249.44.74v48h-11V28.93h-15v19.8h-11V.74h11v18.7h15V.74Z"/><path class="cls-1" d="M270.29.74v48H259.07V.74Z"/><path class="cls-1" d="M318.63,18.6l-11.78.74q-.25-10.17-7.93-10.16-8.81,0-8.81,15.64,0,9,2.4,12.25a7.86,7.86,0,0,0,6.69,3.22q7,0,8.53-9.07l10.9.67Q317.57,40.5,312.21,45a21.52,21.52,0,0,1-28.62-2.09q-6-6.57-6-18.18,0-10.86,5.77-17.78T299.15,0Q316.45,0,318.63,18.6Z"/><path class="cls-1" d="M336.13.74V23.28L351.18.74h10.76L350.41,17.87l14.41,30.86H352.44l-9.57-20.84-6.74,9.83v11h-11V.74Z"/><path class="cls-1" d="M403.63,11.29l-9.56,3.19q-1.94-5.69-8.17-5.69c-4.44,0-6.67,1.44-6.67,4.32A3.9,3.9,0,0,0,380.48,16q1.25,1.2,5.64,2.08a55.15,55.15,0,0,1,10.74,3A13.77,13.77,0,0,1,402.6,26a12.81,12.81,0,0,1,2.33,7.5,15,15,0,0,1-5,11.25q-5,4.74-14.84,4.74a22.57,22.57,0,0,1-12.56-3.35,16,16,0,0,1-6.83-10l10.41-2.35q1.75,6.7,9.75,6.71,3.86,0,5.75-1.49a4.43,4.43,0,0,0,1.9-3.57,3.71,3.71,0,0,0-1.72-3.27c-1.15-.78-3.36-1.5-6.64-2.18q-9.16-1.9-13.06-5.19t-3.89-9.61a14.28,14.28,0,0,1,4.65-10.8Q377.5,0,385.48,0,399.6,0,403.63,11.29Z"/><path class="cls-1" d="M0,86.07V65.62H4.15v2.24a4.06,4.06,0,0,1,4-2.56,5,5,0,0,1,4.07,2,9.16,9.16,0,0,1,1.58,5.79q0,4-1.6,6.09a5,5,0,0,1-4.15,2,3.89,3.89,0,0,1-3.7-2v6.86ZM4.37,74.21a8.53,8.53,0,0,0,.2,2.24,2.31,2.31,0,0,0,.83,1.12,2.28,2.28,0,0,0,1.38.49,2.07,2.07,0,0,0,1.65-1c.49-.63.73-2,.73-4.17,0-3-.8-4.52-2.39-4.52a2.18,2.18,0,0,0-1.65.8,3.93,3.93,0,0,0-.75,2.72Z"/><path class="cls-1" d="M21.1,60.24v7.45a4.31,4.31,0,0,1,4.13-2.39,4.93,4.93,0,0,1,2.64.67,3.73,3.73,0,0,1,1.55,1.73,8.34,8.34,0,0,1,.44,3.11V80.9H25.35V72.28a12.25,12.25,0,0,0-.12-2.12,1.67,1.67,0,0,0-.55-1,1.52,1.52,0,0,0-1.08-.39,2.67,2.67,0,0,0-1.67.66c-.55.44-.83,1.37-.83,2.81V80.9H16.73V60.24Z"/><path class="cls-1" d="M46.92,80.9H42.55a10.93,10.93,0,0,1-.21-2.39,6.26,6.26,0,0,1-2.29,2.17,6,6,0,0,1-2.59.54A5.07,5.07,0,0,1,34,80.06a4,4,0,0,1-1.32-3.14,4.79,4.79,0,0,1,.77-2.65,5.1,5.1,0,0,1,2.47-1.9,24.06,24.06,0,0,1,6.23-1v-.88a2,2,0,0,0-2.22-2.22,2.33,2.33,0,0,0-2.64,2.22l-4.16-.39a4.69,4.69,0,0,1,2.47-3.69,9.74,9.74,0,0,1,4.66-1.09,11.61,11.61,0,0,1,2.94.36,4.91,4.91,0,0,1,2.14,1.09,3.79,3.79,0,0,1,1.05,1.54,10.08,10.08,0,0,1,.27,2.82V78A10.62,10.62,0,0,0,46.92,80.9Zm-4.78-7.32q-4.72.47-4.72,2.86a2,2,0,0,0,.5,1.38,1.75,1.75,0,0,0,1.41.59,2.46,2.46,0,0,0,2-1A3.72,3.72,0,0,0,42.14,75Z"/><path class="cls-1" d="M54.75,80.9H50.38V65.62h4.13v2.84q.95-3.18,3.3-3.18c.22,0,.49,0,.81,0v4.45a4.51,4.51,0,0,0-2.14.42,3.1,3.1,0,0,0-1.25,1.52,7.55,7.55,0,0,0-.48,3Z"/><path class="cls-1" d="M83,80.9H78.47V72.44a15.32,15.32,0,0,0-.11-2.32,1.43,1.43,0,0,0-.55-.89,1.92,1.92,0,0,0-1.23-.36,2.72,2.72,0,0,0-1.52.53c-.51.35-.77,1.37-.77,3V80.9H69.78V72.44a10.24,10.24,0,0,0-.17-2.37A1.66,1.66,0,0,0,69,69.2a2,2,0,0,0-1.18-.33,2.05,2.05,0,0,0-1.73.73,5,5,0,0,0-.57,2.84V80.9H61.14V65.62h4.24V68a4.18,4.18,0,0,1,4.3-2.65A4.39,4.39,0,0,1,73.91,68a4.52,4.52,0,0,1,4.44-2.65,5.11,5.11,0,0,1,2.6.62,3.58,3.58,0,0,1,1.56,1.62A8.87,8.87,0,0,1,83,71Z"/><path class="cls-1" d="M100,80.9H95.65a10.93,10.93,0,0,1-.21-2.39,6.26,6.26,0,0,1-2.29,2.17,6,6,0,0,1-2.59.54,5.07,5.07,0,0,1-3.47-1.16,4,4,0,0,1-1.33-3.14,4.8,4.8,0,0,1,.78-2.65A5.1,5.1,0,0,1,89,72.37a24.06,24.06,0,0,1,6.23-1v-.88A2,2,0,0,0,93,68.25a2.33,2.33,0,0,0-2.64,2.22l-4.16-.39a4.69,4.69,0,0,1,2.47-3.69,9.74,9.74,0,0,1,4.66-1.09,11.47,11.47,0,0,1,2.93.36,4.89,4.89,0,0,1,2.15,1.09,3.79,3.79,0,0,1,1,1.54,10.08,10.08,0,0,1,.27,2.82V78A10.62,10.62,0,0,0,100,80.9Zm-4.78-7.32q-4.72.47-4.72,2.86a2,2,0,0,0,.5,1.38,1.75,1.75,0,0,0,1.41.59,2.46,2.46,0,0,0,2-1A3.72,3.72,0,0,0,95.24,75Z"/><path class="cls-1" d="M116.92,75.17a6.49,6.49,0,0,1-2.15,4.38,7,7,0,0,1-4.86,1.67,7,7,0,0,1-5.28-2.14,8,8,0,0,1-2-5.73,8.19,8.19,0,0,1,2.08-5.82,7.23,7.23,0,0,1,5.56-2.23A6.62,6.62,0,0,1,114.88,67a6.16,6.16,0,0,1,2,4.21l-4.21.24c-.14-1.84-.94-2.76-2.39-2.76-1.79,0-2.68,1.47-2.68,4.39,0,2,.25,3.19.75,3.71a2.39,2.39,0,0,0,1.82.79c1.39,0,2.23-.89,2.5-2.65Z"/><path class="cls-1" d="M123.85,59.82v4.51h-4.51V59.82Zm0,5.8V80.9h-4.51V65.62Z"/><path class="cls-1" d="M139,69.31l-3.28.88a2.75,2.75,0,0,0-3-2.08c-1.51,0-2.27.46-2.27,1.38a1.06,1.06,0,0,0,.42.88,5.61,5.61,0,0,0,2.17.55,19.46,19.46,0,0,1,3.88.8,4,4,0,0,1,2,1.52,4.59,4.59,0,0,1,.73,2.65,4.77,4.77,0,0,1-1.79,3.85,7.67,7.67,0,0,1-5,1.48c-3.9,0-6.22-1.51-7-4.52l3.8-.56c.31,1.37,1.44,2,3.39,2a4,4,0,0,0,1.89-.4,1.21,1.21,0,0,0,.78-1.08q0-1.06-1.71-1.26-4.63-.57-6.1-1.77a4.13,4.13,0,0,1-1.46-3.36,4.51,4.51,0,0,1,1.7-3.6,7.16,7.16,0,0,1,4.75-1.42,7,7,0,0,1,3.87,1A6,6,0,0,1,139,69.31Z"/><path class="cls-1" d="M147.55,69.13v6.46a2.56,2.56,0,0,0,.36,1.62,2.43,2.43,0,0,0,1.71.41c.41,0,.89,0,1.43-.06V80.9a20,20,0,0,1-2.83.34,5.84,5.84,0,0,1-4-1.09c-.78-.72-1.18-2-1.18-3.91V69.13h-2.42V65.62h2.68l.36-4.52,3.89-.3v4.82h3.29v3.51Z"/><path class="cls-1" d="M181,69.63a14.49,14.49,0,0,1-3.38,6.57,2.93,2.93,0,0,0,2.12,1c.29,0,.71,0,1.26-.1v3.68a8.5,8.5,0,0,1-2.07.29,5.6,5.6,0,0,1-4.47-2A10.1,10.1,0,0,1,168,81.31q-4,0-5.91-2a6.28,6.28,0,0,1-2-4.53c0-2.74,1.71-4.74,5.12-6a11.24,11.24,0,0,1-1.55-2.35,4.51,4.51,0,0,1-.36-1.79,4.22,4.22,0,0,1,1.74-3.52,7.36,7.36,0,0,1,4.63-1.34,6.51,6.51,0,0,1,4.54,1.46A4.76,4.76,0,0,1,175.86,65q0,3.4-3.89,5l2.91,3.16A8.71,8.71,0,0,0,176.71,69Zm-13.27,1.93c-1.62.56-2.43,1.52-2.43,2.89a3,3,0,0,0,.88,2.13,3.08,3.08,0,0,0,2.34.92A5.36,5.36,0,0,0,172,76.24Zm2.17-4.14c1.48-.55,2.21-1.34,2.21-2.39a2,2,0,0,0-.59-1.46,2.24,2.24,0,0,0-1.66-.6,2.13,2.13,0,0,0-1.4.44,1.37,1.37,0,0,0-.55,1.13,3.13,3.13,0,0,0,1.13,2Z"/><path class="cls-1" d="M204.12,60.24V80.9H200V78.51a4.7,4.7,0,0,1-4.22,2.71,4.63,4.63,0,0,1-4-2.06,9.76,9.76,0,0,1-1.47-5.73,10.51,10.51,0,0,1,1.47-6A4.8,4.8,0,0,1,196,65.3a4.29,4.29,0,0,1,3.76,1.92v-7ZM199.74,72c0-2.4-.72-3.6-2.18-3.6q-2.61,0-2.61,5.08Q195,78,197.39,78a2.14,2.14,0,0,0,1.65-.82,3.45,3.45,0,0,0,.7-2.33Z"/><path class="cls-1" d="M221.57,74h-9.84c0,.27,0,.51,0,.71a3.24,3.24,0,0,0,.87,2.46,2.88,2.88,0,0,0,2.08.84,2.56,2.56,0,0,0,2.71-2.41l4.08.3q-1.71,5.31-6.94,5.3a7.72,7.72,0,0,1-3.89-.91A7.28,7.28,0,0,1,208,77.63a8.13,8.13,0,0,1-1-4.2,8.28,8.28,0,0,1,2.09-5.89,7.35,7.35,0,0,1,10.41-.16Q221.58,69.47,221.57,74Zm-9.85-2.62h5.43c-.14-2.1-1-3.15-2.59-3.15S211.92,69.3,211.72,71.4Z"/><path class="cls-1" d="M236.15,65.62,230.91,80.9H227.4l-5.25-15.28h4.69l2.94,9.68,3-9.68Z"/><path class="cls-1" d="M251.45,74h-9.84c0,.27,0,.51,0,.71a3.24,3.24,0,0,0,.87,2.46,2.88,2.88,0,0,0,2.08.84,2.56,2.56,0,0,0,2.71-2.41l4.09.3q-1.71,5.31-6.95,5.3a7.66,7.66,0,0,1-3.88-.91,7.23,7.23,0,0,1-2.64-2.68,8.12,8.12,0,0,1-1-4.2,8.28,8.28,0,0,1,2.08-5.89,7.35,7.35,0,0,1,10.41-.16Q251.46,69.47,251.45,74ZM241.6,71.4H247c-.14-2.1-1-3.15-2.59-3.15S241.8,69.3,241.6,71.4Z"/><path class="cls-1" d="M254.3,80.9V60.24h4.51V80.9Z"/><path class="cls-1" d="M268.85,65.3a6.79,6.79,0,0,1,5.45,2.28,8.47,8.47,0,0,1,2,5.72,8.17,8.17,0,0,1-2,5.66,6.92,6.92,0,0,1-5.41,2.26A6.58,6.58,0,0,1,263.6,79a8.39,8.39,0,0,1-2-5.75,8.86,8.86,0,0,1,.88-4.14A7.34,7.34,0,0,1,265,66.34,6.86,6.86,0,0,1,268.85,65.3Zm.12,3a2.16,2.16,0,0,0-1.93,1,8.06,8.06,0,0,0-.65,3.94,8.94,8.94,0,0,0,.62,3.89,2,2,0,0,0,1.93,1.18,2.18,2.18,0,0,0,1.86-1,7.23,7.23,0,0,0,.71-3.84,9,9,0,0,0-.63-4.09A2.07,2.07,0,0,0,269,68.25Z"/><path class="cls-1" d="M279.1,86.07V65.62h4.15v2.24a4.07,4.07,0,0,1,4-2.56,5,5,0,0,1,4.06,2,9.1,9.1,0,0,1,1.59,5.79c0,2.69-.54,4.72-1.6,6.09a5,5,0,0,1-4.16,2,3.88,3.88,0,0,1-3.69-2v6.86Zm4.38-11.86a8.53,8.53,0,0,0,.2,2.24,2.31,2.31,0,0,0,.83,1.12,2.24,2.24,0,0,0,1.38.49,2.1,2.1,0,0,0,1.65-1q.72-.94.72-4.17c0-3-.79-4.52-2.39-4.52a2.21,2.21,0,0,0-1.65.8,4,4,0,0,0-.74,2.72Z"/><path class="cls-1" d="M309.56,74h-9.84c0,.27,0,.51,0,.71a3.24,3.24,0,0,0,.87,2.46,2.88,2.88,0,0,0,2.08.84,2.56,2.56,0,0,0,2.71-2.41l4.08.3q-1.71,5.31-6.94,5.3a7.72,7.72,0,0,1-3.89-.91A7.28,7.28,0,0,1,296,77.63a8.13,8.13,0,0,1-1-4.2A8.28,8.28,0,0,1,297,67.54a7.35,7.35,0,0,1,10.41-.16Q309.57,69.47,309.56,74Zm-9.85-2.62h5.43c-.14-2.1-1-3.15-2.59-3.15S299.91,69.3,299.71,71.4Z"/><path class="cls-1" d="M316.78,80.9h-4.37V65.62h4.13v2.84q.94-3.18,3.3-3.18c.22,0,.49,0,.82,0v4.45a4.53,4.53,0,0,0-2.15.42,3,3,0,0,0-1.24,1.52,7.36,7.36,0,0,0-.49,3Z"/></g></g></svg>