<svg xmlns="http://www.w3.org/2000/svg" viewBox="0 0 214.98 123.68">
  <defs>
    <style>
      .cls-1, .cls-2 {
        fill: #d2e49a;
      }

      .cls-1 {
        stroke: #d2e49a;
        stroke-miterlimit: 10;
        stroke-width: 3px;
      }
    </style>
  </defs>
  <g id="Layer_2" data-name="Layer 2">
    <g id="mortar-pestle-logo">
      <g id="greater-less-than">
        <g>
          <path class="cls-1" d="M174.46,102.68,204.11,86.3a.64.64,0,0,0,.32-.55h0a.63.63,0,0,0-.33-.54l-29.64-16.3a.63.63,0,0,1-.32-.54V60a.63.63,0,0,1,.93-.55l38.1,21.36a.62.62,0,0,1,.31.54v8.79a.63.63,0,0,1-.31.54L175.07,112a.63.63,0,0,1-.93-.54v-8.27A.64.64,0,0,1,174.46,102.68Z"/>
          <g id="greater-less-than-2" data-name="greater-less-than">
            <path class="cls-1" d="M40.84,103.23v8.27a.62.62,0,0,1-.92.54L1.82,90.69a.62.62,0,0,1-.32-.54V81.36a.61.61,0,0,1,.32-.54l38.1-21.36a.62.62,0,0,1,.92.55v8.36a.61.61,0,0,1-.32.54L10.88,85.21a.62.62,0,0,0-.32.54h0a.62.62,0,0,0,.32.55l29.64,16.38A.62.62,0,0,1,40.84,103.23Z"/>
          </g>
        </g>
      </g>
      <path class="cls-2" d="M163.13,41.43a3.52,3.52,0,0,0-1.61-.38H146.75l15-30c1.68-3.37.72-7.28-2.15-8.71L156.12.55c-3-1.49-6.8.14-8.55,3.64L125,41.05H53.46c-1.26,0-2.28.58-2.28,1.29v10c0,.72,1,1.3,2.28,1.3H56C52.69,72.87,57.54,92,69.3,104a41.66,41.66,0,0,0,6.29,5.28v11.58a3.26,3.26,0,0,0,.37,1.58,1.08,1.08,0,0,0,.92.65q15,.57,31,.58,15.6,0,30.22-.58c.72,0,1.3-1,1.3-2.23V109.29a42.1,42.1,0,0,0,6.28-5.28C157.44,92,162.29,72.87,159,53.6h2.49c1.26,0,2.28-.58,2.28-1.3v-10A1.11,1.11,0,0,0,163.13,41.43Z"/>
    </g>
  </g>
</svg>
