<svg xmlns="http://www.w3.org/2000/svg" id="mortar-pestle-logo" version="1.1" viewBox="0 0 612 792">
<def>  <style>
    .fill{fill:#d2e49a}
  </style></def>
  <g id="greater-less-than">
    <path d="M109.5 354.5V340c0-.4.2-.7.5-.9l62.7-35.1c.7-.4 1.5.1 1.5.9v13.6c0 .4-.2.7-.5.9l-48.8 27c-.3.2-.5.5-.5.9s.2.7.5.9l48.8 26.8c.3.2.5.5.5.9v13.8c0 .8-.8 1.3-1.5.9L110 355.4c-.3-.2-.5-.5-.5-.9zM312.6 375.1l48.8-27c.3-.2.5-.5.5-.9s-.2-.7-.5-.9l-48.8-26.8c-.3-.2-.5-.5-.5-.9v-13.8c0-.8.8-1.3 1.5-.9l62.7 35.1c.3.2.5.5.5.9v14.5c0 .4-.2.7-.5.9l-62.7 35.1c-.7.4-1.5-.1-1.5-.9V376c0-.4.2-.7.5-.9z" class="fill"/>
  </g>
  <g id="mortar-pestle">
    <path d="M297.4 286.7L267.3 347c-1.9 3.7-6 5.5-9.1 3.9l-2.9-1.5c-3-1.5-9.9-7.1-8.2-10.6l36.1-58.9c1.7-3.5 5.6-5.1 8.6-3.6l3.5 1.7c2.8 1.5 3.8 5.4 2.1 8.7z" class="fill"/>
    <path d="M253 392.5h-20.8c-5.4-.5-17.3-2.5-27.2-12.7-13.1-13.4-17.6-35.6-11.9-57 .2-.6.4-1.3.4-2 .2-2.2 1.9-4 4-4h91.3c2.1 0 3.8 1.7 4 4 .1.7.3 1.3.4 2 5.7 21.4 1.2 43.6-11.9 57-10 10.2-21.9 12.2-27.2 12.7H253z" class="fill"/>
    <path d="M273.8 398.8c-9.7.4-19.8.6-30.2.6-10.7 0-21-.2-31-.6-.1 0-.5 0-.9-.7-.2-.4-.4-1-.4-1.6v-17.2c0-1.2.6-2.2 1.3-2.2h61.3c.1 0 .5 0 .9.7.2.4.4 1 .4 1.6v17.2c-.1 1.2-.7 2.2-1.4 2.2zM297.2 329.3H189.1c-1.3 0-2.3-.6-2.3-1.3v-10c0-.7 1-1.3 2.3-1.3h108.1c.2 0 1 0 1.6.4.4.2.7.6.7.9v10c0 .7-1.1 1.3-2.3 1.3z" class="fill"/>
  </g>
</svg>