<svg xmlns="http://www.w3.org/2000/svg" viewBox="0 0 92.06 82.11">
  <defs>
    <style>
      .cls-1 {
        fill: #d2e49a;
      }
    </style>
  </defs>
  <g id="Layer_2" data-name="Layer 2">
    <g id="mortar-pestle-logo">
      <path class="cls-1" d="M91.09,1.72A4.63,4.63,0,0,0,87.42,0,4.86,4.86,0,0,0,84,1.37L65.63,17.45H1.78c-1,0-1.78.45-1.78,1v7.8c0,.56.8,1,1.78,1h2C1.18,42.35,5,57.29,14.18,66.72a32.28,32.28,0,0,0,4.92,4.13v9.06a2.55,2.55,0,0,0,.29,1.24.85.85,0,0,0,.72.51q11.72.45,24.26.45,12.21,0,23.65-.45c.56,0,1-.78,1-1.75V70.85A32.28,32.28,0,0,0,74,66.72c9.2-9.43,13-24.37,10.45-39.45h1.94c1,0,1.79-.45,1.79-1v-7.8a.87.87,0,0,0-.52-.71,2.82,2.82,0,0,0-1.27-.3H82c2.7-3.2,5.49-6.3,8.39-9.17A4.85,4.85,0,0,0,91.09,1.72ZM44,48.8a1,1,0,0,1-.52.88l-23,12.87a1,1,0,0,1-1.5-.87V56a1,1,0,0,1,.52-.88l14.89-8.24a1,1,0,0,0,0-1.76L19.53,37a1,1,0,0,1-.52-.88V30.38a1,1,0,0,1,1.5-.88l23,12.88a1,1,0,0,1,.52.87Zm29.06,0a1,1,0,0,1-.51.88l-23,12.87a1,1,0,0,1-1.5-.87V56a1,1,0,0,1,.52-.88l14.89-8.24a1,1,0,0,0,0-1.76L48.59,37a1,1,0,0,1-.52-.88V30.38a1,1,0,0,1,1.5-.88l23,12.88a1,1,0,0,1,.51.87Z"/>
    </g>
  </g>
</svg>
