<svg xmlns="http://www.w3.org/2000/svg" viewBox="0 0 64.43 64.43">
  <defs>
    <style>
      .cls-1 {
        fill: #bedeaa;
      }

      .cls-2 {
        fill: none;
        stroke: #bedeaa;
        stroke-miterlimit: 10;
        stroke-width: 2px;
      }
    </style>
  </defs>
  <g id="Layer_2" data-name="Layer 2">
    <g id="Layer_1-2" data-name="Layer 1">
      <g id="pill">
        <g id="capsule">
          <path class="cls-1" d="M47.09,16.3h0a8.93,8.93,0,0,0-12.62.5L17,35.5a8.94,8.94,0,0,0,.35,12.63h0a8.83,8.83,0,0,0,6.39,2.36A9.17,9.17,0,0,0,30,47.63l8.69-9.29,8.79-9.41A8.94,8.94,0,0,0,47.09,16.3ZM28.93,45.48a7.3,7.3,0,0,1-3.69,2.26A8.11,8.11,0,0,1,19,46.52,7,7,0,0,1,19,36.61l7.8-8.43a24.75,24.75,0,0,0,9.53,9.35Zm9.71-27.34a8.5,8.5,0,0,0-1.16,1c-2.32,2.33-5.59,5.81-6.42,6.69a2.85,2.85,0,0,1-.77-1.13l6-6.63a9.06,9.06,0,0,1,3.44-2,9.67,9.67,0,0,1,1.67-.33l.85,0,.54.79a9.2,9.2,0,0,0-4.19,1.61Z"/>
        </g>
      </g>
      <circle class="cls-2" cx="32.22" cy="32.22" r="31.22"/>
    </g>
  </g>
</svg>
