<svg xmlns="http://www.w3.org/2000/svg" viewBox="0 0 171.51 171.51">
  <defs>
    <style>
      .cls-1 {
        fill: #f7faf3;
        stroke: #bedeaa;
        stroke-miterlimit: 10;
        stroke-width: 7px;
      }

      .cls-2 {
        fill: #bedeaa;
      }
    </style>
  </defs>
  <g id="Layer_2" data-name="Layer 2">
    <g id="Layer_1-2" data-name="Layer 1">
      <circle class="cls-1" cx="85.76" cy="85.76" r="82.26"/>
      <g id="pill">
        <g id="capsule">
          <path class="cls-2" d="M134.3,33.81h0a29.16,29.16,0,0,0-41.19,1.63l-57,61a29.16,29.16,0,0,0,1.15,41.22h0a28.73,28.73,0,0,0,20.84,7.71,30.13,30.13,0,0,0,20.36-9.35l28.33-30.32L135.45,75A29.14,29.14,0,0,0,134.3,33.81ZM75,129.06a24,24,0,0,1-12,7.37c-9.19,2.44-17.19-1.88-20.53-4-8.83-8.35-8.71-22.84.28-32.35l25.44-27.5A80.83,80.83,0,0,0,99.28,103.1Zm31.69-89.24a29.2,29.2,0,0,0-3.78,3.25C95.35,50.7,84.69,62,82,64.91a9.1,9.1,0,0,1-2.51-3.67L99.19,39.59a29.48,29.48,0,0,1,11.23-6.46A29,29,0,0,1,115.88,32l2.76-.06,1.76,2.56a30.2,30.2,0,0,0-13.69,5.28Z"/>
        </g>
      </g>
    </g>
  </g>
</svg>
