<svg xmlns="http://www.w3.org/2000/svg" viewBox="0 0 195.3309 300.9769"><defs><style>.cls-1{fill:none;}.cls-1,.cls-2{stroke:#fff;stroke-miterlimit:10;stroke-width:1.0223px;}.cls-2,.cls-3{fill:#fff;}</style></defs><g id="Layer_2" data-name="Layer 2"><g id="Layer_1-2" data-name="Layer 1"><path class="cls-1" d="M168.7341,249.6436H25.4532A2.3334,2.3334,0,0,1,23.12,247.31h0a2.3334,2.3334,0,0,1,2.3334-2.3334H168.7341a2.3334,2.3334,0,0,1,2.3334,2.3334h0A2.3334,2.3334,0,0,1,168.7341,249.6436Z"/><path class="cls-2" d="M133.5042,249.6436H24.8517a2.1108,2.1108,0,0,1-1.7694-2.3333h0a2.1109,2.1109,0,0,1,1.7694-2.3334H133.5042a2.1109,2.1109,0,0,1,1.7694,2.3334h0A2.1108,2.1108,0,0,1,133.5042,249.6436Z"/><path class="cls-1" d="M168.7545,225.3769H25.4735a2.3333,2.3333,0,0,1-2.3333-2.3333h0a2.3333,2.3333,0,0,1,2.3333-2.3333h143.281a2.3333,2.3333,0,0,1,2.3334,2.3333h0A2.3333,2.3333,0,0,1,168.7545,225.3769Z"/><path class="cls-2" d="M74.6728,225.3769H24.4422a2.565,2.565,0,0,1,0-4.6666H74.6728c.4517,0,.818,1.0447.818,2.3333C75.4908,223.0436,75.1245,225.3769,74.6728,225.3769Z"/><path class="cls-1" d="M168.7341,297.71H25.4532a2.3334,2.3334,0,0,1-2.3334-2.3334h0a2.3334,2.3334,0,0,1,2.3334-2.3333H168.7341a2.3334,2.3334,0,0,1,2.3334,2.3333h0A2.3334,2.3334,0,0,1,168.7341,297.71Z"/><path class="cls-2" d="M133.5042,297.71H24.8517a2.1109,2.1109,0,0,1-1.7694-2.3334h0a2.1108,2.1108,0,0,1,1.7694-2.3333H133.5042a2.1108,2.1108,0,0,1,1.7694,2.3333h0A2.1109,2.1109,0,0,1,133.5042,297.71Z"/><path class="cls-1" d="M168.7545,273.91H25.4735a2.3334,2.3334,0,0,1-2.3333-2.3334h0a2.3334,2.3334,0,0,1,2.3333-2.3333h143.281a2.3334,2.3334,0,0,1,2.3334,2.3333h0A2.3334,2.3334,0,0,1,168.7545,273.91Z"/><circle class="cls-3" cx="135.8132" cy="247.0769" r="5.3667"/><circle class="cls-3" cx="74.6799" cy="223.2769" r="5.3667"/><circle class="cls-3" cx="135.8132" cy="295.6103" r="5.3667"/><circle class="cls-3" cx="74.6799" cy="271.3436" r="5.3667"/><path class="cls-2" d="M74.6728,273.91H24.4422a2.5651,2.5651,0,0,1,0-4.6667H74.6728c.4517,0,.818,1.0447.818,2.3333C75.4908,271.5769,75.1245,273.91,74.6728,273.91Z"/><path class="cls-3" d="M192.4478,172.0959l-16.6628-.0607a89.6834,89.6834,0,0,1-11.294-11.3247c-7.9937-9.6012-13.9933-20.1925-19.0659-31.24a283.3384,283.3384,0,0,1-15.5041-43.653Q125.8,70.759,122.3344,55.5566c-2.17-9.5248-3.9195-19.1275-5.8557-28.6956-.03-.1467-.0816-.29-.1232-.4345l-.3358.0133c0,1.036.0078,2.0722-.0013,3.1081q-.1268,14.3913-.26,28.7825-.1168,12.0852-.2554,24.1705-.0875,7.6293-.2046,15.2583-.0555,4.0449-.1176,8.09a1.2789,1.2789,0,0,1-.0561.6051c-.1471.2481-.375.59-.6139.6225a.9454.9454,0,0,1-.73-.4712c-.4085-.9906-.746-2.006-1.0827-3.0194-4.2511-12.7942-7.8322-25.742-10.8488-38.8147C100.0373,56.92,98.3184,49.05,96.6269,41.1757c-.8983-4.1817-1.6489-8.3892-2.7143-12.58,0,1.7432.0142,3.4866-.0025,5.23q-.1034,10.8064-.2236,21.6127c-.0578,5.1547-.1379,10.3091-.1942,15.4639-.0849,7.7838-.1493,15.5678-.239,23.3516-.0554,4.8127-.1413,9.625-.2149,14.4375-.003.2047.0537.4445-.0438.6059a1.68,1.68,0,0,1-.6747.7c-.1205.0518-.5773-.28-.69-.5129a17.4808,17.4808,0,0,1-.7376-1.9347c-3.8288-11.0876-7.182-22.2933-9.9342-33.6351C78.5474,63.98,76.3289,54.0068,74.0735,44.042c-.7264-3.2093-1.2993-6.4467-1.9452-9.6708a.85.85,0,0,0-.3238-.5507c-.0234.282-.0655.5638-.0672.8458-.0394,6.4884-.0584,12.9769-.1144,19.4651Q71.5207,66.012,71.37,77.8923q-.18,15.618-.3736,31.2361-.0312,2.6118-.0665,5.2236a1.3276,1.3276,0,0,1-.0448.6069,6.8654,6.8654,0,0,1-.6616.8484c-.2838-.23-.7113-.413-.8275-.6986-.6387-1.5692-1.2509-3.15-1.7811-4.7518-2.0791-6.2795-4.2548-12.5364-6.145-18.8622-1.91-6.3919-3.6309-12.834-5.2407-19.2933-1.9005-7.6255-3.5988-15.2921-5.37-22.9436-.3266-1.4112-.5837-2.8355-.8729-4.2538l-.3123.0168c-.0246.35-.0679.6992-.0711,1.049q-.13,14.3924-.2533,28.7846-.109,11.8808-.2347,23.7611-.123,11.7266-.2607,23.453c-.0161,1.3986-.0075,2.8-.1121,4.1938a3.8614,3.8614,0,0,1-.6189,1.2521c-.3522-.3063-.87-.5547-1.03-.928-1.2333-2.8635-2.434-5.74-3.5763-8.6338A347.13,347.13,0,0,1,31.7965,82.0069c-1.3056-4.7711-2.4432-9.5795-3.6617-14.37a2.1427,2.1427,0,0,0-.53-1.0256c-.0759,1.2-.2094,2.4-.218,3.6-.0512,7.0345-.0566,14.0692-.1105,21.1036-.0415,5.4282-.14,10.8562-.1981,16.2844-.07,6.5752.0528,13.4734-.2244,22.7372-.32,10.7081-.706,11.3164-1.07,11.382-2.1357.3849-7.26-17.27-10.009-29.2369-1.4355-6.2494-2.3428-11.4693-2.8974-15.0136q-1.532,24.8489-4.2143,51.0988-1.1982,11.5909-2.5855,22.8494l-.2442-.0009q.2687-84.2752.537-168.55a3.17,3.17,0,0,0-6.3138.0386c-.0638,109.0126-.0449,144.3423,0,149.0838.0151,1.5863,0,8.7467,0,12.7957,0,1.1882-.0582,2.4619-.0571,4.3664.0012,1.9436.0166,2.6275.0571,3.2762.16,2.5541.24,3.8312.8835,4.5607.7638.8652,1.9112.9733,4.8673,1.0382,3.8265.084,5.7336,0,7.0629,0,0,0,5.803.0019,12.342.0415,7.0078.0426,154.9574.63,167.235-.0416a2.9656,2.9656,0,0,0,0-5.9289Z"/></g></g></svg>