<svg xmlns="http://www.w3.org/2000/svg" xmlns:xlink="http://www.w3.org/1999/xlink" viewBox="0 0 220.5 314.2286"><defs><style>.cls-1{fill:none;}.cls-1,.cls-2{stroke:#fff;stroke-miterlimit:10;stroke-width:1.0223px;}.cls-2,.cls-3{fill:#fff;}.cls-4{fill:url(#linear-gradient);}</style><linearGradient id="linear-gradient" x1="103.9296" y1="24.3178" x2="103.9296" y2="141.438" gradientUnits="userSpaceOnUse"><stop offset="0" stop-color="#fff"/><stop offset="1" stop-color="#fff" stop-opacity="0"/></linearGradient></defs><g id="Layer_2" data-name="Layer 2"><g id="Layer_1-2" data-name="Layer 1"><path class="cls-1" d="M181.8914,262.8953H38.61a2.3333,2.3333,0,0,1-2.3333-2.3333h0a2.3333,2.3333,0,0,1,2.3333-2.3334h143.281a2.3333,2.3333,0,0,1,2.3333,2.3334h0A2.3333,2.3333,0,0,1,181.8914,262.8953Z"/><path class="cls-2" d="M146.6615,262.8953H38.0089A2.1109,2.1109,0,0,1,36.24,260.562h0a2.111,2.111,0,0,1,1.7694-2.3334H146.6615a2.111,2.111,0,0,1,1.7694,2.3334h0A2.1109,2.1109,0,0,1,146.6615,262.8953Z"/><path class="cls-1" d="M181.9118,238.6286H38.6308a2.3332,2.3332,0,0,1-2.3333-2.3333h0a2.3332,2.3332,0,0,1,2.3333-2.3333h143.281a2.3332,2.3332,0,0,1,2.3333,2.3333h0A2.3332,2.3332,0,0,1,181.9118,238.6286Z"/><path class="cls-2" d="M87.83,238.6286H37.6a2.565,2.565,0,0,1,0-4.6666H87.83c.4518,0,.818,1.0447.818,2.3333C88.648,236.2953,88.2818,238.6286,87.83,238.6286Z"/><path class="cls-1" d="M181.8914,310.962H38.61a2.3333,2.3333,0,0,1-2.3333-2.3334h0a2.3333,2.3333,0,0,1,2.3333-2.3333h143.281a2.3333,2.3333,0,0,1,2.3333,2.3333h0A2.3333,2.3333,0,0,1,181.8914,310.962Z"/><path class="cls-2" d="M146.6615,310.962H38.0089a2.111,2.111,0,0,1-1.7694-2.3334h0a2.1109,2.1109,0,0,1,1.7694-2.3333H146.6615a2.1109,2.1109,0,0,1,1.7694,2.3333h0A2.111,2.111,0,0,1,146.6615,310.962Z"/><path class="cls-1" d="M181.9118,287.162H38.6308a2.3333,2.3333,0,0,1-2.3333-2.3334h0a2.3333,2.3333,0,0,1,2.3333-2.3333h143.281a2.3333,2.3333,0,0,1,2.3333,2.3333h0A2.3333,2.3333,0,0,1,181.9118,287.162Z"/><circle class="cls-3" cx="148.9705" cy="260.3286" r="5.3667"/><circle class="cls-3" cx="87.8372" cy="236.5286" r="5.3667"/><circle class="cls-3" cx="148.9705" cy="308.862" r="5.3667"/><circle class="cls-3" cx="87.8372" cy="284.5953" r="5.3667"/><path class="cls-2" d="M87.83,287.162H37.6a2.5651,2.5651,0,0,1,0-4.6667H87.83c.4518,0,.818,1.0447.818,2.3333C88.648,284.8286,88.2818,287.162,87.83,287.162Z"/><path class="cls-3" d="M220.5,177.55v4H0V0H4V107.48a214.8881,214.8881,0,0,0,15.65,33.09c1.86,3.14,3.94,6.2,5.93,9.3a1.9568,1.9568,0,0,0,.91.73c.04-.32.1-.65.11-.97.04-5.24.07-10.47.12-15.7.06-5.8.15-11.59.21-17.39q.135-12.705.25-25.4.165-15.69.35-31.38a4.2112,4.2112,0,0,1,.11-1.38c.1-.28.52-.5.79-.74.29.23.75.43.84.7.41,1.28.72,2.57,1.05,3.86a397.8955,397.8955,0,0,0,16.55,50.97c1.47,3.58,3.08,7.12,4.64,10.67a1.8163,1.8163,0,0,0,.73.85c.09-1.5.25-2.99.26-4.48.07-9.83.08-19.65.18-29.47.12-11.6.33-23.19.48-34.79.09-6.76.14-13.52.21-20.28a2.3181,2.3181,0,0,1,.03-.95,4.687,4.687,0,0,1,.79-.96c.31.29.83.55.91.89.54,2.05.95,4.12,1.44,6.18,1.11,4.64,2.18,9.3,3.37,13.92,1.95,7.56,3.87,15.12,6.01,22.64a340.3306,340.3306,0,0,0,11.49,33.74c.12.3.26.59.39.88.15-.01.3-.01.44-.01v-4.71c.03-4.52.04-9.04.08-13.56q.12-12.585.25-25.19.135-12.165.3-24.33.135-10.41.29-20.81c.01-.57-.23-1.4.81-1.43.32-.01.89.85,1,1.36,1.53,6.82,2.94,13.67,4.5,20.49,3.34,14.58,7.1,29.1,11.76,43.46,1.86,5.74,3.9,11.45,5.87,17.17a2.6341,2.6341,0,0,0,.77,1.19,7.9809,7.9809,0,0,0,.09-.84c.04-4.84.06-9.68.1-14.52q.105-10.455.24-20.92.12-11.58.26-23.16c.09-8.51.16-17.01.26-25.51a37.64,37.64,0,0,1,.2-3.83c.03-.3.47-.58.73-.86.29.27.77.51.83.81.75,3.33,1.4,6.67,2.12,9.99,1.47,6.69,2.79,13.41,4.48,20.06,3.09,12.08,6.29,24.15,9.69,36.19,1.75,6.2,4.05,12.3,6.11,18.45a1.3552,1.3552,0,0,0,.58.76,6.1669,6.1669,0,0,0,.14-.86c.07-4.66.15-9.32.19-13.98.05-4.62.03-9.25.07-13.87.08-8.26.2-16.51.3-24.76q.135-11.745.28-23.49c.05-3.66.1-7.33.21-10.99.02-.4.48-.79.73-1.18.34.35.89.68.97,1.07,2.13,9.88,3.97,19.8,6.36,29.64,3.02,12.43,6.34,24.8,9.79,37.15a287.0823,287.0823,0,0,0,11.28,32.35c6.09,14.75,13.24,29.12,23.54,42.35a100.6027,100.6027,0,0,0,23,21.86ZM4,177.55H203.86a98.98,98.98,0,0,1-15.14-13.29c-9.31-10.01-16.29-21.05-22.2-32.56a275.3339,275.3339,0,0,1-18.05-45.49q-4.8-15.69-8.83-31.54c-2.53-9.92-4.57-19.93-6.82-29.9-.03-.15-.1-.3-.14-.45-.13,0-.26.01-.39.01,0,1.08,0,2.16-.01,3.24q-.135,15-.3,30-.135,12.585-.3,25.18c-.06,5.3-.15,10.6-.23,15.9-.05,2.81-.09,5.62-.14,8.43a1.14,1.14,0,0,1-.07.64c-.17.25-.43.61-.71.64a1.0969,1.0969,0,0,1-.85-.49c-.48-1.03-.87-2.09-1.26-3.14a410.812,410.812,0,0,1-12.63-40.45c-2.11-8.19-4.11-16.39-6.08-24.59-1.05-4.36-1.92-8.74-3.16-13.11,0,1.81.01,3.63-.01,5.45q-.12,11.265-.26,22.52c-.06,5.37-.16,10.74-.22,16.12q-.15,12.165-.28,24.33c-.06,5.02-.16,10.03-.25,15.05,0,.21.06.46-.05.63a1.8592,1.8592,0,0,1-.79.73c-.14.05-.67-.29-.8-.54a16.8691,16.8691,0,0,1-.86-2.01A356.3766,356.3766,0,0,1,91.47,73.81c-2.81-10.36-5.39-20.75-8.02-31.13-.85-3.35-1.51-6.72-2.26-10.08a.9078.9078,0,0,0-.38-.58c-.03.3-.08.59-.08.88-.05,6.77-.07,13.53-.13,20.29q-.12,12.375-.3,24.76-.21,16.275-.43,32.55c-.03,1.82-.05,3.63-.08,5.45,0,.21.06.46-.05.63a7.0329,7.0329,0,0,1-.77.88c-.33-.24-.83-.43-.97-.73-.74-1.63-1.45-3.28-2.07-4.95-2.42-6.54-4.95-13.06-7.15-19.65-2.23-6.67-4.23-13.38-6.11-20.11-2.21-7.95-4.19-15.94-6.25-23.91-.38-1.47-.68-2.95-1.01-4.43-.13,0-.25.01-.37.02-.03.36-.08.72-.08,1.09q-.15,15-.3,29.99-.12,12.39-.27,24.77-.135,12.21-.3,24.44c-.02,1.45-.01,2.91-.13,4.37-.04.44-.47.87-.72,1.3-.41-.32-1.02-.58-1.2-.96-1.44-2.99-2.84-5.99-4.17-9A337.6723,337.6723,0,0,1,34.23,82.24c-1.52-4.97-2.85-9.98-4.26-14.98a2.2481,2.2481,0,0,0-.62-1.07c-.09,1.26-.24,2.51-.25,3.76-.06,7.33-.07,14.66-.13,21.99-.05,5.66-.17,11.31-.23,16.97-.1,7.9-.17,15.8-.27,23.69-.08,6.83-.17,13.67-.31,20.5-.01.39-.4.78-.61,1.17a4.5065,4.5065,0,0,1-1.24-.76,142.4243,142.4243,0,0,1-13.87-22.9c-3-6.19-5.65-12.49-8.44-18.75Z"/><path class="cls-4" d="M4.0026,111.8588c2.7864,6.26,5.4389,12.5627,8.4389,18.7558A142.3266,142.3266,0,0,0,26.31,153.5105c.2478.3335.82.51,1.24.76.2129-.3914.6043-.7806.612-1.1746q.2-10.2459.3127-20.4928c.0966-7.8981.1666-15.7964.2613-23.6945.0678-5.6568.1823-11.3133.2306-16.97.0627-7.3306.069-14.6615.1286-21.9922.01-1.2511.1655-2.5014.2538-3.7521a2.1608,2.1608,0,0,1,.6169,1.0688c1.4186,4.9923,2.743,10.0031,4.263,14.9751a335.5275,335.5275,0,0,0,13.6441,37.4593c1.33,3.016,2.7279,6.0132,4.1637,8.9974.1872.3889.79.6478,1.2.967.2513-.4343.6832-.8588.7206-1.3048.1218-1.4525.1118-2.9129.1306-4.37q.1577-12.22.3034-24.44.1448-12.3807.2733-24.7616.1536-14.9983.2949-29.9967c.0037-.3645.0541-.7287.0828-1.0931l.3635-.0175c.3368,1.478.6361,2.9623,1.0164,4.4329,2.0623,7.9737,4.0395,15.9631,6.2521,23.91,1.8742,6.7314,3.8778,13.4447,6.1015,20.1058,2.2007,6.5921,4.7337,13.1124,7.1542,19.6563.6173,1.669,1.33,3.3167,2.0736,4.952.1353.2976.6331.4881.9635.728a7.3217,7.3217,0,0,0,.77-.8842c.11-.1729.049-.4192.0522-.6324q.0413-2.7219.0775-5.4436.2186-16.2756.4349-32.5513.16-12.3805.295-24.7614c.0652-6.7614.0873-13.5231.1332-20.2847.002-.2939.0511-.5876.0782-.8814a.87.87,0,0,1,.377.5739c.752,3.36,1.419,6.7335,2.2647,10.078,2.6258,10.3844,5.2087,20.7771,8.0155,31.13a356.8466,356.8466,0,0,0,11.5658,35.0514,17.0662,17.0662,0,0,0,.8587,2.0161c.1311.2425.6629.5886.8032.5345a1.8572,1.8572,0,0,0,.7855-.73c.1135-.1683.0474-.4182.051-.6315.0856-5.0151.1857-10.03.25-15.0454.1045-8.1115.1794-16.2233.2783-24.3349.0655-5.3718.1587-10.7432.2261-16.115q.1415-11.2612.26-22.5227c.0194-1.8165.0028-3.6333.0028-5.45,1.24,4.3675,2.1144,8.7522,3.16,13.11,1.9692,8.2054,3.9705,16.4066,6.08,24.5893a410.6579,410.6579,0,0,0,12.6306,40.4489c.3921,1.0562.7849,2.1143,1.2606,3.1466a1.1175,1.1175,0,0,0,.85.491c.2782-.034.5436-.39.7148-.6486a1.2019,1.2019,0,0,0,.0653-.6306q.0716-4.2153.1369-8.4306c.0813-5.3.17-10.6.2382-15.9008q.1613-12.594.2973-25.1882.162-14.9972.3027-29.9944c.0106-1.08.0014-2.1593.0014-3.239l.3911-.0139c.0484.1508.1089.3.1434.4528,2.2542,9.971,4.291,19.978,6.8174,29.9039q4.03,15.8323,8.8327,31.5352A275.454,275.454,0,0,0,166.52,131.7008c5.9057,11.5126,12.8906,22.55,22.1972,32.5553a99.4431,99.4431,0,0,0,15.139,13.2987H4.0026Z"/></g></g></svg>