<svg xmlns="http://www.w3.org/2000/svg" viewBox="0 0 436 653.5726"><defs><style>.cls-1,.cls-2,.cls-3,.cls-4{fill:#fff;stroke:#fff;stroke-miterlimit:10;}.cls-1{stroke-width:2.1906px;}.cls-2{stroke-width:2.1452px;}.cls-4{stroke-width:2.1452px;}</style></defs><g id="Layer_2" data-name="Layer 2"><g id="Layer_1-2" data-name="Layer 1"><path class="cls-1" d="M371.5448,68.0726H64.5141a5,5,0,0,1-5-5h0a5,5,0,0,1,5-5H371.5448a5,5,0,0,1,5,5h0A5,5,0,0,1,371.5448,68.0726Z"/><circle class="cls-2" cx="301" cy="62.5726" r="10.5"/><path class="cls-1" d="M296.0521,68.0726H63.2252c-2.0941,0-3.7916-2.2386-3.7916-5h0c0-2.7614,1.6975-5,3.7916-5H296.0521c2.0941,0,3.7916,2.2386,3.7916,5h0C299.8437,65.834,298.1462,68.0726,296.0521,68.0726Z"/><path class="cls-3" d="M429.9961,431.6316a698.229,698.229,0,0,1-72.0052-73.2046A879.7738,879.7738,0,0,1,284.91,258.32c-1.0178-1.6107-2.69-2.5964-4.0583-3.8706-.4473,1.9634-1.2317,3.9027-1.2965,5.8821-.4344,14.136-.7131,28.28-1.0762,42.4242-.0778,3.2326-.325,6.4558-.4646,9.69l-1.5549.2859a17.88,17.88,0,0,0-1.4618-3.501Q263.97,293.2319,252.813,277.369a13.5345,13.5345,0,0,0-2.7682-2.348c-.4927,1.3382-1.3614,2.6605-1.42,4.0308-.4408,11.1951-.72,22.3982-1.0761,33.6012-.214,6.8357-.48,13.6633-.765,21.6609-3.2025-4.1831-5.7438-7.4046-8.2008-10.7222-5.75-7.7893-11.4423-15.6507-17.225-23.4a9.9914,9.9914,0,0,0-2.632-1.8752c-.48,1.13-1.0179,2.2278-1.4068,3.4058a7.3058,7.3058,0,0,0-.1426,1.9794c-.3177,13.88-.603,27.7512-.96,41.6229-.0972,3.7824-.3955,7.5488-.6612,12.3811-1.8606-2.0355-3.0989-3.2376-4.201-4.6079-7.0079-8.7028-13.964-17.4777-21.0109-26.14-.7455-.9136-1.9448-1.2742-2.9367-1.8913a14.7149,14.7149,0,0,0-1.05,3.5341c-.4213,11.195-.7325,22.3981-1.0956,33.6012-.2269,7.2523-.4862,14.5127-.7649,22.7828-1.5041-1.4665-2.3533-2.1957-3.1118-3.0452-7.19-8.0778-14.34-16.2116-21.5685-24.2413a17.326,17.326,0,0,0-3.4554-2.4041c-.4862,1.6428-1.3484,3.27-1.3938,4.9284-.4343,14.0079-.6871,28.0157-1.0632,42.0236-.1166,4.2793-.4343,8.5505-.6936,13.4389-1.4652-1.2261-2.3922-1.8832-3.222-2.7087-7.1635-7.1-14.2753-14.2642-21.4777-21.3a14.881,14.881,0,0,0-3.5851-2.0195,21.1087,21.1087,0,0,0-1.0761,4.4c-.3954,12.7978-.6613,25.6036-1.0113,38.4094-.1621,5.7939-.4344,11.58-.6937,18.2391-1.6726-1.194-2.6968-1.8271-3.63-2.6044-7.06-5.9221-14.0873-11.9083-21.186-17.7663-.9854-.8094-2.5672-1.755-3.3905-1.2982-.765.4247-1.1993,2.62-1.2447,4.0549-.5316,17.47-.96,34.9475-1.4327,52.4172-.0389,1.4024-.1751,2.7968-.3047,4.8-1.4068-.7693-2.3793-1.2181-3.2933-1.8191Q76.8,481.3243,65.9575,474.12c-3.3-2.1877-4.22-1.6027-4.4667,2.909-.0648,1.202-.0519,2.4041-.0778,3.6061q-.6613,25.6037-1.342,51.2072a35.624,35.624,0,0,1-.5381,3.7344c-1.5688-.6731-2.7876-1.146-3.98-1.7069-6.9625-3.2856-13.9122-6.6113-20.8747-9.8969-3.3257-1.5707-4.1815-.9456-4.3047,3.2375q-.6419,21.8052-1.2123,43.6183c-.1491,5.1448-.3176,10.2895-.4927,16.0113C18.8724,584.4678,9.6862,582.256.5,580.0363v73.0363h435V435.7907C433.6588,434.4123,431.7464,433.17,429.9961,431.6316Z"/><path class="cls-1" d="M371.5885,16.0726H64.5578a5,5,0,0,1-5-5h0a5,5,0,0,1,5-5H371.5885a5,5,0,0,1,5,5h0A5,5,0,0,1,371.5885,16.0726Z"/><circle class="cls-2" cx="170" cy="11.5726" r="10.5"/><path class="cls-1" d="M169.9847,16.0726H62.3478a5.4965,5.4965,0,0,1,0-10H169.9847c.9681,0,1.7529,2.2386,1.7529,5C171.7376,11.0726,170.9528,16.0726,169.9847,16.0726Z"/><path class="cls-1" d="M371.5448,171.0726H64.5141a5,5,0,0,1-5-5h0a5,5,0,0,1,5-5H371.5448a5,5,0,0,1,5,5h0A5,5,0,0,1,371.5448,171.0726Z"/><circle class="cls-2" cx="301" cy="166.5726" r="10.5"/><path class="cls-1" d="M296.0521,171.0726H63.2252c-2.0941,0-3.7916-2.2386-3.7916-5h0c0-2.7614,1.6975-5,3.7916-5H296.0521c2.0941,0,3.7916,2.2386,3.7916,5h0C299.8437,168.834,298.1462,171.0726,296.0521,171.0726Z"/><path class="cls-1" d="M371.5885,120.0726H64.5578a5,5,0,0,1-5-5h0a5,5,0,0,1,5-5H371.5885a5,5,0,0,1,5,5h0A5,5,0,0,1,371.5885,120.0726Z"/><circle class="cls-4" cx="170" cy="114.5726" r="10.5"/><path class="cls-1" d="M169.9847,120.0726H62.3478a5.4965,5.4965,0,0,1,0-10H169.9847c.9681,0,1.7529,2.2386,1.7529,5C171.7376,115.0726,170.9528,120.0726,169.9847,120.0726Z"/></g></g></svg>