
<svg version="1.1" id="Layer_1" xmlns="http://www.w3.org/2000/svg" xmlns:xlink="http://www.w3.org/1999/xlink" x="0px" y="0px"
	 viewBox="0 0 200 200" xml:space="preserve">
<symbol fill="white" width="144" height="12.8" x="-72" y="-6.4"  id="slider" viewBox="-72 -6.4 144 12.8">
	<g>
		<circle  cx="-32.5" cy="0" r="6.4"/>
	</g>
	<g>
		<path  d="M-24.9,0c0,1.1-0.2,2.1-0.6,3h95c1.3,0,2.3-1.4,2.3-3.2s-1-3.2-2.3-3.2h-95.2C-25.2-2.4-24.9-1.2-24.9,0z"/>
		<path  d="M-69.5,3h29.9c-0.4-0.9-0.6-1.9-0.6-3c0-1.2,0.3-2.4,0.8-3.4h-30.2c-1.3,0-2.3,1.4-2.3,3.2
			C-71.8,1.5-70.8,3-69.5,3z"/>
	</g>
</symbol>
<use xlink:href="#slider" transform="matrix(1 0 0 -1 100 75)" />
<use xlink:href="#slider"  transform="matrix(1 0 0 -1 100 25)" />
<use xlink:href="#slider"   transform="matrix(-1 0 0 -1 100 50)" />
<use xlink:href="#slider"  transform="matrix(-1 0 0 -1 100 100)" />
</svg>
