<svg xmlns="http://www.w3.org/2000/svg" viewBox="0 0 186.36 82.11">
  <defs>
    <style>
      .cls-1 {
        fill: #d2e49a;
      }
    </style>
  </defs>
  <g id="Layer_2" data-name="Layer 2">
    <g id="mortar-pestle-logo">
      <g>
        <path class="cls-1" d="M146.64,73.43A1.63,1.63,0,0,1,145,71.81V63.53a1.62,1.62,0,0,1,.84-1.42l29-16-29-16a1.62,1.62,0,0,1-.84-1.42V20.31a1.62,1.62,0,0,1,2.42-1.41l38.1,21.35a1.63,1.63,0,0,1,.82,1.41v8.79a1.63,1.63,0,0,1-.83,1.42L147.44,73.22a1.73,1.73,0,0,1-.8.21Z"/>
        <path class="cls-1" d="M39.72,73.43a1.66,1.66,0,0,1-.79-.21L.83,51.86A1.61,1.61,0,0,1,0,50.45V41.66a1.63,1.63,0,0,1,.83-1.41L38.93,18.9a1.56,1.56,0,0,1,.79-.21,1.63,1.63,0,0,1,1.62,1.62v8.36a1.6,1.6,0,0,1-.84,1.42l-29,16,29,16a1.62,1.62,0,0,1,.84,1.42v8.28a1.59,1.59,0,0,1-.5,1.16,1.62,1.62,0,0,1-1.12.46Z"/>
      </g>
      <g>
        <path class="cls-1" d="M85.74,55.05a9.33,9.33,0,0,0-.74,3.7v.53a5.09,5.09,0,0,0,1.53,4,6,6,0,0,0,4.24,1.45A7.17,7.17,0,0,0,94,64a4.88,4.88,0,0,0,1.82-1.54l-8-9.92A6.86,6.86,0,0,0,85.74,55.05Z"/>
        <path class="cls-1" d="M140.3,1.72A4.66,4.66,0,0,0,136.63,0a4.87,4.87,0,0,0-3.42,1.37L114.83,17.45H51c-1,0-1.79.45-1.79,1v7.8c0,.56.8,1,1.79,1h1.95c-2.56,15.08,1.24,30,10.44,39.45a33.28,33.28,0,0,0,4.92,4.13v9.06a2.45,2.45,0,0,0,.3,1.24.85.85,0,0,0,.71.51q11.73.45,24.27.45,12.19,0,23.64-.45c.56,0,1-.78,1-1.75V70.85a33.28,33.28,0,0,0,4.92-4.13c9.2-9.43,13-24.37,10.44-39.45h2c1,0,1.78-.45,1.78-1v-7.8a.87.87,0,0,0-.52-.71,2.76,2.76,0,0,0-1.26-.3h-4.36c2.71-3.2,5.49-6.3,8.39-9.17A4.84,4.84,0,0,0,140.3,1.72ZM112.06,71.23h-8.53a.46.46,0,0,1-.35-.17l-3.71-4.41a.46.46,0,0,0-.77.1A8.88,8.88,0,0,1,96,70a11.31,11.31,0,0,1-6.86,2,13.13,13.13,0,0,1-5.22-1A11.06,11.06,0,0,1,80,68.19a12,12,0,0,1-2.41-4,14,14,0,0,1-.83-4.85,14.45,14.45,0,0,1,1.77-6.89,13.49,13.49,0,0,1,4.71-4.82.47.47,0,0,0,.14-.65,23.53,23.53,0,0,1-2-3.34,11.89,11.89,0,0,1-1.12-5.08A10.8,10.8,0,0,1,81.23,34a11,11,0,0,1,2.56-3.53,11.12,11.12,0,0,1,3.84-2.29,13.64,13.64,0,0,1,4.67-.8,12.75,12.75,0,0,1,4.09.64,12.56,12.56,0,0,1,3.29,1.67,10.79,10.79,0,0,1,2.44,2.37,11.86,11.86,0,0,1,1.48,2.68l.32.83L97.36,39,97,38a5.8,5.8,0,0,0-1.86-2.55,4.56,4.56,0,0,0-2.92-.94,3.9,3.9,0,0,0-2.91,1.09,3.82,3.82,0,0,0-1.09,2.86v.41a5.27,5.27,0,0,0,.19,1.44,7.41,7.41,0,0,0,.68,1.55,19.11,19.11,0,0,0,1.31,2c.57.76,1.26,1.67,2.08,2.72l4.46,5.52,1.83,2.41a.46.46,0,0,0,.83-.24c0-.55.08-1.11.1-1.7q.12-2.82.18-5.28l0-1h10.76a.46.46,0,0,1,.46.46v6.09a.46.46,0,0,1-.46.46H107a.45.45,0,0,0-.45.39c-.19,1.2-.4,2.34-.62,3.38A27,27,0,0,1,104.79,61a.48.48,0,0,0,.07.46l7.55,9A.46.46,0,0,1,112.06,71.23Z"/>
      </g>
    </g>
  </g>
</svg>
