<svg xmlns="http://www.w3.org/2000/svg" viewBox="0 0 92.06 82.11">
  <defs>
    <style>
      .cls-1 {
        fill: #d2e49a;
      }
    </style>
  </defs>
  <g id="Layer_2" data-name="Layer 2">
    <g id="mortar-pestle-logo">
      <g>
        <path class="cls-1" d="M91.09,1.72A4.63,4.63,0,0,0,87.42,0,4.86,4.86,0,0,0,84,1.37L65.63,17.45H1.78c-1,0-1.78.45-1.78,1v7.8c0,.56.8,1,1.78,1h2C1.18,42.35,5,57.29,14.18,66.72a32.28,32.28,0,0,0,4.92,4.13v9.06a2.55,2.55,0,0,0,.29,1.24.85.85,0,0,0,.72.51q11.72.45,24.26.45,12.21,0,23.65-.45c.56,0,1-.78,1-1.75V70.85A32.28,32.28,0,0,0,74,66.72c9.2-9.43,13-24.37,10.45-39.45h1.94c1,0,1.79-.45,1.79-1v-7.8a.87.87,0,0,0-.52-.71,2.82,2.82,0,0,0-1.27-.3H82c2.7-3.2,5.49-6.3,8.39-9.17A4.85,4.85,0,0,0,91.09,1.72ZM55.48,70.23l-4.95-5.89h-.35a7.8,7.8,0,0,1-3.09,4.8,10.3,10.3,0,0,1-6.27,1.8A12.06,12.06,0,0,1,36,70a10.18,10.18,0,0,1-3.56-2.5,11,11,0,0,1-2.21-3.68,13,13,0,0,1-.77-4.5,12.64,12.64,0,0,1,7.36-11.66A25.22,25.22,0,0,1,34,43.2a10.68,10.68,0,0,1-1-4.65,9.63,9.63,0,0,1,.85-4.09,9.82,9.82,0,0,1,2.33-3.21,10.17,10.17,0,0,1,3.5-2.09A12.39,12.39,0,0,1,44,28.42a11.59,11.59,0,0,1,6.8,2.12A9.83,9.83,0,0,1,53,32.69a10.22,10.22,0,0,1,1.35,2.44l-4.77,2.48a6.84,6.84,0,0,0-2.18-3,5.6,5.6,0,0,0-3.53-1.15,4.91,4.91,0,0,0-3.62,1.39,4.82,4.82,0,0,0-1.38,3.56v.41a6.08,6.08,0,0,0,.23,1.71,8.2,8.2,0,0,0,.77,1.77,19.56,19.56,0,0,0,1.38,2.09c.57.76,1.27,1.68,2.09,2.74l4.48,5.53,3.71,4.89h.29a35.87,35.87,0,0,0,.53-5c.08-1.88.14-3.65.18-5.3h9.24v5h-4.3c-.23,1.65-.5,3.17-.79,4.56a28.5,28.5,0,0,1-1.44,4.57l7.36,8.83Z"/>
        <path class="cls-1" d="M36.52,54.65a10.25,10.25,0,0,0-.82,4.1v.53A6.07,6.07,0,0,0,37.55,64a7,7,0,0,0,4.92,1.71,8.12,8.12,0,0,0,3.62-.8,6.17,6.17,0,0,0,2.62-2.5L39.58,51.15A8.63,8.63,0,0,0,36.52,54.65Z"/>
      </g>
    </g>
  </g>
</svg>
