<svg xmlns="http://www.w3.org/2000/svg" viewBox="0 0 75 49"><defs><style>.cls-1{fill:#1b1464;}.cls-2{fill:#fff;}</style></defs><g id="Layer_2" data-name="Layer 2"><g id="Layer_2-2" data-name="Layer 2"><rect class="cls-1" width="75" height="49"/><path class="cls-2" d="M29.86,24.4156a22.5186,22.5186,0,0,1-1.4292,8.1684,19.7542,19.7542,0,0,1-5.0867,7.4332C16.8872,46.2314,8.4415,46.1213,6,45.9986l1-3.1268C8.6793,42.6829,14.5571,41.8106,18,37c2.4647-3.4438,2.3879-7.0983,2.28-12.239-.1024-4.87-.2141-8.5317-2.7318-12.1149A15.9906,15.9906,0,0,0,7,6.3924L6,3.2656a19.5632,19.5632,0,0,1,9.7105.8437,21.9942,21.9942,0,0,1,7.6021,4.68Q29.8592,14.74,29.86,24.4156Z"/><path class="cls-2" d="M31,3l1,3h6V43H32l-1,3,14.3391.1755V3.0718Z"/><path class="cls-2" d="M66.3391,3l-1,3h-6V43h6l1,3L52,46.1755V3.0718Z"/></g></g></svg>