<svg xmlns="http://www.w3.org/2000/svg" viewBox="0 0 312.78 75.12">
  <defs>
    <style>
      .cls-1 {
        fill: #fff;
      }

      .cls-2 {
        fill: #bedeaa;
      }
    </style>
  </defs>
  <g id="Layer_2" data-name="Layer 2">
    <g id="Layer_1-2" data-name="Layer 1">
      <g id="hicks-logo">
        <g id="title">
          <path class="cls-1" d="M0,2.88H15.24A20,20,0,0,1,22.65,4.2a15.12,15.12,0,0,1,5.7,3.93A17.86,17.86,0,0,1,32,14.67a29.37,29.37,0,0,1,1.29,9.15A29.37,29.37,0,0,1,32,33a17.86,17.86,0,0,1-3.66,6.54,15.12,15.12,0,0,1-5.7,3.93,20,20,0,0,1-7.41,1.32H0ZM15.24,37.74a9.53,9.53,0,0,0,7-2.61q2.61-2.61,2.61-8v-6.6q0-5.4-2.61-8a9.53,9.53,0,0,0-7-2.61H7.92V37.74Z" transform="translate(0)"/>
          <path class="cls-1" d="M63.3,44.76a5.39,5.39,0,0,1-4-1.47,6.76,6.76,0,0,1-1.83-3.93h-.36A7.35,7.35,0,0,1,53.94,44,10.84,10.84,0,0,1,48,45.48q-4.8,0-7.38-2.51A8.93,8.93,0,0,1,38,36.27q0-4.85,3.48-7.21t9.9-2.36h5.34V24.42a5.66,5.66,0,0,0-1.38-4.08,5.92,5.92,0,0,0-4.44-1.44,7.37,7.37,0,0,0-4.35,1.17,11.55,11.55,0,0,0-2.79,2.79l-4.56-4.1a13.3,13.3,0,0,1,4.62-4.38,15.16,15.16,0,0,1,7.62-1.66q6.36,0,9.66,2.87t3.3,8.26V38.58h3.12v6.18ZM50.58,39.9A8.11,8.11,0,0,0,55,38.77a3.71,3.71,0,0,0,1.8-3.34V31.32H51.84q-6,0-6,3.81v1A3.32,3.32,0,0,0,47.07,39,5.8,5.8,0,0,0,50.58,39.9Z" transform="translate(0)"/>
          <path class="cls-1" d="M79.38,44.76,68.94,13.44H76.5l4.38,13.5L83.94,38.1h.42l3.06-11.16,4.26-13.5H99L88.5,44.76Z" transform="translate(0)"/>
          <path class="cls-1" d="M107.34,8.88a4.66,4.66,0,0,1-3.45-1.08,3.8,3.8,0,0,1-1-2.76V3.84a3.8,3.8,0,0,1,1-2.76,6,6,0,0,1,6.87,0,3.74,3.74,0,0,1,1.08,2.76V5a3.74,3.74,0,0,1-1.08,2.76A4.68,4.68,0,0,1,107.34,8.88Zm-3.84,4.56h7.68V44.76H103.5Z" transform="translate(0)"/>
          <path class="cls-1" d="M138.9,39.54h-.3a8,8,0,0,1-3.18,4.32A9.35,9.35,0,0,1,130,45.48q-5.94,0-9.09-4.26T117.72,29q0-7.86,3.15-12.09T130,12.72a9.48,9.48,0,0,1,5.46,1.59,7.87,7.87,0,0,1,3.18,4.29h.3V.36h7.68v44.4H138.9Zm-6.48-.42A7.78,7.78,0,0,0,137,37.8,4.35,4.35,0,0,0,138.9,34v-10A4.34,4.34,0,0,0,137,20.4,7.54,7.54,0,0,0,132.42,19a6.22,6.22,0,0,0-4.83,2,7.67,7.67,0,0,0-1.83,5.37v5.4a7.56,7.56,0,0,0,1.83,5.34A6.27,6.27,0,0,0,132.42,39.12Z" transform="translate(0)"/>
          <path class="cls-1" d="M194.28,27.06H176.82v17.7H168.9V2.88h7.92V20h17.46V2.88h7.92V44.76h-7.92Z" transform="translate(0)"/>
          <path class="cls-1" d="M214.8,8.88a4.66,4.66,0,0,1-3.45-1.08,3.8,3.8,0,0,1-1-2.76V3.84a3.8,3.8,0,0,1,1-2.76,6,6,0,0,1,6.87,0,3.74,3.74,0,0,1,1.08,2.76V5a3.74,3.74,0,0,1-1.08,2.76A4.68,4.68,0,0,1,214.8,8.88ZM211,13.44h7.68V44.76H211Z" transform="translate(0)"/>
          <path class="cls-1" d="M239.28,45.48a15.77,15.77,0,0,1-6.18-1.14,11.92,11.92,0,0,1-4.53-3.3,14.87,14.87,0,0,1-2.79-5.19,22.5,22.5,0,0,1-1-6.81,22.21,22.21,0,0,1,1-6.78,14.59,14.59,0,0,1,2.79-5.13,12.06,12.06,0,0,1,4.53-3.27,15.77,15.77,0,0,1,6.18-1.14,13.63,13.63,0,0,1,7.83,2.1,11.78,11.78,0,0,1,4.47,5.82l-6.3,2.82a6.53,6.53,0,0,0-2-3.27,5.84,5.84,0,0,0-4-1.29,5.74,5.74,0,0,0-4.83,2,8.44,8.44,0,0,0-1.59,5.34V32a8.31,8.31,0,0,0,1.59,5.31,5.78,5.78,0,0,0,4.83,2,6,6,0,0,0,4.26-1.41,9.66,9.66,0,0,0,2.34-3.51l5.88,2.82A12.29,12.29,0,0,1,247,43.41,13.88,13.88,0,0,1,239.28,45.48Z" transform="translate(0)"/>
          <path class="cls-1" d="M257.1.36h7.68V27.12h.3l4.13-5.64,7-8h8.7l-10.8,12.12,11.94,19.2H277l-8-14-4.14,4.5v9.54H257.1Z" transform="translate(0)"/>
          <path class="cls-1" d="M299.88,45.48A16.8,16.8,0,0,1,292.32,44a17.4,17.4,0,0,1-5.4-4.23l4.68-4.56a14.21,14.21,0,0,0,3.81,3.12,9.73,9.73,0,0,0,4.77,1.14,6.54,6.54,0,0,0,4-1,3.16,3.16,0,0,0,1.23-2.64,2.85,2.85,0,0,0-.87-2.19,5.52,5.52,0,0,0-3-1.11l-3.12-.42q-5.1-.66-7.77-2.91A8.11,8.11,0,0,1,288,22.62a9.74,9.74,0,0,1,.84-4.11,8.72,8.72,0,0,1,2.4-3.12,11,11,0,0,1,3.75-2,16.23,16.23,0,0,1,4.89-.69,22.26,22.26,0,0,1,4.05.33,14.72,14.72,0,0,1,3.21,1,12.41,12.41,0,0,1,2.64,1.56,24.79,24.79,0,0,1,2.34,2.07l-4.5,4.5a11.88,11.88,0,0,0-3.3-2.4,9.26,9.26,0,0,0-4.2-1,5.79,5.79,0,0,0-3.63.9A2.87,2.87,0,0,0,295.38,22a3,3,0,0,0,.93,2.37,6.44,6.44,0,0,0,3.15,1.17l3.18.42q10.14,1.44,10.14,9.24a9.32,9.32,0,0,1-.93,4.17,9.49,9.49,0,0,1-2.61,3.24,12.33,12.33,0,0,1-4.05,2.1A17.56,17.56,0,0,1,299.88,45.48Z" transform="translate(0)"/>
        </g>
        <g id="subtitle">
          <path class="cls-2" d="M61.75,58.28a3.7,3.7,0,0,0-2.08.59,3.26,3.26,0,0,0-1.27,1.67h-.12v-2H55.77V75.12h2.51V68.54h.12a3.32,3.32,0,0,0,1.27,1.66,3.63,3.63,0,0,0,2.08.6,4.13,4.13,0,0,0,3.52-1.65,7.48,7.48,0,0,0,1.25-4.61,7.48,7.48,0,0,0-1.25-4.61A4.13,4.13,0,0,0,61.75,58.28Zm2.12,7.3a3.11,3.11,0,0,1-.78,2.21,2.72,2.72,0,0,1-2.09.84,3.22,3.22,0,0,1-1.94-.56,1.75,1.75,0,0,1-.78-1.48v-4.1A1.75,1.75,0,0,1,59.06,61,3.22,3.22,0,0,1,61,60.45a2.72,2.72,0,0,1,2.09.84,3.11,3.11,0,0,1,.78,2.21Z" transform="translate(0)"/>
          <path class="cls-2" d="M75.14,58.28a3.34,3.34,0,0,0-2.17.65,3.91,3.91,0,0,0-1.19,1.61h-.11v-7H69.16v17h2.51v-8a1.75,1.75,0,0,1,.22-.89,1.91,1.91,0,0,1,.58-.65,2.92,2.92,0,0,1,.84-.38,3.89,3.89,0,0,1,1-.12c1.5,0,2.25.92,2.25,2.78v7.29H79V62.93a5.14,5.14,0,0,0-1-3.44A3.55,3.55,0,0,0,75.14,58.28Z" transform="translate(0)"/>
          <path class="cls-2" d="M91.17,62.47a3.87,3.87,0,0,0-1.24-3.1,5.24,5.24,0,0,0-3.57-1.09,5.35,5.35,0,0,0-2.82.66,4.64,4.64,0,0,0-1.68,1.67L83.35,62a4.2,4.2,0,0,1,1.13-1.17,2.94,2.94,0,0,1,1.72-.46,2.55,2.55,0,0,1,1.87.6,2.3,2.3,0,0,1,.59,1.7v1H86.5a6.64,6.64,0,0,0-3.8.9,3.05,3.05,0,0,0-1.3,2.69,3.43,3.43,0,0,0,1,2.6,4,4,0,0,0,2.86,1,4.16,4.16,0,0,0,2.23-.58,3,3,0,0,0,1.27-1.7h.11A2.53,2.53,0,0,0,89.52,70a2,2,0,0,0,1.51.56h1.41v-2H91.17ZM88.66,67a1.62,1.62,0,0,1-.75,1.39,3.41,3.41,0,0,1-1.94.52,2.41,2.41,0,0,1-1.48-.41,1.39,1.39,0,0,1-.54-1.2v-.42c0-1.07.87-1.61,2.6-1.61h2.11Z" transform="translate(0)"/>
          <path class="cls-2" d="M98.35,59.25a3.23,3.23,0,0,0-1.06,1.61h-.12v-2.3h-2.5v12h2.5V62.88a1.57,1.57,0,0,1,.8-1.42,4.46,4.46,0,0,1,2.29-.48h1V58.56h-.67A3.31,3.31,0,0,0,98.35,59.25Z" transform="translate(0)"/>
          <path class="cls-2" d="M116.29,58.28a3.72,3.72,0,0,0-2.37.72,3.42,3.42,0,0,0-1.24,1.72h-.07a3.42,3.42,0,0,0-1.38-1.84,3.94,3.94,0,0,0-2.16-.6,3.67,3.67,0,0,0-1.21.18,2.59,2.59,0,0,0-.9.48,3.12,3.12,0,0,0-.64.72,4.87,4.87,0,0,0-.45.88h-.12v-2h-2.5v12h2.5v-8a1.86,1.86,0,0,1,.21-.89,1.93,1.93,0,0,1,.55-.65,2.57,2.57,0,0,1,.8-.38,3.42,3.42,0,0,1,.9-.12c1.46,0,2.19.92,2.19,2.78v7.29h2.51v-8a2,2,0,0,1,.2-.89,2,2,0,0,1,.54-.65,2.52,2.52,0,0,1,.77-.38,3.52,3.52,0,0,1,.92-.12,2,2,0,0,1,1.68.7,3.38,3.38,0,0,1,.53,2.08v7.29h2.51V62.93a5.3,5.3,0,0,0-1-3.44A3.41,3.41,0,0,0,116.29,58.28Z" transform="translate(0)"/>
          <path class="cls-2" d="M132.2,62.47a3.87,3.87,0,0,0-1.24-3.1,5.23,5.23,0,0,0-3.56-1.09,5.36,5.36,0,0,0-2.83.66,4.8,4.8,0,0,0-1.68,1.67L124.38,62a4.35,4.35,0,0,1,1.13-1.17,3,3,0,0,1,1.73-.46,2.54,2.54,0,0,1,1.86.6,2.3,2.3,0,0,1,.6,1.7v1h-2.17a6.64,6.64,0,0,0-3.8.9,3.05,3.05,0,0,0-1.3,2.69,3.43,3.43,0,0,0,1,2.6,4,4,0,0,0,2.86,1,4.13,4.13,0,0,0,2.23-.58,2.91,2.91,0,0,0,1.27-1.7h.11a2.53,2.53,0,0,0,.65,1.44,2,2,0,0,0,1.52.56h1.4v-2H132.2ZM129.7,67a1.63,1.63,0,0,1-.76,1.39,3.4,3.4,0,0,1-1.93.52,2.44,2.44,0,0,1-1.49-.41,1.39,1.39,0,0,1-.54-1.2v-.42c0-1.07.87-1.61,2.6-1.61h2.12Z" transform="translate(0)"/>
          <path class="cls-2" d="M142.08,68.16a2.68,2.68,0,0,1-1.76.54,2.51,2.51,0,0,1-2.08-.86,3.4,3.4,0,0,1-.7-2.23V63.47a3.4,3.4,0,0,1,.7-2.23,2.51,2.51,0,0,1,2.08-.86,2.46,2.46,0,0,1,2.56,1.81l2.06-1a4.66,4.66,0,0,0-1.67-2.14,5,5,0,0,0-3-.81,5.79,5.79,0,0,0-2.3.44,4.62,4.62,0,0,0-1.7,1.25,5.87,5.87,0,0,0-1.06,2,9.25,9.25,0,0,0,0,5.18,5.87,5.87,0,0,0,1.06,2,4.62,4.62,0,0,0,1.7,1.25,5.79,5.79,0,0,0,2.3.44,5.22,5.22,0,0,0,2.92-.79,4.83,4.83,0,0,0,1.8-2.27l-1.91-1A3.78,3.78,0,0,1,142.08,68.16Z" transform="translate(0)"/>
          <rect class="cls-2" x="147.2" y="58.56" width="2.51" height="11.96"/>
          <path class="cls-2" d="M148.46,53.41a1.48,1.48,0,0,0-1.13.37,1.28,1.28,0,0,0-.36.94v.39a1.28,1.28,0,0,0,.36.94,1.91,1.91,0,0,0,2.26,0,1.32,1.32,0,0,0,.35-.94v-.39a1.32,1.32,0,0,0-.35-.94A1.48,1.48,0,0,0,148.46,53.41Z" transform="translate(0)"/>
          <path class="cls-2" d="M157.8,63.48l-1.1-.14a3,3,0,0,1-1.4-.5,1.23,1.23,0,0,1-.44-1,1.35,1.35,0,0,1,.49-1.08,2.39,2.39,0,0,1,1.53-.41,3.55,3.55,0,0,1,1.72.4,4,4,0,0,1,1.2,1l1.54-1.48a6.12,6.12,0,0,0-1.82-1.4,6.78,6.78,0,0,0-4.44-.25,4.26,4.26,0,0,0-1.41.72,3.25,3.25,0,0,0-.9,1.15,3.5,3.5,0,0,0-.33,1.55,3,3,0,0,0,1.05,2.5,5.64,5.64,0,0,0,2.89,1.07l1.1.14a2.14,2.14,0,0,1,1.32.51,1.36,1.36,0,0,1,.38,1,1.44,1.44,0,0,1-.54,1.19,2.66,2.66,0,0,1-1.64.42,3.87,3.87,0,0,1-1.9-.45,5.09,5.09,0,0,1-1.48-1.25L152,68.54a5.74,5.74,0,0,0,4.85,2.26,6.56,6.56,0,0,0,1.95-.28,4.27,4.27,0,0,0,1.5-.78A3.51,3.51,0,0,0,161.6,67a3.08,3.08,0,0,0-.91-2.32A5.35,5.35,0,0,0,157.8,63.48Z" transform="translate(0)"/>
          <path class="cls-2" d="M167.21,55.29H165v2.1a1.33,1.33,0,0,1-.24.89,1.08,1.08,0,0,1-.86.28h-1v2h1.86v7.31a2.6,2.6,0,0,0,.67,1.92,2.65,2.65,0,0,0,2,.68h2.18v-2h-2.32V60.61h2.51v-2h-2.51Z" transform="translate(0)"/>
          <path class="cls-2" d="M189.38,64h1.56V61.92h-3.42a12.81,12.81,0,0,1-.23,1.85,10.63,10.63,0,0,1-.51,1.74l-3.13-3.39a14.85,14.85,0,0,0,1.35-.86,7.52,7.52,0,0,0,1.11-1,3.9,3.9,0,0,0,.76-1.15,3.43,3.43,0,0,0,.28-1.42,3.35,3.35,0,0,0-.31-1.46,3,3,0,0,0-.89-1.11,4.15,4.15,0,0,0-1.35-.72,5.52,5.52,0,0,0-1.71-.25,5.15,5.15,0,0,0-1.8.3,4.06,4.06,0,0,0-1.39.82,3.41,3.41,0,0,0-.89,1.23,3.85,3.85,0,0,0-.31,1.51,4.13,4.13,0,0,0,.53,2,8.68,8.68,0,0,0,1.29,1.75,11.08,11.08,0,0,0-1.25.79,5.34,5.34,0,0,0-1,1,4.18,4.18,0,0,0-1,2.74,4.45,4.45,0,0,0,.34,1.76,3.89,3.89,0,0,0,1,1.42,4.72,4.72,0,0,0,1.63.94,6.51,6.51,0,0,0,2.2.35,6.8,6.8,0,0,0,1.65-.19,6.29,6.29,0,0,0,1.29-.47,6.71,6.71,0,0,0,1-.62,8.09,8.09,0,0,0,.72-.63l1.5,1.63h3.12l-3.15-3.4A11.27,11.27,0,0,0,189.38,64Zm-8.46-6a1.63,1.63,0,0,1,.57-1.29,2.07,2.07,0,0,1,1.4-.5,2,2,0,0,1,1.34.44,1.53,1.53,0,0,1,.5,1.24v.18a2,2,0,0,1-.69,1.51,8.13,8.13,0,0,1-1.65,1.19,10.89,10.89,0,0,1-1.09-1.38,2.17,2.17,0,0,1-.38-1.2Zm3.28,10.35a4.09,4.09,0,0,1-1.7.33,3.1,3.1,0,0,1-2.11-.66,2.2,2.2,0,0,1-.76-1.76v-.3a2.34,2.34,0,0,1,.54-1.63,5.35,5.35,0,0,1,1.41-1.08l3.91,4.21A3.77,3.77,0,0,1,184.2,68.33Z" transform="translate(0)"/>
          <path class="cls-2" d="M206.15,60.54H206a3.26,3.26,0,0,0-1.27-1.67,3.74,3.74,0,0,0-2.09-.59,4.16,4.16,0,0,0-3.52,1.65,7.54,7.54,0,0,0-1.24,4.61,7.54,7.54,0,0,0,1.24,4.61,4.16,4.16,0,0,0,3.52,1.65,3.66,3.66,0,0,0,2.09-.6A3.32,3.32,0,0,0,206,68.54h.12v2h2.5v-17h-2.5Zm0,6.05a1.74,1.74,0,0,1-.79,1.48,3.17,3.17,0,0,1-1.93.56,2.72,2.72,0,0,1-2.09-.84,3.11,3.11,0,0,1-.78-2.21V63.5a3.11,3.11,0,0,1,.78-2.21,2.72,2.72,0,0,1,2.09-.84,3.17,3.17,0,0,1,1.93.56,1.74,1.74,0,0,1,.79,1.48Z" transform="translate(0)"/>
          <path class="cls-2" d="M220.68,60A4.69,4.69,0,0,0,219,58.74a5.62,5.62,0,0,0-2.32-.46,5.82,5.82,0,0,0-2.3.44A4.77,4.77,0,0,0,212.68,60a5.59,5.59,0,0,0-1.09,2,9,9,0,0,0,0,5.18,5.59,5.59,0,0,0,1.09,2,4.77,4.77,0,0,0,1.72,1.25,5.82,5.82,0,0,0,2.3.44,6.29,6.29,0,0,0,3-.66,4.74,4.74,0,0,0,1.93-1.77l-1.47-1.45a4.11,4.11,0,0,1-1.29,1.3,3.43,3.43,0,0,1-1.86.48,3,3,0,0,1-2.34-.88,3.17,3.17,0,0,1-.81-2.25v-.39H222v-.94a7.57,7.57,0,0,0-.34-2.32A5.4,5.4,0,0,0,220.68,60Zm-1.31,3.51h-5.56v-.16a4,4,0,0,1,.2-1.27,3.07,3.07,0,0,1,.59-1,2.62,2.62,0,0,1,.92-.64,3,3,0,0,1,1.18-.23,2.44,2.44,0,0,1,2,.84,3.34,3.34,0,0,1,.71,2.22Z" transform="translate(0)"/>
          <polygon class="cls-2" points="229.77 64.01 228.55 68.2 228.41 68.2 227.19 64.01 225.38 58.56 222.89 58.56 226.96 70.52 229.91 70.52 234.02 58.56 231.63 58.56 229.77 64.01"/>
          <path class="cls-2" d="M244.4,60a4.72,4.72,0,0,0-1.67-1.28,5.6,5.6,0,0,0-2.31-.46,5.75,5.75,0,0,0-2.3.44A4.81,4.81,0,0,0,236.39,60a5.75,5.75,0,0,0-1.09,2,9,9,0,0,0,0,5.18,5.75,5.75,0,0,0,1.09,2,4.81,4.81,0,0,0,1.73,1.25,5.75,5.75,0,0,0,2.3.44,6.25,6.25,0,0,0,2.94-.66,4.74,4.74,0,0,0,1.93-1.77l-1.47-1.45a4.11,4.11,0,0,1-1.29,1.3,3.38,3.38,0,0,1-1.86.48,3,3,0,0,1-2.33-.88,3.13,3.13,0,0,1-.82-2.25v-.39h8.21v-.94a7.88,7.88,0,0,0-.33-2.32A5.75,5.75,0,0,0,244.4,60Zm-1.31,3.51h-5.57v-.16a3.72,3.72,0,0,1,.21-1.27,2.88,2.88,0,0,1,.58-1,2.72,2.72,0,0,1,.92-.64,3.08,3.08,0,0,1,1.19-.23,2.41,2.41,0,0,1,2,.84,3.29,3.29,0,0,1,.72,2.22Z" transform="translate(0)"/>
          <path class="cls-2" d="M250.79,53.5h-2.51V68a2.46,2.46,0,0,0,.64,1.82,2.54,2.54,0,0,0,1.92.66h1.61v-2h-1.66Z" transform="translate(0)"/>
          <path class="cls-2" d="M263.3,60a4.72,4.72,0,0,0-1.73-1.25,6.08,6.08,0,0,0-4.54,0A4.72,4.72,0,0,0,255.3,60a5.79,5.79,0,0,0-1.11,2,8.8,8.8,0,0,0,0,5.18,5.79,5.79,0,0,0,1.11,2A4.72,4.72,0,0,0,257,70.36a6.08,6.08,0,0,0,4.54,0,4.72,4.72,0,0,0,1.73-1.25,5.79,5.79,0,0,0,1.11-2,8.8,8.8,0,0,0,0-5.18A5.79,5.79,0,0,0,263.3,60Zm-1.15,5.58a3.21,3.21,0,0,1-.78,2.36,3.11,3.11,0,0,1-4.14,0,3.21,3.21,0,0,1-.78-2.36v-2a3.21,3.21,0,0,1,.78-2.36,3.11,3.11,0,0,1,4.14,0,3.21,3.21,0,0,1,.78,2.36Z" transform="translate(0)"/>
          <path class="cls-2" d="M273.33,58.28a3.68,3.68,0,0,0-2.08.59A3.28,3.28,0,0,0,270,60.54h-.11v-2h-2.51V75.12h2.51V68.54H270a3.33,3.33,0,0,0,1.28,1.66,3.61,3.61,0,0,0,2.08.6,4.15,4.15,0,0,0,3.52-1.65,7.48,7.48,0,0,0,1.24-4.61,7.48,7.48,0,0,0-1.24-4.61A4.15,4.15,0,0,0,273.33,58.28Zm2.12,7.3a3.11,3.11,0,0,1-.79,2.21,2.72,2.72,0,0,1-2.09.84,3.17,3.17,0,0,1-1.93-.56,1.75,1.75,0,0,1-.78-1.48v-4.1a1.75,1.75,0,0,1,.78-1.48,3.17,3.17,0,0,1,1.93-.56,2.72,2.72,0,0,1,2.09.84,3.11,3.11,0,0,1,.79,2.21Z" transform="translate(0)"/>
          <path class="cls-2" d="M289.41,60a4.72,4.72,0,0,0-1.67-1.28,5.6,5.6,0,0,0-2.31-.46,5.75,5.75,0,0,0-2.3.44A4.81,4.81,0,0,0,281.4,60a5.75,5.75,0,0,0-1.09,2,9,9,0,0,0,0,5.18,5.75,5.75,0,0,0,1.09,2,4.81,4.81,0,0,0,1.73,1.25,5.75,5.75,0,0,0,2.3.44,6.25,6.25,0,0,0,2.94-.66,4.74,4.74,0,0,0,1.93-1.77l-1.47-1.45a4.11,4.11,0,0,1-1.29,1.3,3.38,3.38,0,0,1-1.86.48,3,3,0,0,1-2.33-.88,3.13,3.13,0,0,1-.82-2.25v-.39h8.21v-.94a7.88,7.88,0,0,0-.33-2.32A5.75,5.75,0,0,0,289.41,60Zm-1.31,3.51h-5.57v-.16a3.72,3.72,0,0,1,.21-1.27,2.88,2.88,0,0,1,.58-1,2.72,2.72,0,0,1,.92-.64,3.08,3.08,0,0,1,1.19-.23,2.41,2.41,0,0,1,1.95.84,3.29,3.29,0,0,1,.72,2.22Z" transform="translate(0)"/>
          <path class="cls-2" d="M299.2,58.56a3.32,3.32,0,0,0-2.23.69,3.21,3.21,0,0,0-1.05,1.61h-.12v-2.3h-2.51v12h2.51V62.88a1.56,1.56,0,0,1,.79-1.42,4.46,4.46,0,0,1,2.29-.48h1V58.56Z" transform="translate(0)"/>
        </g>
        <g id="pill">
          <g id="capsule">
            <path class="cls-2" d="M43.57,64.65h0a8.94,8.94,0,0,0-8.94-8.93L9,55.6a8.93,8.93,0,0,0-9,8.83H0a8.78,8.78,0,0,0,2.6,6.29,9.25,9.25,0,0,0,6.34,2.64l12.71.06,12.89.06A8.93,8.93,0,0,0,43.57,64.65ZM9.81,71.14A7.24,7.24,0,0,1,5.65,70a8.1,8.1,0,0,1-3.38-5.44,7,7,0,0,1,7.34-6.67H21.08A25.18,25.18,0,0,0,20,65.27a24.68,24.68,0,0,0,.74,5.92ZM36.47,59.69A8.52,8.52,0,0,0,35,59.52c-3.3-.12-8.07-.16-9.28-.16A2.89,2.89,0,0,1,26,58L35,58a9.05,9.05,0,0,1,3.79,1.19,8.35,8.35,0,0,1,1.38,1l.59.61-.21.92a9.28,9.28,0,0,0-4-2Z" transform="translate(0)"/>
          </g>
        </g>
      </g>
    </g>
  </g>
</svg>
