<svg xmlns="http://www.w3.org/2000/svg" viewBox="0 0 453.53 81.22"><defs><style>.cls-1{fill:#231f20;}.cls-2{fill:none;stroke:#231f20;stroke-miterlimit:10;stroke-width:9px;}</style></defs><g id="Layer_2" data-name="Layer 2"><g id="Layer_1-2" data-name="Layer 1"><path class="cls-1" d="M49,.74H63.59c6,0,10.42.82,13.35,2.48a23.13,23.13,0,0,1,7.87,7.84q3.48,5.35,3.48,13.55,0,10.31-6.08,17.21T65.46,48.73H49ZM60,9.56V39.69h4.63q6.13,0,9.12-4.59a19.31,19.31,0,0,0,3-10.77A19.17,19.17,0,0,0,75,16.26a11.18,11.18,0,0,0-4.23-5.2,11.68,11.68,0,0,0-6.07-1.5Z"/><path class="cls-1" d="M117.56.74l15,48H120.5l-3-9.88H102l-3,9.88H89.17l15.38-48ZM104.73,30h10.16l-5-16.84Z"/><path class="cls-1" d="M171.11.74l-14.49,48H144.54L130.12.74h12l9.6,34.31,10-34.31Z"/><path class="cls-1" d="M186.65.74v48H175.44V.74Z"/><path class="cls-1" d="M196.29.74h14.64q9,0,13.35,2.48a23.13,23.13,0,0,1,7.87,7.84q3.48,5.35,3.48,13.55,0,10.31-6.08,17.21T212.8,48.73H196.29Zm11,8.82V39.69H212q6.14,0,9.12-4.59a19.31,19.31,0,0,0,3-10.77,19.17,19.17,0,0,0-1.7-8.07,11.18,11.18,0,0,0-4.23-5.2,11.68,11.68,0,0,0-6.07-1.5Z"/><path class="cls-1" d="M298,.74v48H287V28.93H272v19.8H261V.74h11v18.7h15V.74Z"/><path class="cls-1" d="M318.88.74v48H307.66V.74Z"/><path class="cls-1" d="M367.22,18.6l-11.78.74q-.26-10.17-7.93-10.16-8.81,0-8.81,15.64,0,9,2.4,12.25a7.86,7.86,0,0,0,6.69,3.22q7,0,8.53-9.07l10.9.67Q366.16,40.5,360.8,45a21.52,21.52,0,0,1-28.62-2.09q-6-6.57-6-18.18,0-10.86,5.77-17.78T347.74,0Q365,0,367.22,18.6Z"/><path class="cls-1" d="M384.72.74V23.28l15-22.54h10.76L399,17.87l14.41,30.86H401l-9.57-20.84-6.74,9.83v11h-11V.74Z"/><path class="cls-1" d="M452.22,11.29l-9.56,3.19q-1.92-5.69-8.17-5.69-6.66,0-6.66,4.32A3.89,3.89,0,0,0,429.07,16q1.24,1.2,5.64,2.08a55.15,55.15,0,0,1,10.74,3A13.77,13.77,0,0,1,451.19,26a12.82,12.82,0,0,1,2.34,7.5,15,15,0,0,1-5,11.25q-5,4.74-14.84,4.74a22.6,22.6,0,0,1-12.56-3.35,16,16,0,0,1-6.83-10l10.41-2.35q1.76,6.7,9.75,6.71,3.85,0,5.75-1.49a4.43,4.43,0,0,0,1.9-3.57,3.71,3.71,0,0,0-1.72-3.27c-1.15-.78-3.36-1.5-6.64-2.18q-9.15-1.9-13.06-5.19t-3.89-9.61a14.28,14.28,0,0,1,4.65-10.8Q426.09,0,434.07,0,448.19,0,452.22,11.29Z"/><path class="cls-1" d="M49,81.22V60.77h4.14V63a4.07,4.07,0,0,1,4-2.56,4.93,4.93,0,0,1,4.06,2,9.12,9.12,0,0,1,1.59,5.79c0,2.69-.54,4.72-1.6,6.09A5,5,0,0,1,57,76.37a3.88,3.88,0,0,1-3.69-2v6.86Zm4.37-11.86a8.53,8.53,0,0,0,.2,2.24,2.31,2.31,0,0,0,.83,1.12,2.24,2.24,0,0,0,1.38.49,2.1,2.1,0,0,0,1.65-.95q.72-.95.72-4.17c0-3-.79-4.52-2.39-4.52a2.21,2.21,0,0,0-1.65.8,4,4,0,0,0-.74,2.72Z"/><path class="cls-1" d="M70.05,55.39v7.45a4.29,4.29,0,0,1,4.13-2.39,4.93,4.93,0,0,1,2.64.67,3.68,3.68,0,0,1,1.54,1.74,8.25,8.25,0,0,1,.45,3.1V76.05H74.3V67.43a12.25,12.25,0,0,0-.12-2.12,1.7,1.7,0,0,0-.55-1A1.56,1.56,0,0,0,72.55,64a2.67,2.67,0,0,0-1.67.66c-.56.44-.83,1.38-.83,2.81v8.62H65.67V55.39Z"/><path class="cls-1" d="M95.87,76.05H91.5a10.27,10.27,0,0,1-.22-2.39A6.12,6.12,0,0,1,89,75.83a6,6,0,0,1-2.59.54,5.1,5.1,0,0,1-3.47-1.16,4,4,0,0,1-1.32-3.14,4.9,4.9,0,0,1,.77-2.65,5.06,5.06,0,0,1,2.48-1.89,23.94,23.94,0,0,1,6.23-1v-.88a2,2,0,0,0-2.22-2.22,2.33,2.33,0,0,0-2.64,2.22l-4.16-.39a4.73,4.73,0,0,1,2.46-3.69,9.81,9.81,0,0,1,4.67-1.09,11.59,11.59,0,0,1,2.93.36,4.89,4.89,0,0,1,2.15,1.09,3.89,3.89,0,0,1,1,1.54,10.08,10.08,0,0,1,.27,2.82v6.93A10.57,10.57,0,0,0,95.87,76.05Zm-4.78-7.32c-3.15.31-4.73,1.27-4.73,2.86a2.05,2.05,0,0,0,.5,1.38,1.78,1.78,0,0,0,1.42.59,2.48,2.48,0,0,0,2-1,3.75,3.75,0,0,0,.81-2.45Z"/><path class="cls-1" d="M103.7,76.05H99.32V60.77h4.13v2.84q1-3.18,3.3-3.18c.23,0,.5,0,.82,0v4.45a4.49,4.49,0,0,0-2.14.42,3.09,3.09,0,0,0-1.25,1.52,7.55,7.55,0,0,0-.48,3Z"/><path class="cls-1" d="M131.93,76.05h-4.51V67.59a15.32,15.32,0,0,0-.11-2.32,1.48,1.48,0,0,0-.55-.89,1.93,1.93,0,0,0-1.24-.36,2.69,2.69,0,0,0-1.51.53c-.51.35-.77,1.37-.77,3v8.46h-4.51V67.59a10.24,10.24,0,0,0-.17-2.37,1.7,1.7,0,0,0-.63-.87,2,2,0,0,0-1.17-.33,2.06,2.06,0,0,0-1.73.73,5,5,0,0,0-.57,2.84v8.46h-4.38V60.77h4.24V63.1a4.2,4.2,0,0,1,4.31-2.65,4.39,4.39,0,0,1,4.23,2.65,4.51,4.51,0,0,1,4.43-2.65,5.25,5.25,0,0,1,2.61.62,3.68,3.68,0,0,1,1.56,1.62,8.9,8.9,0,0,1,.47,3.43Z"/><path class="cls-1" d="M149,76.05H144.6a10.27,10.27,0,0,1-.22-2.39,6.12,6.12,0,0,1-2.29,2.17,6,6,0,0,1-2.59.54A5.1,5.1,0,0,1,136,75.21a4,4,0,0,1-1.32-3.14,4.9,4.9,0,0,1,.77-2.65A5.06,5.06,0,0,1,138,67.53a23.94,23.94,0,0,1,6.23-1v-.88A2,2,0,0,0,142,63.4a2.33,2.33,0,0,0-2.64,2.22l-4.16-.39a4.73,4.73,0,0,1,2.46-3.69,9.81,9.81,0,0,1,4.67-1.09,11.59,11.59,0,0,1,2.93.36,4.89,4.89,0,0,1,2.15,1.09,3.89,3.89,0,0,1,1.05,1.54,10.08,10.08,0,0,1,.27,2.82v6.93A10.57,10.57,0,0,0,149,76.05Zm-4.78-7.32c-3.15.31-4.73,1.27-4.73,2.86A2.05,2.05,0,0,0,140,73a1.77,1.77,0,0,0,1.42.59,2.48,2.48,0,0,0,2-1,3.75,3.75,0,0,0,.81-2.45Z"/><path class="cls-1" d="M165.86,70.32a6.44,6.44,0,0,1-2.14,4.38,7,7,0,0,1-4.87,1.67,7,7,0,0,1-5.27-2.14,8,8,0,0,1-2-5.73,8.19,8.19,0,0,1,2.09-5.82,7.22,7.22,0,0,1,5.56-2.23,6.64,6.64,0,0,1,4.64,1.68,6.15,6.15,0,0,1,2,4.21l-4.21.24c-.14-1.84-.93-2.76-2.39-2.76-1.78,0-2.68,1.47-2.68,4.39,0,2,.25,3.19.75,3.71a2.42,2.42,0,0,0,1.83.79c1.39,0,2.22-.88,2.49-2.65Z"/><path class="cls-1" d="M172.8,55v4.51h-4.52V55Zm0,5.8V76.05h-4.52V60.77Z"/><path class="cls-1" d="M188,64.46l-3.29.88a2.75,2.75,0,0,0-3-2.08c-1.51,0-2.27.46-2.27,1.38a1.06,1.06,0,0,0,.42.88,5.55,5.55,0,0,0,2.17.55,19.33,19.33,0,0,1,3.87.8,4,4,0,0,1,2,1.53A4.56,4.56,0,0,1,188.6,71a4.75,4.75,0,0,1-1.8,3.85,7.62,7.62,0,0,1-5,1.48c-3.9,0-6.22-1.51-7-4.52l3.8-.56c.31,1.37,1.44,2.06,3.39,2.06a4,4,0,0,0,1.89-.41,1.2,1.2,0,0,0,.77-1.08q0-1.06-1.71-1.26-4.63-.57-6.09-1.77a4.1,4.1,0,0,1-1.46-3.36,4.5,4.5,0,0,1,1.69-3.6,7.19,7.19,0,0,1,4.76-1.42,7,7,0,0,1,3.87.95A6,6,0,0,1,188,64.46Z"/><path class="cls-1" d="M196.5,64.28v6.46a2.56,2.56,0,0,0,.36,1.62,2.4,2.4,0,0,0,1.7.41c.42,0,.89,0,1.44-.06v3.34a18.72,18.72,0,0,1-2.83.34,5.89,5.89,0,0,1-4-1.08c-.79-.73-1.18-2-1.18-3.92V64.28h-2.42V60.77h2.68l.36-4.51L196.5,56v4.82h3.28v3.51Z"/><path class="cls-1" d="M229.94,64.78a14.59,14.59,0,0,1-3.38,6.57,2.91,2.91,0,0,0,2.12,1,10.87,10.87,0,0,0,1.26-.1V75.9a8.51,8.51,0,0,1-2.08.29,5.59,5.59,0,0,1-4.46-2,10.11,10.11,0,0,1-6.47,2.25q-4,0-5.91-2A6.31,6.31,0,0,1,209.08,70c0-2.74,1.7-4.73,5.12-6a11.54,11.54,0,0,1-1.56-2.35,4.68,4.68,0,0,1-.35-1.79A4.23,4.23,0,0,1,214,56.31,7.4,7.4,0,0,1,218.66,55a6.51,6.51,0,0,1,4.53,1.46,4.73,4.73,0,0,1,1.62,3.67q0,3.4-3.89,5l2.91,3.16a8.61,8.61,0,0,0,1.82-4.08Zm-13.28,1.93c-1.61.56-2.42,1.52-2.42,2.9a3,3,0,0,0,.87,2.12,3.1,3.1,0,0,0,2.35.92,5.4,5.4,0,0,0,3.45-1.26Zm2.18-4.14c1.47-.55,2.21-1.34,2.21-2.39a2,2,0,0,0-.6-1.46,2.23,2.23,0,0,0-1.65-.6,2.12,2.12,0,0,0-1.4.44,1.38,1.38,0,0,0-.56,1.13,3.16,3.16,0,0,0,1.14,2Z"/><path class="cls-1" d="M253.07,55.39V76.05H248.9V73.66a4.75,4.75,0,0,1-8.21.65,9.83,9.83,0,0,1-1.46-5.73,10.54,10.54,0,0,1,1.46-6,4.81,4.81,0,0,1,4.24-2.16,4.29,4.29,0,0,1,3.76,1.92v-7Zm-4.38,11.78q0-3.6-2.19-3.6-2.61,0-2.61,5.08,0,4.53,2.45,4.53a2.09,2.09,0,0,0,1.64-.82,3.4,3.4,0,0,0,.71-2.33Z"/><path class="cls-1" d="M270.52,69.17h-9.84c0,.27,0,.51,0,.71a3.27,3.27,0,0,0,.87,2.47,2.94,2.94,0,0,0,2.09.83,2.57,2.57,0,0,0,2.71-2.41l4.08.3q-1.71,5.31-7,5.3a7.71,7.71,0,0,1-3.88-.91A7.25,7.25,0,0,1,257,72.79a8.19,8.19,0,0,1-1-4.21A8.3,8.3,0,0,1,258,62.69a7.37,7.37,0,0,1,10.42-.16C269.81,63.92,270.52,66.13,270.52,69.17Zm-9.86-2.62h5.44c-.14-2.1-1-3.15-2.59-3.15S260.87,64.45,260.66,66.55Z"/><path class="cls-1" d="M285.09,60.77l-5.23,15.28h-3.51l-5.26-15.28h4.69l3,9.68,3-9.68Z"/><path class="cls-1" d="M300.4,69.17h-9.84c0,.27,0,.51,0,.71a3.24,3.24,0,0,0,.88,2.47,2.92,2.92,0,0,0,2.08.83,2.57,2.57,0,0,0,2.71-2.41l4.08.3q-1.71,5.31-7,5.3a7.71,7.71,0,0,1-3.88-.91,7.25,7.25,0,0,1-2.63-2.67,8.19,8.19,0,0,1-1-4.21,8.34,8.34,0,0,1,2.08-5.89,7.37,7.37,0,0,1,10.42-.16C299.69,63.92,300.4,66.13,300.4,69.17Zm-9.86-2.62H296c-.14-2.1-1-3.15-2.59-3.15S290.75,64.45,290.54,66.55Z"/><path class="cls-1" d="M303.24,76.05V55.39h4.52V76.05Z"/><path class="cls-1" d="M317.8,60.45a6.8,6.8,0,0,1,5.45,2.28,8.55,8.55,0,0,1,2,5.73,8.12,8.12,0,0,1-2,5.65,6.9,6.9,0,0,1-5.4,2.26,6.59,6.59,0,0,1-5.23-2.24,8.43,8.43,0,0,1-2-5.75,8.92,8.92,0,0,1,.88-4.14,7.42,7.42,0,0,1,2.43-2.75A6.82,6.82,0,0,1,317.8,60.45Zm.12,2.95a2.15,2.15,0,0,0-1.93,1,7.94,7.94,0,0,0-.65,3.94,8.79,8.79,0,0,0,.62,3.89,2,2,0,0,0,1.93,1.19,2.17,2.17,0,0,0,1.85-1,7.13,7.13,0,0,0,.71-3.84,9,9,0,0,0-.62-4.09A2.08,2.08,0,0,0,317.92,63.4Z"/><path class="cls-1" d="M328.05,81.22V60.77h4.15V63a4.07,4.07,0,0,1,4-2.56,5,5,0,0,1,4.06,2,9.18,9.18,0,0,1,1.58,5.79q0,4-1.59,6.09a5,5,0,0,1-4.16,2.05,3.86,3.86,0,0,1-3.69-2v6.86Zm4.38-11.86a8.65,8.65,0,0,0,.19,2.24,2.33,2.33,0,0,0,.84,1.12,2.23,2.23,0,0,0,1.37.49,2.07,2.07,0,0,0,1.65-.95c.49-.63.73-2,.73-4.17q0-4.52-2.39-4.52a2.18,2.18,0,0,0-1.65.8,3.94,3.94,0,0,0-.74,2.72Z"/><path class="cls-1" d="M358.51,69.17h-9.84c0,.27,0,.51,0,.71a3.27,3.27,0,0,0,.87,2.47,2.94,2.94,0,0,0,2.09.83,2.57,2.57,0,0,0,2.71-2.41l4.08.3q-1.71,5.31-6.95,5.3a7.71,7.71,0,0,1-3.88-.91,7.25,7.25,0,0,1-2.63-2.67,8.19,8.19,0,0,1-1-4.21A8.3,8.3,0,0,1,346,62.69a7.37,7.37,0,0,1,10.42-.16C357.8,63.92,358.51,66.13,358.51,69.17Zm-9.86-2.62h5.44c-.14-2.1-1-3.15-2.59-3.15S348.86,64.45,348.65,66.55Z"/><path class="cls-1" d="M365.73,76.05h-4.38V60.77h4.14v2.84q.94-3.18,3.3-3.18c.22,0,.49,0,.81,0v4.45a4.49,4.49,0,0,0-2.14.42,3.14,3.14,0,0,0-1.25,1.52,7.55,7.55,0,0,0-.48,3Z"/><line class="cls-2" x1="34.15" y1="0.67" x2="34.15" y2="40.57"/><line class="cls-2" x1="20.16" y1="16.21" x2="20.16" y2="40.57"/><line class="cls-2" x1="6.16" y1="28.8" x2="6.16" y2="40.98"/><line class="cls-2" y1="48.73" x2="39.9" y2="48.73"/><line class="cls-2" x1="15.54" y1="62.72" x2="39.9" y2="62.72"/><line class="cls-2" x1="28.13" y1="76.71" x2="40.31" y2="76.71"/></g></g></svg>