<svg xmlns="http://www.w3.org/2000/svg" viewBox="0 0 211.98 123.68">
  <defs>
    <style>
      .cls-1 {
        fill: #d2e49a;
      }
    </style>
  </defs>
  <g id="Layer_2" data-name="Layer 2">
    <g id="mortar-pestle-logo">
      <g id="greater-less-than">
        <g>
          <path class="cls-1" d="M173,102.68,202.61,86.3a.64.64,0,0,0,.32-.55h0a.63.63,0,0,0-.33-.54L173,68.91a.63.63,0,0,1-.32-.54V60a.63.63,0,0,1,.93-.55l38.1,21.36a.62.62,0,0,1,.31.54v8.79a.63.63,0,0,1-.31.54L173.57,112a.63.63,0,0,1-.93-.54v-8.27A.64.64,0,0,1,173,102.68Z"/>
          <g id="greater-less-than-2" data-name="greater-less-than">
            <path class="cls-1" d="M39.34,103.23v8.27a.62.62,0,0,1-.92.54L.32,90.69A.62.62,0,0,1,0,90.15V81.36a.61.61,0,0,1,.32-.54l38.1-21.36a.62.62,0,0,1,.92.55v8.36a.61.61,0,0,1-.32.54L9.38,85.21a.62.62,0,0,0-.32.54h0a.62.62,0,0,0,.32.55L39,102.68A.62.62,0,0,1,39.34,103.23Z"/>
          </g>
        </g>
      </g>
      <g>
        <path class="cls-1" d="M137.9,109.62v-.33a42.1,42.1,0,0,0,6.28-5.28c11.26-11.52,16.16-29.5,13.71-47.91H54.09C51.64,74.51,56.55,92.49,67.8,104a41.66,41.66,0,0,0,6.29,5.28v.33Z"/>
        <path class="cls-1" d="M162.3,51.1V42.34a1.11,1.11,0,0,0-.67-.91,3.52,3.52,0,0,0-1.61-.38H145.25l15-30c1.68-3.37.72-7.28-2.15-8.71L154.62.55c-3-1.49-6.8.14-8.55,3.64L123.46,41.05H52c-1.26,0-2.28.58-2.28,1.29V51.1Z"/>
        <path class="cls-1" d="M74.09,114.62v6.25a3.26,3.26,0,0,0,.37,1.58,1.08,1.08,0,0,0,.92.65q15,.57,31,.58,15.6,0,30.22-.58c.72,0,1.3-1,1.3-2.23v-6.25Z"/>
      </g>
    </g>
  </g>
</svg>
