<svg xmlns="http://www.w3.org/2000/svg" viewBox="0 0 184.98 113.74">
  <defs>
    <style>
      .cls-1 {
        fill: #d2e49a;
      }
    </style>
  </defs>
  <g id="Layer_2" data-name="Layer 2">
    <g id="mortar-pestle-logo">
      <g>
        <path class="cls-1" d="M145.26,84.24a1.63,1.63,0,0,1-1.62-1.62V74.34a1.6,1.6,0,0,1,.84-1.41l29-16.06-29-16a1.62,1.62,0,0,1-.84-1.42V31.12a1.63,1.63,0,0,1,1.62-1.62,1.66,1.66,0,0,1,.79.21l38.1,21.35a1.63,1.63,0,0,1,.83,1.42v8.78a1.63,1.63,0,0,1-.83,1.42L146.05,84a1.56,1.56,0,0,1-.79.21Z"/>
        <path class="cls-1" d="M39.72,84.24a1.56,1.56,0,0,1-.79-.21L.83,62.68A1.63,1.63,0,0,1,0,61.26V52.48a1.63,1.63,0,0,1,.83-1.42l38.1-21.35a1.66,1.66,0,0,1,.79-.21,1.63,1.63,0,0,1,1.62,1.62v8.37a1.62,1.62,0,0,1-.84,1.42l-29,16,29,16.06a1.61,1.61,0,0,1,.84,1.41v8.28a1.63,1.63,0,0,1-.5,1.17,1.61,1.61,0,0,1-1.12.45Z"/>
      </g>
      <g id="Layer_2-2" data-name="Layer 2">
        <g id="capsule">
          <path class="cls-1" d="M120.82,2.8h0A25,25,0,0,0,87.07,13.56L53.8,77.12A25,25,0,0,0,64.17,111h0a24.85,24.85,0,0,0,19,1.61,25.75,25.75,0,0,0,14.7-12.37l16.56-31.58,16.71-32A25,25,0,0,0,120.82,2.8ZM93.5,95.2A20,20,0,0,1,85.22,104c-7.07,4.1-14.63,2.41-17.92,1.37-9.16-4.82-12.37-16.88-7.15-26.84,4.9-9.48,9.88-19,14.78-28.52A72,72,0,0,0,92,62.42a69,69,0,0,0,15.67,5.78Zm5.86-81.15A34.39,34.39,0,0,0,97,17.58c-4.5,8-10.77,19.85-12.37,22.9A7.82,7.82,0,0,1,81.68,38L93,15.57a25.15,25.15,0,0,1,7.8-7.87,22.81,22.81,0,0,1,4.26-2.17l2.25-.64,2,1.68a25.35,25.35,0,0,0-10,7.48Z"/>
        </g>
      </g>
    </g>
  </g>
</svg>
