<svg xmlns="http://www.w3.org/2000/svg" xmlns:xlink="http://www.w3.org/1999/xlink" viewBox="0 0 1920 373"><defs><symbol id="a" data-name="Trees" viewBox="0 0 1920 315"><path d="M1920 217l-12 6c-2-2 11-8 12-10-3 3-17 8-12 1 11-7 9-7-3-4 0-1 13-7 12-8l-10 4c1-1 8-4 8-7-2 1-16 8-7 0-5 0 5-5 5-9-7 2 0-1 0-3 0 0-10 5-11 4 2-2 12-7 5-5-1-1 5-4 5-5-3 0-1-1-1-2-8 4-4-1-10-1l6-6c-1 0-8 5-8 2 10-6 3-2-3-2 2-1 11-4 9-8l-7 2s9-4 8-5c-2 1-8 3-11 2 12-9-5-2 6-10-9 3-2 0 1-3l-6 1c6-5 0-2-3-2 11-6-4-1 2-6-4-2 1-3 2-4-7-2 5-9-4-7-3-3 7-10 0-7l2-3c-1 0-4 3-4 0l1-3c-1 0-3 2-4 0 4-4 6-3 3-7 2-5-1-2-3-3 1-2 4-3 1-4 0-2 3-8-1-5-1 3 2 7-3 3-1 1 3 5 3 5-4-3-4-1-2 2-5-2 3 5-2 3 1 2 0 1-1 3 3 3 3 5-2 2 0 1 7 7 2 4 4 6-2 2-4 1-2 2 5 7 2 7-4 2-2 2-6-1 1 3 9 10 0 6 0 1 7 6 2 4 5 5-2 3-4 2 0 1 5 4 1 3 3 3 1 4-2 3 3 4 0 2-3 0l5 5c-4 2-9-5-3 2-7-1 7 6 6 9-3 0-2 2-2 4-2 2-13-7-10-2 8 6 11 10-1 3 0 2 10 7 10 9l-8-3c-10-5 5 5 6 8-1 1-7-2-7-2 3 3 2 3-1 1-1 2 8 5 3 5-9-4-6 0 2 5h-1a1 1 0 010 1v-1c-2 0-6-3-5-3-2 2-8-2-2 3a1 1 0 010 1 35 35 0 013 2c1 1-4-1-3-2l-3-1c3 3-1 1-2 0 7 8-30 19-6 5a40 40 0 01-5 2c8-6 15-14 16-24-1 6-4 10-9 14a24 24 0 006-10 22 22 0 01-9 10c7-5 11-13 11-21 0 8-5 16-14 21 4-4 14-14 13-22-1 11-14 17-27 18 12-3 21-12 22-21-13 17-8 11-4 1a20 20 0 001-2c-3 7-12 12-21 14 10-3 18-10 21-18-3 6-8 10-15 13 7-4 12-10 14-16a18 18 0 01-3 6c1-3 2-6 1-9-1 7-9 13-18 13 8-4 17-11 17-20-2 6-6 10-12 13 4-3 6-6 8-10-13 12-14 7-3-1-17 9 3-3 2-15-1 6-6 10-12 12a23 23 0 009-12c-10 11-12 9-6 2-2 1-1-3 2-8-4 6-6 5-3 0-5 6-5-23-5-8-3-12 0 2 0 7-3-30 0 18-4-17a92 92 0 010 15v-10 4a105 105 0 000-1v-8a76 76 0 01-1 12v-11-8c0 5-1 3-1-1v1l-1-11a90 90 0 010 11 54 54 0 010-8c-1 9 1 18 2 27l-1-1v2a44 44 0 01-1-10 72 72 0 001 14c-2-5-2-11-1-16l-1 9v-1 4a61 61 0 01-1-7l-1 2c-1 3 1 8 1 11-1-4-2-14-2-4l-1-2c2 8 0 7 0-1-2 3 5 18-4 4 2 6 6 10-2 6 8 8-1 4-4-3-2 7 15 21 5 16 4 3-3 8-9-4 0 6-1 8 6 14-4-2-6-6-9-9l5 11c-11-10-5 1 1 6a18 18 0 01-3-2 21 21 0 01-3-2c5 7 14 13 24 14-6 0-11-1-15-3a27 27 0 01-11-8 29 29 0 007 9c-4-3-8-5-9-9a21 21 0 001 2 20 20 0 01-2-3c2 5 5 10 9 14-2-1-3 0-6-4 3 5 1 3-3 0 4 5 10 9 16 12-10-2-17-8-20-16a35 35 0 0025 23c-12-2-21-9-24-17a23 23 0 006 11c-21-19-3 6 16 11a40 40 0 01-13-5l1 1c-6-3-11-7-13-12l1 2-3-4a20 20 0 01-2-6c1 9 2 16 12 25a31 31 0 01-10-9c0 1 1 3-1 1l8 11c-16-1-7-19-17-15 5-4-1-8 3-12-8 4 0-5-2-8-9 8 3-9-5-3 4-4 1-10-2-13 1-5-1-7-2-13v-3 2c-1-12 0 0-1 4-2 1 0 7-1 10-4-1-1 3 0 5 0 5-7-4-2 6-4 0-2 5 0 7-5 0-6 8-1 11-6 3-6-3-2 8 2 6-12-3-3 7-3 3 4 4-2 6 0 3 7 6 0 6-1 5 4 8-3 4 8-6-5 0-8-2 6-3 17-7 1-4 1 0 16-8 5-5 1-1 7-3 3-4-1-1-9 3-10 2-1-2 5-3 6-5l-7 1s10-3 5-4c-8 0-6 0-1-4-9 0 1-2 1-5l-6 1c1-1 4-2 3-3 4-4 2-2-2-2 1-2 4-4 4-6-1-1-5 3-5 0 0 0 4-3 3-4l-3 2c-1-3 5-6-1-5 0-1 4-3 1-3l-1-2c-6-4-3 0-2 3 1 4-2 0-2-1-3 3 6 7 1 8l-1 1c-6-4 0 2 1 3 1 5-4-2-5-2l4 8-5-2c1 2-1 2-3 2l8 7c-10-1 1 5-9 0 4 6-5-2 0 6-1 1 6 4 6 4-2 1-8-3-7 1l8 5c-1 1-12-5-12-6 0 6 19 14 3 9v1c-7 0-2 1 0 4-3-1-5-3-3 2-1 4 6 6 9 8-18-7-14-3-1 4-23-6-6-12-28-4 1 0 17-8 8-7 2-2 8-6 0-3 6-6 7-6-1-2 7-9-4 0 3-9-7 3 2-3-8 1l5-6c2-4-10 4-12 2-1-2 5-3 6-5l-7 2c-3-4 13-8 7-8h-6c1-2 6-3 1-3 8-6 2-3-3-3-5-2 5-4 5-6-1 0-3 1-3-1-4-1-1-1 0-3-2-1 3-3 3-4-5 2-1-2-5-3-6 0-2 0 0-2-5 0 0-2 1-3 0-7 2-5-5-3-2-2 4-4 3-7l-3 2 2-4c-1-1-4 2-3-1-1-2 6-11 0-6 2 3-2 0-2 0 3 6-2 0 1 6-5-4-1 2 0 4-5-3-2-1-1 2-7-5-2 0-1 4 0 3-3-1-4-1 1 3 0 2-2 1 6 10-5-2 2 9-2 0-5-2-3 2-8-3 1 2 0 4-11-4 0 4-6 3 6 6 2 4 4 8l-6-3c-1 1 10 7 10 7-1 1-9-4-10-4 3 5 18 13 1 7 10 6 9 6-3 0 3-3 1-1-1-1-1 3-5 4-7 5 0-1 8-7 8-9-1 2-21 15-14 8 0-1 14-9 6-7-14 6-1-2 2-6 0 0-9 5-10 4l12-9c-1 1-14 8-15 7 3-2 11-6 12-10 0-1-12 7-14 5 2-1 16-10 12-11-3 2-9 5-13 4 2 0 13-6 12-8-2 1-11 6-13 4-2-1 14-8 13-11-2 2-8 6-12 5 6-2 19-14 4-6 0-2 2-2 0-3l4-4c-6 2-3 0 0-3-4 1-8 3-3-1-3-1 1-3 1-4-7 3-13 6-2-1-16 6-6 0-1-4 1 0-7 4-8 3 3-2 6-2 4-5-7 1-1-3 1-5l-5 1s10-4 5-5v-1c-12 3-4-2 0-5-8 3-7 3-2-2 0-3-1-1-2-1 0-3-3 1-5 0 0-2 5-4 5-6-2 1-5 1-5-2 2-2 3-4-1-3 1-2 6-4 1-3 1-2 3-4-1-4l1-2c-4-2-1 1-1 3-5-2-1 3 0 4-3-1-1 2 0 3-1 1-4-3-4-2-1 1 3 4-1 2l4 9c-4 0-1 1-1 3l-4-2 4 4c-4 1-4 0-7-2 6 7 5 7-1 1 0 2 4 6 6 7-4 0-4 0-1 3-1 1-4-1-6-1l5 4c-1 1-5-2-4 1-3 0-2 2-5 0 3 5-4 2 3 8-2 1 2 3 2 5-1 3-9-6-8-2 1 3 20 13 3 8l6 4c-3 0-9-3-11-4-1 3 17 11 4 6-3-1-4-1-3 3 0 2 10 7 1 4 3 3 10 6 0 3 11 8-2 1-4-1 1 4 22 12 5 6-1-1-7-2-2 1-3 1-7-4-2 2-1 1-4-3-4-2 4 2 0 8-3 4-1-2 5-6 6-7-3-2-11 5-15 5l12-8c-4 1-5 2-2-2l-10 5c2-1 12-7 12-10-1-1-5 3-5 2-1-2-3-1-1-3-13 5 0-1 1-4-10 5-2 0 1-3-14 9-4-1-2-6-16 9-13 8-1-2-1 0-7 6-6 2l-6 1c0 1 13-7 12-8-18 10-11 5-1-3l-9 4c1-1 8-5 7-7l-10 5c1-1 9-4 7-7-1-1-9 4-11 3 0 0 11-5 10-6-13 2 4-4-10-2l8-4c-5 0 2-3 2-4 0 0-9 4-10 3 0-2 5-3 5-5l-7 2c1-2 6-4 7-5h-4c3-3 3-4-2-3l7-5c1-3-6 3-7 2 0-1 9-5 5-5 0-1-7 2-8 1l7-3-6 1c7-4 2-4 5-8l-6 2c1-1 6-3 5-5-4 1-3-1-1-4-4 2-4 2-2-1 0-4-4 3-1-6l-3 1c1-1 4-4 4-6l-4 2c1-2 2-2 0-2 1-2 2-7-1-6 0-4 2-6 1-9h-1-1c1 2-2 3-1 6-2 2 5 11-2 5 3 5-5 3 1 9l-4-2 3 4c-6-5-2 5 0 7-7-2-5-2-3 4-11-6-2 3 1 5-1 3-6-1-7-1l4 4-4-2c1 2 4 4 4 7-5 1-2 4-1 6l-4-1 6 4c-7-1-11-3-3 3-7-1 0 0-2 3-5 0 0 1 1 3-4 0-1 1 0 3-1 1-4-1-5-1 6 7-3 0-5-1-1 2 11 9 11 8-4 2-18-10-9-1-13-4 5 9 7 9-12-3-17-8-3 3-2 1-15-11-7-2-4-1-2 0 0 3-2 0-6 1-13 5-2-4 10-8 8-12-7 3 3-8 2-12 0 2-6 9-7 8 4-6 4-14-4-10 3-2 8-8 5-11-1 1-9 7-4 0 4-7-4-2 1-9-8 1 0-6 0-9-10 8 3-4-6-3 3-4 8-7-2-3 6-5-1-2 3-8-6 1 4-5-3-3 2-2 1-8 0-3a105 105 0 01-1-13c0 5 1 11-1 13 3 8-5 1 0 8 5 6-5 0-4 5 16 16-11-1 5 10-13-6-7 12 0 16-1 1-10-3-10-4 0 2 6 7 7 7-1 1-7-2-8-4 2 6 15 12 0 6 0 3 3 7 7 9-9 0 0 3 2 5-3 2-9-3-7-6-1 1-5 2-6 0l-4 1c1-1 8-4 6-6-7 4-7 0-3-4-5 1-4 1-1-2-6 0 2-3 2-4-3 0-4 1-1-2l-8 2c1-1 2-1 0-3 2-1 3-1 1-2l6-5c-1 0-9 3-7 1 3-4 8-8-1-4 2-2 7-5 1-4-4-1 2-3 1-5-7 1 1-5 0-7-4 1-2-1-1-3-1 0-3 2-2-1-2-3 1 5-2 5s6 9-2 4l4 4c-2 0-2 0-2 2-4-2-1 0 0 2 2 4-1 1-3 1l-3 1c0 1 5 5 1 4-3 0 1 3 1 4-2 2-3 0-6-1 4 4 9 9 0 4 2 3 2 4-2 3-1 1 8 6 8 6-2 1-7-4-7 0 9 7 2 4-3 1l8 6c4 4-7 0-9 0-1 2 6 6 7 7 1 3-6-2-7-2 5 5 16 9 1 4-1 1 7 4 8 5-1 1-9-3-9-3 5 5-2 4-2 0-3-3 0-5 3-11-1 0-12 11-5 2-1-9 0-8-6-5 5-5 10-14-1-7 1-3 6-8 0-7 0-2 6-6 0-4-4-1 3-7 3-10l-6 5c11-14-8 3 4-13-9 8-7 6-3-4-6 3-1 0 0-3-11 6-1-1 0-5l-4 2c-3-2 6-6-2-3 3-3 3-7 4-10-13 5 1-2-5-5-2-2 2-4 2-6-9 4 0-5-3-8-8 8 4-9-4-2 4-5 1-10-3-13 2-6 0-7-1-14v2l-1-3-1 15c-4-1-1 3-1 5 1 4-6-4-1 6-5 0-3 4-1 7-4-1-6 7 0 10-6 3-6-3-2 8 2 7-13-3-4 7-3 3 5 4-1 7 0 3 6 6 0 5-2 6 5 9-5 4-1 3 5 6 7 8-3 4-8-2-2 5 1 5-5 1-7 0 4 6 8 10-2 5l8 7c0 4-6-1-7-1-2 3 5 6 5 7-14-7-12-1-2 6-5 1-9-3-8-7-2 3-6 8-7 7 4-6 4-14-4-10 3-1 8-8 5-11-1 2-9 7-4 1 4-7-5-2 1-9-8 1 0-6 0-10l-5 3c2-3 5-5-2-5 3-5 9-7-1-3 6-6-1-2 3-9-6 2 4-5-4-2 3-2 2-8 1-3a104 104 0 01-1-13c0 4 1 11-1 12 3 8-5 1 0 8 4 7-5 1-4 5 16 16-12-1 5 11-13-6-7 12-1 15 0 2-9-2-9-3-1 1 6 7 7 7-1 1-9-4-8-4-1 1 6 6 8 7-12-3-8 2-1 8-7-2 1 8-11-2 1 5 7 10 12 12-2 1-8-2-10-3 7 7 0 5-5 0 1 8 6 12 13 17-4-2-17-5-13-10l-2 1a32 32 0 01-11 2c1-1 7-4 6-6-12 4-7 0-2-5-8 1 1-2 2-4-3 1-4 1-2-2 0 0-4 2-5 1 4-3 12-8 1-3 3-3 4-5-2-4l6-4c-2 0-6 3-6 1-1-2 3-4 4-5 0 0-7 3-8 2 4-3 11-3 1-4 1-1 5-3 5-5-6 0-2-2 0-4-5 2-7 4-2-2-2 0-4 1-5-1 1-1 9-7 2-3 1-3 2-3-2-2 2-3 3-4-1-3 1-1 5-5 1-3 1-3 3-7-1-6 1-2 3-4-1-3 4-6 0-6 0 0-1 2 3 8-1 4 2 4 1 4 1 7-3-1-2-1-1 2l-3-1c6 13-5-1 1 9l-3-2c0 2 2 5-2 3 2 3 4 4 0 6 4 4 5 4-2 2l6 5c-2 2-12-7-6 0 8 7 2 5-4 1l8 9c-1 1-10-6-6 0 7 8 5 7-3 3-1 2 4 5-1 4 5 5 1 2-2 0-1 2 7 5 1 4 3 5 0 1-2 1 0 1 5 5 0 3 2 4 17 10 2 4l5 4c-1 1-7-3-7-1 1 2 8 5 1 4l8 5-7-2c0 1 6 3 1 3l5 3c0 2-13-5-13-6-7-1 10 9 11 9-10-2-1 2 1 5l-13-6c2 3 10 7 13 9l-15-4c-7-4 1 2 1 4l-5-4c3 3-8 7 2-4-4 3-11 8-3-1-7 3 0-2 0-4-5 3-2 0-1-3 0 0-5 4-5 2 1-1 11-10 2-4-3-2 1-4 1-5-6 3 2-5 0-9-12 5 2-2-4-5-2-2 2-4 2-6-9 4 0-5-3-8-1 1-4 5-3 1 0-2 4-7-1-3 4-5 0-8-1-13l-4-21v2c-1 6 1 17-4 19 0 2 5 10-1 5-1 3 5 7 0 6-3 3 5 8-2 6 0 2 2 3-1 4-4 5 10 9-1 8 1 4 7 11-2 10-5 0 1 3 1 4-3 2 4 4 0 6-5 2 7 7-1 7 1 7-2 8-1 0 0 1-1 6-2 4-2-1 2-8 1-11 0 8-3 13-9 19 2-4 9-12 8-19 0 8-7 14-15 15 5-5 12-10 12-18-9 15-6 9-3 1l1-2c-2 6-7 10-13 12 6-4 11-9 13-15a20 20 0 01-11 11 23 23 0 0010-14 17 17 0 01-2 5 14 14 0 001-8 14 14 0 01-13 12c6-4 12-10 12-17a17 17 0 01-8 10c3-2 4-5 5-8-7 9-10 6-2-1-10 7 2-4 1-13a14 14 0 01-8 10c4-2 5-6 7-10-8 10-9 8-5 1-1 2-1-2 2-7-3 6-5 5-2 0-4 6-4-20-4-7-2-10 0 2 0 7-2-27 0 16-3-15a99 99 0 010 13v-9-4a82 82 0 010 10v-9 3l-1-11c0 5 0 3 0 0v1l-1-10v10a58 58 0 010-7c-1 8 0 16 1 23v1a47 47 0 01-1-9 77 77 0 001 13c-2-5-1-10-1-14l-1 7v3l-1-6a7 7 0 000 2c-1 3 0 6 1 10-1-4-2-13-2-4v-2c1 7-1 7 0 0-2 2 3 15-3 2 1 6 4 9-2 6 6 7-1 3-2-2-2 6 10 18 3 13 3 3-2 8-7-3 1 5 0 7 5 12-3-2-5-5-6-8 1 3 1 7 3 10-8-9-3 1 1 5a12 12 0 01-3-2v1a16 16 0 01-2-3c3 9 26 17 6 10l1 1a20 20 0 01-8-7 25 25 0 005 7c-3-2-6-4-6-8a21 21 0 000 2 18 18 0 01-1-3c1 5 3 9 6 13-1-1-1-1 0 0a19 19 0 01-4-4c2 4 1 3-2 0 3 5 7 8 11 11-7-2-12-7-14-14 2 9 9 17 18 20-9-2-15-8-17-15a22 22 0 005 10c-15-17-3 5 11 9a26 26 0 01-10-4l1 1c-4-3-8-6-9-11v2a13 13 0 01-2-4v1a21 21 0 01-1-6c-1 5 4 12-3 12-11 5-2 0 2-3-5 1-1 0 0-2-7 0-2-3 0-6-3 2-16 7-4 0-10 1-3-2 1-5-3-2-2-3 0-5 0-2-7 3-8 1 0 0 8-3 7-4-6 2-11 4-2-2-4 1-5 4-5-1 1-2-3-2-1-5 6-6-6 3 3-6 0-2-2 0-2 0l2-4-4 1 3-4-3 1c0-1 3-3 0-2 0-3 3-4-1-4-2-2 1 3 1 4-2-1-2 0-1 1l-1 2c-4-2 1 1-1 3-4-3-1 0-1 2-5-4 2 3 2 4-10-6 3 6-5 0 3 5 6 8-3 5 1 2 10 10 1 6-6-4 3 4 4 4-3 0-7-2-8-3-1 1 6 6 6 6v4c-2 2-7-1-9-2 0 2 10 6 6 7l-4-1c8 6 1 3-3 0 10 8 11 9-1 2-1 1 9 7 10 7-2 2-14-8-9-1-3-2-2-3-3 1 0 2 11 9 0 5 3 3 6 7 10 9-3 1-12-8-8 0l5 4-10-5c2 3 8 7 12 9-5 4-22-12-7 1-1 3-6-2-7-2-1 3 6 8 9 10h-5c1 2-1 1-2 1-11-7-2 1 1 4-2 0-13-12-6-2l12 8c-3 1-13-5-15-7-1 1 12 10 12 10l-12-7c4 5 13 11 15 13l-7-2-11-7c4 7 27 18 5 7-10-5 0 6 6 9-6 1-13-11-13-5-5-2 1 2-1 4-17 8-8 5-2-2-14 5-2-2 1-6 0-1-19 9-7 0-6 0-2-1 0-3-4-1 5-4 4-6-4 2-3 2-1-1 0 0-12 6-6 1-4-1 3-4 4-6-6 0-10 2-3-3-4 0-8 0-3-4 5-5 4-8-3-6 6-3 3-4-2-4 0 0 9-7 3-5 1-3-2 2-4 1 1-1 7-6 2-4 3-4-2-2 0-6-2 1-1 1-2-1-3 0-1 4 1 6-5-2-2 0-1 2-1 3 0 3-3 2-4-1 2 4 2 5-2 1-5-5-6-2 9 15-2 4 2 12-5-1-5-5-3 2 6 5 1 2-3 1-2 2 6 5 7 6-1 1-8-4-9-3-5 3-1-3 0-5-13 8-9 2-2-4l-9 3s9-4 9-6c-10 4-11 4-3-3-1 0-3 1-3-1-1 0-6 2-2-1-1-2 5-4 3-6 0-1 1-2-1-2 0-2-1-1-2-1h-3c0-1 5-3 0-2-1-2 3-4 3-5-3 0-1-1-1-2l-3 1c1-1 4-4 3-6-2 1-2 3-4 0 1 3-1 2-3 3 0 3 3 11-3 6-1 2 4 5 1 6-2 0 0 2 0 3l-4-3c-3 1 1 3 1 5-6-2 4 3 4 4-1 1-7-3-7-3 4 6-6 0 4 9h-5l5 4-5-1 5 4-5-2 4 4-7-3c0 3 12 8 4 7 8 6-5-2-6-1-3 2 9 8 9 8 0 2-10-4-10-4 0 3 8 7 11 8-1 1-7-1-7-1 1 2 4 2 0 2l3 3-7-2c8 7-2 0-5-1l8 8c-2-1-8-3-5-4h-9l7-3c-2 0-6 1-6-1l6-3c-1 0-9 2-7-1 0 0 8-2 7-4-9 3-4 1-1-2-4 1-4 2-2-2-2 0-1-1-1-2-5 2-2 1 0-2-1-8 0-1-5-6 0 1 4 4 1 4-5-3 0 2-3 1-1 2 7 7 3 7-1 1-4-3-4-3-4 2 8 8 0 7-7-2 2 3 2 5-2 1-6-1-8-2 0 3 12 6 7 8l-7-2c-13 6-4 0 0-5-1 2-13 7-13 6a44 44 0 018-8c-1-3-1-1-4-1 5-6 0-3-4-3l9-5c-2 1-19 8-7 1-1-2 2-4 3-5l-9 2c7-5 11-6-1-4 2-3 9-4 2-4 1-1 8-3 7-6 1-3 0-1-2-1 5-6-5 1-7 0 3-2 2-3 3-5 1-3 2-3-2-3-6-4 8-6-2-6 3-1 6-4 1-3 1-2 6-6 0-5 0-2-2 0-3 0l5-5h-6l5-5c-7 5-4 0-2-3 0-2-2 0-3-1v-5c0-1 3-4 0-2-3-1-1 1-1 3-5-4 0 3 0 6-6-2-4 2-1 5-4-1-2 0-1 2-10-5 5 9-3 6 3 6-3-1-4-1 0 1 6 6 5 7-4 1-7-3-3 3-5 3-7-1 0 5l-6-3c-1 1 6 6 7 6-4 0-2 2 0 4-2 4-8-5-5 3-2 2-7-4-6 0-1 1 5 5 5 5-5 0 2 2 2 4-12-6-10-5-1 2l-8-4c-2 2 8 7 8 9-2 2-8 0-10-1 1 3 7 7 9 8-6 0 2 2-3 3l-10-6c0 2 12 10 13 10-2 0-2 0-1 2-1 1-10-5-10-4 9 8 2 5-3 1-1 1 8 7 8 7l-9-5c4 5 8 7-1 3 0 3 8 8 10 10l-9-4c-3 3 8 10 11 11l-10-4c0 3 17 9 4 6l-7-4c-2 3 11 7 9 10 5 6-10-4-13-6 2-2 0-1-1-1-2 2-6 2-9 1l8-7c-1-3-4 0-2-3l-7 1s7-2 6-3c-8 0-4 0-1-4-5 1 0-4-1-6h-2c-1-3 2-4-2-3 0 3-2 1-3 1 2 4 6 9-2 3l5 6c-3 1-7-5-5 0 0 2 3 4 4 6-1 1-5-3-5-3 6 5-3 6 0 2l-8 2c-10 2-6 0-1-4-13 4 8-4 7-8-4 2-16 9-4 0-7 3-8 3-3-2 1-3-6 2-7 1l9-7c-1 0-11 5-12 4 0 0 10-4 10-6-1 1-16 7-7 1-6 0 0-2 2-4-4-1 2-3 2-4-1-2-12 1-4-5-8 1-2 0 1-2-9 1 2-3 2-5l-8 3c8-8-7-4 4-10-11 1 2-3 1-6l-7 2c-3-3 5-4 3-7-6 2 1-3-4-4 7-11-6 4 2-8-2-2-1-5-1-9-4 2-1-2-1-3s-1 2-2 1c0-1 3-5 1-4 0 2 0 2-1 1 0 1 1 3-1 1a28 28 0 001 5c-5-4 2 3 1 4-4-2-2 1-1 2-4-1-2 1-1 4v3c-5-3-2 3 0 5-2 0-5-5-3 0-8-6 1 3 2 4-11-8-4 0-2 6 1 4-6-3-7-3l3 5c-9-2-2 2-1 6h-4c0 2 3 4 5 6 4 4-4-1-5 0l4 4c-10-3-3 1 1 3-1 1-9-4-9-4-1 1 9 7 9 7-3 1-12-7-4 1l-6-3c3 4 10 5 6 9-11-3 1 2 2 5-7-1-6 0-1 3-1 2-10-4-10-4 4 5 5 3 5 9-1 1-8-6-7-2-1 1 13 7 7 8l-3-1c6 5-6 2-1-1-4 2-5 0-7-1l-7 2c5-2 16-10 3-6 1-2 5-3 1-3l7-5c-10 4-2-2 0-5-1-1-8 3-10 3l6-4s-15 6-8 1c1-2 1-2-1-2l10-6-7 1c3-2 10-7 0-4-16 2 11-7-2-5-6 0 6-3 1-4h-5c9-4 5-2-1-2 1 0 17-8 5-4 7-6-9 3-3-3-5-1 3-3 1-5-6 0 3-2 3-4-7 1 1-2-3-3l-2-1c3-6-2 0-4-1 1-2 9-8 2-5 3-4 1-1-2-1 3-2 5-7 2-8 1-2 0-2-2-2 1-4 2-8 1-10 0-5-1 2-1 4 1 3 0 1-1 0l1 7c0 2 0 2-2 1 0 2 2 5 0 7-4-4 0 2 0 4-8-5 0 3 0 7-11-8-3 0-1 4l-4-2c0 2 4 6 0 5 2 4-1 2-3 2h-3c7 9-5 0 4 10-8-4-5-2-1 2-5 0 4 3 4 4-1 1-11-3-8-6-8 5 18 13 1 8 6 5-1 3-4 1 1 1 0 2-1 1-2-2-6 3-8 2 3-2 8-8 5-11-1 2-9 7-4 0 4-7-5-2 1-9-8 1 0-6 0-9l-5 3c2-3 5-6-1-6 3-4 8-7-2-3 6-5-1-2 3-8-6 1 4-5-3-3 2-2 1-8 0-3a104 104 0 01-1-13c0 5 1 11-1 13 3 8-5 1 0 8 4 6-5 0-4 5 16 16-12-1 5 11-13-7-7 12-1 15l-9-3 7 6c-1 1-9-3-8-4-1 2 6 7 8 8-12-3-8 2-1 7-9 0 0 3 2 5-1 2-11-4-13-6 8 10 17 20-3 9 0 4 7 11 11 13 9 8-10 2-11-1 3 6 2 12 13 15-5 4-16-5-18-9-2 8 33 27 5 14-2-3-4-4-4-6-4-3-4-3-2 2-4 3-9 6-1-2-7 3 0-2 0-4-5 2-2 0-1-3 0 0-7 4-4 1 2-3 9-9 1-4-3-1 1-3 1-5l-4 1c4-5 7-11-2-8 5-4-1-7 3-12-8 4 0-6-2-8-1 1-4 5-4 1 1-3 5-7 0-3 4-5 0-8-2-13l-3-21v2c-2 6 1 17-4 19 0 2 5 10-1 5-2 3 4 6-1 6-3 3 6 8-2 6 2 3 1 4-1 6 10 12-1 0 1 10 4 5 0 6-4 5-1 0-9 5-4 0 7-6-3 0-5 0 0-1 9-5 8-6l-7 3c9-6 5-3-2-2 0 0 9-5 8-6 0 0-7 4-8 3 2-1 1-2 1-4l7-5-5 2 4-4c-1 1-14 7-8 0 3-1 3-4 5-6 1-3-3-2-3-5-1 0-5 2-5 0 2-2 8-6 0-4-1-2 4-3-1-3-1-3 3-4 4-8-1-2-3 0-4 0a10 10 0 000-7c1-1 1-3-1-3 0-2 1-3-1-2 0-1 3-4 1-4h-1v3c0 3 1 3-1 2-1 2 1 5 1 7-6-5-2 0-2 3-4-1-1 1-1 2l-2-1c0 1 3 4 2 6 1 3-3-1-4-1l4 6c-8-6-2 1 0 4-4-2-6-4-2 1l-4-2c-1 3 8 6 2 5l-1 2c9 7-3 1-5 0 0 1 5 4 0 3l6 6c-1 1-7-3-7-3-1 1 6 5 6 5-9-3-1 3 2 4-5 0-5-2-10-1l4-4-4 2c-4-3 5-7-3-4 4-3 3-6 4-10-11 5 1-2-4-5-2-1 2-4 1-6-8 4 1-5-2-8-9 9 3-8-4-2 3-5 0-10-3-13 2-6 0-7-1-13v1l-1-5v2c0-14-1 11-2 15-4-1-1 3 0 5 0 4-6-4-1 6-5 0-3 4-1 7-3 0-4-2-2 2-5 2-2 6 2 8-12 0 5 12-6 10-4 1-3 11-11 10-3-4 8-13 9-23-1 5-4 10-9 14a24 24 0 006-10 22 22 0 01-9 10c7-6 11-14 11-22 0 8-5 16-14 21 4-4 14-13 13-22-1 10-13 19-23 18 10-4 17-12 18-21-13 17-8 11-4 1l1-2c-3 7-11 12-20 14 10-3 17-10 20-17-3 5-8 10-15 12 7-3 12-9 14-16a18 18 0 01-3 6c1-3 2-6 1-9-1 8-9 13-18 14 8-4 17-11 17-20-2 5-6 9-12 12 4-2 6-6 8-9-13 11-14 6-3-1-17 8 3-3 2-16-1 6-6 10-11 12a23 23 0 008-12c-10 12-12 10-6 2-2 2-1-3 2-8-4 7-6 5-3 1-4 5-5-23-5-9-2-12 0 2 0 7-3-29 0 19-4-17a91 91 0 010 16l1-11-1 4v-8 0a76 76 0 01-1 11v-10l1 3-1-12c0 6-1 3 0 0h-1l-1-10a92 92 0 010 11 54 54 0 010-8c-1 9 1 18 2 27l-1-1v1a44 44 0 01-1-10 72 72 0 001 14c-2-5-1-10-1-16l-1 9v-1 5a61 61 0 01-1-7v1c-2 4 0 8 0 12-1-4-2-15-2-5v-2c2 8-1 8 0 0-3 3 5 17-5 3 3 6 6 10-2 6 8 9-1 4-3-2-2 7 14 20 4 15 4 3-3 8-9-3 1 5-1 7 6 13-4-2-6-5-8-9l4 11c-11-10-4 1 1 6a18 18 0 01-3-2 22 22 0 01-3-2c5 7 14 13 24 14-6 0-11 0-15-3v1a27 27 0 01-11-8 29 29 0 007 8c-4-2-8-5-8-9a19 19 0 000 3 20 20 0 01-2-4c2 5 5 10 9 14-2 0-3 0-6-4 4 5 1 3-2 0 3 6 9 9 15 13-9-3-17-9-20-16a35 35 0 0025 23c-12-2-21-9-24-18a23 23 0 006 11c-21-19-3 7 16 11a40 40 0 01-13-4h1c-6-2-11-6-13-11l1 2c-1-2-3-3-3-5v1a20 20 0 01-2-7c-2 7 12 28 2 16 0 1 1 3-1 1 1 6-1-5-4-4l4 6c-4 0-5-3-6-5a21 21 0 002 4v-1l1 3-1-1c1 3-3 3-4 0-1 2-4 4-4 2a2 2 0 010 1c-2 2-10 6-6 1l-8 2c11-5 33-23 10-8 2-5 13-12 3-8-1 2-5 3-11 5 4-3 16-13 15-14 0 0-12 10-13 8 1-2 9-10 4-7 0-2-9 5-12 4 3-4 10-7 9-12-4 3 4-9 2-11-5 8-4 5-5-2 4-7-2 0-6 0 8-5 8-15 0-8 5-10-3-5 2-12-8 1 0-6 0-10-10 9 3-3-7-2 3-4 9-7-1-3 6-5-1-2 3-8-6 1 4-6-4-3 3-2 2-8 1-3a105 105 0 01-1-13c0 5 1 11-1 13 3 8-5 1 0 8 4 6-5 0-4 5 16 16-12-1 5 10-13-6-7 12-1 16-1 1-9-3-9-4-1 1 6 7 7 7-1 1-9-4-8-4-1 2 6 7 8 8-10-2-10-2-3 6-5 0-2 2-1 5l-8-5c1 5 9 10 12 11-3 0-12-4-13-5 3 4 13 13-2 3 3 5-3 6-2 2-7-3 1-2 3-5 2-4-5 2-7 0 6-2 3-4 6-7-1-1-7 3-4-1-2 0-1-1-1-2l2-3-5 2 5-4-5 2c-1-2 10-10 2-7 1-2 0-4-1-5 5-8-3-2-1-6 0-1 3-4 0-3 1-3 0-1-1-1 0-2 1-5-1-5 0 2 1 5-1 5 0 2 4 6 1 6-5 2 2 11-4 5 0 4 6 9-1 4-3 1 4 6 3 8-4-2-3-2-1 2-10-8-3 0 0 4 0 4-6-4-7-4-3 0 5 8 6 8-1 1-6-4-6-4-1 2 9 7 1 5-3 1 4 4 3 6l-7-3c8 7 8 7-2 2l6 5c-7-3-7-3-2 3l-4-2 3 3c-4 0-10 4-15 4 6-3 8-5 0-4 3-2 10-6 1-4 2-3 8-6 1-5 4-2 6-4 0-3-1-2 7-5 7-7 0 0-14 7-7 2l-3-1c-9 0 9-4 8-6 0 0-9 4-10 3 0-2 5-3 6-4 0-1-7 2-8 1 2 0 16-7 7-6-1-2 2-3 2-5-11 3-8 3-1-2-3-1-10 2-4-2-11 1 1-1 2-4-4 1-2-1-5-2 0-2-4 1-2-2 10-9-6 3 2-9-3 0-2 0-2-2-4 0 1-4 1-5-4 2-3 2-1-2 0 0-3 2-2 0-5-2 0 4-4 2 0 1 4 4 2 5-3 0-1 3 0 5-2 1-5-6-4-1-1 3 0 6 1 8-1 1-5-4-5-3 0 4 7 10-1 4-2 3 4 5 4 7 3 5-5-1-6-1 3 4 5 5-1 2 1 2 11 7 2 4 0 3 1 4-3 2 0 2 0 3-2 2-1 4 13 12 0 7 8 9 10 12-4 5 2 3 8 7 9 10l-10-6c1 3 6 6 7 8-3 0-11-8-5 0l-4-2c6 3-13 12-14 11 0 0 7-3 6-4 0 0-5 2-6 1 2-1 12-7 14-10-2 1-14 8-15 7 2 0 19-11 12-9-1 0-7 5-6 2l-6 1c1-3 12-7 2-5 0 0 9-6 8-7 1 1-12 8-13 6 2-2 9-4 8-7 1 0-8 4-9 2 1-1 10-5 11-7-9 4-3 0-1-4-1 2-17 8-6 1l-5 1c7-3 14-7 1-4 10-6 8-4-2-2 1 0 9-4 9-6-10 1-10 1-2-5-3 1-4 0-2-2-9-2-2-3-2-7l-5 1c2-2 4-2-1-2 1 0 6-4 5-5-6 3-1 1-1-2s-3-3-3 0c3 4-1 0-2 0 3 5-4-1-1 5-3-1 0 1 0 2-4-1 1 4 1 5 1 6-2 4-5 1 1 6 10 9-3 7 2 3 4 4-1 2-1 3 14 6 5 6 7 4-2 1-4 1 8 4 4 5-2 2 9 8 0 3-3 0-1 2 10 8 10 7 0 2-10-3-10-3-7-2 9 7 2 6-1 4 6 5 8 7-2 2-16-7-7 1l-8-5c0 2 9 7 6 7-12-5 6 6 7 6-1 1-11-4-12-5 3 4 12 13 1 8 14 8 11 6-1 2-1-1-5 4-7 5 0-1 8-8 7-9-3 3-9 8-14 9 9-7-1-1-6-2 2 0 18-12 17-14 1 0-15 12-16 11 1 0 15-10 14-11 0 0-12 9-13 8 0-2 12-9 12-12-1 1-15 12-16 8l11-7c10-12-7 5-14 1 2-2 16-10 3-5 0-1 5-3 4-4-2 1-16 7-5 0-11 2 9-5 8-7-6 3-9 5-2-1-8 3 1-3 1-4l-5 2c-2-1 5-5 5-6-3 1-11 7-4 0 9-9-9 5-11 3l12-7c-1-3-6 2-7 1l5-4c-8 1-8 0-2-4l-7 2c1-2 0-3 2-5-7 1 5-5 5-7l-8 4c4-4 12-7-1-3l6-6c-1 0-3 2-3 0-2 0-10 2-6-2-2-3 5-4 6-7l-6 1c5-3 4-3-2-3 13-9 0-2 4-6-6 1-5-2-2-5-6-2 1-2 2-5h-4l3-4c-3 1-3 1-2-1-6-1-4-1-1-5-4 1 0-1 0-2-4 1 0-1 0-3-5 2-1-1-1-3-2 0-2 0-1-2-5 1 2-4-1-6-2 0 1-2 0-3v-1c-2-5-1 1 0 2-2 0-2 1-2 3a3 3 0 000 3c-2 0-1 0-1 2-2 2 0 5 0 8-3-1-1 0-1 2-4-2 0 4 0 7-8-6-2 0-1 4-1 1-5-4-5-4 0 3 3 7 4 8-1 1-4-2-5-2 0 1 6 7 1 4 0 2 5 3 3 5 1 6-11-6-7 0l3 3c-6-1-4-2-3 3-2 0-5-4-3 0 0 3-2 1 0 4 0 2 6 5 0 3-1 1 6 5 6 5l-5-2c-1 1 6 4 6 5-11-3-7-2-1 2-4 1-15-7-10 1 11 11-6-1 5 10-1 2-7-3-8-3 0 2 3 5 5 6-3 3-6-1-8-2-1 1 7 7 7 7 16 11-6-1-8-3 2 4 7 9 11 12l-12-6c10 9 20 15 0 2h-1c2 5-13 18-10 12l4-3-2 1c-1-2 3-6 6-12-3 5-15 14-17 11 15-7 13-13 14-19-1 3-11 11-6 2l-5 2c2-2 2-3 0-1 11-11 14-13 0-4 5-10 13-12-2-5 1-1 8-7 8-9-1 2-12 8-13 7 2 2 21-18 11-11 2-5-9 5-11 3 1-4 10-7 9-12-7 4 3-7 2-11 0 1-6 9-7 7 4-6 4-13-4-9 3-2 8-9 5-11-1 1-9 7-4 0 4-7-5-2 1-9-8 1 0-6 0-10-10 9 3-3-7-2 3-5 9-7-1-3 6-5-1-2 3-8-6 1 4-6-4-3 3-2 2-8 1-3a104 104 0 01-1-13c0 5 1 11-1 12 3 8-5 1 0 8 4 7-5 1-4 6 16 15-12-2 5 10-13-6-7 12-1 15 0 2-9-2-9-3-1 2 6 7 6 7l-7-4c-1 1 6 7 8 8-12-4-8 1-1 7-9 0-1 2 1 4 0 3-10-3-12-5 7 9 19 20-3 9 0 5 8 11 11 15-1 2-10-1-11-4l3 6c-5 3 4 7 7 11-7 1-8-7-9-4-2-1-1-2-2-3-4 1 0-4 1-6-1 2-5 3-3 0-7 2 1-3 0-5-6 3-1 0 0-3-3 1-4 3-4 1 3-3 7-6 0-3-3-2 6-7-2-4 3-3 3-6 4-10-13 6 1-2-5-5-2-1 2-4 2-5-9 4 0-5-3-8-8 8 3-9-4-3 4-4 1-10-3-13 2-5 0-7-1-13v1c0-1-1-15-1-4v2c0-15-1 10-1 14-4-1-1 3-1 5 1 4-6-4-1 6-5 0-3 5-1 7-3 0-4-1-2 3-4 1-2 5 2 8-6 2-6-3-2 8 2 6-13-3-4 7-3 2 5 3-1 6 0 3 6 6 0 6-2 5 5 8-5 3-1 3 5 7 6 8-2 4-7-1-1 5 1 5-5 2-7 1 4 5 8 9-2 4 2 5-7 6-11 4 1-3 7-6 9-9 3-4-10 5-11 3 2 0 20-11 5-4h-4c6-4 10-4-1-5 2-1 5-3 3-5 5-5-7 2 3-7-4 1-2 1-2-2-1-1-8 3-5 0l5-8c-1 0-8 4-8 1 3-2 7-7 1-5 1-1 8-6 1-3-5 0 3-4 3-5l-7 2c2-4 8-8 0-4 1-2 6-4 1-4 2-3 1-1-1-1 0-3 6-9 0-7 1-1 2-5 0-5v-3c-3 1 2 5-2 6-1 2 4 7-1 4-4-2 2 4 2 5 1 3-2 1-4 0 2 3 6 7-1 3v1l4 5c-7-3-4-2-1 2-1 2-4-1-5-1l2 3c-5-3-2-1-1 2-8-8 0 5 2 7l-9-1c1 2 7 5 0 3 2 2 9 6 1 3 1 3 13 7 1 3 4 4 4 4-2 2 8 8 5 8-3 2 0 2 3 4-1 2 1 4 12 10 2 6 9 7 1 3-3 1 9 8 6 6-2 1 0 5 7 9 11 12-3 1-11-4-13-6-4 4 21 14 4 8-15-9 5 5 7 9-9-1-11-3-2 3 0 0-15-6-11-8h-2c-3 3-8 4-1-1-7 2 0-1 1-2-7 2-2 0-1-2-11 4-1-1 0-3l-4 1c-3-1 6-4-2-2 5-4 4-6-2-5 6-3-2-3 3-7-9 2 0-3-3-5-8 5 4-6-4-2 4-2 1-6-2-7-1-1 3-3-1-3 1-1 0-6-1-5v-3c0 2 0 5-1 2v2c-2 1 0 5-1 6-4 0-1 2-1 4 1 2-6-3-1 3-5 0-2 3-1 4-4 0-6 5 0 7-6 1-6-2-2 5 2 4-13-2-4 4-3 2 5 2-1 4 0 1 5 3 2 3-7 0 5 7-7 2-2 2 9 5 6 6-9-1 5 4-5 3 5-3-2 1-2-1l1-2c-3-1 0-2 1-3h-4c0-2 4-3 3-5l-7 1c3-2 10-10 2-6 0-3 2-4-1-3 6-7 1-2 0-5l2-3s-3 3-2 1c-1 1-2-1-3-1l-1 5 1 2c-1 1-3-3-3-1l1 6c2 4 1 3-2 1 3 4 2 6-1 1-4 3-1 3-2 6 3-2 9 9 2 5 2-9-13 20-3-2v-1c-3 6-10 10-18 12 9-3 16-9 19-16-3 5-9 10-15 12 7-4 12-9 14-16a19 19 0 01-3 6c1-3 2-6 1-9-1 8-9 13-18 14 8-5 17-12 17-20-2 5-6 9-12 12 4-2 6-6 8-9-9 9-17 9-3-2-17 9 3-3 2-15-1 6-6 10-12 12a23 23 0 009-12c-11 12-13 10-6 2-2 1-1-3 2-8-4 6-6 5-3 1-5 5-5-23-5-9-3-12 0 2 0 7-3-30 0 19-4-17a94 94 0 010 15V95v4a105 105 0 000-1v-8a77 77 0 01-1 12V92v-9c0 6-1 3-1 0l-1-10a94 94 0 010 10 53 53 0 010-7c-1 9 1 18 2 26l-1-1v2a44 44 0 01-1-10 70 70 0 001 14c-2-5-2-11-1-16l-1 9v-1 5a63 63 0 01-1-7l-1 1c-1 4 1 8 1 12-1-5-2-15-2-5l-1-2c2 8 0 8 0 0-2 3 5 17-4 3 2 6 6 10-2 6 8 9-1 4-4-2-2 6 15 20 5 15 4 3-3 8-9-3 0 5-1 7 6 13-4-2-6-5-9-9l5 11c-11-10-5 1 1 6a18 18 0 01-4-2h1a22 22 0 01-3-2c4 7 12 12 21 14-3 0-10-3-6-1a27 27 0 01-7-2h1a26 26 0 01-11-8 29 29 0 007 9c-4-2-8-5-9-9a21 21 0 001 3l-2-4c-5 5-5 2-1-1-4 2-7 3-2-2 0 0-9 6-5 1 2-2 7-5 0-3-4-1 5-4 5-6-2 0-5 3-3 0l-6 1c7-4 5-6-2-4 1-1 4-3 3-5-2 1-6 4-2 0-3-2 3-5 3-6-1-2-5 1-6 1 4-5-1-4 3-8h-4c0-1 2-2 0-3 3-3 0-6-1-1v-1l-5-1c2-2 0-4 3-6 1 2 4-2 1-2-3 2-2-2-1-3-2 0 0-1 0-3v1h-2c0 1 2 5 0 3-3 2 0 5-1 8l-2-3c-1 1 4 7 0 5-4-6-1 0 0 3l-3-4c1 2 3 10 0 6 2 4 0 2-2 1-1 1 3 3 3 4-2 1-4 0-5-1l4 8c-6-2-6-2-2 3s-3-1-4-1c2 4 5 5-1 5l2 4c0 2-4-2-3 2-8-6 0 2 2 3-1 1-5-3-6-2l7 6c-3 0-9-4-6 1h-3c1 2 7 5 6 7l-6-3 5 5-6-2c-1 2 8 6 3 6 2 3 7 3 3 6-1 0-8-5-8-3-5-3-3-1-3 2-3 2 8 4 9 5h-4c2 2 1 6 1 8 2 0-3 3 5 8-4 2-5 0-3 5 1 2-7-1-8-3 1-3 4-7 3-9 0 2-6 9-7 8 4-3 4-15-2-10-3 0 6-7 5-9-2 1-1-1-2-2-1 2-7 6-4 2 4-5-3-7 1-11-8 1 0-6 0-9-10 8 3-4-6-2 3-5 8-7-2-4 6-5-1-2 3-8-6 1 4-5-3-3 2-2 1-8 0-2a104 104 0 01-1-14c0 5 1 11-1 13 3 8-5 1 0 8 4 7-5 1-4 5 16 16-11-1 5 11-13-7-7 12 0 15-1 2-10-2-10-3l7 6c-1 2-9-3-8-4-1 2 7 8 9 8-2 1-9-2-9-2 0 4 3 8 7 10-6 0-4 1-2 2 10 6-12-1-7-6-8 4 1-5-2-8-9 8 3-9-4-2 3-5 0-10-3-13 2-6 0-8-1-14v1c-1-1-2-14-1-4v2c0-12 0 0-1 4-2 2 0 8-1 10-4-1-1 4 0 6 0 4-6-4-1 6-5 0-3 4-1 6-4 0-6 8 0 11-7 3-6-3-2 8 1 7-13-3-4 7-2 4 3 4-1 7 4 7 1 5-3 2l3 7c-2 2-7-2-5 2-2-1-2-2-1 0-15 4-4 1 1-3-14 5-8 0-2-6-16 5 0 0 3-4-6 2-10 5-2-1-11 3-1 0 0-3-2 1-7 2-10 1l10-5s-10 5-11 3c2 0 18-9 6-4l3-3c-2-1-7 1-8 1 3-1 3-3 4-5 4-5-3 0-4-2 0-1 5-3 1-4 1-2-2 0-3 0 1-2 6-5 4-6 1-5-4-1-2-5-6 2 3-4-1-4-5-4-2 0-1 2-3-1-1 2 0 4 1 4-4-2-2 3 0 2-2 0-3 0-1 2 3 5 4 7l-5-3c-1 2 2 7-2 6-6 1 5 5 6 5-1 2-4 1-6 1 4 4-2 0-3 0-5 1 7 7 7 7-6-1-8-4-6 4 12 6 1 4-4 1 0 3 7 6 9 7 0 1-10-2-10-4 0 0-3 0-2 1-13 8 12-13-1-5-4-3-1-2 0-5-8 1 0-6-1-10l-4 3c2-3 5-5-2-5 3-5 9-7-1-3 6-6-1-2 3-9-6 2 4-5-4-2 3-2 2-8 1-3a104 104 0 01-1-13c0 4 1 11-1 12 3 8-5 1 0 8 4 7-6 1-4 5 16 16-12-1 5 11-18-6 2 13-12 6 0 4 7 8 10 9-2 1-10-3-11-5 0 3 2 5 5 7-10-7 3 4 1 4-1 1-8-3-4 0 5 11 0 2-1 7 15 9 5 8-3 0 2 4 1 3-2 2l2-2v-1l-3 2-8 2c1-1 10-3 8-6-15 5-2 0 2-4-13 3-15 3-3-5l-11-1c1-1 5-1 1-3l7-4-7 2c2-1 6-3 6-5-6 1 0-1-2-3 0-2-2-1-3-1 3-4-2 0-3-1 1-2 4-3 0-3 1-2 0-3 2-5 0-2-1-3 1-5l-2-1c1-3 1-2-2-1 2-1 0-4 0-4-2 2 2 4 0 6 2 2 1 4-2 2 2 2 1 6 2 9l-6-2c0 3 7 9 1 6-6 0 5 6-6 3l5 8c6 5-3 1-4 1 2 3 13 7 1 5 4 5-6-2-6-2 0 2 10 8 1 4l8 8c-3 1-6-1-2 2l-6-1-4-2c-2 1 3 3 1 4-5-3 1 2-7 3-10 2 8-6 8-10l-8 5c10-8 12-9-1-2 4-4 0-3-4-2 9-8-2-3 5-8l-10 3c1 0 16-7 14-10l-8 4c9-7-4 0-8-1 0 1 23-12 9-6-1-1-6 1-8 1 3-1 20-12 5-5-7 0 6-3-7-2 1-1 12-6 4-4 2-3-3 0-4-1 7-6 8-5-2-4 1-2 15-6 7-7-2 0-3 1-3-1 5-5 5-4-1-2l5-4c1-4-9 3-10 1 1-1 11-3 5-5 3-4-3 0-4-1 7-5 3-2-2-2l5-3h-4c-7-2 5-4 5-6-5 1-2 0 0-2-9 2 6-7-9-5 12-8 2-3 5-9-3 1-4 1-2-2-9 4 0-4-1-8-3-1 2-5-2-5 1-2 1-3-2-2l3-3c-2 0-3 2-5 0 0 2 4 5 0 2l-1 1c0 2 5 6-1 2 5 7 4 4-2 6-4 1 10 10 1 5 4 6 0 3-3 1l4 7c-3 0-9-8-3 0 5 8-3 0-4-1 0 3 7 10 0 5 0 1 1 2-1 1-3 3 3 6 4 9-6-2-1 3-8-2-1 1 5 5 5 5-3 1-9-6-4 0 8 8 3 4-3 1-1 2 5 6 6 7-3 0-2 2 0 3h-5c0 2 5 3 1 3-12-6 4 5 5 5-2 5-7 3-11 1l6 5c-5-2-7-2-2 3 6 5-3 0-4-1-4 1 5 6 5 7 8 6-5-2-6-2 11 9 0 4-5 0 3 4 16 14 2 6l10 7c-3 0-14-8-5 1l-9-6c-3 3 17 13 9 12l-5-2c0 2 9 5 2 4l-8-5c-1-2-2 2-4 0 1-1 3-2 0-2v-3c3-3 2-1-1-2-2 1 2 3 0 4-3 0 0 4 1 5l-4-3c1 4 4 3 0 5 3 5 1 5-3 2 0 2 5 5 2 6 7 3 0 4-3 1-2 2-13 7-14 5 5-1 12-4 10-9l-7 2 8-5-9 3c1-1 5-2 4-4H6l3-2c2-2-2-1-1-3 3-2 4-5 5-8 0 0-7 4-7 1 4-3 8-4 0-2 0-2-4-4-4-5 1 3 6 8-1 4 7 9 1 3-1 7v2a16 16 0 012 1H0v5c3 3 2 3 0 3v5l2 1H0v100h1920v-72c-5 3-7 4-1-2l1-1v-4-6l-4 2 4-3v-1l-6 2 6-4v-1l-8 4 8-6-8 3 8-5v-3c-2 1-2 0 0-1zM746 184l3-3-3 3zM23 225c-2-5-9 1-2-2-6 4 4 7 2 2zm-1-5c2 0-2-2-3-3-3 1 3 3 3 3zm-11 4c1 2 13-5 6-5 0 3-5 4-6 5zm3 5l3-1c-1-2-3 1-3 1zm4 3c-1 3 4 1 4-1-3-4-9 0-11 2l7-1zm0 6a15 15 0 005 1c-1-1-3-2-5-1zm1-1h-3 3zm-4 0c-1 1 0 1 1 1zm8 5c-3-3-7-5-9-1 0 2-4 2-2 4 5 0 6-2 11-3zm-6 13c-1 0-3 0-2 1a14 14 0 002-1zm1-5h-1 1zm2 2h-1 1zm4 1l-2-1c-3 1 2 2 2 1zm-3-17c5 0-2-3 3-2 3-4-9 2-3 2zm12-16c-1-2-3-1-3-1l3 1zm-2-5v1c8 3-3-5 0-1zm1 6l3 1c-2-1-1-2-3-1zm1 6a32 32 0 003-1c-1-2-5 0-3 1zm3 7l2 1c4-1-1-2-2-1zm3-6h-2 2zm-3 3c-1-1-3 0-3 1l3-1zm-2 5l-1-1 1 1zm0 2a23 23 0 003 1c2 0-2-3-3-1zm9-2s-3-2-4-1l4 1zm1-13c-2-2-8-7-11-5a42 42 0 0011 5zm-1-9c6 0-11-8-10-12-4 3-2 5 1 4 1 1-6 4-4 5 1 1 6-2 6-1-4 2-3 3 1 6 3 2 14 5 5-2zm59 10l-1-1c-3-1 0 3 1 1zm-5-6l-1-2c-1 1 0 2 1 2zm3 4l-6-4c-4 2 3 6 6 4zm-3 10c3 1 4-1 0-2v2zm1-5l-2 1 2-1zm-6-2h2-2zm-5 16l1 1-1-1zm2-18c1 1 4-1 2-2l-2 2zm3 3c-1-1-2 1-2 1l2-1zm-1 13l2 1c3-1-1-3-2-1zm7 8l-1 1a3 3 0 001-1zm-2-11l2 1c5-2 0-4-2-2zm6-6s-3-3-4-1l4 1zm18 1h-1 1zm1-7c-1-2-4 0-4 0h4zm0 7a64 64 0 007-2c-1-2-8 2-7 2zm5 4h-3 3zm0 5a2 2 0 00-3 0h3zm3 3c-1-1-5 1-5 1l5-1zm0-4c0-2-4 0-1 0h1zm-3-5l8 1c3-2-5-5-8-1zm4-9l-1-1 1 1zm4 2l-3-1a11 11 0 003 1zm6-1c-6-2-17-7-9-6-1-2-5-8-7-2-2 3-6 7 1 5-3 3 2 2 1-1 1 2 3 1 4 1-2 2 3 0 3 0-2 2 5 4 7 3zm17-10c2 1 4-2 5-3-1 0-4 1-5 3zm1-3c4-1 1-1-1-3l1 4zm5-2l-4-3c-3 1 4 4 4 3zm-1-4l-1-1c-1 1 1 1 1 1zm-5 0c-1-2-1-2 3-1 1-2-5-4-4 0-1 2 0 2 1 1zm3 24c0-1-3-3-4-1l4 1zm2-10l-2-2c-2 2 1 2 2 2zm1-8l-1 2c0-1 2-1 1-2zm1 1v1zm17 7l-1-1 1 1zm1 5l2 1c2 1-2-3-2-1zm2-1l-1-1zm5-4s-4 2-2 2c1 0 2 0 2-2zm-5-7c8-2-12 11 1 5l-1-2c3 2 1 0 5 0 0-1-5-6-6-3zm5-6a7 7 0 01-1 1c2 2 1 1 1-1zm25-25c-3 7 15 8-4-8 3 7-6 12 4 8zm-3 9c-1 0 0 0 0 0zm2 4c3 0 2-2 0-3v3zm2 3c1 0 7 2 3-2-2-3-6 3-3 2zm0 9c-1 1 1 1 1 1l-1-1zm3 1c-1 1 1 1 1 1h-2zm20-18l2-1c-1-1-2 0-2 1zm1-8a2 2 0 000-1c-3 4 1 4-1 1zm-2 11c2-1 6-2 4-3-3 2-12 6-4 3zm2 10c-1 1-1 1 0 0zm3 8l-1 1 1-1zm-1-10c-1 1-2 1 0 2 2-1 2-1 0-2zm1-9c1 0 1 0 0 0zm3 21l-2 2c1 0 4 0 2-2zm-1-11v2c2-1 1-1 0-2zm-1 4h0zm0 3c1 0 2 0 0 0zm4-5h-2 2zm0-9c-1-3-8 1-2-1l2 1zm1 9h-1 1zm1-14l-8-5c-2 4 3 7 8 5zm3-23a2 2 0 00-1-1c0 1 0 2 1 1zm2 21h-2 2zm3 2c7 0-6-1 0 0zm-4-10l5 1c4 0-4-3-5-1zm2 11a2 2 0 00-2-1l2 1zm2 10c2 1 0-2-1-1v1h1zm3 7l-2 1 2-1zm0-7a5 5 0 00-1 0h1zm1-24c0 1-7-3-9-1l3 1c1 2 4 1 6 0zm-6-3l2-1c0-2-4 2-2 1zm7-6c-5 0-8 3-8-3-1 5-6 6-6 1-3 2 2 7 5 7l9-5zm7-59v-1c-2 1 0 1 0 1zm-3-3c-1-2 3 0 1-2-3 1-4 1-1 2zm1 6c2 0-2-4-2-2l2 2zm3 6h-1 1zm0-3c0-1-11-5-4-1 1 1 3 3 4 1zm13 31c4-1-1 7 4 4 1-2 5 5 3 0 3 3 3 4 6 4a41 41 0 01-9-13c1 1-9 9-4 6zm9 7a1 1 0 000 1v-1zm-3-1c-1-1-1-2-3 0 1 2 2 0 3 0zm-2 6c-2 1 0 2 1 3 1-1-1-2-1-3zm-2-5h0zm-3-2c1 3 4-1 1-3-5 3-7 4-1 3zm3 3c0-2-2 1-2 1l2-1zm-1 6v3c2-1 2-1 0-3zm5 4c-1-1-4 1-3 1l3-1zm2-4c-1-1-2-4-4-2 2 1 2 3 4 2zm0 3l-1-1zm4 0l-3-2c-3 0 1 4 3 2zm1 1h-1 1zm3 8c-1 0-3-2-4-1l4 1zm-2-7h-1 1zm6-3a54 54 0 01-11-7c-3 3 7 6 11 7zm42-10l4 1c-1 0-4-3-4-1zm-1 7c0-1 0-2-2-3-3 2 1 4 2 3zm-4 3h1-1zm0-8c-1 1 0 1 0 0zm-3 7c8-4-16 7-5 4 1-1 5-2 5-4zm1 21l2-1c-1-1-2 1-2 1zm1 1v0zm1 0v-2 2zm0 6a15 15 0 001 0h-1zm1-10v0zm1 0h-2 2zm3-4l-1 1 1-1zm0 5v0zm0-16v0zm3 2c-1-1-2 0 0 0zm1-10c-2-1-5-4-6-1 1 0 5 2 6 1zm0-5l-2-2c-2 2 2 2 2 2zm15 2zm-3-1c3 0 2-1 0-2-3 2-3 2 0 2zm-2 1h-3 3zm-2 13c1 1 1 1 0 0zm3 0h-2 2zm1-8h-2a4 4 0 002 0zm4-3l-3 1c2 1 3 1 3-1zm28-8c5-1 6-3 2-6-8 7 9-2-2 6zm2 1h0zm2 8c-1 1-1 1 0 0zm3 22l-1 1a7 7 0 001-1zm1-5l-1 1 1-1zm-1-13c2 0 1-2 0-1v1zm2 6h-1 1zm3-4c-1 0-3-3-3-1l3 1zm-2 2a17 17 0 001 1c2-1-1-2-1-1zm-2-17c-1-2-3-2-5 0l10 5c9 1-5-3-5-5zm35 0c-3-4 2 1 4-2-1-4-11 1-5 1-1 1-2 3 1 1zm6 0a268 268 0 000 0zm-1 2a6 6 0 004 1c-2-2-2-3-4-1zm-3 0c-1-1-3 1-3 1l3-1zm-2 5l1 1-1-1zm2 11h-2 2zm1-7c-1-3-3-1-3 0h3zm0-7a22 22 0 01-2 1c2 3 6 1 2-1zm5 4c-1-3-6 0-2 1l2-1zm1 1v1a1 1 0 000-1zm2-12l-1-1zm2-7c-2-1-7-7-8-1-5 4-1 5 5 6-3-2-5-4-4-5s7 4 7 0zm24-31v-1 1zm6 15c-1 0-2 1-1 2 1-1 2-1 1-2zm3 11h-2a5 5 0 012 0zm1 2l3 2c-1-1-4-4-3-2zm2 40h1c1 0 0-2-1 0zm3-44c-3-5-8-10-8-4 0 2 3 2 4 2-1 1 3 2 4 2zm22 43l-2 1c2 0 3 1 2-1zm29-22a48 48 0 01-6-4c-1 3 7 5 6 4zm-1 5c-1-3-3-4-6-6-4 3 5 6 6 6zm-7-2l-1 1c4 2 6 2 1-1zm1-13s5 4 6 3c0 0-5-3-4-4-3-5-8-1-2 1zm-3 2l2 1s-2-4-2-1zm-14 22c10-5 11-11 0-1 3-1 1 0 0 1zm8-9l-2 2 2-2zm-8 14c4 0 3 11 3 1 10 2 10-13-3-1zm11-14c4-2 6-7 3-10 1 1 3 3 4 1-6-7-7 3-13 7 4-2-2 2-2 3 1 1 7-5 8-5-4 5 1 1 3-1 0 1-1 3-4 5zm4 8l-3-3c-3 1 1 5 3 3zm0 9v0zm6 0c-1 0-5-4-5-2l5 2zm3-4l-6-3c-1 2 6 4 6 3zm1-6c0-2-9-6-10-8-3 5 7 8 10 8zm55 11v-2c-2 1 0 2 0 2zm1 2a33 33 0 01-3-2c-4 1 1 4 3 2zm-1 2c2 1 2 2 4 0-2-1-3-2-4 0zm-6 0h4c-2-5-11 3-10 3 3-2 7-1 6-3zm3 3v0zm4-1c-2-2-2-1-3 1 1 1 2 0 3-1zm2 1l-1 2c6 1 7 2 1-2zm10 2c-2-1-8-6-9-3l9 3zm2-9c-6-1-9-10-14-3l14 3zm37-8l-4-4c-2 2 4 4 4 4zm-13 15c2-1 2-1 1-2-8 3-9 4-1 1zm2 8l-2 1c1 0 3 0 2-1zm8-14c-9-7 2 1 4 0a94 94 0 01-8-6c1 4-16 9-11 10 1 1 10-4 12-5-7 5-8 9 3 1zm0 2h2c-1-3-4 0-2 0zm-4 9v0zm1-6h-1 1zm0-1h2-2zm2 7l-2-1 2 1zm3 4s-3-2-4-1a7 7 0 004 1zm2-4c-1-1-3-5-5-2 1 0 4 3 5 2zm2-7l-3-2c-1 2 3 2 3 2zm3-5c0-2-9-6-9-8-2-6-8 4-9 4l4-2 14 6zm35-5l1-1a5 5 0 01-1 1zm0 4l-3-2c-3 1 3 3 3 2zm-2 29a2 2 0 01-1 0h1zm-1-19v1c2 0 2 0 0-1zm4-4c2-1-7-4-6-5 4 1 3 1 0-2-4 3-6 3-8 7 3 0 6-1 2 2 5 0 2-3 1-4 0-1 4 3 6 2-6-5 0 0 2 0 3-2 1 0 3 0zm0 6c-1 1 0 1 0 0zm2-13s-4-4-5-2l5 2zm24-5c-7 4 8 8 8 5-17-20-23 0-10-7-9 7-4 4 2 2zm-6 14c2-1 6-2 3-4-2 1-5 3-3 4zm2 4h-2 2zm3 19h-1a3 3 0 001 0zm1-24c-4 2-4 2 0 2-4 3 8 0 0-2zm8 4c-2-1-5-2-7 0h7zm37 27v0zm-1-9l-1-1 1 1zm-2-2v0zm0 5v0zm0-10v-2c-1 1-2 2 0 2zm-3 16h-1 1zm-1 3h1-1zm0-13c-2 1 0 1 0 3s4-2 0-3zm0 4l-4 2c2 2 2 0 4-2zm0 7h-1 1zm1-15s0 1 0 0zm1 3v1zm0-5c-1 0 0 1 0 0zm1 1a13 13 0 01-1-1c-1 1 0 2 1 1zm-1-2h0zm-2-6c0 2 3 3 3 0-1-2-1 0-3 1zm0 2v-1c-2 1-4 6 0 1zm-2 9c1-2 3-2 3-4-1 1-6 2-3 4zm-5 2c2 0 7-3 3-3a36 36 0 01-3 3zm0 19c-1-2-1-2-3-1zm1-1a1 1 0 000-1v1zm3-11h-1c-3 3-2 2 1 1zm-2 8v0zm6 0c-2-2-7-1-5 1s4 0 5-1zm1 1l-2 1 2-1zm2-4c-2-1-4 0-2 2a14 14 0 002-2zm0 0c0 1-2 2 0 2v-2zm1-4a16 16 0 00-2-2c-4 3 2 4 2 2zm0 2h2-2zm1 7v1c3 1 1-1 0-1zm4-6c-1-1-2-2-2 0a8 8 0 002 0zm7-20l2 1c-1-1-1-2-2-1zm-5-7v-1 1zm1 6c3 0 5 0 2-3-2 1-3 2-2 3zm4 26c-2 1 2 2 2 3 1-1-2-2-2-3zm6-27a56 56 0 01-4-4c-2 1 3 3 4 4zm67 8c0-8 1-12-6-2 7-5 1 2-5 5 4-1 8-4 10-7a31 31 0 01-2 3c1 0 0 3 1 2-4 6-2 4 2-1zm-2 13c-2 1-2 2 0 0zm3-12c-1-1-2 2-3 3l3-2zm25 1l-1-1c-1 1-1 2 1 1zm2 6c3-2-2-3-2-4-2 2-3 3 1 2-6 7-3 5 1 2zm-1 10l-1-1c2 0 0 2 1 1zm0-8c-1 2-2 3 0 3 2-1 1-2 0-3zm3 0c0-1-2-2-3 0h4zm1-2c0-1-2-2-2 0h2zm23 7c4 2 5-3 1-5-7 5 6 0-1 5zm-1 10c4 0 4-4 5-6 2-1 1-2 1-2-6 4-12 7-6 8zm2 6c1-1 3-1 2-2-1 1-3 1-2 2zm2 7c2 0 1-1 0 0zm2-15c-7 4-13 7-3 4 1-3 6-1 3-4zm27 15c0-2-1 0-2 1l2-1zm1 7l-1-1 1 1zm3 9c-2-2-3 1-3 2l3-1zm1-9c-7-3-1 0 0 1 10 5-12-12 0-1zm7 4h-2a17 17 0 002 0zm3-6c-5-1-11-9-14-14-6 7-3 6-1 5s1 4 4 1c-2 4 12 9 11 8zm27-48c1 0 2 2 3 1-1-1-3-3-3-1zm4 14a11 11 0 01-3-1c-2 1 4 2 3 2zm-3 1a3 3 0 01-1 1c1 0 2 0 1-1zm2-9c-8 2-1 8 1 4-1-2 2-3-1-4zm-6 6a2 2 0 003 0c-1 0-2-2-3 0zm2-10v-1l1 1zm-1-3c1 1 1 0 1-1l-1 1zm-2 1h2-2zm-2 3c2 0 3-1 1-2a12 12 0 01-1 2zm0 13c1 1 1 2 2 1l-2-1zm-4 3c-1 0 0 0 0 0zm3 0l-2-2c-1 1 1 2 2 2zm4 5c-2 0-6 2-4 3a41 41 0 004-3zm0-8a11 11 0 013-1c-1-1-6 1-3 1zm5 13c-1-1-2-1-3 1zm2-12c-1 0-2-1-3 1l4-1zm2-18s-3-4-5-2l5 2zm9 60c-1 0-10 4-4 3 2 0 4-1 5-3zm19-37l-2-2c-3 0 0 3 2 2zm-9 1l6-1c-1-3-6 2-6 1zm0 32v-1 1zm-2 2l-1-2c-2 1 0 1 1 2zm-4 2v-1a6 6 0 010 1zm-1 1l-2-1c-1 2 0 2 2 1zm0 2h2c4-1-2-2-2 0zm2-6c-1 1-1 2 1 2s0-1-1-2zm3 3c-2 0 0 1 1 2 2-1 0-1-1-2zm1-1l2 1c3 1 1-4-2-1zm9-31c3-4-5 0-6 2 2 2 5-4 6-2zm-1 7l-1-1 1 1zm2 19c-2-1-1 0-1 1zm2-20a5 5 0 011-1c-3-4-8 3-2 1h1zm0 2h0zm2 20h0zm-3-32c-2 1 1 1 2 2 2 0-1-1-2-2zm6 12a9 9 0 00-2-2c-2 1 2 2 2 2zm1-7a18 18 0 01-2-2c-1 1 2 2 2 2zm3-3s-2-2-3 0h3zm1-2c0-2-1-2-2 0h2zm38 4c-2 1-1 1 0 2v-2zm0 4h1-1zm-1-4c-8 0-18 10-2 1-2-2 1 0 2-1zm-5 4c2 1 3-1 5-2-2-1-3 1-5 2zm2 4h3-3zm5-9a6 6 0 00-2-1l2 1zm-13 3c0 1 14-4 10-6a85 85 0 01-10 6zm6 3c-1-1-6 2-7 3l7-3zm-2 10a6 6 0 01-1 0h1zm3-1c-2-2-2-1-4 0h4zm0 2l1 1c3-1-1-2-1-1zm2-4a7 7 0 01-1-1c-3 1 0 3 1 1zm2 8v0zm1-6l-1-1c-2 1 1 2 1 1zm2-4c-1-1-2-2-3-1l3 1zm1-5c-2-2-6 3-2 2 0-2 0-2 2-2zm9 14v-1c-2 1-3 1-1 1zm1 2h-2 2zm1-6a1 1 0 00-2 0h2zm1 1c-5 4-2 1 1 5 5 1 4 0-1-5zm8 3l-8-6c-3 0 6 7 8 6zm4 6l-3-1c-2 2 0 2 3 1zm3-2c-1 0-5-4-6-3 0 2 5 3 6 3zm-7-12c4 1-6-10-11-3 2 1 5-1 6-1 1 1-3 3-3 4 5-2 7-3 1 2 4 3 20 12 8 3l8 3c1-2-8-6-9-8zm48-27c4 1 9 2 2-2-9 5-2 7-2 2zm1 3h2-2zm-3 21h-2 2zm3-2c-1-2-7-5-7 0 8-2 2 3 7 0zm1-11h-1 1zm5 6l-5-2c-2 1 6 3 5 2zm-3-14c-3 4-20 9-6 6l6-2c-4 4 3 3 2 1 4-1 0-3-2-5zm5 7h-1 1zm5-7a16 16 0 016 2l-2 3c3 0 5-1 2-3l9 4c-2-1-12-7-9-9-2 1-7 1-6 3zm5 22h-2 2zm3-5c2-2-6-1-6 0h6zm1 2c-1 1-2 1 0 2 2-1 1-1 0-2zm-2-7c-1 3 1-2 3 0 4-5-18 1-3 0zm5-2c-1-1-4-5-5-2l5 2zm3 4a16 16 0 01-2-2c-3 1 3 2 2 2zm1-5l-7-4c-2 2 6 4 7 4zm30-17l3 1c3 0-3-3-3-1zm-4-6l-4 3c4 0 5-2 9-1-4-2-5-3-1-2-1-5-4-4 3-3a49 49 0 01-5-5c-2 3-13 6-9 7 1 2 5 0 7 1zm2 15l-2-1a18 18 0 002 1zm-3 5a10 10 0 01-1 0h1zm3-12c1 1-5 2-3 3 3-1 7-4 3-3zm-6 4a15 15 0 002 0h-2zm5 15c-1-1-3 1-3 1l3-1zm3-8h-3 3zm2-6c0-1-2-2-3-1l3 1zm3-2s-3-2-4-1c1 1 3 2 4 1zm1-4a10 10 0 01-1 0h1zm24 8c-7 5-18 9-4 5 3-2 8-3 4-5zm2 3v1c3-1 0-3 0-1zm46-57a23 23 0 01-2 1c1 2 3 1 2-1zm-2-2l2-1a9 9 0 00-2 1zm-2 5h1c1-2-1 0-1 0zm1 4v-1c-1 0-2 1 0 1zm1-5v-1zm0 18l1 1c1 1 0-2-1-1zm2-16c1 2 1 1 1-1l-1 1zm0 24v2c3 0 3-4 0-2zm3-30l1 1-1-2a24 24 0 008 8c-4-4-6-7-7-11-9 7 5-1-3 5-2 3 2 2 3 2-5 6 5 4-1-3zm1 30c2 0 0-1 0-2-2 1-1 1 0 2zm1 4c0-2-3 0-2 0a11 11 0 002 0zm2-23c-1-2-1-3 1-1-1-5-5-1-1 1zm1 21c-1-1-2 0 0 0zm0 4v0zm1 1l-1-1 1 1zm0-4l1 1-1-1zm1 5l1 1-1-1zm1 1h0zm44-42a23 23 0 01-4 6c1-2 5-4 4-6zm-6 6c2-2 6-5 5-7l-5 7zm-10 21a40 40 0 0015-8c-2-2-15 8-15 8zm16-12l-1 1c2 2 2 0 1-1zm-10 23h-2 2zm1-1c4-1 3-2 0 0zm5-14h-1 1zm0 1v0zm2 10h-2a4 4 0 002 0zm3-13c-2-3-2-1-4 0h4zm2-12a24 24 0 01-1 3c1-1 2-2 1-3zm1-4c-2-10-7 5-12 8 2-1 3-2 2 0h1c-4 3-10 9 1 2-1 0 5-1 0-5 9 5 4-5 8-5zm27 2c-1 0-1 0 0 0zm0 0a28 28 0 005-4c-2-3-4 1-5 4zm2 5c5 0 1-1 0-3v3zm1 10v1c2 0 2-1 0-1zm3 5v2c2-1 0-1 0-2zm5 0a32 32 0 01-3-2c-1 1 4 2 3 2zm5-3c0-1-5-2-1-3 0 0-6-3-5-4 7 2-7-9-8-1 3-1 4 1 3 3 2 1 10 6 11 5zm-10-19c-10 1 8 13 11 10 1-2-12-6-11-10zm41-16l9-4c0 1-2 2 1 3 2-6-7-10 4-5-7-4-12-7-10 1 0 2-13 6-4 5zm2 4c1-1 3-1 1-3-1 1-3 1-1 3zm-1 1v0zm5-1h-3 3zm-2 6l-1 2c-1 0 3-1 1-2zm2-4l2 1c-1-1-1-2-2-1zm5 12a35 35 0 01-3-3c-4 1 1 2 3 3zm-1-10l-1-1zm-4-6l2 1c5-2-6-5-2-1zm-6 2a4 4 0 010-1c-4 2-4 3 0 1zm1 18h-1 1zm1-6c-1 0-1 0 0 0zm2 10h-1 1zm0-5h-1 1zm1-6l2-1c0-2-4 0-2 1zm1 9a32 32 0 003 2c3-1-2-4-3-2zm4 13zm3-9c0-2 1 0 1 0 1-2-7-2-1 0zm7-22c-2-3-17-4-8-2-2 1 5 3 9 2zm22-26c-2 4 0 7 5 6l-7-8c-1 2-2 4 2 2zm-1 14c4 5 5-5 2-1l-2 1zm-6-5c2 1 5-2 6-2-1-4-3 0-6 2zm0 0c-1 1-1 1 0 0zm3 23h0zm0-13c-1-2-3 1-5 1a12 12 0 005-1zm6 8c-1 1-5 3-2 4 4-1 4 2 2-4zm3-9c0-3-3-4-3-2l3 2zm4-17l-9-7c-5 4 14 14 9 7zm51 23a15 15 0 00-3-2c-2 1 2 2 3 2zm-5 0c-2 2 0 4 2 2a11 11 0 01-2-2zm5-8l-3-2c-2 1 3 2 3 2zm-4 2l2 1s-1-2-2-1zm0 0c-1-1-1-2-2-1l2 1zm-1-7l1 2-1-2zm0 0a40 40 0 01-3-2c-3 1 0 5 3 2zm-6 4c-2-2 6 0 1-4-3 3-4 5-1 4zm-1 8c1-1 5-2 6-4-1-2-7 4-6 4zm6 0c-1-2 2-1 2-2-3-2-8 7-2 2zm-2 10v0zm2-5h-1 1zm0 3l4 1c3-1-3-4-4-1zm8-2l-4-3c-3 2 3 4 4 3zm22-30l-5 3c0 1 7-1 5-3zm-1 14c-1 2-5 2-4 4 2 1 9-2 4-4zm1 8c3-1 8-1 3-4-2 2-5 3-3 4zm5 0c2-1 3-1 1-2-2 2-5 4-1 2zm-4 8v1zm2 2h1zm3-9c-1 1-2 1 0 1v-1zm3 0h-2 2zm3-12c-6-3-10-9-15-2 4-1 11-6 6 0 2 0 0 1-1 2 2 3 8 1 10 0zm10 18a16 16 0 006-2c-1-1-4 2-5 2zm5 2l1-1-1 1zm1 26h-2 3zm2-28c-1-1-1 0-2 1h2zm3 0c-1 1 2 2 2 3 1-1-1-2-2-2zm4 1c1-1-2-1-2-2-2 1 1 2 2 2zm0 5a29 29 0 01-2-1c-1 1 3 2 3 1zm4-6s-6-3-7-5c-3 2 8 6 7 5zm-9-3c-1 1-1 1 1 2 2-1 0-1-1-2zm-1 1c-2 1 0 2 1 1l-1-1zm1 8l-1-1c-1-2-3 4 1 1zm-3 1zm1 4v-1c-1 1-2 1 0 1zm1 14c-2 1-1 1 0 2v-2zm3-21l-2-2c-2 1 1 3 2 2zm0 10c1-1-1-1-2-2l2 2zm-1 9l2 1c1-1-1-2-2-1zm3 6a11 11 0 001 1c2-1-1-2-1-1zm-3-22c-3 1 4 3 5 4 1-1-4-3-5-4zm7 4a6 6 0 00-1 0h1zm1-8l-3-2c-1 1 4 3 3 2zm4-7c-13-7-5-11-18 1 1 2 5 0 4-2 1 1 3 0 3-1 8 8 8 2 0-3 0 0 10 6 11 5zm53 23l-2-2c-2 1 2 2 2 2zm-1 2a13 13 0 00-3-2c-1 1 3 3 3 2zm-9 7s4-1 2-2l-2 2zm3 3c1 0 0-2 2-1 9 3-10-7-2 1zm4-5l-3-2c-2 1 3 3 3 2zm-5 12c1 1 2 0 1-1a10 10 0 00-1 1zm1-5l-1-1v1zm-3 7h0zm1-5c-1-2-3 0-3 1l3-1zm-2-4l2 1c1 0-2-3-2-1zm-3-7c2 1 4-1 2-3 0 1-3 2-2 3zm-1 10c9 0-1-5-1 1l1-1zm10 15c-2-1-10-10-8-2a58 58 0 018 2zm3-5l-6-3 6 3zm3-1a46 46 0 00-5-3c-3 1 6 4 5 3zm0-17c-3-2-6-8-9-2l1-1 8 3zm42 18c-1 0 7-3 4-4l-4 4zm5-3l-9 7c-1 1 12-5 9-7zm2 5c-3 3-3 3 2 5 4-2 1-3-2-5zm0 9h3c-1-2-6 1-3 0zm6-9c-1 0-5-4-5 0a26 26 0 005 0zm-5-3c-1-2-4 3-4 3l4-3zm-10 15l8-5c-3-6-20 8-8 2 5-1 1 1 0 3zm6 1c-3-2-2 1-2 3 5 2 3 0 2-3zm3-2l-2-1c-2 1 0 2 2 1zm4 7c0-1-6-3-4-1l4 1zm0-4a1 1 0 00-1 0h1zm3-7c-1-3-2-5-5-1l5 1zm1-10c-1-1-10-10-11-5 0 0 2-2 3-1-5 4 3 5 8 6zm35 29l3 1c-2-1-2-2-3-1zm-1-5h1c0-2-1-1-1 0zm-1 8c0-2-2-1 0 0zm2-1c0-1-1-2-2-1 1 1 1 2 2 1zm1 0v2c3 1 1 0 0-2zm7 3l-5-4c-2 1 5 5 5 4zm4-1c-1 0-12-10-10-5l10 5zm26-13c-2-3-9 2-9 2 1 1 5-1 9-2zm-4 10a7 7 0 01-1-1c-1 1 0 1 1 1zm4 5h-2 2zm1 6v1zm1-13c1-4-8 1-5 2l5-2zm0-7c-11 6-2 7-2 2 1 2 5 0 1-2zm2 3l-1 1a3 3 0 001-1zm21-24c5-2 2 0 1 2 3 7 2-12-1-2zm5 26zm2 2v1zm2 2l7 4c-2-1-11-8-8-4zm0 3l-1 1 1-1zm4 3l2 1c-3-1-8-5-5 0 8 4 14 6 3-1zm71-21l1-2c-1 0-2 1-1 2zm0-3c-2-1-2-1-4 1 2 1 3 1 4-1zm0-4a19 19 0 01-1 2c2 3 4-1 1-2zm2 4c1-1 2-2 0-2 0 1-2 2 0 2zm1-4c1-2-3-3-4-4-2 1 3 3 4 4zm-7 1a2 2 0 003 0 4 4 0 01-1 1 16 16 0 002-2h-1c1-1 0-2-1-2-6 4-1 9-2 3zm-4 3h2-2zm-21 11c6-1 20-6 21-10-5 4-15 7-21 10zm19-5a56 56 0 01-17 9 57 57 0 0016-6c9-6 6-7-3 0a44 44 0 004-3zm-15 20c5 0 10-2 15-5-4-3-11 3-15 5zm8 15l-1 1 1-1zm2-1v0zm6-1c-1-2-4 0-2 1l2-1zm3-20c-2-2-3-1-5 1 1 1 3 1 5-1zm-1 17l2 1c1-1-1-2-2-1zm4-1a3 3 0 00-1-1c-1 1 1 1 1 1zm-4-18c1 1 2 2 4 1 1-1-3-3-4-1zm4-14l-2-2c-1 1 2 2 2 2zm0 10l4 2c2 0-3-3-4-2zm7 0c-2 0-4-3-5-1 2 0 3 2 5 1zm0-17a4 4 0 000-1v1zm1 21zm2-12c0-2-4 0-2 0h2zm0-4c-1 0 0 0 0 0z"/></symbol></defs><g data-name="Layer 2"><use class="trees--rear" width="1920" height="315.4" transform="matrix(-1 0 0 1 1920 0)" xlink:href="#a" data-name="Layer 2"/><use class="trees--front" width="1920" height="315.4" transform="translate(0 57)" xlink:href="#a" data-name="Layer 1"/></g></svg>