<svg xmlns="http://www.w3.org/2000/svg" viewBox="0 0 558.39 77.78"><defs><style>.cls-1{fill:none;}</style></defs><g id="Layer_2" data-name="Layer 2"><g id="Layer_2-2" data-name="Layer 2"><path d="M7.94,94.81V19H35.87q15.5,0,24.88,11t9.38,27.07q0,16.1-9.66,26.93T32.82,94.81ZM22,83.65H33.37a20.41,20.41,0,0,0,15.55-6.88q6.39-6.88,6.39-20.49,0-11.12-5.58-18.8A17.37,17.37,0,0,0,35,29.79H22Z" transform="translate(-7.94 -18.2)"/><path d="M130.05,94.81H118a45.77,45.77,0,0,1-2-11.32Q111,96,97.06,96q-8.39,0-13.46-4.91a16.48,16.48,0,0,1-5.08-12.36q0-19.32,33.93-19.32c.88,0,2.09,0,3.6,0V55.22q0-8.72-11.88-8.71-11.55,0-13.1,8.71L80.29,53.61a16.37,16.37,0,0,1,7.22-11.52q6.33-4.53,18.33-4.53a42.75,42.75,0,0,1,10.6,1.09,16.19,16.19,0,0,1,6.94,3.66,14,14,0,0,1,3.92,5.61c.72,2,1.08,5.43,1.08,10.25V83.49A41.12,41.12,0,0,0,130.05,94.81Zm-14-28.54Q91.51,66.27,91.51,78A8.13,8.13,0,0,0,94,84q2.47,2.48,7.47,2.47,7.22,0,10.91-4.58a16.17,16.17,0,0,0,3.69-10.41Z" transform="translate(-7.94 -18.2)"/><path d="M184.35,38.73l-19,56.08h-10.5L135.32,38.73h13.22l13.1,38,12.78-38Z" transform="translate(-7.94 -18.2)"/><path class="cls-1" d="M205.29,32.18H192.63V19h12.66Zm0,62.63H192.63V38.73h12.66Z" transform="translate(-7.94 -18.2)"/><path d="M266.59,94.81H254.76V83.49Q249.89,96,238.22,96a17.68,17.68,0,0,1-15.83-8.61q-5.49-8.59-5.5-21.37a37.29,37.29,0,0,1,5.72-20.72,18.31,18.31,0,0,1,16.27-8.83q10.83,0,15.05,9.89V19h12.66ZM253.93,61.72q0-6.82-3.25-10.63a10.53,10.53,0,0,0-8.41-3.81,9.91,9.91,0,0,0-8.77,4.89q-3.17,4.89-3.17,14.6,0,18.78,11.77,18.77a10.8,10.8,0,0,0,8.25-4,14.92,14.92,0,0,0,3.58-10.3Z" transform="translate(-7.94 -18.2)"/><path d="M367.15,94.81H353.49V61.89H324.56V94.81H310.9V19h13.66V50.17h28.93V19h13.66Z" transform="translate(-7.94 -18.2)"/><path class="cls-1" d="M395.7,32.18H383V19H395.7Zm0,62.63H383V38.73H395.7Z" transform="translate(-7.94 -18.2)"/><path d="M443.28,74.21l10.89,1.11Q452.05,85.88,446,90.93a22,22,0,0,1-14.6,5q-11.61,0-17.85-8.47T407.3,66.77q0-12.66,6.83-20.93t18.21-8.28q18.33,0,21.83,19.33l-10.89,1.5Q441.84,48,433,48a9.83,9.83,0,0,0-9.36,5.63,29.46,29.46,0,0,0-2.91,13.64q0,8.49,3,13.1a9.54,9.54,0,0,0,8.46,4.61Q440.57,84.93,443.28,74.21Z" transform="translate(-7.94 -18.2)"/><path d="M516.64,94.81H503.31L489,66.05,476.54,80V94.81h-12.1V19h12.1v47c1.08-1.41,1.93-2.46,2.56-3.16l22.21-24.16h13.61L498,57.28Z" transform="translate(-7.94 -18.2)"/><path d="M518.14,81.93,530,79.66q2.72,6.82,12,6.83,11.78,0,11.78-6.95A4.47,4.47,0,0,0,552,75.88a10,10,0,0,0-4.33-1.94L537.4,72q-17-3.27-17-16.6a16.89,16.89,0,0,1,5.39-12.63q5.38-5.19,16.05-5.2,17.76,0,21.71,13l-11.27,2.28q-1.78-6.33-10.11-6.33-10.11,0-10.11,6.33,0,4.39,8.17,6l12,2.5q14,2.89,14,16.11,0,9.27-7.21,13.85A31.42,31.42,0,0,1,542,96a32.32,32.32,0,0,1-15.22-3.47A16.56,16.56,0,0,1,518.14,81.93Z" transform="translate(-7.94 -18.2)"/><path d="M205.24,94.7H192.65v-56h6.76a5.91,5.91,0,0,1,5.83,6Z" transform="translate(-7.94 -18.2)"/><circle cx="191.01" cy="7.49" r="7.49"/><path d="M395.62,94.7H383.16v-56h6.69a5.88,5.88,0,0,1,5.77,6Z" transform="translate(-7.94 -18.2)"/><circle cx="381.45" cy="7.49" r="7.49"/></g></g></svg>