<svg xmlns="http://www.w3.org/2000/svg" viewBox="0 0 1920 260.24"><defs><style>.cls-1{fill:#1b1464;}</style></defs><g id="Layer_2" data-name="Layer 2"><g id="Layer_2-2" data-name="Layer 2"><path class="cls-1" d="M1920,179.06c-3.19,1.48-12,5.35-12.34,4.6-1.34-1.27,11.71-6.18,12-7.62-3.14,1.81-16.54,6.38-12.1.25,11.38-5.44,9.92-5.87-2.46-3.41.12,0,12.53-5.64,12-6.5,0-.13-10.23,4.71-10.58,3.92,1.36-1,8.65-3.9,8.23-5.86-1.75.45-15.4,6.67-7.1.15-4.18-.12,5-4.31,5.34-8-6.8,1.74-.45-.55.33-2.44.07-.07-10.67,4.73-11,3.87,1.26-1.61,11.79-6.21,4.18-4.7-.08-.37,5.24-3.08,5-3.62-2.9.07-.85-.95-.2-2.11-8.08,3.73-4-.84-10.28-.69,1.48-1.36,4.61-3.17,6-4.65-1-.18-8.18,3.6-8.31,1.14,9.81-5,3.18-1.75-2.66-1.4,2-1.1,10.65-3.39,8.69-6.23,0-.28-7,2.36-7.15,1.68.08-.15,9.22-4,8.81-4.79-2.61.94-8.28,2.74-11.35,2.31,12.21-8.15-4.93-1.76,6.44-8.48-9.62,2.12-2.37.07.51-2.44-1.19-.48-5,.68-6.31.36,6.6-3.87.49-1-2.51-1.46,10.87-4.83-4.65-.67,1.5-4.51-3.53-1.89,1-2.5,2.53-4-6.82-1.62,4.5-7.27-4-5.81-3.37-2.43,6.66-7.5-.43-5.26-.08-.43,2.57-2.16,2.35-2.67-.86-.22-3.85,2.35-3.7.11-.47-1.05.49-1.78.94-2.73-.93-.18-3.87,1.72-4-.13,3.91-3,5.29-2.44,2.18-5.31,2.87-3.9-.24-1.78-2.86-2.66,1.34-1.43,4-2.62,1-3.62-.15-1.44,3.66-6.58-.5-3.46-1.58,2.18,1.68,5.53-3.48,2.16-.32.56,2.95,3.75,3,4.1-3.72-2.28-3.81-.66-1.86,1.88-5.18-2,3.44,3.87-1.75,2,1.38,2.36.3,1.22-1.1,2.56,2.56,2.93,3,4.08-1.72,2-.54,1.06,6.79,5.27,1.34,3.58,4.17,4.31-1.13,1.28-3.66.25-2.29,1.85,5.18,5.92,1.6,6.31-3.59,1.41-1.29,1.22-5.19-1.32.23,2.87,8.21,8.39-.42,4.78-.3,1.16,7.43,5.51,1.6,3.73,5.88,4.21-1.2,2.78-3.86,1.15,0,1.18,5.61,3.31,1.08,2.94,3.48,2.59,1.45,3.57-2.26,2,3.77,3.59.38,1.87-2.18.75-.31.6,4.76,3.69,4.76,4-3.6,1.32-8.89-4.44-3.35,1.52-7.22-1.28,7.5,4.77,6,7-2.61.56-1.77,2.19-1.39,3.77-2.77,1.59-12.85-6-10-1.84,7.56,5.37,10.51,8.57-1.31,2.52.27,1.82,10.37,5.78,10,7.33-.25.74-8.2-2.89-8.18-2.67-10-4.22,4.77,4.68,5.8,7.13-.2.63-6.44-2.28-6.49-2,2.88,2.79,1.79,2.2-1.57,1.3-.24,1.15,8.11,4,3.56,4.14-9.24-3.57-6.07,0,1.5,3.61a.34.34,0,0,1-.31.32.51.51,0,0,1,0,.46c-.35-.05-.35-.25-.34-.45-1.63-.14-5.65-2.3-5.38-2.7-1.83,1.71-7.27-1.54-1.36,2.64a.77.77,0,0,1-.22.39,33.74,33.74,0,0,1,3.31,2.34c.31.36-4-.93-3.77-2.14-1,0-2.48-1.21-2.48-1,2.7,3-1,1.34-2.37.48,7.59,6.7-30,15.64-5.77,4.13a43,43,0,0,1-4.84,1.76c8.32-5.65,15.13-11.88,15.9-20-.94,4.39-4.2,8.43-9.1,11.69a19.82,19.82,0,0,0,6.27-8.27,20.09,20.09,0,0,1-9.23,8.23c7.2-4.83,11.13-11.17,10.67-17.88.28,6.83-5,13.05-13.36,17.28,3.52-3.34,13.48-10.95,12.27-18-.89,9.34-14,14.54-26.52,15.29,11.81-3,20.61-9.82,21.67-17.74-12.44,14-8.12,9-3.75.62l-.07.09a14.52,14.52,0,0,0,.76-1.72c-3,6.09-11.28,9.92-20.49,11.69,10-2.54,17.83-7.93,20.55-14.44-2.49,4.54-8,8.24-15,10.33,7.25-3,12.49-7.79,14.32-13.22a14.93,14.93,0,0,1-3.41,4.8c1.42-2.31,2.42-5,1.67-7.52-1.48,6.44-9.37,10.92-18.61,11.44,8.37-3.49,17.14-9.22,17-16.44-1.52,4.25-5.81,7.76-11.41,10,3.91-1.85,5.5-4.94,8-7.62-13.26,9.63-14.38,5.42-3.61-.93-16.44,7.1,3-2.53,2.18-12.57-1,4.59-5.5,8.22-11.4,10a19.56,19.56,0,0,0,8.82-9.92c-10.75,9.43-12.74,7.62-6.16,1.29-2.34,1.26-1.08-2.3,2.14-6.56-4.31,5.3-6.1,4.15-3.08.52-4.68,4.53-4.92-19-4.92-7-2.74-10-.19,1.4-.3,6-2.82-24.68-.35,15.1-3.66-14.31a62.27,62.27,0,0,1,0,12.73,73.73,73.73,0,0,0,.14-8.53c0,1.06,0,2.13-.09,3.21,0-2.27-.16-4.51-.37-6.74a61.25,61.25,0,0,1,0,6.21c0-2.18,0-4.36-.11-6.51a51.51,51.51,0,0,1-.6,9.73c0-2.87.18-5.77,0-8.65.06.8.13,1.61.2,2.42,0-3.19-.44-6.43-.69-9.6.28,4.69-.47,2.31-.32-.32,0,.19-.06.37-.09.56-.27-2.94-1.05-5.82-1-8.85a61.32,61.32,0,0,1-.4,8.87,36.94,36.94,0,0,1,.07-6.31c-1,7.43.62,14.76,1.65,22.06-.13-.27-.27-.53-.39-.8,0,.42,0,.84,0,1.27a30.12,30.12,0,0,1-1.18-8.07,49,49,0,0,0,.79,11.65c-1.56-4.32-1.43-8.94-1.09-13.32-.38,2.37-.52,4.79-.75,7.19,0-.21-.08-.41-.13-.62.18,1.21-.13,2.42,0,3.64a42.35,42.35,0,0,1-1-5.79c-.12.47-.53.9-.5,1.38l0-.22c-1.35,3,.27,6.51.58,9.66-.91-3.56-2.25-12.16-1.89-3.84-.24-.59-.44-1.18-.63-1.78,2,6.74-.65,6.42-.06-.1-2.55,2.41,4.92,14.32-4.28,2.59,2.21,5,5.37,8.46-2.14,4.86,8,7.35-1,3.54-3.56-1.73-2,5.59,14.7,16.79,4.27,12.63,4.39,2.32-2.57,6.85-8.88-2.67.67,4.22-.73,6,6.43,11a21.13,21.13,0,0,1-8.86-7.3c1.67,3,2.3,6.24,4.51,9-10.74-8.53-4.57.78,1.34,4.9a18.89,18.89,0,0,1-3.74-1.85c.09.13.21.27.32.4a21.66,21.66,0,0,1-2.93-2c4.83,6.05,13.67,10.66,23.62,11.86a40.63,40.63,0,0,1-15-2.61l.44.28a26.93,26.93,0,0,1-10.92-6.59,25.59,25.59,0,0,0,7,6.84c-4-1.74-7.78-3.88-8.63-7.21a14.66,14.66,0,0,0,.71,2.12,16.25,16.25,0,0,1-2.48-3,36.17,36.17,0,0,0,9.63,11.59c-2.55-.28-3,0-6.19-3.34,3.25,4.38.77,2.72-2.71.15,3.55,4.31,9.6,7.58,15.74,10.16-9.61-2.15-17.32-6.92-20.25-13.09,3.59,8.82,12.35,16.28,25.31,18.89-11.9-1.66-21.43-7.25-24.09-14.56a18.59,18.59,0,0,0,6.58,9.23c-21.06-15.64-3.43,5.32,15.88,9.11a46.36,46.36,0,0,1-13.34-3.62l.51.32c-5.5-2.39-11-5.26-12.44-9.72.16.65.36,1.29.58,1.93-1-1.22-2.22-2.45-2.52-3.85,0,.14,0,.28,0,.41a14.41,14.41,0,0,1-1.8-5.32c.3,7.95,1.84,13.19,12,20.63a29.89,29.89,0,0,1-10.73-7.55c.16.87,1.33,2.41-.33.88,1.51,3.39,4.25,6.35,7.31,9.17-15.31-.41-6.26-15.26-16.72-12.1,5.24-3.62-.76-6.37,3.26-10.32-8.61,3.38.15-4.15-2.57-6.46-8.68,6.69,3.29-7.32-4.11-2.05,3.41-3.73.56-8.23-2.65-10.67,1.47-4.76-.4-5.89-1.49-11.14,0,.43.08.84.1,1.1-.32-.76-1.36-12.12-.64-3.63.13,1.63.18,5.6-.24,1.62-.27-9.51,0,0-.45,3.62-2.27,1.08-.09,5.93-1,8.32-4-.89-1.1,2.67-.56,4.27.46,3.39-6.21-3.31-1.12,4.84-4.74,0-2.66,3.66-.71,5.65-4.48-.48-6.08,6.31-.47,8.67-6.13,2.42-5.93-2.34-1.91,6.71,1.61,5.37-12.77-2.29-3.71,5.85-3,2.22,4.29,3.07-1.4,5.34,0,2.47,6.54,5,.18,4.64-1.84,4.31,3.94,6.5-3.6,3.55,8.55-4.94-4.72-.46-7.77-1.8,6.37-2.28,17.38-6,.75-3.26,1-.17,16.67-6.82,5.69-3.82.07-.79,6.25-3.21,2.39-3.38-.44-1.32-9,2.31-10.26,1.34-.38-1.6,5.31-2.49,6-3.71,0-.24-6.66,1.45-6.79.7.2-.48,10.54-2.7,5.55-3.46-8-.52-6.33.06-1.69-3.7-8.76.33,1.49-.95,1.3-3.74,0-.21-6.13,1.46-6.25.68.85-.76,4.57-1.25,3.48-2.83,3.76-3,1.43-1.32-1.91-1.6.39-1.2,3.25-3,3.69-4.24-1.18-1.19-5.17,2.29-5-.3,0-.36,3.56-2.52,3.27-3.1-.06-.36-3.29,1.67-3.46,1.05-1.21-1.88,5.47-4.66-1.11-3.71.23-.92,4.11-2.62.86-2.57.33-1.18.59-1.27-.87-1.57-5.4-3.27-2.55-.22-1.45,2.5,1,3.15-2-.47-2.69-.55-2.26,2.15,6.11,5.39,1.54,6.51-.14.48-.94-.13-1.1.32-5.48-3,.33,1.87.74,2.85,1.45,3.85-4.13-1.81-4.66-1.8a75.21,75.21,0,0,0,4,7c-.34.66-4.91-2.6-4.91-2.35,1.05,2.25-.86,1.68-3,1.74.66,1.89,6.74,4.29,7.58,5.73-9.62-.21,1.1,4.49-9.11.39,4,5-4.53-2,0,4.7-.36.71,6,3.47,6.08,3.73-1.81.52-7.79-2.56-6.51.6-.39.8,7.47,3.71,7.57,3.88-.5,1.26-11.36-3.76-11.8-4.47.1,4.56,19.19,11.38,3.45,6.92-.15.49-.31.41-.46.89-6.92-.2-1.47,1.26.33,3.5-3.44-.47-4.89-2.48-3.63,1.46-.48,3.13,5.92,5.47,8.91,6.81-18-5.82-13.85-2.8-1,2.93-22.56-4.34-5.21-9.45-27.28-2.73,1.15-.35,16.82-7.16,7.57-6,1.73-1.89,8-4.93.3-2.38,5.55-4.71,7-4.78-1.4-1.54,7-7.84-3.36-.16,3-7.43-7,2.27,1.83-2.29-7.43.57,1.29-1.31,4-3.2,4.92-4.73,1.51-3.38-10,2.78-12.67,1.75-.54-1.62,5.52-2.81,6.23-4-.09-.32-6.16,1.54-6.33.89-3.09-2.68,12.86-5.92,6.87-6.63-1.39.05-5.07,1.47-6.15.12,1.09-1.33,5.64-2.2.56-2.28,7.92-5,2.26-2.82-3.23-2.36-4.5-1.52,5.13-3.46,5.92-5.15-1.11-.24-3.43.94-3.63-.73-4-.39-1.19-.68,0-2.15-1.56-1.42,3.11-2.51,3.33-3.7-5.57,1.56-1.43-1.63-5.12-2.14-6.06-.07-1.9-.34.19-2.2-5.17.18-.06-1,.31-2.53.18-5.68,2.17-3.74-4.65-2.08-1.4-1.79,4.6-3.29,3.61-5.51,0-.36-3.41,1.79-3.58,1.16.35-1.11,1.52-2.28,1.92-3.39-1-.21-3.44,1.89-3.07-.35-.67-1.65,6.15-9,0-5,1.77,2.22-1.24-.11-1.72-.2,2.88,4.71-2.26,0,1.09,4.62-5.32-3.12-.89,1.9.26,3.47-5.69-2.57-2.39-.77-1,1.6-7.84-3.86-2.3.55-1.73,3.37s-2.49-.62-3.46-.53c.72,2.48-.07,1.33-1.89.5,5.33,8.35-5.77-1,2,7.79-2.47-.31-5.69-1.37-3.46,1.49-7.57-2.48.93,1.55.56,3.61-11.12-3.26-.43,2.68-6.21,2,6,5,1.4,3.46,3.85,6.89-.29.7-6-2.79-6-2.55-.71,1,9.55,6.14,9.86,6-.39,1-9.23-3.19-10-3.69,3.46,3.9,17.7,10.88,1.44,5.61,9.36,5.36,8.66,5.56-2.83.34,2.34-2.83,1-.75-1.1-.71-1,2-5.33,2.82-7.65,3.62.08-.13,8.36-5.62,8.58-6.7-.87,1.32-21.49,11.87-14.8,6.11.93-.56,14.13-7,6.39-6-14.18,5.06-.69-1.26,2.45-4.84.07-.08-9.72,4.77-10.1,3.95.24-1.54,10.43-6.13,11.26-8.2-.78.88-14,7.31-14.59,6.1,3.13-1.24,11.51-5.21,12.47-8-.16-1.18-12.7,5.35-13.94,4.27,1.66-1.21,15.06-8.57,11.54-9.39-2.76,1.34-9.1,3.75-12.62,3.45,1.24-.52,12.84-4.91,11.32-7.08-1.42.78-10.79,5.15-12.62,3.28-1.71-.83,13.87-6.42,13.29-8.35-2.33,1.44-8.72,4.43-12,3.89,5.61-1.56,18.37-11.36,3.42-5.38.48-1,2.44-1.73,0-2.16,0-.34,4.8-3.08,4.51-3.64-6,2.31-3,.7-.7-1.78-4,.85-7.67,2-2.92-1.5-2.36-.72,1.45-2.17,1.5-3.15-6.85,3-12.91,5.1-2.44-.67-15.25,4.73-5.73.21-.28-3.14.06-.1-7.8,2.91-8,2.06,3-1.73,5.81-1.54,3.78-4.27-6.93.86-1.12-1.84.83-3.56,0-.29-5.3,1.5-5.45.82.09-.31,10.33-3.88,5.62-4.16-.14-.46-.53-.25-.67-.72-11.29,2.06-3.56-1.53.3-4.56-7.72,2.71-7.35,2.61-1.69-1.78,0-1.87-1.64-.17-2.68-.51.94-2.65-3,.44-4.16-.32-.54-1.51,4.67-3.37,5-4.84-1.89.91-5.61.74-5.18-1.44,1.47-1.76,3.12-3.31-.8-2.82.7-1.19,5.83-3.27.42-2.26,1.41-1.4,2.82-3-.53-2.84,1.06-.66,2.29-4.1.52-2.29-3.49-1.51-.74,1.27-.64,2.74-5.24-2-.92,2.23.27,3.41-3.88-1.21-1.5,1.19-.72,2.78-.28.68-4.16-2.61-4.12-2.35-.43,1,3.63,3.76-.17,2.36.11,2.63,2.18,4.68,3.56,7.16-3.51-.34-1.35.46-.5,1.91-.24.62-4.14-1.94-4.21-1.63-.3.53,3.3,3,3.26,3.33-3.61.85-3.38.58-6.37-1.48,5.61,6.25,5.23,6.13-1.49.83.47,1.85,4.47,5.17,6.09,6.25-3.71.13-3.41-.15-.89,1.86-1.06,1.2-4.34-.08-5.55-.24-.29.67,5,3,5.09,3.26-1.17.77-5.4-2.1-4.07.6-3.1-.13-2.1,1.43-5.28-.06,3.13,4.44-4.27,1.39,3.44,6.78-2.09,1,1.31,2.3,1.11,3.7-1,3.18-8.35-4.65-7.72-1.32,1.1,2.77,20,10.94,3.46,6.89-.26.64,5.71,3,5.73,3.36-3.24,0-9-2.61-11.38-3.8-.44,2.21,17,8.89,4.79,5.46-3.65-1.24-4.65-1-3.93,2.12.63,1.73,10.11,5.49,1.59,3.19,2.57,2.48,9.55,4.78.32,2.36,10.9,6.57-2.28.62-4.3-.37,1,2.85,21.88,9.82,4.48,4.5-1.1-.32-6.7-1.79-1.7,1.07-3.17.94-7.09-3.24-1.74,1.22-1,1.5-4.41-1.73-4.24-1.12,3.56,1.75.26,6.06-3.24,3.16-1.2-1.31,5.64-4.91,5.82-6.08-2.34-1.55-11,4.59-14.14,4.43.12-.06,11.69-6,11.14-6.84-4,1.43-4.28,1.73-1.63-1.17,0-.13-9.69,4.73-10,4,2.38-1.2,11.62-6.07,11.71-8.6-.14-.34-4.67,2.7-4.93,2.18-.45-1.57-2.64-.88-.87-2.82-12.44,4.44,0-.8,1.56-3.21-10.39,4.23-1.92.24.39-2.55-13.85,7.24-3.86-.69-1.56-4.62-15.77,7-13,5.94-1.07-1.54-.77-.28-6.94,4.18-6.21,1.28-.11-.34-5.9,1.78-6.09,1.18.24.1,12.68-5.81,12-6.81-17.7,8.31-10.72,4.06-.84-2.84.08-.09-8.93,4.63-9.3,3.81,1.05-.87,8.54-4.11,7.45-5.93.13,0-10,4.63-10.35,3.73.74-.78,8.74-3.36,7.16-5.12-.71-1.19-9.19,2.58-10.61,1.86.11-.09,10.22-3.85,9.78-4.7-13.1,1.44,3.47-3.12-10.42-1.34,0-.22,8.2-3.11,7.86-3.85-4.62,0,2.27-2.23,2-3.39.11,0-9,3.83-9.31,2.94,0-1.49,4.27-2.71,5.07-3.91,0-.21-7.5,2.15-7.68,1.39,1.13-1.42,6.17-3,7.48-4.53-.1-.39-4.2,1.23-4.35.65,2.77-2.61,3.55-3.26-1.52-2.69.07-.21,7.11-3.2,6.75-3.93,1.35-3-6.12,2-7.22,1,.08-.52,9.24-3.62,5-4.1,0-.17-7.15,2.34-7.35,1.54,0-.27,6.45-2.4,6.16-3.11,0-.32-5.08,1.49-5.23.84,7.11-3.15,1.89-3.07,4.85-6.11,0-.2-6.3,2.08-6.48,1.3,1.24-.74,6.32-2.37,5.67-4.14-4.82,1-3.25-.81-1.56-2.95-4,1.27-4,1.72-1.48-1.23.11-3.38-3.94,2.43-1.24-4.75-.08-.39-3,1.24-3.1.67,1-1,4.13-3,3.52-4.43,0-.37-3,1.67-3.13,1.09.35-1.16,1.62-1.49-.42-1.89.79-1.47,1.78-5.14-1-4.63.18-2.82,1.85-5,1-7.17,0-.46-1.11.68-1.15.17,0-1-.66-.81-1-.16.71,1.83-1.72,2.46-1.18,4.55-2,1.54,5.76,9.28-1.6,4.25,3.44,4.43-4.7,2.83,1,7.93-.27.61-3.6-2.48-3.62-2.17-.33.52,2.72,3.42,2.71,3.79-6.57-4.55-2,3.44.35,5.8-7.52-1.86-5.42-2.19-3.53,3.34-11-5.07-2.42,2.4.84,3.93-.52,2.26-5.58-.86-6.71-1-.27.6,3.9,2.9,3.9,3.26-.2.62-4.41-1.68-4.46-1.36,1.39,1.69,4.17,3.42,4.18,5.51-4.81.77-1.33,3.18-.28,5.2-.15.58-4.06-1.13-4.14-.75-.26.66,5.61,3,5.64,3.31-7.09-1.26-11.15-2.82-3,2.19-6.71-.88-.3.37-1.5,2.59-5.06-.42-.62.76.14,2.19-4,.18-.14,1,.39,2.25-1.25,1-4-.23-5.45-.32,6.58,5.52-3-.31-4.42-.73-.71,1.08,11,6.9,11.33,6.76-4.92,1.44-18-8.87-9.77-1.07-12.92-3.09,5.79,7.33,7.28,7.62-12.42-2.53-16.49-6.85-3.12,2-2.31.85-15.17-9.14-7.09-1.44-3.57-.85-2.08-.11.32,2-2.41.11-6.22,1.52-12.59,4.13-2.64-3.18,9.77-5.83,7.68-9.84-7,3.07,3.08-6.15,1.88-9.46-.1,1.25-5.88,7.39-6.81,6.19,4.14-4.83,3.89-11.28-4.21-8,3.18-1.3,8.11-6.7,5.4-9.14-1.35,1.37-9.46,5.89-4,.19,3.71-5.56-4.89-1.63.4-7.33-7.76.75,0-5-.11-7.88-10,7,3.57-2.89-6.1-1.83,3-3.88,8.31-5.76-1.42-2.74,6-4.33-.8-1.68,2.9-6.76-5.92,1.2,3.93-4.42-3.52-2.23,2.74-1.7,1.48-6.57.83-2.24a71.92,71.92,0,0,1-1.1-11.1c-.5,4.06.86,9.06-1.17,10.47,2.65,6.68-5,.82-.08,6.67,4.48,5.48-5.37.57-3.73,4.27,15.66,13-11.76-1.07,4.56,8.68-13.06-5.18-6.75,9.87-.33,12.6-.47,1.41-9.38-1.91-9.65-2.7-.33,1.17,6.34,5.42,6.73,5.38-.49,1.08-6.85-2-7.77-2.91,2,4.27,15.4,9.49.51,4.21-.47,3.18,3.07,6.48,6.51,8.12-8.91,0,0,1.93,1.79,3.5-2.66,1.56-8.4-2.1-6.89-5-1.22,1.22-4.44,1.63-5.55.29-.14.73-4.3,1.3-4,1,.57-.71,8.12-3.08,6.1-4.69-7,2.94-7.65,0-3.42-3.72-5.16.77-4.29.68-1-1.72-5.44,0,2.57-2.12,2.37-3.44-3,.55-4,1.22-1.69-1.25.07-.08-7.67,2.36-7.86,1.46.84-.91,2.56-1.13.76-2.18,1.29-1.21,3-1.36.12-2.1.12-.15,6.81-2.76,6.39-3.56-1.33,0-8.63,2.43-7.09.13,3.26-2.63,7.65-5.87-.66-3,2-1.8,6.66-3.71.54-3.44-3.92-.47,2.51-2.13,1.13-4-7.08.75,1.32-3.78-.15-5.63-3.76.56-1.28-1.3-.61-2.93-1.53.65-3.08,1.59-1.88-.77-2.75-1.86.26,4.76-2.12,4.29-2.92,0,5.75,7.15-1.73,3.09-.35.58,3.12,3.34,3.19,3.69-1.52.18-1.62.18-1.24,1.46-4.61-1.61-1.7-.09-.74,1.79,2.06,3.17-1,.65-2.58.42-.44,1-1.61.91-2.55,1.27-.52,1,4.56,4,.44,3-2.51.32,1.22,2.53,1.16,3.33-2.1,2.1-3.33.38-5.92-.52,3.34,3.35,8.63,7.18-.44,3.24,1.86,2.08,2.31,3.56-1.66,2.24-.6.94,7.65,5.06,7.89,5.07-1.86.67-7.43-3.14-7,.22,8.64,5.73,2.4,2.87-2.58.47-.52.84,7.23,4.88,7.41,5,4.61,3.75-6.35.36-8.29.22-1,1.89,5.39,4.6,6.54,5.54,1,3.07-6.16-1.44-6.85-1.13,5.08,4,15.5,7.37.55,2.6-.38.78,7.74,4.06,7.84,4.25-.24.8-8.21-2.37-8.17-2.2,4.76,4.47-2.41,3.15-2.79.17-2.81-3,.43-4.38,3-9.6-.48.45-11.74,9.38-5.11,1.72-.1-6.86.41-6-5.8-3.92,5.37-3.81,10.78-11.63-.82-5.63,1.29-2.17,5.94-7.07-.28-6,0-1.53,6.32-4.64.28-3.26-4.34-.91,3.46-5.71,3.52-8,.13-.33-6,4.66-6.47,3.67,11.54-10.83-8.43,2.92,4.44-10-9.43,6.27-7.42,4.72-2.9-3.71-6.26,2.53-1.72-.08-.93-2.43-10.79,5-.19-1,.42-3.81,0-.49-3.64,2.52-3.92,1.7-3.27-1.87,5.51-5.31-2.37-3.26,3.38-2.29,3-5,3.9-7.84-12.57,4.26,1.08-1.75-4.5-4.08-2.06-1.35,1.88-3.36,1.73-4.9-8.61,3.38.15-4.15-2.57-6.45-8.68,6.69,3.29-7.33-4.11-2.06,3.41-3.73.56-8.23-2.65-10.67,1.47-4.75-.41-5.89-1.49-11.14,0,.43.08.84.1,1.1-.32-.76-.46,2-.88-2,.2-12-1.14,8.73-1.47,11.93-4-.89-1.1,2.67-.56,4.28.46,3.39-6.21-3.32-1.12,4.84-4.74,0-2.66,3.65-.71,5.65-4.47-.48-6.1,6.28-.47,8.66-6.13,2.42-5.93-2.34-1.91,6.72,1.61,5.37-12.77-2.3-3.71,5.84-3,2.23,4.29,3.07-1.41,5.34,0,2.47,6.55,5,.19,4.64-2,4.59,4.74,6.78-5.29,2.9-.51,2.36,4.95,5.31,6.76,6.63-2.11,3.09-7.69-1.37-1.67,3.84,1.14,4.2-5.1,1.29-7.19.68,3.87,4.43,8,7.89-1.49,3.65-.49,1,7.46,5.26,7.56,5.62.18,3.25-5.56-.64-6.83-.38-1.65,2.09,4.66,4.6,5.61,5.84C1436.92,84,1439.6,89.2,1449,95.2c-4.37.52-9.1-2.39-8.16-5.48-1.18,2-5.53,6.46-6.51,5.5,4.13-4.83,3.89-11.28-4.21-8,3.18-1.3,8.11-6.7,5.39-9.14-1.34,1.37-9.45,5.89-4,.19,3.7-5.56-4.9-1.63.4-7.33-7.76.75,0-5-.11-7.88-.45.69-4.42,3.51-4.92,2.57,2.73-2.45,5-4.5-1.18-4.4,3-3.88,8.3-5.76-1.42-2.74,6-4.33-.8-1.68,2.9-6.76-5.92,1.2,3.93-4.42-3.52-2.23,2.74-1.7,1.47-6.57.83-2.23a71,71,0,0,1-1.1-11.11c-.5,4.06.86,9.06-1.17,10.47,2.65,6.68-5,.82-.08,6.67,4.48,5.48-5.37.57-3.73,4.27,15.66,13-11.76-1.07,4.56,8.68-13.06-5.18-6.75,9.87-.33,12.6-.47,1.41-9.38-1.91-9.65-2.7-.33,1.17,6.34,5.42,6.73,5.38-.55,1.21-8.46-2.86-7.87-3.11-1,1.15,5.9,5.43,8.25,6.36-11.75-2.68-8.28,1.32-1.13,6.17-6.78-1.71,1,6.95-10.65-1.25,1.38,3.7,7,7.8,11.51,9.28-1.72.91-8.11-1.48-9.3-1.95,6.49,5.64-.76,4-5.07.11,1.14,6.29,6.09,9.36,12.55,13.55-4.2-1.39-17-4-12.81-7.85-.19-.41-2,.85-2.21.39a37.77,37.77,0,0,1-11.08,1.44c1-.82,7.54-2.64,6.57-4.47-12,3.58-7-.53-2-4.53-8.17,1.47,1.14-1.51,1.8-3.11-3.18.53-4,1.1-1.6-1.34-.09-.34-4.9,1.59-5.08,1,3.48-2.9,11.45-6.67.18-3.22,3.35-2.4,4.37-3.79-1.21-2.79,0-.31,5.53-2.72,5.22-3.36-1.13,0-5.4,2.33-6,.45-.31-1.49,3.86-2.77,4.48-4,.06-.11-7.46,2.5-7.67,1.63,3.19-2.22,10.32-2.2,1-3.31,1.11-.82,5-2.14,4.46-3.76-5.53-.07-1.81-1.52-.19-3.58-4.94,2-6.56,3-2-1.17-1.45,0-3.95.78-4.59-.79.65-.81,8.52-5.75,1.84-3.14,1.42-2.41,1.72-1.89-1.43-1.4,1.53-2.07,2.82-3.64-1.31-2.58.49-1,5.33-3.9.78-2.57,1.1-2,3-5.9-1.13-4.57,1.12-1.88,3.37-3.31-.37-2.79,3.12-5.1-.41-4.4-.66.08-.42,1.8,3.44,6.86-1,3.66,2.3,2.91,1.14,3.16,1.23,5.89-2.87-1-2.46-1.17-1.46,1.13-.74.11-2.12-.93-2.83-.45,6.08,10.21-5.21-.8,1.3,7.42-.26.56-3.15-2.09-3.25-1.75.52,1.42,1.85,4-1.43,2.32,1.21,2.77,4.14,3.56-.65,4.79,3.93,3.3,4.91,3.53-1.45,1.6.93,1.59,3.86,3.35,5.43,4.52-1.76,1.43-11.65-6.19-6.14-.37,8.23,5.64,2.33,4.42-3.11,1.29,1.73,2.61,5.41,5.12,7.94,7.19-1.51,1.15-10.73-4.9-6.23-.27,7.17,6.55,4.74,6.11-3.51,2.37-.57,1.79,4.68,4.34-.26,3.29,4.8,4.56.75,1.69-2.53.5-.43,1.19,6.82,4.29,1.38,3.35,2.69,3.7-.71.62-2.65.42,0,1.24,5.79,4.13.74,2.9,2,2.81,16.45,8.13,1.67,3.33-.24.59,4.8,2.89,4.76,3.27-1.14.62-6.25-2.89-6.61-1,.51,1.5,8,4.33,1.19,2.92-.32.72,7.65,3.81,7.7,4.07-.18.68-7-1.84-7.06-1.54.12,1.28,6.37,2.62,1.43,2.83-.18.57,4.79,2.27,4.74,2.69-.47,1.14-13.18-4.85-12.86-5-6.84-1.32,9.25,7.06,10.4,7.48-9.48-1.73-.23,1,1.5,3.59-.41,1-12-4.15-12.84-4.75,2,2.33,10,6.09,12.23,7.73-4.37-.76-11-1.92-14.49-3.56-7.5-3.71.65,1.74,1.21,3.13-1.23.15-5.38-3.49-5.58-3.13,3.46,2.29-7.95,5.87,2.58-3.7-4.3,3-11.42,7.32-3.24-.15-6.87,2.2.12-1.66.34-3.56-5.38,2.07-2-.06-.93-2.43,0-.44-5.08,2.83-5.37,1.92,1.13-1.21,11.37-8.75,1.87-4-2.55-1.1,1.14-2.63,1.2-4-6.64,2.68,1.37-3.92.32-7.07-12.53,4.26,1.07-1.74-4.49-4.08-2.06-1.34,1.88-3.36,1.73-4.9-8.57,3.36.21-4.6-2.58-6.45-1,.31-3.67,4.12-3.37.59.61-2,4.48-6-.74-2.65,3.91-4.2,0-6.55-1.47-10.31-1.42-5.33-1.86-8.85-3.48-17.34.76,5.51,0,9.69,0,1.56-1.55,5.09,1,13.58-3.58,15.81,0,1.63,4.7,8.22-1.25,3.72-1.48,2.29,4.43,5.55-.7,5.15-2.69,2.71,5.55,6.79-1.71,5.08.23,1.55,2.66,2.42-.33,2.92-4.2,3.93,9.8,7.18-1.69,6.67,1.41,3.21,6.79,8.83-1.74,8.2-4.66-.26,1,2.49,1.13,3.75-3.57,1.54,4,3.28-.2,4.45-4.56,1.94,6.85,6.1-1,5.53,1.12,6.48-1.75,7.14-.93.34-.07,1-1.3,5.29-2,3-1.58-.27,2.14-6.09,1-8.47-.22,6.48-3,10.63-9.48,15.16,2.5-2.92,9.57-9.6,8.7-15.81-.54,7.16-7.69,11.54-15.43,13,5.33-4.1,11.66-8.55,12-15.13-8.83,12.25-5.77,7.89-2.67.55l0,.08c.2-.5.39-1,.54-1.51-2,4.92-7.13,8.15-13,9.84,6.71-2.7,11.09-6.87,13.07-12.26-1.76,4-5.68,7.23-10.62,9.07,5.14-2.68,8.86-6.84,10.16-11.6a13.46,13.46,0,0,1-2.42,4.2,9.94,9.94,0,0,0,1.18-6.59c-1,5.5-6.36,9.36-12.69,10,5.36-3.48,11.8-8,11.51-14.37-1.07,3.72-4.12,6.81-8.1,8.73,2.78-1.62,3.91-4.33,5.67-6.68-7.06,7.28-10.13,4.92-2.56-.82-10.3,5.78,2.27-3.54,1.54-11-.7,4-3.9,7.21-8.09,8.76a16.46,16.46,0,0,0,6.26-8.69c-7.64,8.28-9,6.67-4.34,1.09-1.68,1.13-.8-2,1.49-5.72-3.16,4.8-4.4,3.56-2,.14-3.7,4.9-3.7-16.56-3.72-5.8-1.94-8.8-.13,1.23-.21,5.23-2-21.66-.25,13.24-2.6-12.56a67.22,67.22,0,0,1,0,11.17c.15-2.51.19-5,.1-7.49q0,1.41-.06,2.82c0-2-.11-4-.26-5.91.08,1.8.06,3.62,0,5.45,0-1.92,0-3.82-.08-5.72a55.91,55.91,0,0,1-.42,8.55c0-2.52.13-5.07,0-7.6,0,.71.09,1.42.14,2.13,0-2.8-.31-5.65-.49-8.43.2,4.12-.33,2-.22-.28,0,.17,0,.33-.07.5-.19-2.59-.75-5.11-.73-7.77a67.44,67.44,0,0,1-.28,7.78,39.25,39.25,0,0,1,0-5.53c-.73,6.52.45,12.94,1.18,19.36-.09-.24-.19-.47-.28-.71,0,.37,0,.74,0,1.11a32.44,32.44,0,0,1-.83-7.07,52.1,52.1,0,0,0,.56,10.21c-1.11-3.78-1-7.84-.78-11.68-.27,2.08-.37,4.2-.53,6.31l-.09-.55c.12,1.06-.1,2.13,0,3.19a47.84,47.84,0,0,1-.67-5.07c-.09.41-.38.79-.36,1.2v-.19c-1,2.68.19,5.71.41,8.48-.64-3.12-1.59-10.67-1.34-3.37-.17-.51-.31-1-.45-1.56,1.44,5.92-.46,5.63,0-.09-1.86,1.83,3.57,12.72-3,2.27,1.57,4.41,3.81,7.43-1.52,4.27,5.67,6.45-.7,3.1-2.52-1.52-1.4,4.91,10.43,14.73,3,11.08,3,2.07-1.81,6-6.31-2.34.48,3.7-.51,5.3,4.57,9.65a16.17,16.17,0,0,1-6.29-6.41c1.19,2.61,1.63,5.48,3.2,7.91-7.62-7.48-3.24.69,1,4.3a12.22,12.22,0,0,1-2.66-1.63c.07.13.15.24.22.36a15.12,15.12,0,0,1-2.07-1.72c3,7.44,25.85,14,6.1,8.12l.3.24a18.69,18.69,0,0,1-7.74-5.78,20.57,20.57,0,0,0,5,6c-2.82-1.52-5.52-3.41-6.12-6.33a15.12,15.12,0,0,0,.49,1.87,14.37,14.37,0,0,1-1.75-2.66,31.29,31.29,0,0,0,6.83,10.18c-1.43-.76-1.48-.7-.73.58a16.33,16.33,0,0,1-3.66-3.51c2.15,3.58.78,2.61-1.93.12,2.52,3.79,6.82,6.66,11.18,8.92-6.82-1.89-12.3-6.07-14.38-11.48a25,25,0,0,0,18,16.57c-8.45-1.46-15.21-6.36-17.1-12.78a16.81,16.81,0,0,0,4.69,8.13c-15-13.78-2.4,4.72,11.35,8a29,29,0,0,1-9.57-3.19l.37.28c-3.91-2.09-7.81-4.62-8.83-8.53.11.57.25,1.13.41,1.69a9.65,9.65,0,0,1-1.79-3.37c0,.12,0,.24,0,.36a14.78,14.78,0,0,1-1.27-4.68c-.74,4.25,4.31,9.84-3.44,9.93-11.11,4.27-1.34,0,2.14-2.12-4.47.35-.83-.69,0-2.18-6.63-.1-2.16-2.58.43-4.7-3,1.36-16.74,5.55-4.31,0-10,.3-3.29-1.62.56-4.56-2.21-1.36-1.16-1.89.24-3.41.1-2-7.09,1.73-8.1.61.13-.1,7.84-2.7,7.44-3.55-5.79,1.58-11.09,3.29-2.14-1.29-3.84.62-4.7,3.14-5.09-.89,1.3-2-2.75-2.2-.61-4.08,6-5.39-6,2.15,3.16-5.13-.33-1.57-2,0-2.94-.39,0-.4,2.91-2.38,2.66-2.94-1,.19-3.33,1.17-4.46.59.11-.33,3.91-2.77,3.61-3.41,0-.34-3.35,1.91-3.49,1.26.55-1.31,3.55-2.35,0-2.09,0-2.52,3.61-3-.47-3-2.44-1.44.33,2.18.23,3-1.71-.14-1.28.38-.94,1.48-.1.49-.13.46-.23.94-4.24-1.56.61,1.27-1.12,2.52-4-2.17-1.58,0-.82,1.65-5.3-2.78,1.13,2.82,1.59,3.39-10.31-4.85,2.66,5.12-5.2.55,3.6,4,5.83,6.68-2.42,3.82.31,1.81,9.9,8.6,1,4.77-6.23-3.22,2.42,3.41,3.05,3.77-2.2,0-6.22-1.73-8-2.48-.54.86,6.75,4.65,6.94,4.75-1.37.78-1.09,1.83-.7,3-2.06,1.71-6.55-.43-8.59-1.25-.66,1.57,9.84,5,6.24,5.79-.19.62-4.72-1.57-4.78-1.22,8.13,5.63,1.7,2.55-2.8.32,9.68,6.79,11.56,7.69-1.14,1.44-.71,1.06,9.71,6.35,10,6.23-1.54,1.6-13.62-7.13-8.37-1.5-3.79-1-2.38-2.27-3.6.82.41,1.76,10.92,8.13.72,4.11,2.58,2.64,5.25,6.17,9.6,7.66-2.64,1.28-12.37-6.66-8.27-.05-.25.62,5.66,3.14,5.66,3.49-.39.92-9.81-3.85-10.24-4.17,2,2.79,8.11,6.19,11.71,7.76-4.63,2.65-21.51-9.93-6.93.68-.79,2-6.4-2.08-7.23-2.11-1.11,2.82,6.43,7.07,9.45,8.39-1.32.55-4.14-.23-5.47-.21,1,2-.45,1-1.95,1.14-11-5.49-1.28.71,1.43,3-2.3.45-13.6-9.35-6.07-1.43-.6,1,11.71,7,12,7-3.27,1-13-4.24-15-5.86-.7,1,11.92,8.18,12.24,8.09-.48,1-11.06-4.88-12.58-6,4.53,4.19,12.89,9.15,15.58,11.17-.17.65-7.33-2-7.38-1.64-.45.89-10.83-5.67-10.65-5.63,3.61,5.1,26.66,14.8,4.25,5.48-10-4.3.32,4.71,6.59,7.3-6.62.53-13.52-9.43-13.21-4-5-1.93.69,1.53-.59,3.17-17.66,6.54-8.11,4-2.54-1.75-14.06,4.7-1.68-1.13,1.39-4.37.06-1.54-19.28,6.93-7.32-.52-5.9.51-2.15-.34-.13-2.11-3.4-.8,5.07-3.53,4.69-4.8-4.14,1.4-3.84,1.31-1.44-1.34-.48-.09-11.55,5-5.7.6-4.24-.62,3-3.25,3.46-4.91-6.15.42-9.94,2.31-2.47-2-4.12-.52-8-.32-3.62-3.9,5-3.53,3.93-5.86-3.14-4.43,6.15-2.71,3.93-3.14-1.78-3.1.3-.17,9.38-5.79,3.68-4.07.87-2.93-2.91.9-4.13.05.55-.7,6.88-4.34,1.69-2.89,3.33-3.36-2.17-1.58.24-4.61-2,.37-1.48.32-1.83-1.11-3.88-.12-1.33,3.35.5,5.06-5.13-2-1.91-.29-.66,1.78-.84,2-.58,2.06-3.13,1.16-3.86-.82,2.09,3.17,1.41,4.5-1.91.45-4.72-4.71-5.82-1.5,9.61,11.8-1.46,3.23,2.58,9.25-5.76-.2-5.09-3.75-3.72,1.79,6,4.05,1.91,2.16-2.33.92-1.81,1.91,5.89,4.28,6.77,4.95-.88,1.09-8.35-2.92-9.09-2.42-5.41,2.86-1.36-2.65.21-4.38-12.89,6.6-8.92,2.15-1.76-3.32-1.24.72-9.07,4-9.42,3,.24.07,9.48-3.87,8.86-4.87-9.35,2.83-11,3-3-2.5-1.13-.2-2.34.42-2.33-1-1.59-.27-6.29,1.68-2.89-1.08-.68-1.69,5.71-3.11,3.06-4.45.31-1.13,1.69-1.64-.54-1.91.22-1.71-1.26-.59-2.47-1-.09-.42-2.79.89-2.93.32.61-1.29,5.3-2.79.34-2.28-1-1.32,2.45-2.59,2.63-3.78-2.53,0-.48-.83-.47-2,0-.34-3.27,1.59-3.42,1,1-.93,4-3,3.33-4.47-2.35.76-1.93,1.82-3.74,0,.82,2.39-1.24,1.59-3,2.07-.07,2.76,2.54,8.9-3.66,5-.84,1.7,3.9,4.35,1.61,5.18-2.32.31.1,1.46.1,2.38-.32.62-4.17-2.32-4.2-2-3.11.63.92,2.39,1.13,3.37-6.57-1.1,3.31,2.94,3.37,3.39-.32.94-7.23-2.43-7-2.42,4.66,5.49-6,.07,4,7.81-1.21.77-3.39-.06-4.67-.15-.31.67,5,3.16,5.06,3.46-.17.63-4.59-1.29-4.64-.95-.24.59,4.07,2.5,4.06,2.88-.17.63-4.69-1.38-4.75-1.05-.25.61,4.37,2.67,4.36,3-.28.8-7-2.62-6.9-2.48-.19,2.56,11.61,6.64,4,5.62,7.69,5.41-5.53-1.55-6.48-.55-2.67,1.94,9.19,6.5,9.71,6.92-.43,1.08-10.71-3.81-10.41-3.95-.34,2.52,8.28,6.2,10.45,7.08-.15.67-6.18-1.41-6.22-1.1.87,1.56,3.39,2-.44,2-.17.54,3.5,2,3.44,2.41-.23.72-6.91-2.34-6.91-2.09,7.27,6-2.59-.16-5-.36-.52.79,7.35,5.93,7.52,6.07-1.8-.54-8-2.19-5.31-3-2,.32-6.22.91-8.11-.12,0-.25,6.34-1.6,6.06-2.36-1.27-.17-5.77,1.23-5.81-.82.07-.22,6.28-1.79,6-2.57-.73-.17-8.28,2.19-6.53-.54.17,0,7.37-2.15,6.9-3.08-8.69,1.94-4.19.8-1.06-2.06-3.59,1-4,1.32-1.88-1.37-2.23-.13-.87-.74-.75-1.87-5.29,1.41-2.73.57-.9-1.72-.45-6.18.44-.95-4.06-5.22-.47,1.05,3.11,3.32,1,3.81-5-2.47-.59,1.74-3.79,1-1.17,1.39,7.21,5.73,3,5.44-.35.67-4-2.55-4-2.3-3.58,1.43,7.88,6.55.52,5.85-7.53-1.56,1.59,1.9,1.86,3.81-2.13.49-6-.85-7.63-1.46-.1,2.38,11.71,5.12,6.66,6.66-.34,1-7.62-2.37-7.2-2.14-13.21,5.46-4.34.12.58-3.48-1.69.94-13.26,5.55-13.68,4.48a42.15,42.15,0,0,1,8.67-6.15c-1.12-2.74-1.14-1.51-4.4-1.39,4.93-4.46.15-2.21-3.93-1.92.07-.16,9.13-3.84,8.71-4.61-1.45.76-18.9,6.4-6.4.76-1.31-1.54,2-2.83,2.56-4.25,0-.17-8.58,2.53-8.78,1.72,7.26-4.26,10.34-4.57-.73-3,1.58-2.2,8.45-3.64,1.06-3.31,1.19-.76,8.1-2.78,7.2-4.68,1.7-2.44.17-1.15-2-1.23,5.68-4.7-4.79,1.12-6.29-.08,2.56-1.11,2-2.08,2.54-3.8.65-2.55,1.72-2.51-2.17-2.52-6.11-3.61,8.64-5.28-1.33-4.88,2.56-1.21,6-3.85.32-2.94,1.43-1.45,6.47-4.76.41-3.57-.08-1.76-2.19-.13-3.22-.61.08-.31,5-3.15,4.61-3.8-1.7.32-3.42-.17-5.23-.21.11-.3,4.71-3.19,4.36-3.85-7.15,3.71-3.29.32-1.28-2.42-.54-1.43-2.47-.51-3.69-.79.06-2.18,1.71-2.22,0-4.08.24-.63,3.65-3.83.39-2-3.24-.56-1.3,1.18-.71,2.87-5.68-3.58,0,2.67-.12,4.38-6.51-1-3.87,2-1.19,4.78-3.79-1.35-1.73-.18-1,1.6-9.87-4.37,5.1,7.49-2.92,4.83,3.1,5-3.16-1.21-3.74-1.27-.21,1.45,5.5,5.17,4.47,6.5-3.72.21-7.08-2.58-3.07,2.24-5.12,2.28-6.86-.91.32,4.18-.29.8-6.72-2.58-6.66-2.42-.49.82,6.86,4.54,7,4.68-3.32.3-1.24,1.89,0,3.19-1.82,3.4-7.34-3.69-4.73,2.59-1.55,2.05-6.8-3.37-6-.2-.37.66,5.58,4.12,5.62,4.41-5.33-.18,1.49,1.77,1.73,2.8-11.92-4.21-9.93-3.93-1.11,1.76-.31.79-7.83-3.18-7.77-3-2.31,2.06,7.52,5.39,7.57,7.25-2,2.16-7.54.53-10.09-.83,1,2.5,7,5.74,9.71,7.12-6.68-.22,1.53,1.43-3,2.17-.43.92-10.14-4.68-10-4.66-.76,1.09,11.71,7.69,12.07,7.53-1.49.6-1.44.67-.84,1.87-.31.83-9.64-3.58-9.56-3.45,9.29,6.78,1.73,4.19-3.43,1.06-.47.77,8.44,6,8.56,6.12-.34.78-8.94-4.14-8.87-4,3.24,3.45,7.31,5.7-1.6,2.32.41,2.58,7.8,6.56,10.22,8-.3.76-9-3.77-9-3.58-3.44,2.44,7.69,8.33,11,9.65-.27.79-9.9-3.39-9.87-3.21.33,1.86,16.37,7,4.09,4.27-.26.66-7.37-3.2-7.41-2.91-2,2.64,11.19,6,9.12,7.93,5.52,5.06-9.7-2.87-13-4.88,1.68-1.59.51-.77-.89-.66-1.64,1.49-6.24,1.37-8.61.68,2.77-1.32,4.54-3.93,7.14-5.8-.32-2-4,.42-1.55-2.45.08,0-6.74,2.09-6.91,1.14.13-.11,6.61-2.14,6.2-3-8.38.66-4.62.68-1.44-3.06-4.56,1.16.23-2.81-.55-4.51-1,.08-2,.86-2-.62-1.08-1.8,1.35-3.16-2.53-1.85.4,2.15-1.9.14-3,.84,2.2,2.93,6.43,7.4-1.36,2.4-.59.72,4.47,4.36,4.7,4.51-2.7,1.09-7.4-4.11-5.16.2.49,1.51,2.55,3.36,3.64,4.61-.31.71-4.87-2.18-4.9-2,6.08,4.27-2.85,4.55-.21,1.1-2.27.56-4.51,2.17-7.6,2-9.51,1.86-6-.21-.7-2.91-13.13,2.8,8.22-3.71,6.46-7-3.85,1.9-15.61,7.59-4,.33-6.58,2.39-7.52,1.87-2.22-2.12.16-2.17-6.71,1.6-7.76.81,2.44-1.42,7.22-3.89,9-5.9-.54.34-11.1,4.37-11.44,3.38.09-.11,9.78-3.57,9.36-4.4-.94.28-15.69,5.18-6.45.54-6.18.15-.26-2.18,1.42-3.66-3.79-.68,2.39-2.09,2.47-3.22-1.15-1.36-11.82,1.09-4.08-3.59-7.89.78-1.77-.35.65-2.39-8.74,1.31,2-1.73,2.46-3.39.06-.12-7.82,2.85-8.05,2,7.84-6.71-7.14-3.2,3.8-8.56-10.61,1.23,2-2.34.72-4.72,0-.17-6.42,2.51-6.64,1.71-2.58-2.34,5-3.56,3.55-6-6.26,2.4.38-2.53-4.81-2.8,7.4-9.5-6.16,3.12,2.23-6.81-1.9-1.67-.52-4-1.12-7.05-4.1,1.43-.57-1.81-.31-3.21,0-.41-1.94,1.68-2,1.09-.4-.59,2.34-4.27.58-3.25,0,1.32.09,1.51-1,.68,0,1.12,1.41,3.11-.7,1.35a19.52,19.52,0,0,0,1.09,4c-5.07-3.41,1.58,2.3.27,3.56-3.72-1.64-1.24.09-.73,1.63-4.13-1.26-2.15.82-1,2.64-1.36.75.23,1.72.44,2.58-5.57-2.33-2.33,2.22-.63,4-1.4.57-4.45-3.56-3,.14-7.31-5,1.2,2.94,1.89,3.66-10.51-7.15-4-.1-2.12,4.36,1.36,3.55-5.41-2.13-6.54-2.35-.4.49,3.09,4,3.07,4.37-9.35-1.93-1.6,1.31-.87,4.95-1.08.75-3.27-.09-4.39-.18.59,1.69,3.55,3.62,5.15,4.8,4.2,3.85-4-.35-4.8,0-.28,1.49,2.64,2.88,3.65,3.86-9.71-2.76-2.66.17.76,2.4-.37.93-9-3.53-8.83-3.51-.59.94,8.82,5.68,9.06,5.69-2.78.54-12.3-5.39-4.12.63-.27.68-5.93-2.64-5.94-2.38,2.87,3.65,10.41,4.68,5.83,7.75-10.15-2.75,1.38,1.91,2.68,4.11-6.88-1.31-5.85-.42-1.45,2.74-.37.93-10.19-3.9-10-3.87,4,4,5.48,2.4,4.73,7.21-1,.82-7.3-4.45-6.25-1.33-1.61,1,13.09,5.67,6.86,6.43-1.69-.53-3.36-1.12-3.38-1,5.83,4.16-6.27,2.19-1.15-.85-3.53,1.66-4.19,0-6.13-.57-.32,0-7.11,2-7.15,1.39,4.7-1.27,15.63-8.13,2.83-5,.44-1,5.22-2.06,1.18-2.52,0-.31,6.6-3.35,6.25-4-9.49,3.27-1.23-1.58.65-3.85-1.32-.66-8.17,2.81-10,2.4,0-.31,6.43-2.89,6.12-3.52-.27,0-15,5.11-8.71,1,1-1.17,1.67-1.36-.45-2,.14,0,10.17-4.05,9.65-5-1.77.21-5.26,1.37-7.22,1.13,3.15-1.92,9.89-5.63,0-3.19-15.28,1.45,11.8-6-1.16-3.89-6.61-.54,5.68-2.35.83-3.52-.09-.36-4.87,1-5,.38,8.3-3.82,4.93-2-1.54-1.81,1.51-.18,17.27-6.91,4.76-3.27,7.51-5-8.35,2.07-2.44-2.42-5.06-.93,2.93-2.8.43-4.38-5.94-.39,3.27-2,3-3.55-6.7,1.28,1.68-1.72-2.52-2.38-.38-1-1.31-.64-2.15-.94,3.27-4.39-1.42.27-3.36-.67.57-1.82,8.92-6.58,1.69-4,2.74-3.6.82-1-2.21-1.11,2.65-1.29,5.49-5.57,2-6.52.78-1.8.39-2-1.75-1.88.93-3.22,1.4-6.07.34-8.25.29-4.07-.76,2.14-.11,3.81.12,2.14-.14.89-1.22.2.21,2-.33,3.65.36,5.75.12,1.53.08,1.29-1.45.81.29,1.6,1.39,3.75.16,5-4.7-2.6-.63,1.89,0,3.47-8.7-3.72-.76,2.93,0,5.65-11.56-6.09-3.52,0-1.2,3.86-.28.61-4.15-2.13-4.24-1.82.12,1.76,4.33,4.63-.32,4.4,2.27,2.77-.64.92-2.58.91-.52,1.53-1.74.28-2.87.32,6.55,7.24-5.5.36,3.89,8-8.05-2.7-5.11-1.58-.78,1.85-5.35.16,3.34,2.51,3.44,3.27-.36.6-11-2.41-8.1-4.76-8,4,18.89,10.92,1.1,6.41,6.11,4.19-.15,2.92-3.79,1.11.66,1-.12,1.52-1.34.56-1.58-1.6-5.05,2.62-7.55,1.72,3.18-1.3,8.1-6.7,5.39-9.14-1.34,1.37-9.45,5.89-4,.19,3.7-5.56-4.9-1.62.4-7.33-7.76.76,0-5-.11-7.88-.45.69-4.42,3.52-4.92,2.57,2.73-2.45,5-4.49-1.18-4.4,3-3.88,8.3-5.76-1.42-2.73,6-4.34-.8-1.69,2.9-6.76-5.92,1.19,3.93-4.43-3.52-2.23,2.73-1.71,1.48-6.57.83-2.24a71,71,0,0,1-1.1-11.11c-.5,4.06.86,9.07-1.17,10.47,2.65,6.68-5,.83-.08,6.68,4.48,5.48-5.37.56-3.73,4.26,15.66,13-11.76-1.07,4.56,8.69-13.06-5.19-6.75,9.86-.33,12.59-.47,1.42-9.38-1.91-9.65-2.7-.33,1.17,6.34,5.42,6.73,5.38-.55,1.21-8.46-2.86-7.87-3.11-1,1.15,5.9,5.44,8.25,6.36-11.75-2.67-8.28,1.32-1.13,6.17-8.91,0,0,1.93,1.79,3.51-.81,1.68-10.6-2.82-12.44-4.76,8.17,7.93,17.15,16.8-2.86,7.44-.68,3.39,6.54,9.44,10.21,10.64,9,6.43-9.36,1.67-10.36-1,3.11,5.43,1.74,10.15,13.17,12.85-5.76,3.38-16.58-4.24-18.81-7.2-1.69,6.39,33.16,22.11,5.39,11.05-1.56-2.08-4-3.45-4.09-4.64-3.89-2.46-4.13-2.72-1.67,1.14-4.14,2.77-8.75,5.27-1.57-1.29-6.87,2.2.12-1.66.34-3.56-5.38,2.07-2-.06-.93-2.43-.31-.11-7.48,3.72-4.46,1.11,2.66-2.24,9.16-7.29,1-3.22-2.55-1.1,1.15-2.63,1.2-4-.09-.56-3.36,1.57-3.57.78,3.89-4.06,6.66-9.14-2.13-6.51,5.23-3.61-.76-6.37,3.26-10.32-8.57,3.37.21-4.61-2.58-6.45-1,.31-3.67,4.12-3.37.59.61-2,4.48-6-.74-2.65,3.91-4.2,0-6.55-1.47-10.3-1.42-5.34-1.86-8.86-3.48-17.35.76,5.51,0,9.69,0,1.56-1.55,5.09,1,13.59-3.58,15.81,0,1.63,4.7,8.22-1.25,3.72-1.48,2.29,4.43,5.55-.7,5.15-2.69,2.72,5.55,6.79-1.71,5.08,1.62,2.34.29,3.38-1.64,5.12,9.93,9.21-1.21-.31.86,8.29,4.37,3.92.39,4.75-3.84,4.2-1-.22-8.54,3.62-4-.2,7.16-5.24-2.32.14-4.71-.49.12-.11,8.86-4,8.38-4.77,0-.14-7.6,3.34-7.9,2.55,9.12-5.18,5.39-2.59-1.7-1.61.11-.12,8.65-3.71,8.19-4.53,0-.13-7.51,3.15-7.79,2.35,1.87-1.26,1.1-1.75.58-3.3.13-.14,7.63-3.94,7.15-4.73,0-.26-5.11,2.62-5.37,2,0-.33,4.75-3,4.43-3.58-1,.92-14.26,5.75-8,.59,2.46-1.49,2.57-3.56,4.87-5.32,1.13-2.08-2.81-1.94-3.13-3.8-1.12-.17-4.53,1.36-4.69-.51,1.8-1.67,7.86-5,.32-2.69-1.66-1.73,3.3-3-1.44-2.64-.55-2.48,2.92-3.86,3.6-6.89-.69-1.18-2.37.49-3.31.2a6.73,6.73,0,0,0,0-5.62c.42-1.19.93-2.42-1-2.54.2-1.45,1.12-2.72-1.24-2.21.23-.76,2.53-2.62,1.14-3.26.35.65-.92.35-1.19.3-1.47-1.47.46,2.15-.12,2.87.54,1.74,1,2.14-1.14.92-.69,1.86,1.31,4.23,1.69,6.14-6.45-4.05-1.93-.28-2.27,2.78-3.68-1.38-1,.3-.71,1.74-.21.54-2.41-1.63-2.51-1.26.12,1.27,3.14,3.41,2.55,4.73.13,2.61-3.74-.2-4.78-.81-.54.64,4.54,5,4.69,5.25-8.7-4.6-2.65.6-.58,3-4.15-1.25-5.51-3.39-2.15.94-.26.55-3.41-1.79-3.51-1.43-.8,2.38,8,4.62,1.52,4.31.29,1,.09,1.25-1,1.74,9.44,5.21-3.1.5-4.7-.58-.13,1.26,4.77,3.33.1,2.44.93,1.52,4.66,3.5,5.52,4.93-.28.8-6.86-2.52-6.8-2.37-.44.78,6.55,4.27,6.68,4.44-9.93-2.32-1.06,1.91,1.41,3.55-5-.15-4.95-2.31-9.53-1,1-1.24,2.3-2.8,3.26-3.88,0-.5-3.64,2.51-3.92,1.69-3.27-1.87,5.51-5.31-2.37-3.25,3.38-2.3,3-5,3.9-7.85-11.42,4,.57-1.78-4.5-4.08-2.06-1.34,1.88-3.36,1.73-4.9-8.61,3.38.15-4.14-2.57-6.45-8.68,6.69,3.29-7.33-4.11-2.06,3.41-3.73.56-8.23-2.65-10.67,1.47-4.75-.41-5.89-1.49-11.13,0,.43.08.83.1,1.09-.32-.76-1.36-12.12-.65-3.63.14,1.63.19,5.6-.23,1.63.22-12.08-1.18,8.9-1.47,11.93-4-.89-1.1,2.68-.56,4.28.46,3.39-6.21-3.31-1.12,4.84-4.74,0-2.66,3.65-.71,5.65-3.41.31-4-1.08-2.17,2.05-4.34,1.57-1.78,4.75,1.7,6.62-11.16-.29,5.08,10-5.68,8.3-3.75.34-2.47,8.91-11,7.65-2.67-2.61,8.55-10.29,9.35-19-.94,4.39-4.2,8.43-9.1,11.69a19.82,19.82,0,0,0,6.27-8.27,20.09,20.09,0,0,1-9.23,8.23c7.2-4.83,11.13-11.17,10.67-17.88.28,6.83-5,13.05-13.36,17.28,3.53-3.34,13.48-10.95,12.27-18-.42,7.68-13,15.27-23.09,14.28,10.05-3.34,17.28-9.6,18.25-16.73-12.45,14-8.13,9-3.76.62l-.07.09a15.56,15.56,0,0,0,.77-1.72c-2.94,5.86-10.67,9.62-19.44,11.47,9.17-2.74,17-7.87,19.49-14.22-2.49,4.54-8,8.24-15,10.33,7.26-3,12.49-7.79,14.32-13.22a14.93,14.93,0,0,1-3.41,4.8c1.42-2.31,2.42-5,1.67-7.52-1.48,6.44-9.37,10.92-18.61,11.44,8.37-3.49,17.14-9.22,17-16.44-1.52,4.25-5.8,7.76-11.41,10,3.91-1.85,5.5-4.94,8-7.62-13.26,9.63-14.38,5.42-3.61-.93-16.44,7.1,3-2.53,2.18-12.57-1,4.59-5.5,8.22-11.4,10a19.52,19.52,0,0,0,8.82-9.92c-10.75,9.43-12.74,7.62-6.16,1.29-2.34,1.26-1.08-2.3,2.14-6.56-4.31,5.3-6.1,4.15-3.08.52-4.67,4.53-4.92-19-4.92-7-2.74-10-.19,1.4-.3,6-2.82-24.69-.35,15.1-3.66-14.31a62.27,62.27,0,0,1,0,12.73A73.73,73.73,0,0,0,804.3,91c0,1.06,0,2.13-.08,3.21-.05-2.27-.17-4.51-.37-6.74.11,2.05.08,4.13,0,6.21,0-2.18,0-4.36-.11-6.51a51.51,51.51,0,0,1-.6,9.73c0-2.87.18-5.77,0-8.65.06.8.13,1.61.2,2.42,0-3.19-.44-6.43-.69-9.6.28,4.69-.47,2.31-.32-.32,0,.19-.06.37-.09.56-.27-2.94-1.05-5.82-1-8.85a62.79,62.79,0,0,1-.41,8.87,36.94,36.94,0,0,1,.07-6.31c-1,7.43.62,14.76,1.65,22.06-.13-.27-.27-.53-.39-.8,0,.42,0,.84,0,1.27a30.12,30.12,0,0,1-1.18-8.07,49,49,0,0,0,.79,11.65c-1.55-4.32-1.43-8.94-1.09-13.32-.38,2.37-.52,4.79-.74,7.19,0-.21-.09-.41-.13-.62.17,1.21-.14,2.42,0,3.64a42.35,42.35,0,0,1-.95-5.79c-.12.47-.53.9-.5,1.38l0-.22c-1.35,3,.27,6.51.59,9.66-.92-3.56-2.26-12.17-1.9-3.84-.23-.59-.44-1.18-.63-1.78,2,6.74-.65,6.42-.06-.1-2.55,2.41,4.92,14.32-4.28,2.59,2.21,5,5.37,8.46-2.14,4.86,8,7.35-1,3.54-3.56-1.73-2,5.59,14.7,16.79,4.27,12.63C795,118,788,122.55,781.72,113c.67,4.22-.73,6,6.43,11a21.13,21.13,0,0,1-8.86-7.3c1.67,3,2.3,6.24,4.51,9-10.74-8.53-4.57.78,1.34,4.9a18.89,18.89,0,0,1-3.74-1.85l.32.4a21.66,21.66,0,0,1-2.93-2c4.83,6,13.68,10.66,23.62,11.86a40.54,40.54,0,0,1-15-2.61l.43.28a26.93,26.93,0,0,1-10.92-6.59,25.73,25.73,0,0,0,7,6.84c-4-1.74-7.78-3.88-8.62-7.21a13.49,13.49,0,0,0,.7,2.12,16.25,16.25,0,0,1-2.48-3,36.17,36.17,0,0,0,9.63,11.59c-2.55-.28-3,0-6.18-3.34,3.24,4.38.76,2.72-2.72.15,3.55,4.31,9.6,7.58,15.74,10.16-9.61-2.15-17.32-6.92-20.25-13.09,3.59,8.82,12.35,16.28,25.31,18.89-11.89-1.66-21.43-7.25-24.09-14.56a18.59,18.59,0,0,0,6.58,9.23c-21.06-15.64-3.42,5.32,15.88,9.11A46.54,46.54,0,0,1,780,153.42l.51.32c-5.5-2.39-11-5.26-12.43-9.72a17,17,0,0,0,.58,1.93c-1-1.22-2.23-2.45-2.53-3.85,0,.14,0,.28,0,.41a14.41,14.41,0,0,1-1.8-5.32c-2.33,5.64,12.06,23.12,1.22,13.09.16.86,1.33,2.41-.33.87,1.16,4.38-1.67-4.06-4-3.19-.56.54,2.14,3.25,3.59,4.69a5.77,5.77,0,0,1-5.37-4.15,15,15,0,0,0,1.1,3l0-.15c.28.57,1.43,1.78,1.54,2.13-.26.44-.69-.4-1-1.14,1.22,3-3.21,2.6-4.42.42-.46,1.58-3.21,3.24-3.38,1.57a1.84,1.84,0,0,1-.42.52c0,.25.09.51-.31.6.07-.17.13-.33.19-.49-2.22,1.9-9.73,4.71-6,.72.15-.19-7.38,2.82-7.64,2,10.56-3.94,32.61-19.45,9.85-6.78,2.1-3.69,13-9.68,3.4-6.62-1.6,1.32-5.82,2.21-11.13,4.22,3.58-2.66,15.94-10.62,14.6-11.52.22,0-11.76,7.93-12.61,6.43.73-1.15,9.27-7.77,4.21-5.62-.61-2-9.25,3.73-12.13,2.95,2.56-3.23,9.52-5.3,8.7-9.21-3.59,1.95,4-7.51,1.89-9.46-4.66,7-4,4-5.16-1.93,3.89-5.09-2.15.69-5.86.1,7.93-3.53,8-12.32.29-6.21,4.83-8.52-3-4.6,1.54-10.06-7.76.75,0-5-.11-7.89-10,7,3.57-2.89-6.1-1.82,3-3.89,8.31-5.77-1.42-2.74,6-4.34-.8-1.69,2.9-6.76-5.92,1.19,3.93-4.43-3.52-2.23,2.74-1.71,1.47-6.57.83-2.24a72,72,0,0,1-1.1-11.11c-.5,4.06.86,9.07-1.17,10.47,2.65,6.68-5,.83-.08,6.68,4.48,5.48-5.37.56-3.73,4.26,15.66,13-11.76-1.07,4.57,8.69-13.07-5.19-6.75,9.86-.34,12.59-1.45,1.3-9.82-2.14-9.62-2.8-.79,1,6.3,5.53,6.71,5.48-.55,1.21-8.47-2.86-7.88-3.11-1,1.17,6.16,5.6,8.39,6.42-9.75-1.77-10-1.6-3.4,4.86-5,.45-1.89,1.92-.43,4.31-3.15-1.14-7-3.16-8.09-4.31,1,4.09,8.7,8.11,11.83,9.67-3.06,0-12-3.72-13.43-4.67,3.82,3.73,13.31,10.55-1.26,2.44,2.45,4.33-2.94,4.71-1.87,1.95-7.66-2.23,1.07-1.54,2.43-4.18,2.47-3.32-5.26,1.18-6.39,0,5.28-2.14,2.15-3.56,5.39-6.07-.93-.33-6.32,2.67-4-.33-2.24-.37-.79-.92-.37-2-.1-.45,2-1.73,1.77-2.22,0-.3-4.87,2.2-5.06,1.52,0-.33,4.65-2.72,4.37-3.34,0-.31-4.58,2-4.75,1.36-.62-1.66,10.3-7.74,1.8-5.12,1-2.14.67-3.49-1.06-4.81,5-6.36-3-1.58-.69-4.9.19-.92,3.58-3.46.29-2.37.58-2-.1-.86-1.54-.92.65-1.38,1-3.6-.67-4.31-.12,1.69.87,4.89-1.1,4.89-.17,1.43,4,4.81,1.15,4.91-4.73,1.3,2,8.67-4.43,4,.8,3,6.14,7.62-.5,3.35-3.22.26,4.1,4.87,3.4,6.23-4.78-1.7-3.65-1.61-1.34,1.44-9.71-6.56-3.36,0-.22,3.26.49,3.45-6.16-3.18-6.46-3.07-3.14.36,5.07,6.44,5.15,6.83-.41.69-5.86-3.77-5.83-3.59-.36,1.47,8.85,6.32,1.48,3.88-3.59,1.24,4,3.45,2.73,5.36-.28.83-7.33-2.53-7.25-2.4,8.43,5.74,8,5.61-1.42,1.28-.43.73,6,4.31,6.11,4.54-7.8-2.51-7-2.59-2,2.4-.22.63-4.78-2-4.84-1.63-.67-.18,2.6,2.35,3.19,2.71-3.81.1-10.1,2.91-14.46,2.68,5.71-2.47,8.06-4.16-.71-3,3.12-1.35,10.8-4.82,1.87-3.56,1.92-1.83,8.08-4.46,1.05-3.46,3.67-2.19,5.33-4-.93-2.9-.66-1.55,7.08-4.06,7.46-5.53-.34,0-14,5.94-7.17,1.19-.12-.46-2.29.18-2.41-.34-8.92.09,8.1-3.19,7.39-5.17.1,0-9.3,3.49-9.59,2.55-.68-1.61,4.95-2.58,5.53-3.79,0-.23-7.18,1.76-7.34,1,1.39-.14,15.49-5.73,6.63-5-1.47-1.4,1.9-2.5,1.49-4.07-10.21,2.92-7.79,2.34-1-1.69-3-.47-9.23,1.81-3.7-1.59-10.88,1.23.8-.94,2.24-3.19-4.14.92-1.77-.59-4.77-1.28-.59-1.86-4.39.67-2.33-2.08,10.48-7.5-6.39,2.56,1.64-7.55-2.27.08-1.84.12-1.2-1.49-4.44,0,.67-2.78,1-4.2-3.95,1.55-3.27,1.53-1.28-1.23-.2-.44-3.1,1.6-2.44.14-4.43-2.12-.05,2.57-3.32,1.14-.39,1.12,3.94,3.74,2,4.52-3.72-.35-1.17,2.45-.75,4.06-1.22.77-4.92-5.08-3.91-1.07-.46,2.27.79,4.66.83,7-.39.61-4.28-3.37-4.3-3.13.23,3.69,6.93,8.74-.85,3.73-2.07,2.18,3.65,3.69,3.56,5.68,3.47,3.84-5.11-.82-5.63-.76,3,3.22,4.39,3.84-1.24,1.44.51,2,10.74,6.2,1.48,3.4.26,2.82,1.27,3-2.64,1.72.07,1.55.09,2.49-2.15,1.89-.29,3.06,13.19,9.71.57,5.2,7.92,7.63,9.84,9.95-4,4.1,2.09,2.41,8,6,8.71,8.2-.41.93-9.46-4-9.87-4.29,1,1.73,5.57,4.53,6.35,6.16-2.63.22-10.81-6.42-4.41-.09-.22.55-3.82-2-3.94-1.66,6.18,2.89-13.08,10.32-14.17,9.29,0-.32,6.66-2.58,6.37-3.2-.11-.32-5.84,1.65-6,1,1.65-1.5,11.92-6.23,13.31-9-1.35,1.36-13.22,7.26-14.25,6.16,1.22.09,18.81-9.12,11.08-7.23-.74-.24-6.57,4.09-5.67,1.1-.09-.3-6.07,1.73-6.27,1.08,1.26-2.49,12.4-5.83,2-3.69.21,0,9.55-5,8.9-5.93.51.52-12.78,6.41-13.37,5,1.81-1.79,8.48-3.38,8.37-6.08.07,0-8.94,3-9.21,2.12.83-1.42,9.67-4.3,10.49-6.31-8.33,3.5-3.15-.18-.82-2.86-1.12,1.07-17.21,6.18-5.89.91-.07-.33-5.12.94-5.23.29,6.92-2.45,14.37-5.48.71-3.18,10.11-4.82,8.81-3.37-1.18-1.85.21.07,9.11-3.3,8.53-4.29-9.84.66-10.08.27-2.23-4.19-2.66.4-3.51-.47-1.94-2.21-8.88-1.59-1.22-2.36-2.08-5.78,0-.23-4.68,2-4.86,1.26,1.8-1.73,4.18-2.06-.29-2,.16-.17,5.2-2.9,4.77-3.63-6.11,2.45-1.12.21-1.4-2.28-.26-2-2.49-2.31-2.52-.09,2.76,3.44-1.53.48-2.68.16,3,4.15-3.25-.34-.44,4.37-3-.68-.61.77-.56,1.89-3.81-.95.93,2.88,1.23,4.17,1.47,4.59-1.49,2.81-5.23.77,1.2,4.73,10.1,7.15-2.74,5.78,2,2.42,3.7,3.1-1.07,1.57-.8,2.17,14.31,5,4.76,4.6,7.48,3.82-1.81.88-3.56.7,7.77,4,4.38,4.59-2.44,2,9.09,6.17.85,2.28-3,.11-.83,1.2,9.91,6.25,10.3,6-.37,1.09-10-3-9.77-3.17-6.7-1.37,9.17,6,1.57,5.55-.42,2.63,6.51,4,7.93,5.89-1.79,1.52-15.29-5.89-6.73.15-.38.83-7.74-3.72-7.62-3.63-.63,1.37,8.87,5.35,5.41,5.9-12-4.08,5.82,4.47,6.95,4.48-.36,1-10.38-3-11.43-3.68,2.86,2.75,11.89,10.16,1.17,6.33,13.78,6.89,11,5.14-1.55,1.56-.48-.58-5.22,3.47-6.9,3.87-.4-.34,7.92-6.39,7.3-7-3,2.11-9.63,6.22-13.76,7.11,8.84-5.91-1.94-.82-6.58-1.5,1.67-.18,18.59-10.16,17.45-11.5.48.39-15.06,9.95-15.84,8.7.28.14,14.18-8,13.39-9,.21.09-12.09,7.47-12.65,6.51-.22-1.44,11.43-7.42,11.75-9.35-.63.62-14.53,9.49-16,6.72.07-.12,11-5.39,10.54-6.17,10.63-9.86-6.58,4-13.6.83,2.35-1.37,15.69-8,3.15-4.26-.13-.4,4.46-2.48,4.22-3-2,.48-16.05,5.66-5.5.28-10.6,1.71,9.08-4.58,8.17-6.31-6,2.41-9.12,4.18-2.16-.9-8.22,2.64,1.14-1.81,1.59-3.28-.1-.3-5.62,2.85-5.88,2.26-1.56-1.28,5.24-4.15,5.37-5.33-3.16,1.22-11.3,5.75-3.6,0,8.65-7.27-9.11,4.09-10.84,2.2.16,0,11.76-4.85,11.21-5.77-.28-2-5.39,1.65-6.47,1.08-.06-.35,5.51-3.12,5.23-3.69-8.23,1.3-8.2.57-2.12-3.22,0-.24-7.13,2.76-7.37,2.07,1.17-1.47.08-2.61,2.16-3.9-7.44.2,4.9-4.32,5.23-6,.06-.11-8.34,3.8-8.66,3,4.65-2.94,11.88-5.31-.25-2,1.72-1.23,5-3.14,6.06-4.8-1.12-.21-3.26,1.3-3-.64-2.13.37-10.85,1.9-6-1-2.59-3,4.75-3.27,5.63-6.38,0-.27-6,2-6.2,1.34,5.28-2.68,3.76-2.83-1.71-2.7,12.91-7.07-.06-1.82,3.64-5.29-6.09,1.33-4.47-1.15-1.63-3.62-5.86-1.82.53-1.46,1.69-4.67-.87-.86-3.17.72-4.19.46,0-.39,3.34-2.59,3.07-3.14-2.42.53-2.54.91-1.52-1.17-6.33-1-4-.5-1.3-3.66-3.66.38,0-1,0-2.3-4.12,1-.28-.7-.28-2.09-4.5,1.8-1.08-1.12-.68-2.87-2.22.46-1.49.29-1.07-1.28-5,.65,2.1-3.4-.49-5.12-2.12.25.32-1.36,0-2.32-1.16.09-.6-.13-.66-1.15-2-4-.32,1.15-.08,1.8-1.6.14-1.45,1.31-1.19,2.89a2.41,2.41,0,0,0-.88,2.52c-1.27-.26-.92,0-1.08,1.05-1.32,2.19.2,4.75.78,7-3.24-1.13-1.07.26-.84,1.64-4.51-2-.82,3.51-.69,5.28-7.3-4.66-1.63.56-1.2,3.79-.36.63-4.43-3.28-4.44-3-.12,1.86,2.92,5,4.3,6.4-1.6.37-4.2-1.54-5.33-2.2-.44,1.13,6.32,5.86.94,3.59.35,1.34,4.75,2.84,2.57,4.28,1.6,4.6-10.29-5.06-7.07-.22-.25.56,3.19,2.61,3.14,3-5.39-1.49-3.51-1.64-2.43,2.06-1.87.3-4.93-3.53-2.87.39-.26,2-2.79.11-.85,2.9.37,1.54,6.06,4.1.08,2.4-.39.73,6.64,4.16,6.72,4.39-.19.67-5.8-1.85-5.84-1.55-.3.67,6,3.44,6.07,3.74-10.08-2.64-6.94-1.93-.86,1.85-4,.83-14.32-6.22-9.88.5,11.44,9.4-5.48-.23,4.78,8.32-1,2.19-6.93-2.49-8-2.52.31,1.79,3.55,4.06,4.91,5.43-2.23,2.42-6-1.27-8-2-.46.72,7,5.8,7.15,6,16.49,8.91-6-.68-7.63-2.76,2.3,3.53,6.92,7.27,11.16,9.67-3.2-.25-9.31-3.15-11.81-4.21,9.66,7.05,19.46,12.22-.62,1.55a.78.78,0,0,1-.55-.14c1.38,3.89-13.59,14.59-9.87,10.07,2.3-1.36,3.81-2.58,3.35-3.16.1.09-.54.54-1.55,1.15-1-2,2.87-5,5.78-10-3.32,4-15.08,11.64-16.56,9.57,14.46-6,13.05-11.13,13.93-16.12-1.12,2.12-11.57,8.88-6.49,1.34.1-.12-2.73,1-5,1.65,1.9-1.15,2.25-2-.29-.67,11-8.54,14.19-10.9.83-3.46,4.89-7.84,12.33-9.9-2.23-4,1.24-.66,7.81-5.62,7.77-6.87-.49,1.14-12,6.64-12.72,5.14,1.8,2,21.17-14.91,11-9,1.64-4.11-8.93,4.58-11,2.64.48-3,10.2-5.7,8.84-9.6-7,3.08,3.09-6.14,1.88-9.45-.09,1.25-5.88,7.39-6.8,6.19,4.13-4.83,3.89-11.28-4.22-8,3.18-1.29,8.11-6.69,5.4-9.13-1.35,1.36-9.45,5.88-4,.19,3.71-5.56-4.89-1.63.41-7.33-7.77.75,0-5-.12-7.89-10,7,3.57-2.88-6.1-1.82,3-3.88,8.31-5.76-1.42-2.74,6-4.33-.8-1.69,2.9-6.76-5.92,1.2,3.94-4.43-3.52-2.23,2.74-1.7,1.47-6.57.84-2.24a70.75,70.75,0,0,1-1.11-11.11c-.49,4.06.86,9.07-1.16,10.48,2.64,6.67-5,.82-.09,6.67,4.48,5.48-5.36.57-3.73,4.26C510,53,482.59,39,498.92,48.72c-13.07-5.19-6.75,9.87-.34,12.6-.47,1.41-9.37-1.91-9.65-2.7-.32,1.16,6.35,5.42,6.74,5.38-.55,1.21-8.47-2.86-7.88-3.12-1,1.16,5.9,5.44,8.25,6.36-11.75-2.67-8.28,1.33-1.13,6.17-8.7,0-.4,1.85,1.65,3.4-.25,2-10.62-2.79-12.29-4.64,7.07,7.57,19.24,17.08-2.87,7.44-.53,4.28,7.8,9.24,10.94,12.85-1.39,1.21-9.9-.86-11.08-3.18-.31.58,3.32,4.13,3.35,4.5-4.95,2.64,3.95,6.36,6.64,9.16-7.07.69-7.9-5.41-9.53-3.13-1.75-.81-.91-2.13-1.65-2.46-4,.7.13-3.45,1.46-5.12-1.17,1.61-5.72,2.24-3.24-.15-6.68,2.28.85-2.21.34-3.56-6.26,2.53-1.72-.08-.93-2.43-2.33.8-3.63,2.43-3.58.6,3-3,6.58-5.51.08-2.71-3.27-1.87,5.51-5.31-2.37-3.26,3.37-2.29,3-5,3.89-7.84-12.52,4.26,1.07-1.75-4.49-4.08-2.06-1.34,1.88-3.36,1.73-4.9-8.61,3.38.15-4.15-2.57-6.45-8.68,6.69,3.29-7.33-4.11-2.06,3.41-3.73.56-8.23-2.65-10.67,1.47-4.75-.41-5.89-1.49-11.14,0,.43.08.84.1,1.1-.32-.76-1.36-12.12-.65-3.63.14,1.63.19,5.6-.23,1.63.09-12-1,8.72-1.47,11.93-4-.89-1.1,2.67-.56,4.28.46,3.39-6.21-3.32-1.12,4.84-4.74,0-2.66,3.65-.72,5.65-3.4.31-4-1.09-2.16,2C451,63,453.56,66.18,457,68c-6.13,2.42-5.93-2.34-1.92,6.72,1.62,5.37-12.76-2.3-3.7,5.84-3.05,2.23,4.29,3.07-1.41,5.34,0,2.48,6.55,5,.19,4.64-2,4.59,4.74,6.78-5.29,2.9-.51,2.36,5,5.31,6.76,6.63C449.54,103.2,444,98.74,450,104c1.13,4.2-5.1,1.29-7.19.68,3.93,4.43,7.93,7.9-1.49,3.65,2.24,4.15-7.53,4.5-10.69,2.82.87-2.55,6.93-4.48,8.78-6.88,3.14-3.81-10.4,4-11.5,2.33,2.47-.45,20.25-8.92,5.67-3.77-.1-.38-4.66,1.06-4.81.47,6.88-3.31,10.57-3.59-.25-4.07,1.21-1,5.08-2.5,2.84-4,5.29-4.11-7.47,1.16,3.17-5.86-4.1.93-2.33.37-2.29-2-.77-.31-8,2.93-5.35-.12,1-2.38,4.39-4.07,5.31-6.47-.85.06-8.05,3.46-8,.86,2.62-1.58,7.29-5.71.62-3.77,1.16-1.31,8.1-5.19,1-2.7-4.87.15,3.44-3,2.9-4.31-1.42.55-4.62,2-6.39,1.47,2.34-2.68,8.31-6.22.26-3.29.22-1,5.53-3.1,1-2.64,1.49-2.43.28-1.05-1.84-1.25.41-1.92,6.48-6.94.33-5.4,1.18-1.17,2.17-4.65.42-4.54-.4-.54.55-2.52-.67-2.1-2.59.6,2.75,4-1.76,5-1.22,1.59,4.29,5.34-.7,2.88-3.85-1.35,2.16,3.65,2.19,4,1,3.14-2.83.83-4.12,0,1.38,2.29,6.14,6.34-.94,2.79-.18.44-.56,0-.75.45-.45.63,4.28,4.35,4.39,4.62-6.81-3-3.93-1.76-1.16,1.55-1.13,1.19-3.54-.88-4.53-1.16-.27.47,2,2.43,1.87,2.84-4.74-2.27-2.3-.92-1.07,1.54-8.25-6.29.06,3.7,1.78,5.5-2.74.25-6,.39-8.38-.68.83,1.81,6.27,4.46,0,2.34,1.33,2.15,8.3,5,.09,2.38,1.7,2.43,13.1,6,1,2.83,4.39,3.35,4.13,2.92-1.46,1.4,8.08,6.84,4.48,6.41-3.53,2.16.39,1.56,3.12,2.78-.75,1.75,1.18,2.58,12.55,8.22,2,4.81,8.87,5.89,1.35,2.34-3.09.22,9.66,7,6.66,5.47-1.78.93-.37,4.23,7.53,7.49,11.21,10-3.35,1.07-11.38-3.17-13.52-4.76-3.29,3.32,21.55,11.78,4.56,6.6-15.54-7.85,4.51,4.38,6.74,7-9.33-.85-10.72-2.32-2.06,2.53.54.64-15-4.44-11-6.48a4,4,0,0,1-1.74.61c-3.49,1.73-7.87,2.76-.88-.94-6.87,1.33.12-1,.34-2.16-6.26,1.54-1.72,0-.93-1.48-10.8,3.06-.19-.63.42-2.31,0-.3-3.64,1.53-3.92,1-3.27-1.13,5.51-3.22-2.37-2,5.51-3.51,4.52-5.23-2.13-4,6-2.82-1.48-3,3.25-6.26-8.61,2,.16-2.52-2.57-3.92-8.67,4.06,3.3-4.45-4.11-1.25,3.53-2.33.41-5-2.65-6.48-.22-.6,3-2.5-.16-1.91.66-.77-.86-5.21-1.22-4.18-.32-.46-1.36-7.36-.65-2.2.14,1,.19,3.39-.24,1-.26-5.77,0,0-.44,2.2-2.27.66-.09,3.6-1,5-4-.54-1.1,1.62-.56,2.59.46,2.06-6.21-2-1.12,2.94-4.74,0-2.67,2.22-.72,3.43-4-.08-6.63,3.79-.46,5.26-6.13,1.47-5.93-1.42-1.92,4.08,1.62,3.26-12.76-1.4-3.7,3.54-3.05,1.36,4.28,1.87-1.41,3.24,0,1.35,5.25,2.73,1.72,2.83-6.3.17,4.91,5.2-6.82,1.75-1.38,1.74,8.87,3.61,5.63,4.59-8.14-.82,5.13,3.65-4.08,2.91,4.16-2.6-2.19.47-2.6-1.49-.1-.47,1.82-1.25,1.64-1.75-3.49-.28,0-1.18.31-2.37-.08-.35-3.95,1.17-4.1.54.2-1.68,4.44-2.78,3.35-4.63.08,0-6.76,2-6.92,1.11,2.63-1.73,10.13-8.37,1.89-5.25.24-2,2.35-3.16-1.46-2.5,6.13-5.54,1.32-1.31.8-3.65,0-.42,1.82-2.08,1.58-2.59-.31-.29-3.33,2.48-2.3.34-.85,1.1-1.75-.45-2.52-.43-1.38.57-.13,2.68-1,4-.18.47.86,1.42.75,1.88-1.07.45-2.53-2.87-3.2-.91.91,1.7.74,3.38.92,5,2,3,1.17,2.2-1.79.83,2.86,2.84,2.14,5-.67,1.07-4.46,1.71-1.43,2.32-1.94,4.74,2.85-1.75,8.65,6.86,2,3.81,1.76-7-13.24,16.51-3.2-1.66l-.07.09c0-.07.06-.15.1-.23,0-.23.11-.43.17-.62-3.08,5.1-9.92,8.5-17.76,10.34,8.58-3,15.87-7.81,18.3-14-2.52,4.7-8.53,8.39-15,10.34,7.25-3,12.49-7.79,14.32-13.22a15,15,0,0,1-3.42,4.79c1.42-2.31,2.43-5,1.67-7.52-1.48,6.45-9.37,10.93-18.61,11.45,8.37-3.49,17.14-9.22,17-16.44-1.52,4.25-5.81,7.76-11.42,10,3.92-1.85,5.5-4.93,8-7.61-8.81,7.55-17.17,7.41-3.61-.94-16.44,7.11,3-2.52,2.17-12.57-1,4.59-5.49,8.22-11.4,10a19.52,19.52,0,0,0,8.82-9.92c-10.74,9.42-12.74,7.62-6.15,1.29-2.34,1.25-1.09-2.3,2.13-6.56-4.31,5.3-6.09,4.14-3.07.51-4.68,4.54-4.93-19-4.93-7-2.74-10-.19,1.4-.3,6-2.82-24.69-.35,15.09-3.65-14.31a63.73,63.73,0,0,1,0,12.73,73.89,73.89,0,0,0,.13-8.54c0,1.07,0,2.14-.08,3.22q-.06-3.4-.37-6.74a61.27,61.27,0,0,1,0,6.21c0-2.18,0-4.36-.11-6.51a52.34,52.34,0,0,1-.59,9.73c0-2.87.17-5.77,0-8.66.05.81.12,1.62.2,2.43,0-3.19-.44-6.43-.69-9.6.27,4.68-.47,2.31-.32-.32,0,.18-.07.37-.09.56-.27-3-1.06-5.83-1-8.85a64.09,64.09,0,0,1-.4,8.86,35.83,35.83,0,0,1,.06-6.3c-1,7.43.62,14.75,1.65,22.06-.12-.27-.27-.53-.39-.8,0,.42,0,.84,0,1.27a30.11,30.11,0,0,1-1.17-8.07A47.91,47.91,0,0,0,315,88.46c-1.56-4.31-1.44-8.93-1.1-13.31-.38,2.37-.52,4.79-.74,7.19,0-.21-.09-.42-.13-.62.17,1.21-.14,2.42,0,3.63a43.55,43.55,0,0,1-1-5.78c-.12.47-.53.9-.5,1.37l0-.21c-1.34,3,.28,6.51.59,9.66-.91-3.56-2.25-12.17-1.9-3.84-.23-.59-.44-1.19-.62-1.79,2,6.75-.65,6.42-.06-.09C307,87.08,314.5,99,305.29,87.26c2.21,5,5.38,8.46-2.14,4.86,8,7.35-1,3.54-3.55-1.73-2,5.59,14.69,16.78,4.27,12.62,4.39,2.33-2.58,6.86-8.88-2.66.66,4.22-.74,6,6.42,11a21,21,0,0,1-8.85-7.3c1.66,3,2.3,6.24,4.51,9-10.75-8.53-4.58.78,1.34,4.9a18.47,18.47,0,0,1-3.75-1.86c.1.14.22.27.32.41a21.54,21.54,0,0,1-2.92-2c4.34,5.45,12,9.72,20.7,11.39-2.33,0-9.8-2.55-5.65-.3a30.93,30.93,0,0,1-6.46-1.84l.43.27a26.7,26.7,0,0,1-10.91-6.58,25.59,25.59,0,0,0,7,6.84c-4-1.74-7.78-3.89-8.63-7.22a14.74,14.74,0,0,0,.7,2.13c-1.2-1.08-1.61-2.16-2.48-3-5.09,4.46-5,2.14-.24-1.14-4.8,1.73-7.05,3-2.05-1-.75-.3-9.31,4.4-5.78.54,2-1.93,7.53-3.88.13-2.26-3.84-.72,5.57-3.72,5.14-5.06-1.3-.16-4.56,2.5-3.07-.42-.09-.33-5.29,1.87-5.49,1.23,6.62-3.09,4.76-5.37-2.26-2.95.82-1,4.12-2.65,3.4-4.14-2.17.24-6.55,3-2.8-.69-2.34-1.06,3.79-3.56,3.55-4.8-1.32-1.66-4.64.74-6.49.57,4.24-3.75-.76-2.83,3-6.43-.9-.47-3,.48-4,.23.37-1.06,2-1.67-.08-2.15,3.76-2.38.41-4.87-.26-1.42-.58.39-1.21,0-.54-.51-.95-.86-3.38-.31-4.5-.72,1.73-2.07.07-3.45,3.2-5.16.6,1.81,3.57-1.83.12-1.18-2.66,1.66-1.51-1.85-.51-3.12-2.29,0-.45-.64-.21-1.84-.37-.85-.33.2-.21.34-.37.15-.74-.59-1.46,0-.52.77,2.19,4.3-.51,2.28-3,1.88.12,4.39-.23,6.76-.28.55-2.4-2.42-2.48-2-.79.86,4.09,5.12.45,3.71-4.6-4.57-1.12.23-.5,2.19-.37.56-2.81-3.19-2.88-2.87.57,1.23,3,8.37,0,5.19,2.24,2.92,0,1.45-2.26.83-.32.57,2.95,2.61,2.89,3-1.19.46-3.29-.32-4.4-.45,2,2.12,1.63,4.26,4.21,6-6-1.78-6-1.76-2.42,2.33s-3.13-.37-4.12-.14c2.1,2.58,5.51,3.74-1.11,4.08-.25.52,2.62,2.26,2.51,2.7-.73,2.29-4.71-1.59-3,1.77-8.81-4.54-.1,1.53,1.3,3.09-.28.64-5.07-2.55-5.15-2.24-.47.71,6.36,4.89,6.43,5.12-2.47.1-8.46-3.45-5.49.51-.67,1.29-1.92.2-2.95.3.19,1.41,6.54,4.3,5.53,5.78-.26.63-5.51-2.45-5.6-2.13-.33.6,4.94,3.7,4.89,4.07-1.62,0-5.3-2-6.76-1.77-.51,1.2,8.45,4.89,3.64,4.76,1.4,2.17,7.22,2.66,2.58,4.66-1.21.62-7.56-4-8.16-2.25-4.65-2-2.43-1.05-2.25,2-3.84,1.21,7.85,3.23,8.36,3.74.41.66-4.45-.25-3.7.08,1.81,1.55.81,5,1.42,6.83,1.75.11-3.38,2.49,4.57,6.74-4.26,1.45-4.55.09-3.16,3.59,1.25,2.21-6.38-.85-8.08-2.13,1.49-2.35,3.82-5.6,3.2-7.29-.09,1.25-5.87,7.39-6.8,6.19,3.61-2.68,4.23-12.28-2.63-8.06-2.1-.34,6.89-6,5.12-7.14-1.72.15-1-1-1.31-2-1.51,1.32-7.77,5-4.78,1.64,4.22-4.26-2.9-5.44,1.22-8.78-7.76.75,0-5-.11-7.89-10,7,3.57-2.88-6.1-1.82,3-3.88,8.3-5.76-1.42-2.74,6-4.33-.8-1.69,2.9-6.76-5.92,1.2,3.93-4.42-3.52-2.23,2.73-1.7,1.47-6.57.83-2.24A70.75,70.75,0,0,1,224.42,90c-.49,4.06.87,9.06-1.16,10.47,2.65,6.68-5,.82-.08,6.67,4.48,5.48-5.37.57-3.74,4.27,15.67,13-11.75-1.07,4.57,8.68-13.06-5.19-6.75,9.87-.33,12.6-.47,1.41-9.38-1.91-9.65-2.7-.33,1.16,6.34,5.42,6.73,5.38-.55,1.21-8.46-2.86-7.87-3.12-1.14,1.46,7.34,6,8.79,6.7-1.32.55-8.55-2.13-8.18-2.28-.47,3.18,3.07,6.47,6.5,8.11-5.86,0-4,.86-1.54,1.87,9.59,5.05-12.69-.86-6.79-4.92-8.61,3.39.15-4.14-2.57-6.45-8.68,6.69,3.29-7.33-4.11-2.06,3.41-3.72.57-8.22-2.65-10.67,1.47-4.75-.41-5.88-1.49-11.13,0,.43.08.84.1,1.09-.32-.75-1.36-12.11-.64-3.62.13,1.63.18,5.59-.24,1.62-.27-9.51,0,0-.45,3.62-2.27,1.08-.09,5.93-1,8.32-4-.9-1.1,2.67-.55,4.27.45,3.39-6.22-3.31-1.13,4.84-4.74,0-2.66,3.66-.71,5.65-4.47-.47-6.09,6.29-.47,8.67-6.12,2.42-5.93-2.34-1.91,6.71,1.62,5.37-12.77-2.29-3.71,5.85-2,3.21,2.93,3.43-1.41,5.34,4.33,5.94,1.81,4.48-2.72,2.36.54,1.69,2.87,3.42,2.68,5.27-1.63,1.83-6.89-1.43-4.42,1.8-1.73-.89-2.42-1.26-1.25.1-14.44,3-3.66.52,1-2.48-13.59,3.8-7.45-.21-1.71-4.68-16.16,3.41.06-.44,2.4-3.54-5.71,1.88-9.69,3.71-1.92-1.11-10.28,2.64-1.09-.26.68-2.66-2.33.88-7.49,2.2-10.23,1.49.25.16,10.41-3.53,9.75-4.61.27.26-10.2,3.87-10.52,2.65,1.47.22,17.87-7.15,5.53-3.37-.07-.4,3.15-2,2.9-2.51-1.38-.39-6.24,1.26-7.94.67,3-.94,2.87-2.52,4.13-4.25,4.06-4-2.54.31-4-.94.48-1.17,4.81-3.22,1.36-3.33.27-2-2.27-.19-3.34-.78,1.32-.95,6.34-3.51,3.62-5,1.12-3.48-3.72-.39-1.34-3.55-6.58,1.38,2.43-3.43-1.52-3.14-4.89-3.75-1.51,0-.4,1.66-3.39-1-1.39,1.57-.62,2.87,1.78,3.32-3.78-1.32-1.36,2.44-.6,1.55-2-.09-2.89-.15-1.74,2,2.19,4.77,3.69,6.14-.35.76-5.3-2.77-5.23-2.6-.39,1.75,1.73,6.11-2,4.88-5.5.52,5.57,4.38,5.92,4.56-1.27.92-4.18.5-5.67.48,3.47,3.69-2,.27-3.31.34-4.54.55,7.43,5.35,7.56,5.27-6.39-.32-8-3-6.69,3.25,12.71,5.46,1.58,3.18-4.06,1.06.43,2.43,7,5.13,9.62,6-.65.61-10.74-1.88-10.18-3.93-.49.76-2.81.4-1.87,1.22-12.75,6.22,12-10.58-1.3-4.15-4-2.19-.43-1.59-.32-4.39-7.76.75,0-5-.11-7.88-.45.69-4.42,3.51-4.92,2.57,2.73-2.45,5.05-4.5-1.18-4.4,3-3.88,8.3-5.76-1.42-2.74,6-4.33-.8-1.68,2.9-6.76-5.92,1.2,3.93-4.42-3.52-2.23,2.73-1.7,1.47-6.56.83-2.23a71,71,0,0,1-1.11-11.11c-.49,4.06.87,9.06-1.16,10.47,2.65,6.68-5,.82-.08,6.67,4.48,5.49-5.37.57-3.73,4.27,15.66,13-11.76-1.07,4.56,8.69-17.63-5.34,2.32,10.67-11.2,5.2-.55,2.82,7,6.46,9.93,7.27-2.16,1.08-10.21-2.94-11.72-4.14.46,2.29,2.42,4.1,5.37,5.93-10.42-5.75,3.05,2.91,1.24,3-1.13.81-8.49-2.6-4.13.3,4.66,8.53-.55,1.65-1.11,5.52,14.65,7.14,5.47,6.41-3,.34,1.74,2.79.59,2.13-2.2.93.93-.37,1.8-1.88,2.2-.93-.28-.34,0-.77.07-1,.28-.24-2.2,1.4-3.4,1.14-1.91,1.48-7.88,2.69-7.68,2.11.94-.66,9.65-2.95,8-4.93-15,4-1.69.24,1.7-3.37-13.18,2.12-14.47,2.33-3-4-3.38.23-7.23-.91-11.06-.81,1-.94,4.86-1.16,1.59-2.31.08-.2,6.85-2.47,6.47-3.24,0-.17-6.51,2-6.69,1.17,1.56-.76,6.24-2.38,6-4.22-6,1-.12-.62-2.14-2.31.15-1.78-2.3-.44-3.32-1,3.76-3.45-1.51,0-2.82-.84,1.7-1.66,4.4-2.37-.2-2.05,1.12-1.55.84-3,2.64-4.52.18-1.62-1.07-2.09.37-3.83-.45-.63-1.3-.41-1.87-.7,1.41-2.57,1.71-2.2-1.33-1.21,1.63-.84-.14-2.76-.8-3.21-1.25,1.47,1.95,3.58.51,4.71,1.67,2.34.75,3.51-2,1.55,1.66,2.4,1.21,5,1.89,7.48-1.84.28-4.06-1.34-5.68-1.05-.06,1.84,6.66,7.15.82,4.75-6.12.26,4.45,4.71-5.68,2.32,1.66,2.5,2.94,4.84,4.38,7.07,6.54,3.83-2.49.65-4.09.38,1.81,2.22,12.92,5.82,1.76,4.25,3.66,4.36-6.19-1.72-6.36-1.47.26,1.79,9.45,6,1.28,3.38,2.34,1.92,6.53,4.54,8,6.53-3.57.34-6.45-1.4-1.91,1.67-.19.69-6.11-1.62-6.17-1.32-.22.56-3.74-1.67-3.88-1.29-2.4,1,2.57,2.3.14,3.07-4.19-2.6,1.42,1.7-7,2.68-9.37,1.77,8.69-5.23,8.91-8.19,0-.21-8.07,4.34-8.4,3.67,9.79-6.71,11.53-6.86-1.3-1.59,4.45-3.24-.07-2.26-3.51-1.81,8.84-6-1.79-1.81,4.75-6.32,0-.15-10,3.59-10.29,2.81,1.19-.37,16-6.14,14.16-8.41,0-.23-7.49,3.78-7.79,3.11,9.19-5.94-3.68.06-8.12-.49.49.33,22.83-9.93,9.43-5.5-1.43-.71-6.46,1.23-8.15,1,2.3-1,20-9.32,4.5-3.66-6.51-.25,6.67-3.08-6.56-2,.81-.85,12.12-4.51,3.38-3.12,2-2.71-2.77-.16-4-.89,7.69-4.77,8.39-4.37-1.82-3.71.82-1,15.55-4.67,6.89-5.44-1.32-.3-3.07.66-2.26-1.19,4.84-3.55,4.37-2.64-1.4-1.6,0-.36,5.1-2.67,4.85-3.25,1.27-2.8-8.6,2.76-9.63,1.48,1.1-1,10.81-3.12,4.95-4.66,3-3.44-3.23.35-4.49-.64,7.56-4,3.68-1.73-1.66-1.68,0-.37,5.35-2,5.15-2.6-.1-.42-3.65.76-3.77.2-7.21-1.31,4.54-3.28,5.09-5.12-5.08.76-2.24.16-.55-1.89-9.33,2,5.64-5.82-8.43-3.84,11.44-6.83,1.69-2,4.78-7-3,.37-4.28.33-2.14-2-8.95,3.1-.5-3.25-.77-6.29-3.14-1.08,1.86-4.63-2-4.18.53-2.27.8-2.46-2.1-1.94,0-.42,2.54-2.18,2.36-2.74-2,.42-2.25,1.93-4.61.21.08,1.33,3.79,3.94-.44,1.92-.13.48-.61-.06-.74.4.56,1.8,5,5-.35,2.06,4.06,5.71,3.54,3.14-2.39,4.89-3.81.67,9.48,8.4.5,4.16,4,4.6.83,2.23-2.27.26,1,2.11,1.39,4.74,3.67,6.49-3.45-.74-8.72-7.34-3.49-.18,5.49,6.16-2.41-.21-3.68-1.22.2,2.35,7.39,8.7.14,4.08-.1,1,.72,1.64-1.1,1.4-3,2.12,3.57,4.7,4,6.81-6.23-1-1.16,2.55-8.26-1.2-.35.64,5,3.9,5,4.19-2.29.3-8.69-5.31-3.93.07,8.7,6,2.94,3.22-2.57.42-1,1.72,5,4.85,6,5.72-3.52.49-2.07,1.56-.41,3-1.19.72-3.55-.13-4.81-.22,0,1.14,5,2.72,1,2.73-12.05-5.13,3.77,3.77,4.85,4.16-1.59,4-6.93,1.87-10.27.3-.32.63,6,4.13,6,4.43-5.31-1.5-7.62-2-2.66,2,6.17,4.83-2.5.06-4.18-.21-4.12.3,5.85,4.63,5.7,5.18,7.78,5.36-5.77-1.18-6.64-1.31,10.83,7.75.22,3.52-4.32.22,2.39,3,15.58,11,2,5-.43.78,9.08,5.55,9.2,5.71-2.95.21-13.8-6.42-4.35.33-.4.82-9.52-5-9.38-4.92-3,3,17.43,11.34,8.83,10-.18.56-4.81-1.86-4.91-1.47.13,1.28,8.77,4.55,2.11,3.35-.3.71-6.45-3.44-8.26-4.53-.7-1-1.71,1.63-3.18.77.86-1.37,3-1.94-.35-2,.42-.91,1.4-1.4,0-2.12,2.63-2.78,1.64-1.47-1.17-2.38C26,161.58,30,163.2,28,164.18c-3.3.38.35,3,1.17,4.06-.29.73-4.42-2.28-4.38-2.05.84,3.08,4.52,2.25,0,3.81,2.71,4.22,1.44,4-2.72,1.21.16,1.66,4.85,4.11,1.51,5.59,7.37,2,.41,2.82-2.89.94-1.81,1-12.76,5-13.64,3.52,4.91-.87,11.87-3.45,10.32-7.25,0-.15-7,2.42-7.29,1.58.15-.07,8.29-3.33,7.75-4.22.17.1-8.93,3.44-9.24,2.37,1-.77,5.26-1.63,4.51-3.31,0-.18-6.9,1.24-7,.41,0-.47,2.86-.8,2.76-1.36,2-1.85-1.63-1.14-1.3-2.95,3.58-1.19,4-3.82,5.45-6.09-.47-.09-7.29,2.53-6.56.24,3.07-2.1,7.28-3.42-.15-1.82,0-1.38-3.81-3.17-4.64-3.61,1.06,2.25,6.64,6.86-.47,3.43,6.56,6.88.57,1.86-.85,5.32L0,163.94v1.63a15.89,15.89,0,0,1,1.82,1.12c-.1.3-.86.15-1.82-.17v2.73c.85.5,1.15.71,0,.46v1.18c3.14,2,2.44,2.65,0,2.1v4.72c1.15.46,2,.77,2.06.78-.13.36-.93.3-2.06,0v81.75H1920V203.65c-.18,0-.31,0-.36-.05a1.6,1.6,0,0,0,.36-.17v-1.74c-4.75,2.31-7.5,3-1.14-2.08.34-.24.73-.5,1.14-.77v-3.3c-.1-.24-.12-.33-.28-.69l.28-.2v-4.39c-1.18.58-2.45,1.21-3.81,1.9,0,0,1.74-1,3.81-2.3v-1.29c-3,1.51-5.75,2.76-6,2.35,2.55-1.54,4.51-2.71,6-3.58v-.74c-2,.79-4.65,1.84-7.83,2.91,4.06-2.35,6.77-3.79,7.83-4.43v-.29c-1,.29-3.57,1.2-7.94,2.66,1.58-.73,4.88-2.63,7.94-4.5v-2c-2.4.73-1.51-.13,0-1.45ZM748.82,149.42c-.86.69-1.86,1.43-2.84,2.08C745.74,151.35,747.23,150.56,748.82,149.42ZM21.43,184.29c-7.2,2-.07-3.11,2,1.57C25.16,189.41,14.8,187.4,21.43,184.29Zm-2-5.26c1,1,4.66,2.55,2.92,2.49C22.2,181.28,16.41,180.19,19.39,179Zm-2.62,2c7.5-.49-4.62,5.44-5.75,3.91C12.42,184.12,16.91,182.77,16.77,181Zm.56,7.06c-1.54.38-3.59.93-3.72.54C13.7,188.68,16.41,186.7,17.33,188.1Zm-6.65,4.33c2.27-2,8.55-5,11.3-1.71.14,1.44-4.47,2.81-4.25,1C17.63,191.4,10.85,193.13,10.68,192.43Zm12,5a17.23,17.23,0,0,1-4.39-1.06C19.75,195.19,21.68,196.75,22.68,197.39Zm-6.9-1.91c.92-.52,1.87-.88,2.87-.1C17.77,195.55,16.62,196,15.78,195.48Zm-.21.53c-1,.12-1.57,0-.42-.27Zm-4,5.79c-1.95-1.53,2-1.61,2.6-2.61,1.4-3.55,6.2-1.65,8.66.72C18,200.2,16.74,202,11.62,201.8ZM15,211.06c-1.25-.34,1.25-.9,1.83-.28C16.14,210.92,15.5,211,15,211.06ZM17.1,206c.17-.12,1-.63,1.28,0C17.71,206.14,17.17,206.18,17.1,206Zm1.41,1.77c.1-.58,1.15-.69,1.92-.21C19.39,207.83,18.6,208,18.51,207.76Zm3.54.33c.92.31,1.67.57,1.66.73C23.85,209.39,18.67,208.92,22.05,208.09Zm1.81-14.83c-5.18-1.44,2.33,1.31-3.26,1.25C15.26,195,26.78,189.56,23.86,193.26Zm6-12.26c.23-.08,2.49-1.05,2.94.11C31.49,181.24,29.92,181.38,29.88,181Zm.68-2.45c.27-.3.91-.49.84-.89C27.68,174.2,38.74,180.36,30.56,178.55ZM35,183.42c-.75-.39-2.13-.13-3-.83C33.73,181.5,33.46,182.21,35,183.42Zm1.12,3a34.94,34.94,0,0,1-3.52.86C30.6,186.81,35.47,185.19,36.15,186.45Zm1.42,7.22c-1-.14-.6.3-2-.35C37.21,191.93,41.58,193,37.57,193.67Zm-.87-5.93c.61-.81,1.86.24,2,.27C38.64,188.35,37.47,187.91,36.7,187.74Zm-3.79,3.35c.13-.37,2.38-1.17,2.94-.18C34.4,191.2,33,191.43,32.91,191.09Zm-.06,3.17c.08-.08,1.25-.29,1.27.12C33.4,194.47,32.9,194.46,32.85,194.26Zm4.29,2.93a27.17,27.17,0,0,1-2.69-1.12C35,194.83,39.09,197.32,37.14,197.19ZM39,194.08c1.22-1.32,3.9.85,4,.9C42.87,195.33,40.7,194.61,39,194.08ZM33.06,180c3-1.74,8.44,2.62,10.68,3.91A46.65,46.65,0,0,1,33.06,180Zm3.85-2.17c-4.23-2-4.56-2.56-1-4.9-.15-.29-4.88,2-5.8.78-1.78-.79,5.2-3,4.33-3.88-3.52,1-5.48-.68-1.95-3-.21,3,16.34,9.44,10,10.06C51.32,182.4,40.42,179.89,36.91,177.8Zm64.25,6c-.13.51,1,.87.85,1.37C100.53,186.22,98,182.79,101.16,183.76ZM95.6,178.4c.58.5,1.06.94,1,1.1C96.14,179.84,94.76,178.93,95.6,178.4Zm-1.32,1.26c1.74,1.21,4.09,2.59,5.55,3.4C97.21,184.85,89.82,181.16,94.28,179.66Zm2.93,10.06c3.27.83,2.41,2.36-.15,1.83C98.12,190.7,98,190.41,97.21,189.72Zm-.91-2c.38-.66.85-.83,1.63-.26C97.27,187.8,96.91,188.16,96.3,187.73ZM94,185.39c-.83.47-1.52.78-2.29.12C92.66,184.87,93.1,184.58,94,185.39ZM87.68,199.5c-.19-.52-1.63-.57-.3-.93C87.51,198.83,89.27,199.89,87.68,199.5Zm3.47-17.15c1.61,1-1.25,2.11-1.88,1.58C86.73,185.78,88.73,183.31,91.15,182.35ZM89.68,187c0-.12,1.51-1.62,2.19-.6C90.69,186.87,89.78,187.18,89.68,187Zm3.61,10.7-2.2-.88C92.07,195.51,95.56,197.14,93.29,197.67Zm3.5,6.74c-.5,0,.68-.72,1-.31A3.57,3.57,0,0,1,96.79,204.41Zm1.75-9.2c-.74-.22-1.68-.56-2.68-1C97.71,192.21,102.79,193.93,98.54,195.21Zm-.16-6.58c.89-1.28,3.18.83,3.87.84C101.29,190.12,100,189.12,98.38,188.63Zm20.5,2.15c.1,0,.89-.22,1.08.14C119.36,191,118.94,191,118.88,190.78Zm-2.11-6.05c.08-.14,3.32-1.76,4.07-.28C118.83,184.82,116.86,185.11,116.77,184.73Zm11.1,4.11c-2.1.68-4.66,1.44-6.53,1.85C119.73,190.39,126.69,187.24,127.87,188.84ZM123,194.2c.23-.21,2-.88,2.6,0C124.58,194.24,123.08,194.56,123,194.2Zm.44,4.2a1.83,1.83,0,0,1,2.45-.22C124.51,198.58,123.57,198.73,123.4,198.4Zm.34,3.24c.68-.19,4.07-2.36,4.84-1.11C126.14,201.47,124.21,202,123.74,201.64Zm4.25-4.37c-2.81,0,.6-2,1-.32C128.46,196.87,128.35,197.15,128,197.27Zm5.71-3.16c-2.71-.59-5.15-.34-7.66-1.23C129,189.6,136.9,192.48,133.7,194.11Zm-5.13-8.91c.45-.61.59-.12,1.33.21C129.37,185.75,129,185.47,128.57,185.2Zm2,1c.85-.5,2,.56,3,.77A12.72,12.72,0,0,1,130.61,186.16Zm2.38-1.89c-.33,0-4.88,1.76-3.38-.32-.61.08-2.94.87-3.42-.61.8,2.45-4.4,2.85-1,.34-7.46,1.79-3.12-1.07-1.57-3.83,2.07-4.78,6.76-.31,7,1.92-8.07-1.42,3.74,3.25,9.32,4.35C137.84,187.25,130.66,185.9,133,184.27Zm28.69-8.62c-.41.95-2.24,3.55-4.36,2.24C157.78,176.82,160.51,176.05,161.68,175.65Zm-5-2.52c2.68,1.48,5,1.92.85,3C157.56,175.15,156.91,174.16,156.68,173.13Zm2.08-1.28c1.4.72,3.5,1.56,4.38,2C162.55,174.67,156.15,172.74,158.76,171.85Zm2.6-1.7.74.37C162.08,170.78,160.27,170.6,161.36,170.15Zm-5.8-.05c-.64-3,5.75-1.59,4,0-3.78-1.33-3.23-1.07-2.08.76C156.38,172,155.38,171.23,155.56,170.1Zm.67,19.74c1-1.52,3.49-.2,3.83.35C160,190.67,157.17,189.85,156.23,189.84Zm3.32-8.77c.84.36,1.63.7,2.27.94C160.83,182.68,158.24,182.08,159.55,181.07Zm2.11-3.91c.32-1,.07-1.57,1.34-1C163.52,176.71,162.37,176.79,161.66,177.16Zm2.32,1.29c-1.38.9-1.23-.53.14-1.48C165.45,177.54,164.28,177.85,164,178.45ZM180,181.5c.19.16.4.33.63.5C179.74,182.2,179.38,181.9,180,181.5Zm3.81,5.55c-.16-.47-1.56,0-1.73-.52C181.8,185,185.63,187.85,183.84,187.05Zm-.66-2.09c.42-.37.59.2.89.39C183.79,185.24,183.5,185.11,183.18,185Zm3.3-1c-1.86-.26,2.28-1.94,2.22-1.76C189,183.81,187.91,184.14,186.48,184Zm2.18-4.92c-3.95-.08-1.59,2.09-5.13,0-.21.33.43.86,1.56,1.48-13.15,4.85,6.72-5.83-1.64-4.1C184.49,173.73,189.44,178.34,188.66,179Zm-1.18-6.2a5.87,5.87,0,0,0,1.18-1.21C189.15,173.2,190.05,173.8,187.48,172.83Zm22.28-28.27c18.82,13.3,1.23,12.2,4.59,6.15C204.34,154.27,212.89,149.78,209.76,144.56ZM211,158.11l.28.23C210.51,158.55,210.37,158.59,211,158.11Zm1.69,1.33c2,1,3,2.29.13,2.36C211.61,161.11,212.06,160.2,212.69,159.44Zm4.77,2.8c4.57,4-1.79,1.85-2.4,2.25C211.71,164.61,215.86,160.45,217.46,162.24Zm-1.34,10.43c-.48-.31-1.89-.43-1.2-.9C215.36,172.09,217,172.37,216.12,172.67Zm2.85,1c-.43-.26-2-.38-1.48-.83C218.38,173.34,220,173.37,219,173.69Zm20.93-16.51c-.78.23-1.66.51-1.77.21A1,1,0,0,1,239.9,157.18Zm-1.32-6.63a1.54,1.54,0,0,1-.15.8C240,153.47,236.17,153.64,238.58,150.55Zm2,7.13c2,.89-2,1.5-3.64,2.77C228.64,162.51,237.6,159.48,240.61,157.68Zm-1.88,10.63.39.2C238.31,168.71,237.89,168.88,238.73,168.31Zm1.87,7.13c.44-.27.9-1,1.3-.37C241.42,175.22,241,175.35,240.6,175.44Zm.5-7.45c-1.58-.32-1.38-.75-.07-1.31C242.64,167.21,243.07,167.43,241.1,168Zm1.21-8.7c.07-.13.06-.26.15-.35C242.76,159.1,242.51,159.18,242.31,159.29Zm.36,19c.14-.38,2.1-1,2.52-1.39C246.5,177.88,243.6,177.88,242.67,178.25Zm1.41-9.37c-1.36-.21-1-.59-.31-1.16C245.18,168.21,246,168.29,244.08,168.88Zm.26,2c-.27.08-.89.05-1-.25C243.39,170.35,244.17,170.85,244.34,170.92Zm-.88,2.27c1.27.35.49.28-.4.32Zm1.59-4.07a1.3,1.3,0,0,1,1.87-.32C246.53,169.41,245.94,169.42,245.05,169.12Zm.47-7.92c-6.44,1.1.21-2.35,1.62.67C246.85,162.27,244.65,162.08,245.52,161.2Zm1.83,7.74,1,.32C248.14,169.68,246.62,169.66,247.35,168.94Zm-6.65-15.12c-1.26-.84,6.39,3.16,7.83,3.6C244.31,158.84,238.82,157,240.7,153.82Zm10.49-15.93a1.46,1.46,0,0,1,.31.76C250.89,139,250.84,138.19,251.19,137.89Zm.92,17.74a3.87,3.87,0,0,1,1.79.29C252.9,156,252.2,156,252.11,155.63Zm4.73,2v-.07C251.07,157,264.05,157.18,256.84,157.58Zm1.64-7.28c-1.47-.11-4.05-.57-5.88-.88C253.76,147.88,262.27,150.31,258.48,150.3Zm-5.06,7.61a2.05,2.05,0,0,1,1.73.23C254.2,158.21,253.46,158.18,253.42,157.91Zm2.46,8.66v-.1l0,.1c-1.07-.21-1.06-.57.2-.93a.2.2,0,0,1,.07.23c.81-.58,3.27,1.59.83,1.1C256.82,166.72,256.33,166.65,255.88,166.57Zm1.67,6.59c.91-.24,2.39-.29,2.4-.41C260.11,173,259.13,173.15,257.55,173.16Zm1.24-6.77a6.34,6.34,0,0,1,1.17.4A.69.69,0,0,1,258.79,166.39Zm-3.38-19.65c-.78-.6-2.34-.59-3.15-1.07,1.25-1.56,8.62,1.69,8.71,1.53C259.31,148,256.36,148.8,255.41,146.74Zm1.25-3.44c-.09.52-1.2.27-1.3.78C253.11,145.24,256.6,141.93,256.66,143.3Zm-4.14.19c-2.38,0-7.35-3.78-4.3-5.81,0,4.15,4.58,3.2,5.55-.79.08,4.72,3.45,2.83,7.88,2.23C260.49,140.29,254.5,142.39,252.52,143.49Zm16-53.68c.41.29.72.53.72.65C268.86,91,267.22,90.35,268.51,89.81Zm-1.16-3.2c1.44,1.86-2.65.19-.89,1.72C263.31,87.71,264.41,87.37,267.35,86.61Zm-2.65,5.1c.67-1.43,4,1.71,1.81,1.16C267.09,92.22,264.61,92.3,264.7,91.71Zm3.79,6.3c.86,0,1.05-.67,1,0C269.48,98.18,269.07,98.15,268.49,98Zm-2.4-3.19c-7.58-3.08,4.22.09,4.14,1.27C269.27,96.94,266.82,95.43,266.09,94.82Zm21.2,22.53a34.84,34.84,0,0,0,9,10.46c-2.87-.18-3-.36-6.18-3.34,1.56,4.69-2.38-1.09-2.72.15-5.57,2.19-.74-3.85-4.5-2.93C278.07,124.44,287.83,118.36,287.29,117.35Zm5,10.37c-.51-.2-.74-.49-.68-.91C291.82,127.11,292,127.42,292.28,127.72Zm-6.17-1.48c1.66-1.32,2-1,3.15.36C288.41,126.49,286.77,127.57,286.11,126.24Zm2.12,7.25c-.78-.78-3-1.32-1.27-1.93C287.14,132.15,289,133.21,288.23,133.49Zm-2.13-6c-.88.43-1.34.54-1.54-.31C285.4,126.48,285.68,126.69,286.1,127.46Zm-2.7-4.53c2.43,1.75-.62,5.34-1.32,2.39C275.77,126.1,278.37,125.48,283.4,122.93Zm-.78,5.48c0,.06,2.13-2,2.16-.45C283.67,128.37,282.73,128.66,282.62,128.41Zm1,6.6c-1-.69-.39-1.24.52-1.86C285.69,134.14,285.74,134.59,283.65,135Zm2.69,2.22c-1.17-.44,1.61-1.92,2.2-.8C287.78,136.72,287,137,286.34,137.23Zm1.09-5.94c1.65-1.56,2.28.58,3.6,1.39C289.23,134,288.53,132.18,287.43,131.29Zm2.33,3.31c.33,0,.55.45.88.64Zm2-1.28c.88.68,1.8,1.33,2.77,1.94C293.4,136.64,289.28,134,291.8,133.32Zm2.84,3.19c.57-.71,1-.73,1.81-.14C295.83,136.83,295.33,137,294.64,136.51Zm.77,5.16c.85-.84,2.35.86,3.53,1.15C297.74,142.48,296.56,142.11,295.41,141.67Zm1.06-4.3c.3-.16.55-.67.84-.53C298.26,137.9,297.65,138,296.47,137.37Zm-4.9-8.85a55.9,55.9,0,0,0,11.52,6.26C298.9,133.4,288.87,131.37,291.57,128.52Zm57.14-1.22c-.13.44-2.13-.18-3.9-.8C345.18,124.51,348.41,127.08,348.71,127.3ZM342,129.57c1.75,1.22,1.74,1.4,2,2.63C343.28,132.56,338.78,130.83,342,129.57Zm-1.27,4.78-.47.19C340.43,134.32,340.36,134.11,340.68,134.35Zm-.84-6.54.27.28C339.52,128.64,339.49,128.49,339.84,127.81Zm-8.22,9c-11.1,2.43,12.92-6.59,5.63-2.82C336.58,135.16,333.34,135.88,331.62,136.79Zm8.1,13.18c-.64.31-1.26.59-1.86.86C338.3,150.69,339.14,149.64,339.72,150Zm-.84,2.41c0-.14.24-.38.34-.6C339.51,152,339,152.17,338.88,152.38Zm1.27-2.09c.53.51,0,.88-.5,1.35C339.11,151.35,340,150.71,340.15,150.29Zm1.3,6.83c-.4-.12-1-.36-1.61-.64C340.2,156.12,342.52,157,341.45,157.12Zm-.51-8.15.46-.25C341.25,148.82,341.18,149.11,340.94,149Zm-1.06-.37c.62-.38,1.16-.9,1.87-.39C341.14,148.34,340.47,148.86,339.88,148.6Zm3.95-2.34c-1.76.73.72-1.43.72-.87S344,145.75,343.83,146.26Zm1.05,3.87c-.84-.08,0-.33.27-.58C346,149.77,345.35,149.89,344.88,150.13Zm.15-12.78c-1-.24-1.31-.46-.44-1C345.5,136.67,346.06,136.83,345,137.35Zm2.51.64c-1.28,0-.38-.83.36-.3Zm-4.34-9.62c1-2.32,4.06.62,5.78.91C348,130.42,344.09,128.33,343.2,128.37Zm3.29-4.57c1.16.61,2.6,1.23,2.6,1.45C348.62,125.68,344.75,125.16,346.49,123.8Zm17.36,3.1c.22.16.06.23-.3.21Zm-3-2c1.75.8,2.72,1.76.22,1.74C358.42,125.92,358.09,125.87,360.89,124.86Zm-4.77,1.83c.34-.19,1.93-.84,2.77,0C357.6,126.85,356.18,127,356.12,126.69Zm.54,11.36c-.12-.11.24-.2.69-.37C358.18,138.25,357.51,138.39,356.66,138.05Zm1.06-.5c.71-.5,2,0,2.38.23C359.1,138.09,358.33,138.17,357.72,137.55Zm1-6.37c.85-.59,1.67-.25,2.57.17A4.87,4.87,0,0,1,358.72,131.18Zm3.62-1.5c1-.35,1.82-1.28,2.52-.63C365,130,363.76,129.94,362.34,129.68Zm33.05-12.45c3.93,2.15,2.31,4.43-2.27,4.7C403.79,115.84,387.14,122.69,395.39,117.23Zm.35,5.84c0,.11-.2.08-.4,0C395.63,122.84,396,122.5,395.74,123.07Zm.89,6.57.37.27C396.12,130.18,395.83,130.28,396.63,129.64Zm2.69,18.89c-.5-.13.31-.21,1-.55A7.48,7.48,0,0,1,399.32,148.53Zm.34-4.55c-.71.33,1.15-1.3,1.37-.51C400.9,144,399.79,143.5,399.66,144Zm.1-11.86c.83-.58,2.61.54.52.69C399.8,132.69,399.85,132.43,399.76,132.12Zm1.07,5.28c.32-.57.85-.17,1.29.07A1.21,1.21,0,0,1,400.83,137.4Zm1.25-4c-.18-1.15,2.26.71,2.46.8S402.39,134.11,402.08,133.36Zm2.17,3.23a17.05,17.05,0,0,1-1.63-.59C402.94,135,405.64,136.4,404.25,136.59Zm1.66-10.42c-.31.75-7.62-2.91-9.51-3.87,1.91-1.65,3.56-2.11,4.6-.44C400.59,123.39,414.9,127,405.91,126.17Zm29-4.9c-5.44.11,3.83-4.47,5.08-.54-2.33,2.5-7.1-1.54-4,1.63C432.86,123.36,434.29,122.27,434.89,121.27Zm4.58,1.87c-2.16-.37,1.68-2.38,2.29-1C441,122.48,440.23,122.82,439.47,123.14Zm5.28,1a6.81,6.81,0,0,1-3.64-.42C442.5,122.39,443.33,123.17,444.75,124.19Zm-10.2.41c.35,0,2.46-1.72,3.19-.77C436.11,124.46,434.83,124.83,434.55,124.6Zm2,3.7-.23-.11C434,127.44,435.63,126.8,436.52,128.3Zm-.26,8.33c.18.06,1.19-.56,1.31.15C437,136.83,436.35,136.9,436.26,136.63Zm-.2-5.2c.23-1.31,1.9-2.38,2.8-.58C437.33,131.42,436.2,131.72,436.06,131.43Zm.74-4.94a22.89,22.89,0,0,0,2.64-1.37C443.19,126.73,438.69,128.62,436.8,126.49Zm5.21,3c-4-1.16.93-3,2-1.17C444.18,128.89,442.57,129.15,442,129.54Zm2.73.57c-.54.11-.33-.14,0-.42A.67.67,0,0,1,444.74,130.11Zm.84-11.54c.59-.73,1.64.62,1.88.79C446.8,119.07,446.18,118.81,445.58,118.57Zm-3.72-5c-1.17,1.48,1.62,3.16,3.7,4.46-5.86-.62-9.24-1.9-4.25-5,1.14-4.92,5.93.28,7.37.92C448.86,117.15,443.13,113.26,441.86,113.52Zm31.22-26.08c.07.16.15.31.23.46C472.48,88.17,472.55,88,473.08,87.44Zm5.22,14.48c-1.14-.26,0-.91.7-1.42C480.15,101.11,479,101.51,478.3,101.92Zm1.64,7.87c.64-.9,1-1,1.81,0A5.9,5.9,0,0,0,479.94,109.79Zm5.7,2.88c-.16.35-1.68-.48-3.06-1.28C482.37,109.57,484.8,112.3,485.64,112.67Zm0,31.5h-.19C486.46,142.83,487.4,144.34,485.61,144.17Zm-1.49-37.91a4.05,4.05,0,0,1-4.54-1.59c.12-4.44,5.29-.31,8.11,3.44C486.58,108.22,482.68,107.36,484.12,106.26Zm24.12,38.23c.28-.4,1.44-.53,2.14-.92C511.41,145,509.67,144.47,508.24,144.49Zm25-22.08a50.11,50.11,0,0,0,5.71,3.19C539.73,126.09,532.12,124.2,533.21,122.41Zm-.82,1.89c2.76,2.25,5,3,6.08,5.41C537.15,129.93,528.42,127.08,532.39,124.3ZM530,129l.73-1.39C535.56,130.71,534.17,130.23,530,129Zm3.62-12.44c-.21.53,4.06,2.72,4,3.14-.21.61-6-2.48-6-2.14C526.43,115.53,531.27,112.08,533.59,116.53Zm-2.09,3.24c-.13.3-1.53-.54-2.81-1.33C528.87,116.07,531.3,119.51,531.5,119.77Zm-16.06,16.11c11-7.7,10-3.11-.08,1.15C515.94,136.38,517.93,135.14,515.44,135.88Zm5.11-4.95c.89-.52,2.11-2.21,2.77-1.45C522.45,130,521.52,130.48,520.55,130.93Zm-2.32,10.64c-.55,8.46.63-.73-2.85-.27C528.08,131.25,527.91,143.27,518.23,141.57Zm10.22-16.06c-1.38,1.93-6.34,5.07-2.31.4-.92.4-6.93,5-8.14,4.64.29-.86,6-4.37,2-2.45,5.65-3.25,6.58-12.12,13-5.79-.67,1-2.9-.19-4.13-1,3,2.1,1.09,6.87-3.44,7.94C527.62,127.58,529,126.09,528.45,125.51ZM527,133.29c2.12,1.44,1.3,1.64,3.11,2.82C528.29,137.58,523.73,134.57,527,133.29Zm3.33,11.36c-1.17.3-.23-.74,0-1.18C530.26,144,530.48,144.16,530.37,144.65Zm.57-2.34c.42-1.82,4.27,1.31,4.94,1.48C535.39,144,532.83,143,530.94,142.31Zm1.57-4.94c2.81,1.41,6.28,2.95,6.32,3.08C539.48,141.07,532.1,139.42,532.51,137.37ZM530,129c.82,1.61,10,4.75,9.61,6.39C537.08,135,527,132.47,530,129Zm64.51,14c.42.43.77.81.72,1C595,144.25,593.08,143.4,594.46,143Zm-1.63,1.08a33.38,33.38,0,0,0,2.87,1.78C593.62,148,589.15,145.26,592.83,144.07Zm6.37,3.62c-2.19,1.76-2.56.91-4.41-.07C596.25,145.8,597.27,146.64,599.2,147.69Zm-16,2.45c-.81.21,7.45-6.63,9.63-2.7-1,.58-3.11.7-3.89.07C590.13,149.55,586.35,148.64,583.21,150.14Zm8.31,1.06c-.87-.33.09-.57.45-.91C592.94,150.77,592.94,151.51,591.52,151.2Zm1.15-1.42c1-1.44,1.49-1.81,3.3-.47C595,149.84,593.8,150.91,592.67,149.78Zm3.9,2.12c.17-.67.22-.59,1.25-1.58C603.64,153.14,602.69,152.77,596.57,151.9Zm2-2.28c1.59-2.49,7.42,1.12,9.75,2A70.46,70.46,0,0,1,598.6,149.62ZM595.91,142c4.53-5.69,8,1.5,13.82,2.47C605.72,144.44,599.48,142.36,595.91,142Zm46.91-7.6c1.87,1.44,4.46,3.15,4.49,3.31C647.34,138.05,640.73,135.74,642.82,134.38Zm-8.33,13.71c1.74,1.31,1.4,1.53-.65,1.64C626.07,151.57,627,151.33,634.49,148.09Zm-.64,9.8c-2.19-.15.81-.86,1.77-1.51C637.25,157.19,634.63,157.46,633.85,157.89ZM641,144.1c-1.6.87-11.37,5.22-11.8,4.29-5.39-.73,11.86-4.8,10.26-8.28a93.2,93.2,0,0,0,8.1,5.34c-2,.23-12.29-5.7-3.6-.13C633.31,151.42,634.11,148.46,641,144.1Zm5,2.34c-.29-.44-1.59.83-2.43.47C641.72,147.06,644.67,144.56,646,146.44Zm-6.09,9c-1.06-.39-1.39-.79-.17-1.21C640.69,154.77,641.35,155,639.92,155.45Zm-.22-6c0-.19.62-.85,1.07-.27C640.2,149.44,639.79,149.57,639.7,149.43Zm2.89-1.3a1.15,1.15,0,0,1-1.61.11C641.59,147.66,642,147.38,642.59,148.13Zm-1.11,5.15,1.29.85C642.25,154.62,640.1,153.62,641.48,153.28Zm.59,3.06c.95-.79,3.56,1.42,4,1.6A7.74,7.74,0,0,1,642.07,156.34Zm.76-3.86c2.13-2.16,3.75.55,4.93,1.67C647.24,154.71,644,153,642.83,152.48Zm4.68-5.26c1.41.73,2.49,1.26,2.53,1.31C650.17,148.83,646.31,148.26,647.51,147.22Zm-8.24-8c-.36-.54-3.21,2.13-3.88,1.46.9.14,6.77-7.62,8.46-2.66.56,1.59,9.43,4.43,9.08,6C648.8,143.94,641.72,140.51,639.27,139.26Zm49.34.18c.74.46.34.65-.51.45A4.13,4.13,0,0,0,688.61,139.44Zm-3.14,2.12c.4.62,2.68,1.79,2.61,2.19C688.37,144.16,682.26,142.42,685.47,141.56Zm-.15,25.76c.37.17.6.26.65.23C686.05,167.76,684.32,167.62,685.32,167.32Zm-.1-14.51c-1.22-.29-.55-.45.22-.93C686.6,152.42,686.5,152.51,685.22,152.81Zm.8-4.72c-2.53.09-8-3.53-2.51.49-1.78,1-5.45-2.2-5.24-1.87,1.06,1.28,3.25,3.73-1.3,3.21,3.74-2.58,1.39-1.32-1.8-1.64,1.82-2.93,3.45-2.72,8.1-5.49,3,2.28,3.78,2.55.16,1.88-1.21.59,7.42,3.24,5.15,4C686.91,148.39,689.17,146.74,686,148.09Zm2.75,5.52a2.62,2.62,0,0,0,.6.22C689.32,154,688.43,154,688.77,153.61Zm-3-12.23c1.42-1.92,4.87,1.11,5.34,1.36C691,143.3,687,141.69,685.79,141.38Zm27.54-4c-13.63,5.7-6.93-10.72,9.25,5.59.2,2.61-14.88-.71-7.63-4.26C709.43,140.23,703.77,142.67,713.33,137.37Zm-1,9.89c3.07,1.51-1.49,2-2.9,2.52C707.33,149,710,147.4,712.35,147.26Zm-3,6.34c.12-.29,1.17-.79,1.61-.07C710,153.76,709.42,153.83,709.33,153.6Zm3.5,15.79c-.36-.14.95-.56,1.23-.14A3.53,3.53,0,0,1,712.83,169.39Zm1.7-18.56c-3.6.16-3.8.44.38-1.76C722.55,151,711.11,153.8,714.53,150.83Zm1.59,2.1c2-2.28,5.11-1,6.91-.29C721.12,153.76,718.65,153.66,716.12,152.93ZM759.82,174c1,.15.46.46.06.93C759.38,174.56,759,174.3,759.82,174Zm-1.47-7.44c.12.25.25.49.38.74A.47.47,0,0,1,758.35,166.58Zm-1-2.72c.23.71.51,1.33-.25,2C756.29,165,756.09,164.45,757.4,163.86Zm-.72,6.58.38-.67C757.34,170.06,757.45,170.55,756.68,170.44Zm.08-10.46c0,.5.1,1,.17,1.49C755.42,161.35,755.85,160.49,756.76,160Zm-3.76,15c.23-.33.66.17,1,.26C753.42,175.47,753.16,175.42,753,174.94Zm.53,2.62c-.6-.17-1.1-.21-.26-.47C753.36,177.24,753.44,177.4,753.53,177.56Zm-.2-8.71c-.65-1.07-2.17-1-.11-2.18C756.63,167.36,753.2,170.55,753.33,168.85Zm-4.43,3c1.1-.41,2.73-2.11,3.75-1.48C751.36,171.24,750.58,173,748.9,171.82Zm3.14,4c.17-.15.34-.29.51-.45C752.77,175.7,752.35,175.73,752,175.84Zm2.11-12.57.1.27C753.54,163.93,753.84,163.6,754.15,163.27Zm.9,2.17c.12.27.25.53.39.79C754.68,166,754.14,165.87,755.05,165.44Zm-.53-4.1.36.32C754.61,162.21,754.24,161.51,754.52,161.34Zm.72.57c.32.2.72.42,1.16.64C755.37,163.36,754.4,162.78,755.24,161.91Zm.65-1.39-.45.55C754.79,161,755.66,160.73,755.89,160.52Zm.6-4.93c-.7,2.9-3.23,2.28-3.52.78C754.8,155.63,755.23,154,756.49,155.59Zm-3.63.84c0,.42,0,.83.08,1.24C749.4,161.29,750.83,157.44,752.86,156.43Zm.83,5.39c.64,1.17-1.3,1.85-2.26,2.81C748.29,163.71,752.5,162.88,753.69,161.82Zm-5,2.72c4.58-.71-1.21,2.21-3.05,2.4A33.89,33.89,0,0,0,748.73,164.54Zm-5.43,17.12c1.66-1.07,2.09-.86,2.67.62Zm3.32-.56a.85.85,0,0,1,.52.71C747,181.58,746.8,181.34,746.62,181.1Zm1.91-8.87c.31.2.64.41,1,.63C747.36,174.48,746.23,174.86,748.53,172.23Zm-.72,8c-.49-.57-.63-.91.4-1.13C748.24,179.54,749,180.4,747.81,180.24Zm1.39-.09c-1.78-2,2.88-2.63,4.72-1.25C752.58,179.76,751.05,181.11,749.2,180.15Zm3.59.82c.92-.43,1.89-2.19,2.39-1C754.36,180.35,753.56,180.67,752.79,181Zm2.45-3c-1.8-1.12-.07-2.51,1.63-1.44A11.93,11.93,0,0,1,755.24,178Zm1.54.42c-1.45-.08.65-1.27.51-1.68C758.39,177.17,757.21,177.83,756.78,178.4Zm-1.09-6.53a16.7,16.7,0,0,1,2.46,1.27C758.31,175.1,752,174.34,755.69,171.87Zm3.92,3.39c-.47-.11-1-.22-1.46-.36C759,174.25,759.45,174.47,759.61,175.26Zm-.33,6.33c-.34-.38-1.64-.81-.67-1.07C760.21,180.84,762,182,759.28,181.59Zm1.57-6.08c.44-1.69,1.44-.68,2.37.21A9.3,9.3,0,0,1,760.85,175.51ZM772,160.05c-.72.06-1.5-.56-1.92-.61C771,158.8,771.42,159.48,772,160.05Zm-7-7a4.45,4.45,0,0,1,.46.49C764.93,153.91,764.92,153.3,765,153Zm3.21,3.09c2.41,2,1.08,2.43-1.93,2.48C764.59,157.37,765.51,157,768.21,156.13ZM772.49,182c-.85-.48-4.71-1.29-2.72-1.71C770.42,180.84,772.7,181.4,772.49,182ZM772,154.57c1.17,1.05,2.48,2.12,4,3.25C774.75,157,769.5,155.4,772,154.57ZM840.58,165c-.47.54.08-1.8-1-1.24a26.64,26.64,0,0,0,2.88-3c-2.12,2.67-6.46,4.9-10.34,6,6-2.62,12.07-8.64,5.06-4.24,6.51-8.32,6.17-4.92,5.61,1.93C838.58,168.06,837.05,170,840.58,165Zm.2,10,.4.27C839,176.33,839.39,176,840.78,175Zm-.1-7.4c1.07-.52,2.18-3.28,3-2.19A12.07,12.07,0,0,1,840.68,167.61ZM868,165.23a9.71,9.71,0,0,1,.6.79C866.73,166.65,867.15,166.16,868,165.23Zm2.23,3.6c-4.47,1.43-3.07.29-1.49-1.2.34.88,5.52,1.83,2.22,3C867,173.2,863.56,174.8,870.18,168.83Zm-.73,9.7c.22-.36.58.07.89.16C868.5,179.69,870.59,178.3,869.45,178.53Zm.73-3.65c-1.9-.22-1.19-.87-.07-2.33C871,173.53,872.4,174.28,870.18,174.88Zm.08-2.51c.59-1.73,2.7-.65,3.26.2C873.42,173.05,870.93,172.26,870.26,172.37Zm1.6-1.79c.44-1.23,2.17-.22,2.39.09C874.18,171,872.83,170.72,871.86,170.58Zm26.34,1.59c3.37,2.11,3.14,5.76-1.65,4.72C903.58,172.28,890.73,176.48,898.2,172.17Zm3.45,5.78c.68.63,1,1.21-.79,1.7-1.27,1.9-.74,5.6-5.17,5C889.69,184.12,895.9,181.22,901.65,178Zm-2,10.12c1,.83-.94,1.14-1.6,1.46C896.7,189.13,898.84,188.68,899.62,188.07Zm.38,7.46-.28.1C900.79,194.52,901.64,195.76,900,195.53Zm-.75-9.32c-9.91,2.81-3.81.59,2.45-2.75C904.9,185.92,899.93,184.23,899.25,186.21Zm27.48,10.62c1.43-1.05,2.11-3.1,2.63-1.05C928.07,196.62,926.91,197.24,926.73,196.83Zm2.35,3.4c.08.24,1,.84.59,1C928.79,201,928.21,200.73,929.08,200.23Zm.63,10.2c.31-.93,1.81-2.87,3-1.23C931.46,209.84,930.78,210.54,929.71,210.43Zm3.85-8.22c-.17-1.15-7-3.71.19-1.07C921.83,192.37,944.31,206.56,933.56,202.21Zm5.3,2.18c.54-.72,1.26.19,1.93.38A17.1,17.1,0,0,1,938.86,204.39Zm-5.67-11.23c-3,2.66-2-1.55-3.88-.95l-.08.16c-2.12.65-5.22,2,.51-4.07,3.1,4.16,9.47,10.69,14.25,11.23C944.61,200.66,930.5,196.46,933.19,193.16Zm41-32.43c-1.33.71-2.31-.23-3.53-.63C970.91,158.09,972.81,160.29,974.16,160.73Zm-1.82,10.15a12.09,12.09,0,0,0,2.76,1.17C975.54,172.69,970.33,171.47,972.34,170.88Zm-.78,2.54a1.8,1.8,0,0,0,.16-.71C972.55,173,972.16,173.1,971.56,173.42Zm3.07-4.68c-1.56,2.9-8.74-1.89-1-3.75C977,166.17,973.69,166.59,974.63,168.74Zm-4,1.27a2.63,2.63,0,0,1-2.51-.26C968.79,168.52,969.6,169.56,970.63,170Zm-.52-8.95.42.34C969.77,161.66,969.79,161.5,970.11,161.06Zm.12-2.28c-.39.44-.62,1.11-1.4.56ZM969,160.21c-.6,1-1.28.4-2.18-.11C967.77,159.71,968.31,159.4,969,160.21Zm-2.64.52c2.08.91.53,1.68-1.34,1.88A10,10,0,0,0,966.35,160.73Zm.94,13.29c-.87.75-1.67,0-2.62-.48A2,2,0,0,1,967.29,174Zm-6.51,1.45.57.41C960.83,175.87,960.46,175.88,960.78,175.47Zm.88-1.05c.94-.29,1.9,1.38,2,1.35C963.44,176.06,960.75,175,961.66,174.42Zm2.36,7.63c-1.65-.22,2.24-1.75,4.34-1.8A45.67,45.67,0,0,1,964,182.05Zm7-9.71a12.35,12.35,0,0,0-2.53,1.06C965.33,172.92,970,171.36,971,172.34Zm-.56,12.18c.7-1,1.31-1.47,2.43-.61Zm2-9.72c.88-1.41,1.88-1,3.1-.46C974.88,174.34,973.41,175.14,972.42,174.8Zm-.07-17c1.38-1.66,4.93,1.28,5,1.11C977.22,159.43,974,158.31,972.35,157.83Zm9.29,53.33c-5.63.79,3.43-2.51,4.89-2.37A4.65,4.65,0,0,1,981.64,211.16Zm21.27-34.7a23.37,23.37,0,0,0,1.88,1.44C1002.75,178.94,1000.18,176.91,1002.91,176.46Zm-.78,1.86c-1.62.27-5.7,1.39-5.85.88C996.22,179.46,1001.42,176,1002.13,178.32Zm-5.84,26.33c.89.74,1.23,1.31-.14.58C996.19,205,996.24,204.83,996.29,204.65Zm-3.25.71c.24.58.47,1.25.73,1.8C992.88,206.47,991.2,205.94,993,205.36Zm-2.69,2.88c.45.41.35.55-.29.73A5,5,0,0,0,990.35,208.24Zm-3.07.65c.58.15.86.46,1.44.6C986.83,210.28,986.36,210.35,987.28,208.89Zm3.81,2c-1.24-.14-.87-.21-1.6,0C989,209.83,994.78,210.5,991.09,210.93Zm.54-2.58c-1.11-.45-1.49-1.44-.51-2C992,207.13,994,207.8,991.63,208.35Zm3.34,2c-1.15-.74-2.82-1.17-.77-1.82C995.07,209.27,996.93,209.78,995,210.39Zm1.58-1.8c-.08.17-.62-.08-1.37-.53C997.7,205.42,1000.39,209.89,996.55,208.59ZM998.14,184c.84-1.72,8.91-5.09,6.23-1.6C1003.07,180.81,1000.48,185.45,998.14,184Zm4.32,3.71a7.78,7.78,0,0,0,.67.45C1002.21,188.43,1002,188.17,1002.46,187.75Zm1.42,17.15c.1-1.14-.39-2.25,1.38-1Zm1.78-17.39c-5.28,1.38-.2-4.29,2.76-.72a6.46,6.46,0,0,0-1.72.4C1004.4,186.17,1004,186.26,1005.66,187.51Zm2.28,1.83c0,.12-.35.07-.79-.08C1007.47,188.94,1007.93,189,1007.94,189.34Zm-.09,15.93c.45.26.73.44.73.5C1008.38,206,1007,205.79,1007.85,205.27Zm.07-24.3c-.92-.75-4-1.31-1.87-2.22C1006.76,179.53,1010.06,180.43,1007.92,181Zm2,6.65a9.17,9.17,0,0,1,2,1.26C1012.34,189.18,1007.72,188.34,1009.93,187.62Zm1.19-5.75a19.51,19.51,0,0,0,1.86,1C1013.39,183.14,1009.86,182.67,1011.12,181.87Zm1.91-1.57c.63-1.22,2.49,0,2.61.33C1015.56,181,1014.14,180.56,1013,180.3Zm2-1.63c1.23-1.53,1.82-1.17,1.94.24C1016.86,179.14,1016,179,1015,178.67Zm40,5c-1.23-.32-1.86-.52-.48-1.12C1055.36,183.05,1056.31,183.23,1055,183.68Zm.58,1.53c-.45.2-.81.31-.88.17C1054.71,185.07,1055.2,184.87,1055.6,185.21Zm-3.81-2.06c-15.37,7.46-6.23-.55,2.09-1C1053,183.29,1050.09,181.77,1051.79,183.15Zm2,1.16c-1.45.46-3.24,2.3-4.65,1.14C1050.78,184.92,1052.21,183,1053.76,184.31Zm.07,4.44c-.82.32-1.64.89-2.51.4C1052.07,188.64,1052.83,188,1053.83,188.75Zm.44-8.46a5.91,5.91,0,0,1,1.28,1C1055.29,181.68,1052.64,181,1054.27,180.29Zm-1.55-1.12c4,1.21-9.74,5.46-9.88,4.92A89.56,89.56,0,0,0,1052.72,179.17Zm-10.36,9.39c1-.21,5.24-3.37,7-2.24C1046.14,187.74,1043.13,188.83,1042.36,188.56Zm3.59,5.82a5.77,5.77,0,0,0,.55.46C1045.67,195,1045.37,194.76,1046,194.38Zm.45-.28c2-1,1.72-2.07,3.39-.4C1048.43,194.2,1047.45,195,1046.4,194.1Zm4.78,2.22c-.43-.26-1.55-.38-1.43-.88C1050.36,194.44,1053.58,195.92,1051.18,196.32Zm-.56-4.91a6.89,6.89,0,0,0,1.77,1.14C1050.72,193.64,1047.6,192.28,1050.62,191.41Zm3.34,8c-.8-.14-1-.24-.2-.63C1054.49,199.06,1054.85,199.12,1054,199.39Zm-.29-6.19c.7.36,1.24.65,1.24.78C1054.89,194.34,1051.69,193.87,1053.67,193.2Zm-.13-3.4c1.16-1.21,2.56.06,3.72.36C1056.26,190.92,1054.81,190,1053.54,189.8Zm2.58-1.89c-4,1-.19-2.9,1.38-1.8C1056.42,186.7,1055.59,186.68,1056.12,187.91Zm10.28,9.43c.14.28-.14.48,0,.78C1064.48,198.35,1064.68,197.9,1066.4,197.34Zm-.86,2.67c.15-.28,2.18-1.35,2.83-.21C1066.91,200.13,1065.63,200.33,1065.54,200Zm1.66-5.65c.37-.33,1.47-.68,1.94.17C1068.52,194.48,1067.3,194.77,1067.2,194.36Zm3.39,4.91c-2.39-3.31-5.61-.22-.45-3.89C1075,199.33,1076.07,200.84,1070.59,199.27Zm-.31-6.48c.78,1,4.27,3.06,7.62,4.91C1075.9,198.54,1066.65,193.46,1070.28,192.79Zm8.45,9.28c-3.1-2,2.75.68,2.81,1C1079.46,203.42,1077.16,203.81,1078.73,202.07Zm-.12-3.53c1.31-.44,5.61,2.77,5.94,2.61C1084.13,201.32,1079.49,200.26,1078.61,198.54Zm8.46-.91c-.21.68-8.53-2.65-8.56-2.35,12.54,7.68-3.3.17-8-2.63,6.3-3.84,4.13-2.78-.52-1.43-.07-.38,3.58-2.43,3.29-3-1.38-.25-4.85,1.21-6.46.9,5.48-6.2,14.56,2.92,11.09,2.51C1078.53,193.1,1087.67,196,1087.07,197.63Zm41.12-30.44c6.26,3.89,1.68,3.09-2,1.83C1126.3,173.43,1119.12,171.4,1128.19,167.19Zm.89,4.29c-.83.25-2.06.78-2.19.46A1.27,1.27,0,0,1,1129.08,171.48Zm-6.79,17.24a1.09,1.09,0,0,1,1.85-.2C1123.11,188.84,1122.4,189,1122.29,188.72Zm-2.12-1.5c-.18-4,6.13-1.79,7.1.15C1121.61,189.36,1128.41,185.59,1120.17,187.22Zm6.56-8.67a.89.89,0,0,1,1.6-.38C1127.46,178.54,1126.82,178.73,1126.73,178.55Zm1.29,2.68c2.06.68,4.93,2.16,5,2.12C1133.74,183.84,1125.73,182.6,1128,181.23Zm3.85-5.77c1.34,2.31-6.33,2.49-1.81-.79-.12-.33-6,2.41-6.19,1.83-14.23,2.77,2.89-1.72,5.76-4.68C1131.92,173.57,1135.75,174.92,1131.87,175.46Zm1.66,2c.56-.66,1.47-.72,1.75-.11C1135.24,177.65,1134.43,177.6,1133.53,177.5Zm12.75-8.69c-3.17,2.3,6.82,6.81,8.44,7.88-2.68-.61-6.11-2.2-9.2-3.42,3.1,1.48,1.27,2.72-1.31,2.19.4-.72,1.93-1.27,1.23-2.22a19,19,0,0,0-5.27-1.47C1139.13,170.13,1143.62,170,1146.28,168.81Zm-3.49,20.76c.26-.42,1.44-.45,2,.15C1143.65,189.89,1142.89,189.88,1142.79,189.57Zm-1-4.15c0-.54,7.79-1.19,6.14-.06C1147.78,185,1141.87,186.1,1141.75,185.42Zm7.26,3.29c-1.78-.55-1.52-.7-.1-1.23C1150.05,188.08,1150.86,188.35,1149,188.71Zm1.15-6.86c-2.43-1.67-4.05,1.85-3-.66C1132.49,182.38,1154,177.42,1150.16,181.85Zm-2.82-4c.36-1.95,3.85,1.48,4.27,1.83C1150.3,180.13,1148.84,178,1147.34,177.88Zm5.09,4a16.89,16.89,0,0,0,2.74,1.27C1155.72,183.51,1150,182.52,1152.43,181.86Zm-3-5.84c2,.66,5.68,3,6.32,3.16C1154.76,179.23,1146.64,177.26,1149.41,176Zm40-10.13c-1.18-.25-2.56-.61-3.63-.88C1186.39,163.43,1191.68,165.49,1189.39,165.89Zm-14.14-6.74c-4.64-.8,6.48-3,8.61-5.53a44.41,44.41,0,0,0,4.89,4.17c-7.19-1.24-3.76-1.74-2.45,2.32-4.47-.85-3.85-.44.35,1.9-4-1.29-4.67.26-8.45.47-.08-.4,4.09-2.11,3.86-2.65C1180.2,159.37,1176.48,160.82,1175.25,159.15Zm6.42,12.6c.59-.9,3.25.57,1.95.77A19.31,19.31,0,0,1,1181.67,171.75Zm-1.61,4.92a10.6,10.6,0,0,0,1.1-.47C1182.57,176.76,1180.81,177,1180.06,176.67Zm1.18-7.44c-2.71-.71,3.3-2.1,2.41-2.55C1188.22,166,1184.19,168.51,1181.24,169.23Zm-1.3.47c-.6.2-1.14.36-1.6.47C1176.68,169.74,1179.37,168.75,1179.94,169.7Zm0,13.29c0,.15,2.34-1.61,3.4-.67C1181.54,182.92,1180.06,183.31,1179.93,183Zm2.63-7.49c1.07-1,2.22,0,3.26.4C1184.72,176.64,1183.77,175.87,1182.56,175.5Zm2.22-5.53c1-1.18,2.81-.37,3.18.45C1187.87,170.78,1186.17,170.33,1184.78,170Zm2.08-1.28c1.11-1.53,3.78.21,4.54.35C1190.34,169.64,1188.29,168.79,1186.86,168.69Zm3.68-3.12a9.27,9.27,0,0,0,1.25.42C1191.63,166.3,1190.08,166.23,1190.54,165.57Zm21.1,11.26c-13.23,3.14-2.57-.33,4.3-4.58C1219.76,174.34,1214.67,175.22,1211.64,176.83Zm6.26-1.45c-.25.11-.05-.13-.08-.19C1217.83,173.5,1220.9,175.22,1217.9,175.38Zm44.17-46.31c.8-.34,1.61-.7,2.16-1C1265.25,129.27,1262.51,130.6,1262.07,129.07Zm1.41-3.52c.86.82-1.5,1.27-1.62,1A11.07,11.07,0,0,1,1263.48,125.55Zm-2.35,4.68c-.83.19-1.43.25-1.49.05S1261.51,129,1261.13,130.23Zm.11,2.33,0,.76C1259.39,133.69,1259.79,133.12,1261.24,132.56Zm.82-3.48c-.07.73-.25.65-.46.2ZM1263,145c-.14-.48-1.12-.22-1.25-.71C1262.81,143.27,1264.21,145.89,1263,145Zm1.67-14.58c.15,1.39-.08,2-1,1C1264.13,131,1263.81,130.88,1264.67,130.42Zm-.58,21.85c-.8-.43.32-.8.15-1.34C1266.52,149.69,1266.78,152.76,1264.09,152.27Zm3.35-23.86c-.55.34-4.13.93-2.54-1,7.87-5.6-6.09,1.28,3.07-4.62,1.16,3,3.25,5.92,7,9.37a21.73,21.73,0,0,1-7.61-6.62c.12.49.28,1,.44,1.45-.23-.22-.46-.45-.68-.68C1272.79,131.72,1263.3,133.75,1267.44,128.41Zm.06,21c.49.64,2.36,1.3.71,1.64C1267.4,150.47,1265.69,149.93,1267.5,149.45Zm-.25,5.08c-1.23-.43,1.34-1.58,1.83-.58A15.06,15.06,0,0,1,1267.25,154.53Zm5.1-20.12c-2.73-1.44-2.66-1.19-1.46.56C1267.39,133.7,1270.81,130.44,1272.35,134.41Zm-.46,18.37-.36.15C1269.78,152.31,1270.87,151.8,1271.89,152.78Zm0,4.35c-1.08-.43-1.27-.68-.1-1.11C1272.85,156.54,1273.22,156.74,1271.89,157.13Zm.19-1.27c.33.19.65.38,1,.56C1272.74,156.23,1271.61,156.09,1272.08,155.86Zm1.78-1.9-.55-.23C1273.47,153.61,1273.67,153.89,1273.86,154Zm.69,4.4c-.78-.31-1.84-.61-.55-1.05C1274.71,157.86,1275.92,158.1,1274.55,158.36Zm1,.38-.27-.17C1275.63,158,1276.39,159.06,1275.6,158.74Zm39.52-30.36a19,19,0,0,0,3.48-4.86C1319.72,125,1316.28,127,1315.12,128.38Zm2.89-5.53c.48,2-3.13,4.19-5,5.5C1315.09,126.83,1316.73,124.3,1318,122.85Zm-.14,16.21a42.53,42.53,0,0,1-14.68,6.72C1302.88,145.89,1316.28,138,1317.87,139.06Zm-.26-1.88c.41-.41.8-.84,1.17-1.27C1320.29,137.25,1320.1,138.27,1317.61,137.18ZM1307,155.31c.51-.07,1.23-.69,1.55-.37A7.93,7.93,0,0,1,1307,155.31Zm3.39-.92-.35-.23C1313,152.45,1314.34,153.37,1310.38,154.39Zm3.24-11.59c.54-.36.6-.53,1,0C1314.26,142.87,1313.78,143.05,1313.62,142.8Zm1.41,1.29c-.15-.36,0-.59,0-.9C1316,143.43,1315.75,144.52,1315,144.09Zm.41,7.34c.66-.6,1.55-.73,1.82,0A4.41,4.41,0,0,1,1315.44,151.43Zm.48-10.21c1.61-1.37,2.47-2.44,4-.5C1318.85,142.09,1318,142,1315.92,141.22Zm4.77-7.95a17.56,17.56,0,0,0,1.16-2.39C1322.67,132.27,1322.14,133.14,1320.69,133.27Zm-5.57-1.43c4.8,3.38-1.43,3.88-.54,4.6-10.55,5.32-4.4.47-.85-2.34-.2.11-.42.2-.62.31,1.09-1.35,0-.35-1.92.45,4.55-3,10-14.88,11.39-6.8C1318.51,127.81,1323.9,135.83,1315.12,131.84Zm34.41-2.52.2.23C1349.46,129.59,1349.32,129.44,1349.53,129.32Zm5.08-2.72a27.23,27.23,0,0,1-4.5,2.86C1351.06,127.27,1353.32,124.07,1354.61,126.6Zm-2.9,4.63c1.16,1.35,5.2,2.18.64,2.56C1350.61,133.43,1350.83,132.43,1351.71,131.23Zm1.56,11.71c-1.13-.3-.26-.8.07-1.39C1354.6,142.11,1354.56,142.53,1353.27,142.94Zm3,4.57c-1.27-.29-1.23-.63-.29-1.27C1356.47,146.8,1357.82,147.24,1356.3,147.51Zm1.62-3.23a32.93,32.93,0,0,0,3,1.64C1361.52,146.26,1356.57,145.3,1357.92,144.28Zm-3.05-5.15c.74-1.52.55-2.68-2.8-2.07.64-6.63,14.49,2.4,7.56.73-.21.57,5.84,2.92,5.8,3.31-4.35.44.34,1.25,1,2.43C1364.94,144.46,1357.31,140,1354.87,139.13Zm12.21-2.78c-3,2.65-21.27-7.88-10.95-8.25C1354.55,131.07,1368.17,134.17,1367.08,136.35Zm34-25.7c-1.66-6.47,3.37-4.49,9.45-.8-10.71-4.53-1.33-1.08-3.81,3.88-2.93-.6-1.18-1.36-.67-2.65-2.53,1-7.24,3.43-9.31,3.53C1387.73,115.21,1401.43,112.16,1401.06,110.65Zm-.64,5.11c1.65,1.21-.33,1.3-1.88,1.88C1396.59,116.72,1399.44,116.48,1400.42,115.76Zm-2.91,3.9c0-.07.25-.24.65-.46C1398.81,119.66,1397.78,119.94,1397.51,119.66Zm2.39-1.37c1.12-.5,1.95-1.5,2.74-.3C1401.67,118.48,1400.79,119,1399.9,118.29Zm-.31,5.95,1.79-1C1402.76,124,1399.43,124.5,1399.59,124.24Zm5.55-4.21c-.83.62-1.76-.33-2.59-.56C1403.63,118.4,1404.2,119.32,1405.14,120Zm-.39,6.64a32.16,32.16,0,0,0,3,2.44C1406.32,128.51,1401.25,127.94,1404.75,126.67Zm1-5.87c.37-.33.66.24,1,.39Zm-1-3.78c-.69-.26-1.1-1-1.46-1C1398.71,113,1410.38,115.53,1404.69,117Zm-7.57.22a3.32,3.32,0,0,0,.31.75C1392.8,119.32,1392.68,119,1397.12,117.24Zm0,15.21c.1-.33,1-.78,1.3,0C1397.76,132.57,1397.22,132.62,1397.16,132.45Zm1.38-4.72.12.25C1398.16,128,1398,127.94,1398.54,127.73Zm1.78,8c.13-.22.82-.51,1,.06C1400.81,135.86,1400.38,135.89,1400.32,135.72Zm-.52-3.56c-1.92-1.11.65-1.31,1.66-.38Zm4.57-5.84c-.62.18-1.52.48-2.44.78C1399.85,126.38,1403.89,124.64,1404.37,126.32Zm1.59,9.76a34.48,34.48,0,0,1-3-1.73C1404.31,132.75,1409,135.55,1406,136.08Zm1,9,.25.18C1407,145.24,1406.82,145.27,1407,145Zm4.41-7.16c-.58-.17-.93-1.41-1.46-.24C1403.61,135.74,1411.85,136.16,1411.4,137.88Zm-2.28-19.7c-9.38-2,5.91-.63,8.38,1.63C1413.87,120.26,1406.64,119.12,1409.12,118.18Zm28.23-22c1.92,2.43,5.25,5.37,6.27,7.23-4.42.77-6.22-2.17-5-5C1435.16,100,1435.89,98.51,1437.35,96.21Zm2.4,12.3c3.52-3.14,2.25,5.41-1.7,1.4C1438.93,109.39,1439.91,108.85,1439.75,108.51Zm-1.57-4.67c-1.18.18-4.27,2.23-5.89,1.5C1434.58,104.31,1436.8,100.67,1438.18,103.84Zm-6.38,1.86.15.24C1431.22,106.18,1431.16,106.13,1431.8,105.7Zm2.56,18.83.26.2C1433.67,124.84,1433.45,124.72,1434.36,124.53Zm-4-9.81c1.19-.3,3.7-2.57,4.46-1.25A14.21,14.21,0,0,1,1430.37,114.72Zm8.78,8.66c-3.53-.28.37-1.71,1.42-2.92C1443.08,125.61,1443.16,122.62,1439.15,123.38Zm2.09-12c-.09-2.05,2.43-1.26,2.79,1.35C1442.78,112.57,1441.59,111.48,1441.24,111.4Zm-1.93-18.3c2.25,2.21,8.14,6.11,8.32,6.28C1452.65,104.93,1433.82,96.38,1439.31,93.1Zm56.79,23a15.14,15.14,0,0,1,3,1.58C1498.31,118,1494.31,117.18,1496.1,116.06Zm.17,3.34c-2.06,2-4.33.58-2-1.2A11.55,11.55,0,0,0,1496.27,119.4Zm0-10c.54.58,2.6,1.5,2.52,1.88C1499,111.69,1494,110.47,1496.29,109.37Zm.48,4.29c-.1.21-.66.07-1.44-.25C1495.7,112.49,1496.68,113.53,1496.77,113.66Zm-3.83-1.39c.8-1.08,1.55-.09,2.44.39C1494.59,113.42,1493.85,112.7,1492.94,112.27Zm2.49-3.78c-.7.41-1.19.63-1.27-.9Zm-4.36-3.23c.74.66,1.93,1.51,3,2.25C1491.36,109.59,1487.74,106.79,1491.07,105.26Zm-1.93,1.81c4.74,3.81-2.69,1.79-.65,3.25C1485,111.76,1486.23,109.91,1489.14,107.07Zm3.42,6.75c-.25,1.35-4.7,2.77-5.37,3.12C1486.11,117.34,1491.54,112.19,1492.56,113.82Zm2.66,1.8c-.6,1-3.22.17-2,1.2C1486.6,121.4,1492.39,113.66,1495.22,115.62Zm-4.17,9.29.34.23C1490.49,125.45,1489.63,126,1491.05,124.91Zm1-3.38c.13-.69.42-.69,1.08-.21C1492.54,121.61,1492.12,121.73,1492.05,121.53Zm4.78,3.18c-1.11-.33-2.5-.83-3.8-1.32C1494.33,121.2,1499.9,124,1496.83,124.71Zm.43-4.75c.64.87,2.22,1.52,3.87,2.28C1500.07,123.24,1494,121.39,1497.26,120Zm21.15-20.27c0-.24,3.23-1.48,4.77-2.36C1524.94,98.93,1517.91,100.27,1518.41,99.69Zm0,12.47c-.94-1.54,2.91-2,3.52-3C1527.29,110.31,1519.52,112.93,1518.38,112.16Zm7.8.22c4.44,2.05-.3,2.09-3.45,3.24C1520.7,114.64,1523.59,113.83,1526.18,112.38Zm2.8,1.71c2.14.67,1,1-.5,1.54C1524.22,117.25,1527.08,115.33,1529,114.09Zm-5.18,8.15.46.29C1523.16,122.77,1522.59,122.63,1523.8,122.24Zm2.36,1.38.39.21C1526,124,1525.52,123.87,1526.16,123.62Zm2.64-6.1c-1.29-.4-.63-.62.25-1C1530,116.93,1530,117.51,1528.8,117.52Zm1.14-1.53c1-.77,1.55-.61,2.13.19C1531.43,116.68,1530.67,116.18,1529.94,116Zm-4.43-9.24c.32-1,2.89-1.81.3-2.31,5-4.5-1.4-.26-5.24.13,4.75-5.76,8.56-.91,14.2,1.51C1532.74,107.59,1527.19,108.59,1525.51,106.75ZM1550.73,120a17.77,17.77,0,0,1-5.17,1.59C1546.91,121.15,1549.67,118.46,1550.73,120Zm.18,2.33c.44.37-.74.48-1.13.74C1550,122.91,1550.41,122.64,1550.91,122.29Zm-1.91,22c1-.38,1.71-.79,2.51,0C1550.27,144.68,1549.35,144.74,1549,144.25Zm2.15-22.13c.62-.37,1.13-1.25,1.83-.41C1552.42,121.83,1551.68,122.56,1551.15,122.12Zm7.07,1.55c-.51-.37-3.44-1.09-2-2C1557.05,122.49,1559.22,123.1,1558.22,123.67Zm-.46-3.39c.79.73,3.57,1.23,2,2.11C1558.68,121.73,1556,121.29,1557.76,120.28Zm.39,4.88c1.34.84,2.33,1.43,2.4,1.43C1560.94,127,1556.81,126,1558.15,125.16Zm-1.35-7.78c1.79,1.34,6.89,3.91,6.93,4.12C1564.51,122.1,1554.33,119.11,1556.8,117.38Zm-1,3.13c-1.59-.62-1.7-.9-.48-1.73C1556.29,119.51,1558.1,119.91,1555.83,120.51Zm-.8.34c-1.26.87-2.73-.07-1.11-.85C1554.22,120.26,1554.6,120.54,1555,120.85Zm-.87,4.6c-.06.12.17.35.56.64C1551.24,128.73,1553.08,123.38,1554.16,125.45Zm-1.7,1.65c-.38.06-.54-.1-.33-.3Zm.27,2.33c1.12.65,1.66.95,0,1.31C1551.35,130.24,1551.72,130,1552.73,129.43Zm1.19,13.79c-1.22-.47-1.33-.72-.1-1.27C1554.7,142.42,1555.28,142.75,1553.92,143.22Zm1-20.13,2.14,1.41C1556.29,125.58,1553.43,123.82,1555,123.09Zm.47,8c.7.61,2.91,1.17,1.23,1.58C1555.77,132.28,1554.68,132.07,1555.44,131.14Zm2.61,9.66c-.5-.18-1-.39-1.62-.62C1556.83,139.29,1559.19,140.42,1558.05,140.8Zm2.37,5.17a13.9,13.9,0,0,1-1.45-.47C1559.26,144.44,1561.66,145.45,1560.42,146Zm.35-15.71c-1-.78-7.18-2-4.72-3.31C1557.1,128,1562,129.22,1560.77,130.26Zm1.29-.08a4.75,4.75,0,0,1,.91.53C1562.87,131,1561.42,130.73,1562.06,130.18Zm-1.19-8.15c1.81,1,3.27,1.74,3.34,1.75C1564.63,124.19,1559.74,123.2,1560.87,122Zm-3.54-8c7.35,3.93,7.86,8.7.23,2.08-.74.7-2.35,2.14-3.72,1.21,1,1.15-2.28,3-3.68,1.63,12.49-10.19,5-6.38,17.62-1.34C1567.46,118.52,1557.21,114,1557.33,114.06Zm61.57,21.58c1,.63,1.84,1.18,1.82,1.34C1620.91,137.3,1617.2,136.42,1618.9,135.64Zm-1.54,1.37a13.08,13.08,0,0,1,2.22,1.61C1620,139,1615.57,137.78,1617.36,137Zm-4.72,5.77c2.08.69-1.81,1.82-1.8,1.55S1611.65,143.51,1612.64,142.78Zm2.95,3.25c-1.71-.78-.43.44-1.86.75C1606.32,140.56,1625.42,148.48,1615.59,146Zm-.6-5.12c.93.77,2.71,1.84,2.64,2.15C1617.9,143.58,1613,141.8,1615,140.91Zm-1,11.15c1.1.69.06,1.79-1.36.82A10.45,10.45,0,0,1,1614,152.06Zm-1-4.06c.3.26.48.44.48.5S1612.06,148.31,1613,148Zm-.54,5.89c-.71.28-1.29.81-1.93.29C1611.14,153.8,1611.78,153.16,1612.47,153.89Zm-3.88-3.17c.83-.31,2.86-2.53,3.24-.71C1610.81,150.23,1609.45,151.44,1608.59,150.72Zm3-2.92c-.64-.36-1.34-.79-2-1.18C1610.47,145.4,1613.13,147.49,1611.61,147.8Zm-2.41-9.12c2.11,1.75,0,3.22-2.64,2.36C1606.4,140.63,1609.15,139.21,1609.2,138.68Zm-3.73,11.43c-.89-4.78,9.63-.59.78-1C1606.58,149.54,1606.44,150.48,1605.47,150.11ZM1608,160c-2.07-6.92,6,.9,7.74,1.51A66.47,66.47,0,0,0,1608,160Zm5.44-4.92c1.46-.1,5.17,2.4,5.55,2.44C1618.61,157.88,1612,155.17,1613.39,155.06Zm4-.91a46.92,46.92,0,0,1,4.53,2.23C1623,157.16,1614.47,155,1617.38,154.15Zm-3-13.94c.41.44-1.12,1.21-1.66.58,3.21-4.42,6.38.31,9.58,2.12C1622.11,143.62,1614.42,140,1614.43,140.21ZM1668.05,154c2.53,1.08-4.57,3.63-4.27,3.27C1663.76,157.12,1666.11,155.48,1668.05,154Zm-8.17,7.27c.08-.07,7.52-4.32,9.57-6.13C1672.35,157.06,1658.64,162.08,1659.88,161.26Zm12.59,2.32c-4.76-1.5-4.24-2.11-1.06-4C1673.86,161.08,1676.63,161.66,1672.47,163.58Zm1.09,3.23c-.14.51-2.68-.57-2.81-.11C1667.82,167.11,1673,164.83,1673.56,166.81Zm-1.59-7.72c.43-3.38,4.33.36,5,.36A31.43,31.43,0,0,1,1672,159.09Zm-3.79,0c-.06.28,2.65-3.88,4.06-2.23C1670.75,157.81,1668.39,159.45,1668.18,159.09Zm-5.79,7.53c-12.68,4.62,4.78-6.87,8-1.71-3.75,2.05-5.67,3.65-8.24,4C1662.68,167.58,1667.32,166.2,1662.39,166.62Zm3.54,5.74c.13-1.84-.53-4.06,1.71-2.34C1669.16,172.81,1670.52,173.66,1665.93,172.36Zm3.38-5.24c-.06.24.79.76,1.87,1.32C1668.71,169.2,1667,168.48,1669.31,167.12Zm1.63,6.39c-1.61-1.6,4.2-.26,4.18.27S1670.34,172.58,1670.94,173.51Zm3.13-2.88a.71.71,0,0,1,1.21,0C1675.23,170.82,1674.72,170.76,1674.07,170.63Zm-.73-6.71c2.3-2.89,4-1.37,4.5,1.11C1677.69,165.44,1675.62,164.79,1673.34,163.92Zm-2.81-12.31c-.2-.38-2.46,1.35-2.7.91,1.62-4.3,9.73,3.54,10.7,4.21C1673.72,156,1666.11,155.06,1670.53,151.61Zm46,29.55a2,2,0,0,1-2.62-.3C1715.21,179.85,1715.36,180.31,1716.55,181.16Zm-2.45-4.63c.56,1.17-.56.88-1.27,0C1712.88,175.75,1714.27,175.3,1714.1,176.53Zm-2.46,6.39c-2.1-.2,0-1.26.76,0C1712.17,183.11,1711.9,183,1711.64,182.92Zm.41-1.06c1.09-.77,1.51-.58,2.32.26A1.73,1.73,0,0,1,1712.05,181.86Zm3.06,1.86c-.88-.39-1.07-.66-.12-1.09C1716.28,183.74,1717.69,184.42,1715.11,183.72Zm1.65-2.41c2.12,1.44,4.91,3.08,5,3.22C1722.33,185.24,1714.8,182.63,1716.76,181.31Zm-1.27-1.47c-2-4.39,8.94,4.21,10.21,4.12C1724.69,184.32,1718.09,181.19,1715.49,179.84Zm27.87-5.2c-.11.47,7-3.55,8.17-1.63C1747.81,174.22,1743.59,175.34,1743.36,174.64Zm4,6.24a4.85,4.85,0,0,0,.4.56C1746.59,181.6,1746.44,181.28,1747.34,180.88Zm2.64,5c0-.31,1.58-1.22,1.83-.17C1750.79,186,1750.07,186.08,1750,185.86Zm2.81,5.26c-.44-.05.25-.19.29-.26Zm-3.93-9.87c-2.8-.93,5.57-4.39,5.32-1.1C1754.12,180,1751,180.82,1748.86,181.25Zm3.16-5.67c-.51,4.11-9.52,3.3,1.43-1.15C1757.33,176.06,1753.36,177.07,1752,175.58Zm3.08,1.44c-.25-.11.41-.27.58-.42A2.43,2.43,0,0,1,1755.1,177ZM1778,158.37c.77-1.59,3.84-3-1.38-1.69C1780.34,148.58,1781.45,163.93,1778,158.37Zm3.49,19.91c.32-.4.48-.4.84,0C1781.88,178.44,1781.56,178.48,1781.48,178.28Zm2.16,2c.23-.21.37-.89.76-.46Zm9.3,4.38c-2.91-.56-6.27-2.87-7.47-3C1781.62,178.15,1790.73,183.75,1792.94,184.66Zm-8.34.37c.29-.2.65-1.06,1.09-.68Zm2.67,2c-3-3.9,1.32-.89,4.55.42-.75-.21-1.5-.42-2.22-.65C1801.18,192.09,1794.65,190.35,1787.27,187.05Zm74.28-19.8c1.23.41-.6,1.09-1,1.64C1859.82,168.53,1861.34,167.77,1861.55,167.25Zm-4.41-.08c1.48-1.49,2-1.55,3.81-.25C1859.84,168.52,1858.78,168.28,1857.14,167.17Zm2.34-2a16.75,16.75,0,0,0,1.68-1.71C1863.88,164.5,1862.16,167.22,1859.48,165.19Zm3.88-.33c1.66.5.3,1.19-.39,1.93C1861.49,166.46,1863.12,165.56,1863.36,164.86Zm-3.5-5.2c1.31,1.24,4.71,2.17,4.21,3.29C1863.38,162.34,1858.38,161.14,1859.86,159.66Zm-1.15,1.71c1.57.7,1.91,1.51,1.63,2.14.32-.35.6-.53.79-.06a14.89,14.89,0,0,1-2,1.36,3.28,3.28,0,0,0,.73-.78,2.64,2.64,0,0,1-3,0C1858,169,1852.68,164.61,1858.71,161.37Zm-3.32,5.59c-.87.75-1.48.24-2.24-.31C1854.19,165.62,1854.36,166,1855.39,167Zm-2.85.11c-.42,3.88-14.5,7.77-20.79,8.61C1838.2,173.3,1847.54,171.13,1852.54,167.07Zm-6,6.69c9.09-5.84,12.47-4.59,3.55.39a64.65,64.65,0,0,1-16.53,4.93,61.72,61.72,0,0,0,17.84-7.4A50.35,50.35,0,0,1,1846.52,173.76Zm4.2,10.57a64.66,64.66,0,0,1-15.14,4.11C1839.85,186.79,1847.19,181.61,1850.72,184.33ZM1843.36,201c-.45-.24.58-.33.89-.51C1844.94,200.81,1843.75,200.79,1843.36,201Zm2.49-.66c-.8-.35.13-.4.58-.63C1847.27,200.09,1846.42,200.09,1845.85,200.3Zm3.63-1.1c-1.7-.46,1.56-1.68,2-.7C1850.85,198.74,1850.17,199,1849.48,199.2Zm.07-16.49c2.24-1.19,3.62-2,5.41-.07C1853,183.62,1851.23,184.29,1849.55,182.71Zm6.06,14.2c-.36-.15-.77-.35-1.22-.57C1855.18,195.5,1857.23,196.52,1855.61,196.91Zm1.6-2a2.69,2.69,0,0,1,.58.42C1857.74,195.55,1856.07,195.27,1857.21,194.92Zm.41-13.39c-1.4.94-2.31-.21-3.82-.91C1855,178.89,1858.71,180.69,1857.62,181.53Zm-1.25-13.77c.83.67,1.53,1.25,1.5,1.42C1858.11,169.48,1854.71,168.36,1856.37,167.76Zm5.42,11.46c-1.09-.46-2.25-1-3.38-1.51C1859,176.29,1863.77,178.75,1861.79,179.22Zm-1.69-2.81c1.14-1.58,3.13.67,4.61,1.08C1863.49,178.52,1861.68,176.82,1860.1,176.41Zm4.47-13.76a4.44,4.44,0,0,1,.73.51C1865.12,163.4,1864.07,163.08,1864.57,162.65Zm1,17.91a.33.33,0,0,1,.54-.06C1866.1,180.6,1865.89,180.6,1865.6,180.56Zm.38-9.64c-1.84-.45,1.8-1.43,2.15-.28C1868,171.14,1866.09,170.44,1866,170.92Zm1.68-3.83a2.62,2.62,0,0,1,.73.47C1868.12,167.87,1867.05,167.62,1867.66,167.09Z"/></g></g></svg>