<svg xmlns="http://www.w3.org/2000/svg" viewBox="0 0 432.81 33.91"><g id="Layer_2" data-name="Layer 2"><g id="Layer_2-2" data-name="Layer 2"><path d="M2.81,38.6V12.77H5.27l.36,3h.21a5.93,5.93,0,0,1,2.21-2.42,6.45,6.45,0,0,1,3.57-1,7.3,7.3,0,0,1,3.91,1.08,7.35,7.35,0,0,1,2.76,3.19,11.89,11.89,0,0,1,1,5.14,11.38,11.38,0,0,1-1,5.09A7.42,7.42,0,0,1,15.46,30a7.77,7.77,0,0,1-4.1,1.08,6.47,6.47,0,0,1-3.48-.89,5.44,5.44,0,0,1-2-2.07V38.6ZM11,28.21a4.89,4.89,0,0,0,3.76-1.6,7,7,0,0,0,1.47-4.89,7,7,0,0,0-1.47-4.89A4.9,4.9,0,0,0,11,15.22a4.89,4.89,0,0,0-3.75,1.61,7,7,0,0,0-1.48,4.89,7,7,0,0,0,1.48,4.89A4.89,4.89,0,0,0,11,28.21Z" transform="translate(-2.81 -4.69)"/><path d="M22.84,30.67v-26h3V15.48a5.45,5.45,0,0,1,2.38-2.26,7.59,7.59,0,0,1,3.64-.88,6.25,6.25,0,0,1,5,2,8.27,8.27,0,0,1,1.71,5.56V30.67h-3V20.27a5.51,5.51,0,0,0-1.17-3.75,4.12,4.12,0,0,0-3.27-1.33,5.31,5.31,0,0,0-2.63.65,4.87,4.87,0,0,0-1.91,1.91,6.18,6.18,0,0,0-.72,3.1v9.82Z" transform="translate(-2.81 -4.69)"/><path d="M49,31.1a7.29,7.29,0,0,1-3.53-.76,5,5,0,0,1-2.1-2,5.64,5.64,0,0,1-.68-2.73,4.8,4.8,0,0,1,2-4.16A9.08,9.08,0,0,1,50,20h4.9v-.36c0-3.12-1.43-4.69-4.29-4.69a5.2,5.2,0,0,0-2.9.76,3.51,3.51,0,0,0-1.5,2.38h-3.1A5.76,5.76,0,0,1,44.36,15,6.55,6.55,0,0,1,47,13a9.37,9.37,0,0,1,3.64-.68q3.83,0,5.58,2A7.82,7.82,0,0,1,58,19.66v11h-2.6l-.26-2.78h-.25a7.89,7.89,0,0,1-2.11,2.25A6.32,6.32,0,0,1,49,31.1Zm.54-2.67a5.07,5.07,0,0,0,2.94-.83,5.27,5.27,0,0,0,1.84-2.2,7.1,7.1,0,0,0,.63-3H50.29a5.45,5.45,0,0,0-3.44.83,3,3,0,0,0-.06,4.4A4.15,4.15,0,0,0,49.53,28.43Z" transform="translate(-2.81 -4.69)"/><path d="M62.56,30.67v-2.6h4.58V16.27a.78.78,0,0,0-.87-.9H63v-2.6h4.36a2.75,2.75,0,0,1,1.91.65A2.44,2.44,0,0,1,70,15.33v.76h.15a4.9,4.9,0,0,1,1.64-2.78,5.24,5.24,0,0,1,3.37-1h3.29v3.21H74.75A4.12,4.12,0,0,0,71.36,17a5.73,5.73,0,0,0-1.19,3.73v7.33H75.8v2.6Z" transform="translate(-2.81 -4.69)"/><path d="M80.7,30.67V12.77h2.49l.33,2.09h.18a4.37,4.37,0,0,1,1.42-1.8,3.78,3.78,0,0,1,2.33-.72,4,4,0,0,1,2.33.67,3.79,3.79,0,0,1,1.39,1.85h.14a4.21,4.21,0,0,1,1.51-1.8,4.36,4.36,0,0,1,2.53-.72,3.6,3.6,0,0,1,3.09,1.39,6.09,6.09,0,0,1,1,3.69V30.67h-3V17.89A3.54,3.54,0,0,0,96,15.84a1.89,1.89,0,0,0-1.68-.76,2.41,2.41,0,0,0-1.94.9,3.85,3.85,0,0,0-.76,2.56V30.67h-3V17.89a3.62,3.62,0,0,0-.5-2.05,1.84,1.84,0,0,0-1.66-.76,2.5,2.5,0,0,0-2,.9,3.85,3.85,0,0,0-.77,2.56V30.67Z" transform="translate(-2.81 -4.69)"/><path d="M108.52,31.1a7.36,7.36,0,0,1-3.54-.76,5,5,0,0,1-2.09-2,5.53,5.53,0,0,1-.68-2.73,4.77,4.77,0,0,1,2-4.16A9,9,0,0,1,109.56,20h4.91v-.36c0-3.12-1.43-4.69-4.29-4.69a5.23,5.23,0,0,0-2.91.76,3.46,3.46,0,0,0-1.49,2.38h-3.11a5.84,5.84,0,0,1,1.21-3.1,6.62,6.62,0,0,1,2.65-2,9.46,9.46,0,0,1,3.65-.68c2.55,0,4.4.67,5.57,2a7.77,7.77,0,0,1,1.75,5.32v11h-2.6l-.25-2.78h-.25a7.89,7.89,0,0,1-2.11,2.25A6.34,6.34,0,0,1,108.52,31.1Zm.54-2.67A5.11,5.11,0,0,0,112,27.6a5.27,5.27,0,0,0,1.84-2.2,7.1,7.1,0,0,0,.63-3h-4.65a5.48,5.48,0,0,0-3.45.83,2.74,2.74,0,0,0-1,2.2,2.7,2.7,0,0,0,.94,2.2A4.13,4.13,0,0,0,109.06,28.43Z" transform="translate(-2.81 -4.69)"/><path d="M130.16,31.1A8.39,8.39,0,0,1,125.85,30a8,8,0,0,1-3-3.23,10.55,10.55,0,0,1-1.12-5,10.52,10.52,0,0,1,1.12-5,7.87,7.87,0,0,1,3-3.23,8.33,8.33,0,0,1,4.27-1.12A8,8,0,0,1,135.47,14,7.4,7.4,0,0,1,138,18.44h-3.1a4.33,4.33,0,0,0-1.66-2.37,5.17,5.17,0,0,0-3.1-.88,5,5,0,0,0-2.6.72,5.21,5.21,0,0,0-2,2.16,7.77,7.77,0,0,0-.76,3.65,7.82,7.82,0,0,0,.76,3.66,5.2,5.2,0,0,0,2,2.18,5.52,5.52,0,0,0,5.75-.18A4.47,4.47,0,0,0,134.89,25H138a7.49,7.49,0,0,1-7.83,6.1Z" transform="translate(-2.81 -4.69)"/><path d="M142.5,30.67v-2.6h5.7V16.27a.8.8,0,0,0-.9-.9h-4.18v-2.6H148q3.21,0,3.21,3.21V28.07h5.7v2.6Zm7-21.07a2.41,2.41,0,0,1-1.8-.73A2.35,2.35,0,0,1,147,7.14a2.36,2.36,0,0,1,.72-1.75,2.47,2.47,0,0,1,1.8-.7,2.51,2.51,0,0,1,1.79.7,2.42,2.42,0,0,1,0,3.48A2.45,2.45,0,0,1,149.5,9.6Z" transform="translate(-2.81 -4.69)"/><path d="M169.74,31.1a8.91,8.91,0,0,1-5.54-1.61,6,6,0,0,1-2.36-4.42H165a3.55,3.55,0,0,0,1.46,2.42,5.44,5.44,0,0,0,3.37.94,4.45,4.45,0,0,0,3-.87,2.55,2.55,0,0,0,1-2,2.1,2.1,0,0,0-1.19-2.08,12.46,12.46,0,0,0-3.58-.84,10.75,10.75,0,0,1-4.72-1.56,4.09,4.09,0,0,1-1.88-3.68,4.46,4.46,0,0,1,1.84-3.64,8,8,0,0,1,5-1.44,7.76,7.76,0,0,1,4.94,1.42,5.63,5.63,0,0,1,2.06,4.06h-3a2.69,2.69,0,0,0-1.24-2.07,4.92,4.92,0,0,0-2.84-.78,4.79,4.79,0,0,0-2.74.67,2,2,0,0,0-1,1.75,2.06,2.06,0,0,0,1.1,1.78,7.93,7.93,0,0,0,3.48.92,17.88,17.88,0,0,1,3.43.73A5.26,5.26,0,0,1,176,22.4a4.57,4.57,0,0,1,.92,3,4.73,4.73,0,0,1-.88,2.91,6.31,6.31,0,0,1-2.55,2A9,9,0,0,1,169.74,31.1Z" transform="translate(-2.81 -4.69)"/><path d="M191.28,30.67a5.75,5.75,0,0,1-3.86-1.2Q186,28.29,186,25.18V15.37h-4.55v-2.6h2.71A1.93,1.93,0,0,0,186.3,11l.5-2.78H189v4.58h7.14v2.6H189v9.81a2.75,2.75,0,0,0,.7,2.13,3.75,3.75,0,0,0,2.44.61h4v2.75Z" transform="translate(-2.81 -4.69)"/><path d="M227.71,26.16V19.41H221V16.67h6.74V9.92h2.75v6.75h6.74v2.74h-6.74v6.75Z" transform="translate(-2.81 -4.69)"/><path d="M268.16,31.1A7.68,7.68,0,0,1,264.1,30a7.4,7.4,0,0,1-2.8-3.2,11.86,11.86,0,0,1-1-5.14,11.65,11.65,0,0,1,1-5.08,7.34,7.34,0,0,1,2.8-3.18,7.68,7.68,0,0,1,4.06-1.08,6.66,6.66,0,0,1,3.51.83,5.32,5.32,0,0,1,2.08,2.16V4.69h3v26h-2.49L274,27.89h-.21a5.59,5.59,0,0,1-2.13,2.34A6.46,6.46,0,0,1,268.16,31.1Zm.39-2.89a4.89,4.89,0,0,0,3.76-1.6,7,7,0,0,0,1.47-4.89,7,7,0,0,0-1.47-4.89,4.9,4.9,0,0,0-3.76-1.61,4.82,4.82,0,0,0-3.73,1.61,7.09,7.09,0,0,0-1.46,4.89,7.09,7.09,0,0,0,1.46,4.89A4.81,4.81,0,0,0,268.55,28.21Z" transform="translate(-2.81 -4.69)"/><path d="M288.79,31.1a8.4,8.4,0,0,1-4.45-1.17,8.29,8.29,0,0,1-3-3.29,10.29,10.29,0,0,1-1.12-4.92,10.57,10.57,0,0,1,1.1-4.93,8.12,8.12,0,0,1,3.05-3.28,8.65,8.65,0,0,1,4.54-1.17,8.07,8.07,0,0,1,4.44,1.17,7.76,7.76,0,0,1,2.82,3.09,8.89,8.89,0,0,1,1,4.11c0,.26,0,.53,0,.79s0,.57,0,.9H283.16a7,7,0,0,0,.92,3.3,5.25,5.25,0,0,0,2.06,2,5.67,5.67,0,0,0,2.65.65,5.12,5.12,0,0,0,3.1-.83,5,5,0,0,0,1.7-2.31h3a8,8,0,0,1-2.56,4.2A7.6,7.6,0,0,1,288.79,31.1Zm0-16.06a5.64,5.64,0,0,0-3.66,1.27,5.41,5.41,0,0,0-1.93,3.53h10.9a4.93,4.93,0,0,0-1.61-3.52A5.42,5.42,0,0,0,288.79,15Z" transform="translate(-2.81 -4.69)"/><path d="M306.69,30.67l-7.87-17.9h3.46l6.17,14.58,6.21-14.58h3.43l-7.9,17.9Z" transform="translate(-2.81 -4.69)"/><path d="M328.48,31.1A8.14,8.14,0,0,1,321,26.64a10.41,10.41,0,0,1-1.12-4.92,10.57,10.57,0,0,1,1.1-4.93A8.19,8.19,0,0,1,324,13.51a8.68,8.68,0,0,1,4.55-1.17A8.12,8.12,0,0,1,333,13.51a7.81,7.81,0,0,1,2.81,3.09,8.89,8.89,0,0,1,1,4.11c0,.26,0,.53,0,.79s0,.57,0,.9H322.85a6.87,6.87,0,0,0,.92,3.3,5.22,5.22,0,0,0,2.05,2,5.71,5.71,0,0,0,2.66.65,5.14,5.14,0,0,0,3.1-.83,5.06,5.06,0,0,0,1.69-2.31h3a8,8,0,0,1-2.56,4.2A7.62,7.62,0,0,1,328.48,31.1Zm0-16.06a5.65,5.65,0,0,0-3.67,1.27,5.46,5.46,0,0,0-1.93,3.53h10.9a4.89,4.89,0,0,0-1.61-3.52A5.4,5.4,0,0,0,328.48,15Z" transform="translate(-2.81 -4.69)"/><path d="M340,30.67v-2.6h6.1V8.19a.8.8,0,0,0-.9-.9h-4.55V4.69h5.27a3.25,3.25,0,0,1,2.38.83,3.23,3.23,0,0,1,.83,2.38V28.07h6.1v2.6Z" transform="translate(-2.81 -4.69)"/><path d="M368,31.1a8.61,8.61,0,0,1-4.47-1.16,8.12,8.12,0,0,1-3.07-3.26,10.4,10.4,0,0,1-1.12-5,10.37,10.37,0,0,1,1.12-5,8.15,8.15,0,0,1,3.07-3.27,9.26,9.26,0,0,1,8.94,0,8.15,8.15,0,0,1,3.07,3.27,10.37,10.37,0,0,1,1.12,5,10.4,10.4,0,0,1-1.12,5,8.12,8.12,0,0,1-3.07,3.26A8.61,8.61,0,0,1,368,31.1Zm0-2.89a5.87,5.87,0,0,0,2.81-.68,4.89,4.89,0,0,0,2-2.13,8.08,8.08,0,0,0,.74-3.68A8.08,8.08,0,0,0,372.8,18a4.89,4.89,0,0,0-2-2.13,5.76,5.76,0,0,0-2.81-.69,5.7,5.7,0,0,0-2.78.69,5,5,0,0,0-2,2.13,7.94,7.94,0,0,0-.76,3.68c0,2.23.55,3.88,1.63,4.92A5.43,5.43,0,0,0,368,28.21Z" transform="translate(-2.81 -4.69)"/><path d="M379.81,38.6V12.77h2.46l.36,3h.21a5.9,5.9,0,0,1,2.2-2.42,6.48,6.48,0,0,1,3.58-1,7.14,7.14,0,0,1,6.67,4.27,11.89,11.89,0,0,1,1,5.14,11.38,11.38,0,0,1-1,5.09A7.42,7.42,0,0,1,392.46,30a7.77,7.77,0,0,1-4.1,1.08,6.47,6.47,0,0,1-3.48-.89,5.44,5.44,0,0,1-2-2.07V38.6ZM388,28.21a4.86,4.86,0,0,0,3.75-1.6,7,7,0,0,0,1.48-4.89,7,7,0,0,0-1.48-4.89,5.17,5.17,0,0,0-7.5,0,7,7,0,0,0-1.48,4.89,7,7,0,0,0,1.48,4.89A4.89,4.89,0,0,0,388,28.21Z" transform="translate(-2.81 -4.69)"/><path d="M407.84,31.1a8.13,8.13,0,0,1-7.5-4.46,10.29,10.29,0,0,1-1.12-4.92,10.57,10.57,0,0,1,1.1-4.93,8.19,8.19,0,0,1,3.05-3.28,8.66,8.66,0,0,1,4.55-1.17,8.06,8.06,0,0,1,4.43,1.17,7.76,7.76,0,0,1,2.82,3.09,8.89,8.89,0,0,1,1,4.11c0,.26,0,.53,0,.79s0,.57,0,.9H402.22a6.87,6.87,0,0,0,.92,3.3,5.22,5.22,0,0,0,2.05,2,5.7,5.7,0,0,0,2.65.65,5.15,5.15,0,0,0,3.11-.83,5.06,5.06,0,0,0,1.69-2.31h3a8.08,8.08,0,0,1-2.56,4.2A7.63,7.63,0,0,1,407.84,31.1Zm0-16.06a5.64,5.64,0,0,0-3.66,1.27,5.46,5.46,0,0,0-1.93,3.53h10.9a4.89,4.89,0,0,0-1.61-3.52A5.41,5.41,0,0,0,407.84,15Z" transform="translate(-2.81 -4.69)"/><path d="M419.71,30.67v-2.6h4.59V16.27a.78.78,0,0,0-.87-.9h-3.25v-2.6h4.37a2.76,2.76,0,0,1,1.91.65,2.44,2.44,0,0,1,.72,1.91v.76h.15A4.85,4.85,0,0,1,429,13.31a5.22,5.22,0,0,1,3.37-1h3.28v3.21h-3.71A4.12,4.12,0,0,0,428.52,17a5.68,5.68,0,0,0-1.19,3.73v7.33H433v2.6Z" transform="translate(-2.81 -4.69)"/></g></g></svg>