<svg xmlns="http://www.w3.org/2000/svg" viewBox="0 0 170.25 82.11">
  <defs>
    <style>
      .cls-1 {
        fill: #d2e49a;
      }
    </style>
  </defs>
  <g id="Layer_2" data-name="Layer 2">
    <g id="mortar-pestle-logo">
      <g>
        <path class="cls-1" d="M137.59,72.18a1.34,1.34,0,0,1-1.33-1.33V64a1.33,1.33,0,0,1,.69-1.16l23.88-13.2L137,36.55a1.33,1.33,0,0,1-.69-1.16V28.51a1.33,1.33,0,0,1,1.34-1.33,1.26,1.26,0,0,1,.65.17L169.57,44.9a1.34,1.34,0,0,1,.68,1.16v7.23a1.32,1.32,0,0,1-.68,1.16L138.25,72a1.37,1.37,0,0,1-.65.17Z"/>
        <path class="cls-1" d="M32.66,72.18A1.34,1.34,0,0,1,32,72L.68,54.45A1.32,1.32,0,0,1,0,53.29V46.06A1.34,1.34,0,0,1,.68,44.9L32,27.35a1.24,1.24,0,0,1,.65-.17A1.33,1.33,0,0,1,34,28.51v6.88a1.31,1.31,0,0,1-.69,1.16L9.43,49.68,33.3,62.88A1.31,1.31,0,0,1,34,64v6.81a1.3,1.3,0,0,1-.41,1,1.33,1.33,0,0,1-.92.37Z"/>
      </g>
      <g>
        <path class="cls-1" d="M132,1.72A4.66,4.66,0,0,0,128.35,0a4.87,4.87,0,0,0-3.42,1.37L106.55,17.45H42.71c-1,0-1.79.45-1.79,1v7.8c0,.56.8,1,1.79,1h1.95c-2.56,15.08,1.24,30,10.44,39.45A33.28,33.28,0,0,0,60,70.85v9.06a2.45,2.45,0,0,0,.3,1.24.85.85,0,0,0,.71.51q11.73.45,24.27.45,12.2,0,23.64-.45c.56,0,1-.78,1-1.75V70.85a33.28,33.28,0,0,0,4.92-4.13c9.2-9.43,13-24.37,10.44-39.45h2c1,0,1.78-.45,1.78-1v-7.8a.87.87,0,0,0-.52-.71,2.76,2.76,0,0,0-1.26-.3h-4.36c2.71-3.2,5.49-6.3,8.39-9.17A4.84,4.84,0,0,0,132,1.72ZM96.41,70.23l-5-5.89h-.35a7.86,7.86,0,0,1-3.1,4.8,10.3,10.3,0,0,1-6.27,1.8A12.13,12.13,0,0,1,76.91,70a10.18,10.18,0,0,1-3.56-2.5,11.16,11.16,0,0,1-2.21-3.68,13,13,0,0,1-.76-4.5,12.64,12.64,0,0,1,7.36-11.66,25.31,25.31,0,0,1-2.8-4.48,10.68,10.68,0,0,1-1-4.65,9.78,9.78,0,0,1,.85-4.09,10,10,0,0,1,2.33-3.21,10.17,10.17,0,0,1,3.5-2.09,12.43,12.43,0,0,1,4.33-.74,11.59,11.59,0,0,1,6.8,2.12,9.63,9.63,0,0,1,2.21,2.15,10.63,10.63,0,0,1,1.36,2.44l-4.77,2.48a6.84,6.84,0,0,0-2.18-3,5.6,5.6,0,0,0-3.53-1.15,4.93,4.93,0,0,0-3.63,1.39,4.82,4.82,0,0,0-1.38,3.56v.41A6.09,6.09,0,0,0,80,40.55a8.13,8.13,0,0,0,.76,1.77,21.23,21.23,0,0,0,1.38,2.09c.57.76,1.27,1.68,2.1,2.74l4.47,5.53,3.71,4.89h.29a33.08,33.08,0,0,0,.53-5c.08-1.88.14-3.65.18-5.3h9.25v5h-4.3c-.24,1.65-.5,3.17-.8,4.56a26.61,26.61,0,0,1-1.44,4.57l7.36,8.83Z"/>
        <path class="cls-1" d="M77.44,54.65a10.25,10.25,0,0,0-.82,4.1v.53A6.11,6.11,0,0,0,78.47,64a7,7,0,0,0,4.92,1.71A8.09,8.09,0,0,0,87,64.9a6.11,6.11,0,0,0,2.62-2.5L80.51,51.15A8.59,8.59,0,0,0,77.44,54.65Z"/>
      </g>
    </g>
  </g>
</svg>
