<svg xmlns="http://www.w3.org/2000/svg" viewBox="0 0 267.31 123.68">
  <defs>
    <style>
      .cls-1 {
        fill: #d2e49a;
      }
    </style>
  </defs>
  <g id="Layer_2" data-name="Layer 2">
    <g id="mortar-pestle-logo">
      <g id="greater-less-than">
        <g>
          <path class="cls-1" d="M0,78.76V64.3a1,1,0,0,1,.52-.89L63.2,28.29a1,1,0,0,1,1.51.88V42.79a1,1,0,0,1-.52.89l-48.76,27a1,1,0,0,0-.53.89h0a1,1,0,0,0,.53.89L64.19,99.23a1,1,0,0,1,.52.89v13.77a1,1,0,0,1-1.51.88L.52,79.65A1,1,0,0,1,0,78.76Z"/>
          <path class="cls-1" d="M203.12,99.38l48.76-27a1,1,0,0,0,.53-.89h0a1,1,0,0,0-.53-.89L203.12,43.83a1,1,0,0,1-.53-.9V29.17a1,1,0,0,1,1.52-.88l62.68,35.12a1,1,0,0,1,.52.89V78.76a1,1,0,0,1-.52.89l-62.68,35.12a1,1,0,0,1-1.52-.88V100.27A1,1,0,0,1,203.12,99.38Z"/>
        </g>
      </g>
      <g id="mortar-pestle">
        <path class="cls-1" d="M187.92,11,157.83,71.26c-1.86,3.73-6,5.47-9.13,3.88l-2.93-1.46c-3-1.49-9.9-7.11-8.15-10.61L173.73,4.19c1.75-3.5,5.58-5.13,8.56-3.64l3.48,1.74C188.64,3.72,189.61,7.63,187.92,11Z"/>
        <path class="cls-1" d="M143.52,116.8H123.79c-.37,0-.73,0-1.1,0A43.49,43.49,0,0,1,95.46,104C82.35,90.58,77.82,68.4,83.55,47A11.81,11.81,0,0,0,84,45a4.21,4.21,0,0,1,4-4h91.34a4.2,4.2,0,0,1,4,4,12.91,12.91,0,0,0,.43,2C189.49,68.4,185,90.58,171.85,104a43.49,43.49,0,0,1-27.24,12.74C144.25,116.78,143.88,116.8,143.52,116.8Z"/>
        <path class="cls-1" d="M164.27,123.1q-14.61.56-30.23.58-16,0-31-.58c-.09,0-.54,0-.91-.65a3.16,3.16,0,0,1-.38-1.58V103.68c0-1.23.58-2.23,1.29-2.23h61.23a1.1,1.1,0,0,1,.91.66,3.22,3.22,0,0,1,.38,1.57v17.19C165.56,122.1,165,123.1,164.27,123.1Z"/>
        <path class="cls-1" d="M187.68,53.6H79.62c-1.25,0-2.28-.58-2.28-1.3v-10c0-.71,1-1.29,2.28-1.29H187.68a3.52,3.52,0,0,1,1.61.38,1.09,1.09,0,0,1,.67.91v10C190,53,188.94,53.6,187.68,53.6Z"/>
      </g>
    </g>
  </g>
</svg>
