<svg xmlns="http://www.w3.org/2000/svg" viewBox="0 0 359.9795 549.5596"><defs><style>.cls-1{fill:#fff;}</style></defs><g id="Layer_2" data-name="Layer 2"><g id="outer-cup"><path class="cls-1" d="M123.4453,549.1615c10.9431.4967,23.4019.4295,36.5711.321,42.1243-.3471,71.7005-.2629,76.55-13.77a11.62,11.62,0,0,0,.5223-5.5859c-11.8577,5.2908-32.3757,11.1017-68.9922,15.3828C149.8483,547.6432,134.7648,548.677,123.4453,549.1615Z"/><path class="cls-1" d="M169.2611,515.8555a332.39,332.39,0,0,0,47.8855-14.6293q-7.7483-14.6628-15.4668-29.7485-10.1841-19.9121-19.7392-39.4453l.033-7.5784c-5.8566,1.1776-10.3659,1.9831-14.1629,2.6614a196.9314,196.9314,0,0,0-20.1475,4.3741c-5.8852,1.6194-11.6748,3.4909-17.295,5.5792q-21.14,39.6417-42.28,79.2836a38.6977,38.6977,0,0,0-4.9753,8.9606c1.8565-.0516,4.6323-.1383,7.994-.2808C109.77,524.2408,137.64,522.9419,169.2611,515.8555Z"/><path class="cls-1" d="M179.7457,270.8884c.9836-.0481,1.9463-.096,2.9-.144q.021-4.82.0421-9.6393l-49.07.4585q-.0267,6.2871-.0534,12.5741c12.4556-1.7058,25.457-2.3067,38.1072-2.8758Q175.71,271.08,179.7457,270.8884Z"/><path class="cls-1" d="M164.1118,321.8147c-7.0865.456-14.4131.9277-21.7881,1.4863-2.7063.3489-5.79.9144-8.9284,1.6244l-.0324,7.6249-.0567,40.304c-.0384-.0088-.076-.0191-.1144-.0279q-.0272,6.3974-.0543,12.7948.7664-.1926,1.5646-.39c15.4868-3.838,31.4553-7.0155,47.5311-9.4754q.1207-27.5895.2413-55.1792-1.1611.085-2.3227.1692C174.8608,321.1223,169.5161,321.466,164.1118,321.8147Z"/><path class="cls-1" d="M310.8688,112.8493q-2.2368.1539-4.499.3042t-4.5469.2984q-2.2837.1479-4.5928.292t-4.64.2851q-2.3307.1407-4.6846.2774t-4.73.27q-2.376.1332-4.7754.2617-2.3979.1289-4.8193.2529t-4.8623.2437q-2.4434.1194-4.9063.2344t-4.9492.2241q-2.4843.109-4.9912.2134-2.5049.1039-5.0322.2026t-5.0733.1909q-2.5473.093-5.1142.1792t-5.1533.167q-2.5869.0805-5.1924.1543-2.4507.07-4.89.1323t-4.8672.1192q-2.4287.0564-4.8447.1059t-4.82.0928q-2.4052.0432-4.7969.08t-4.7715.0674q-2.3789.0307-4.746.0546t-4.72.0425q-2.3525.0183-4.6933.03t-4.6656.0181q-2.3254.0066-4.6377.0063t-4.6093-.0049q-2.2977-.0058-4.5806-.0166t-4.5513-.0278q-2.2683-.016-4.521-.0386l-.1689-.0156c-.3081.0034-.6245.0073-.93.0073s-.6221-.0034-.93-.0068l-.17.0156q-2.24.022-4.4951.0391t-4.5249.0283q-2.27.0117-4.5537.0176t-4.583.0058q-2.2985,0-4.6109-.0058t-4.6386-.0176q-2.3262-.0117-4.6656-.03t-4.6924-.0415q-2.3525-.0242-4.7182-.0542t-4.7437-.0669q-2.3781-.0366-4.7685-.08t-4.7925-.0928q-2.4017-.049-4.8154-.1054t-4.8389-.1187q-2.4251-.063-4.8608-.1323-2.5929-.0732-5.1665-.1538t-5.128-.167q-2.5539-.0864-5.0879-.1792t-5.0478-.1914q-2.5137-.0988-5.0073-.2026t-4.9659-.2139q-2.4719-.11-4.9238-.2246t-4.8813-.2344q-2.43-.12-4.8384-.2441t-4.7949-.2535q-2.3863-.1288-4.75-.2622t-4.7066-.271q-2.3415-.1369-4.6611-.2783t-4.6157-.2856q-2.2962-.145-4.5694-.293t-4.5234-.2988q-2.25-.1517-4.4761-.3057a2.917,2.917,0,0,0-2.44,1.27,1.8452,1.8452,0,0,0-.1611,2.3218q1.9629,2.2361,3.8471,4.479T7.88,125.405q1.8039,2.2419,3.5269,4.4785t3.3628,4.4614q1.64,2.2251,3.1977,4.4341T21,143.175q1.4751,2.187,2.8677,4.3486t2.7041,4.292q1.3118,2.13,2.543,4.2256t2.3833,4.1509q1.152,2.0551,2.2275,4.0679,1.0752,2.0112,2.0757,3.9756t1.9277,3.8764q.928,1.9124,1.7857,3.7691t1.6484,3.6533q.7911,1.7965,1.5176,3.5308t1.3926,3.4008q.857,2.1438,1.6538,4.2476.8019,2.1057,1.5722,4.1767c.5171,1.3819,1.03,2.7535,1.5479,4.1177s1.042,2.72,1.5815,4.0708,1.0938,2.6958,1.6734,4.0376,1.185,2.68,1.8252,4.0176,1.3154,2.6738,2.0356,4.0117,1.4859,2.6768,2.3067,4.02,1.6958,2.69,2.6362,4.0425,1.9458,2.7114,3.0259,4.0791,2.2348,2.7442,3.4741,4.1314,2.5625,2.7851,3.98,4.1972q2.4894,2.4793,5.04,4.708,2.5437,2.231,5.1094,4.2207,2.559,1.9923,5.1011,3.7544,2.5356,1.7637,5.018,3.3086,2.4756,1.547,4.8623,2.8858c1.5869.8935,3.1367,1.72,4.6372,2.4839s2.9517,1.4643,4.3433,2.1059,2.7222,1.2241,3.9819,1.7515,2.4483,1,3.5537,1.42,2.1294.7915,3.06,1.1143,1.7666.6,2.4981.8334,1.3588.4244,1.87.5767q2.7231.8115,5.353,1.4522,2.628.643,5.1528,1.13,2.5225.4908,4.9317.8418,2.4075.3546,4.69.586,2.2808.2351,4.4273.3642,2.1444.1318,4.1425.1753,1.9966.0462,3.8355.021,1.8376-.0227,3.5054-.1,1.6743.0747,3.5229.1006,1.8465.0227,3.855-.02,2.0061-.0462,4.1636-.1748,2.1548-.1311,4.4492-.3628,2.2925-.2344,4.7138-.5855,2.4192-.3537,4.9561-.8408,2.5356-.49,5.1777-1.13,2.6412-.643,5.3789-1.4516c.5137-.1524,1.1446-.3433,1.88-.5767s1.5752-.51,2.51-.833,1.9629-.6934,3.0742-1.1143,2.3047-.893,3.57-1.42,2.6035-1.1094,4.001-1.751,2.8564-1.3422,4.3643-2.1059,3.0644-1.59,4.6582-2.4839,3.2275-1.8545,4.8857-2.8857,3.3428-2.1329,5.041-3.3091,3.4111-2.4263,5.125-3.7544,3.43-2.7339,5.1338-4.2212,3.3965-3.0557,5.0645-4.709q2.1357-2.1174,3.998-4.1978,1.8676-2.0808,3.49-4.1313,1.6275-2.0516,3.04-4.08,1.4179-2.0295,2.6494-4.0429,1.2363-2.0142,2.3174-4.0206,1.0869-2.0067,2.0459-4.0122.9653-2.0061,1.8349-4.018.8732-2.0127,1.6817-4.0381c.542-1.3506,1.0683-2.707,1.59-4.0713s1.0361-2.7358,1.5567-4.1177,1.0429-2.7734,1.581-4.1772,1.0889-2.8189,1.6631-4.2481q.6709-1.6669,1.4014-3.4013t1.5263-3.5313q.7955-1.7965,1.6582-3.6538t1.7969-3.769q.9331-1.9124,1.94-3.8765t2.0888-3.9766q1.0811-2.0119,2.2412-4.0678t2.3985-4.1509q1.2391-2.0955,2.5586-4.2261t2.7207-4.292q1.4018-2.1606,2.8867-4.3486t3.0518-4.396q1.5673-2.2083,3.2187-4.4336t3.3848-4.4614q1.7328-2.2354,3.5488-4.4781,1.8164-2.2412,3.7129-4.4834t3.8721-4.478a1.8378,1.8378,0,0,0-.1582-2.3218A2.9341,2.9341,0,0,0,310.8688,112.8493Z"/></g><g id="top"><g id="middle"><path class="cls-1" d="M108.169,468.9014q9.9486-17.4573,19.8974-34.9146A189.9631,189.9631,0,0,1,152.7205,425.9c9.8384-2.5,13.1714-2.5077,30.9446-5.8517,26.3443-4.9566,30.7922-7.1538,33.9284-9.0011,5.4457-3.2076,15.5179-9.14,19.0217-21.0581a32.53,32.53,0,0,0-1.597-21.85c-6.6652-14.9507-26.4558-23.7761-49.3025-21.5259l.0786,31.6922c-19.5734,2.934-35.622,6.4812-47.3336,9.4045-16.1933,4.0421-20.6432,6.03-23.8592,7.69-8.289,4.2787-29.52,15.2379-31.7115,35.8066-1.154,10.8311,3.0175,23.894,12.8063,31.6693A32.2927,32.2927,0,0,0,108.169,468.9014Z"/></g><g id="bottom"><path class="cls-1" d="M242.2947,473.6648c-7.3231-6.8232-14.9243-9.52-21.7549-11.881a83.1112,83.1112,0,0,0-21.6855-4.3718q8.4687,16.0032,16.8408,32.61,3.5411,7.0288,6.9822,14.0078c-3.9044,1.5713-10.475,4.1249-18.7359,6.8617-48.0191,15.9084-90.6782,17.3076-124.55,18.181-20.0866.5178-35.5821.1171-35.5822.1171-28.2778-.88-42.6179-3.7046-43.0011-1.4777-.5452,3.1682,27.6636,10.5689,50.1831,14.33a338.3018,338.3018,0,0,0,50.3513,4.1505c7.7348.1087,30.2239-.0663,63.0859-4.0107,63.4447-7.6152,76.1881-19.66,81.3041-25.8684,2.9578-3.59,9.55-11.83,8.519-22.3727C253.2688,483.89,245.8727,476.9985,242.2947,473.6648Z"/></g><path class="cls-1" d="M348.1169,67.0954C318.8137-1.339,222.1053-23.5954,170.3786,29.4461c-.1423.0955-.2878.1822-.4278.2838-5.1954,3.7706-13.0063,11.3239-14.7146,17.9539-3.5264,13.6857.7353,25.3348-.0861,31.7278-.526,4.0936-6.7692,12.5459-4.4207,15.8532a3.6333,3.6333,0,0,0,2.1332,1.2285,63.4656,63.4656,0,0,1-9.8058,7.5017l5.5269-2.0784q-.3387,2.1216-.6776,4.2431l6.53-9.4c5.0727.4889,13.0687-1.4947,13.0687-1.4947a123.8973,123.8973,0,0,0,28.6309-25.7279c7.3686-9.06,8.1474-12.6261,11.7569-16.4094,17.0554-17.8767,69.7109-11.672,95.3262,19.7583,36.4393,44.7113-.1168,118.0476-3.8057,125.21-18.0594,35.0653-52.2441,55.3309-60.6078,60.1826a110.2164,110.2164,0,0,1-10.8654,5.6056c-17.6159,7.8638-31.6831,8.8438-52.1807,10-15.6047.8806-31.3644,1.2954-46.0645,4.3475C112.7928,281.7417,97.2927,288.74,85.0468,303.96c-18.2392,27.547,9.2919,58.2862,33.8124,65.8287,3.5007,1.1948,7.08,2.1915,10.5037,3.0659l1-43.3584v-5.9745A62.7346,62.7346,0,0,1,142.9,320.3157c11.2561-.9844,22.1822-1.6851,32.8591-2.5622,36.6049-3.0071,70.2527-8.1085,103.9833-34.0064,36.4121-27.9568,55.7141-62.1358,61.9505-76.1331C350.4143,188.0384,374.1942,127.9961,348.1169,67.0954ZM176.6625,50.9132,173.555,53.33a1.89,1.89,0,0,1-2.8818-2.2713l1.6237-3.5863a1.89,1.89,0,0,1,2.8913-.7049l1.4839,1.1695A1.89,1.89,0,0,1,176.6625,50.9132Z"/></g></g></svg>