<svg xmlns="http://www.w3.org/2000/svg" viewBox="0 0 404.58 86.96"><defs><style>.cls-1{fill:#231f20;}</style></defs><g id="Layer_2" data-name="Layer 2"><g id="Layer_1-2" data-name="Layer 1"><path class="cls-1" d="M0,.74H14.65q9,0,13.34,2.48a23.13,23.13,0,0,1,7.87,7.84q3.48,5.35,3.48,13.55,0,10.31-6.08,17.21T16.51,48.73H0ZM11,9.56V39.69h4.63q6.14,0,9.12-4.59a19.31,19.31,0,0,0,3-10.77,19,19,0,0,0-1.7-8.07,11.12,11.12,0,0,0-4.23-5.2,11.64,11.64,0,0,0-6.06-1.5Z"/><path class="cls-1" d="M68.62.74l15,48H71.55l-3-9.88H53.08l-3,9.88H40.22L55.6.74ZM55.78,30H66l-5-16.84Z"/><path class="cls-1" d="M122.17.74l-14.5,48H95.59L81.18.74h12l9.6,34.31,10-34.31Z"/><path class="cls-1" d="M137.71.74v48H126.49V.74Z"/><path class="cls-1" d="M147.34.74H162q9,0,13.34,2.48a23.13,23.13,0,0,1,7.87,7.84q3.48,5.35,3.48,13.55,0,10.31-6.08,17.21t-16.75,6.91H147.34Zm11,8.82V39.69H163q6.13,0,9.12-4.59a19.31,19.31,0,0,0,3-10.77,19,19,0,0,0-1.7-8.07,11.12,11.12,0,0,0-4.23-5.2,11.64,11.64,0,0,0-6.06-1.5Z"/><path class="cls-1" d="M249.08.74v48H238V28.93h-15v19.8H212V.74h11v18.7h15V.74Z"/><path class="cls-1" d="M269.93.74v48H258.71V.74Z"/><path class="cls-1" d="M318.27,18.6l-11.78.74q-.24-10.17-7.92-10.16-8.82,0-8.81,15.64,0,9,2.39,12.25a7.87,7.87,0,0,0,6.7,3.22q7,0,8.52-9.07l10.9.67q-1,8.61-6.42,13.09a21.5,21.5,0,0,1-28.61-2.09q-6-6.57-6-18.18,0-10.86,5.76-17.78T298.79,0Q316.08,0,318.27,18.6Z"/><path class="cls-1" d="M335.78.74V23.28l15-22.54h10.76L350.06,17.87l14.4,30.86H352.09l-9.58-20.84-6.73,9.83v11h-11V.74Z"/><path class="cls-1" d="M403.28,11.29l-9.57,3.19q-1.92-5.69-8.17-5.69-6.66,0-6.66,4.32A3.89,3.89,0,0,0,380.12,16c.84.8,2.71,1.49,5.64,2.08a55.15,55.15,0,0,1,10.74,3A13.71,13.71,0,0,1,402.24,26a12.82,12.82,0,0,1,2.34,7.5,15,15,0,0,1-5,11.25q-5,4.74-14.84,4.74a22.6,22.6,0,0,1-12.56-3.35,16,16,0,0,1-6.83-10l10.41-2.35q1.75,6.7,9.75,6.71c2.58,0,4.49-.5,5.76-1.49a4.45,4.45,0,0,0,1.89-3.57,3.71,3.71,0,0,0-1.72-3.27c-1.14-.78-3.36-1.5-6.63-2.18q-9.17-1.9-13.06-5.19t-3.9-9.61a14.28,14.28,0,0,1,4.65-10.8C375.6,1.46,379.8,0,385.12,0Q399.23,0,403.28,11.29Z"/><path class="cls-1" d="M42,87V66.51h4.15v2.24a4.07,4.07,0,0,1,4-2.56,5,5,0,0,1,4.06,2A9.18,9.18,0,0,1,55.78,74q0,4-1.6,6.09a5,5,0,0,1-4.15,2,3.86,3.86,0,0,1-3.69-2V87ZM46.34,75.1a8.65,8.65,0,0,0,.19,2.24,2.31,2.31,0,0,0,.83,1.12,2.22,2.22,0,0,0,1.38.49,2.07,2.07,0,0,0,1.65-1c.49-.63.73-2,.73-4.17q0-4.52-2.39-4.52a2.18,2.18,0,0,0-1.65.8,3.94,3.94,0,0,0-.74,2.72Z"/><path class="cls-1" d="M63.06,61.13v7.45a4.31,4.31,0,0,1,4.13-2.39,5,5,0,0,1,2.65.67,3.73,3.73,0,0,1,1.54,1.74,8.25,8.25,0,0,1,.45,3.1V81.79H67.32V73.17a11,11,0,0,0-.13-2.12,1.7,1.7,0,0,0-.55-1,1.52,1.52,0,0,0-1.07-.39,2.67,2.67,0,0,0-1.68.66c-.55.44-.83,1.38-.83,2.81v8.62H58.69V61.13Z"/><path class="cls-1" d="M88.89,81.79H84.51a10.93,10.93,0,0,1-.21-2.39A6.39,6.39,0,0,1,82,81.58a6.15,6.15,0,0,1-2.59.53A5.09,5.09,0,0,1,76,81a4,4,0,0,1-1.32-3.14,4.76,4.76,0,0,1,.77-2.64,5,5,0,0,1,2.48-1.9,23.76,23.76,0,0,1,6.22-1v-.87a2,2,0,0,0-2.22-2.23,2.33,2.33,0,0,0-2.64,2.23L75.08,71a4.74,4.74,0,0,1,2.47-3.69,9.74,9.74,0,0,1,4.66-1.09,11.61,11.61,0,0,1,2.94.36,5,5,0,0,1,2.15,1.09,3.86,3.86,0,0,1,1,1.54A10.08,10.08,0,0,1,88.61,72v6.93A10.08,10.08,0,0,0,88.89,81.79ZM84.1,74.47c-3.15.31-4.72,1.27-4.72,2.86a2.05,2.05,0,0,0,.5,1.38,1.76,1.76,0,0,0,1.42.59,2.46,2.46,0,0,0,2-1,3.75,3.75,0,0,0,.81-2.45Z"/><path class="cls-1" d="M96.71,81.79H92.34V66.51h4.13v2.84q.94-3.18,3.3-3.18c.22,0,.49,0,.82,0v4.45a4.53,4.53,0,0,0-2.15.42,3.07,3.07,0,0,0-1.24,1.52,7.36,7.36,0,0,0-.49,3Z"/><path class="cls-1" d="M124.94,81.79h-4.51V73.33a15.32,15.32,0,0,0-.11-2.32,1.43,1.43,0,0,0-.55-.89,1.92,1.92,0,0,0-1.23-.36,2.72,2.72,0,0,0-1.52.53c-.51.35-.77,1.37-.77,3v8.46h-4.51V73.33a9.68,9.68,0,0,0-.17-2.37,1.74,1.74,0,0,0-.62-.87,2,2,0,0,0-1.18-.33,2.06,2.06,0,0,0-1.73.74,4.92,4.92,0,0,0-.57,2.83v8.46H103.1V66.51h4.24v2.33a4.18,4.18,0,0,1,4.3-2.65,4.39,4.39,0,0,1,4.23,2.65,4.52,4.52,0,0,1,4.44-2.65,5.18,5.18,0,0,1,2.6.62,3.58,3.58,0,0,1,1.56,1.62,8.93,8.93,0,0,1,.47,3.44Z"/><path class="cls-1" d="M142,81.79h-4.37a10.93,10.93,0,0,1-.21-2.39,6.39,6.39,0,0,1-2.29,2.18,6.15,6.15,0,0,1-2.59.53A5.09,5.09,0,0,1,129.05,81a4,4,0,0,1-1.32-3.14,4.76,4.76,0,0,1,.77-2.64,5,5,0,0,1,2.47-1.9,23.94,23.94,0,0,1,6.23-1v-.87A2,2,0,0,0,135,69.14a2.33,2.33,0,0,0-2.64,2.23l-4.16-.4a4.72,4.72,0,0,1,2.47-3.69,9.74,9.74,0,0,1,4.66-1.09,11.61,11.61,0,0,1,2.94.36,5,5,0,0,1,2.15,1.09,3.86,3.86,0,0,1,1,1.54,10.08,10.08,0,0,1,.27,2.82v6.93A10.57,10.57,0,0,0,142,81.79Zm-4.78-7.32c-3.15.31-4.72,1.27-4.72,2.86a2,2,0,0,0,.5,1.38,1.75,1.75,0,0,0,1.41.59,2.47,2.47,0,0,0,2-1,3.75,3.75,0,0,0,.81-2.45Z"/><path class="cls-1" d="M158.88,76.06a6.46,6.46,0,0,1-2.14,4.38,7,7,0,0,1-4.87,1.67A7,7,0,0,1,146.59,80a8,8,0,0,1-2-5.73,8.19,8.19,0,0,1,2.08-5.82,7.23,7.23,0,0,1,5.56-2.23,6.62,6.62,0,0,1,4.64,1.68,6.12,6.12,0,0,1,2,4.21l-4.21.24c-.14-1.84-.94-2.76-2.39-2.76-1.79,0-2.68,1.47-2.68,4.39,0,2,.25,3.19.75,3.71a2.39,2.39,0,0,0,1.82.79c1.39,0,2.23-.88,2.5-2.65Z"/><path class="cls-1" d="M165.81,60.71v4.51H161.3V60.71Zm0,5.8V81.79H161.3V66.51Z"/><path class="cls-1" d="M181,70.2l-3.28.88a2.75,2.75,0,0,0-3-2.08q-2.28,0-2.28,1.38a1.06,1.06,0,0,0,.42.88,5.61,5.61,0,0,0,2.17.55,19.46,19.46,0,0,1,3.88.8,4,4,0,0,1,2,1.53,4.57,4.57,0,0,1,.73,2.65,4.77,4.77,0,0,1-1.79,3.84,7.67,7.67,0,0,1-5,1.48q-5.84,0-7-4.52l3.8-.56c.31,1.37,1.45,2.06,3.39,2.06a4,4,0,0,0,1.89-.41,1.2,1.2,0,0,0,.78-1.08q0-1.06-1.71-1.26-4.64-.57-6.1-1.77a4.13,4.13,0,0,1-1.46-3.36,4.51,4.51,0,0,1,1.7-3.6,7.16,7.16,0,0,1,4.75-1.42,7,7,0,0,1,3.88,1A6,6,0,0,1,181,70.2Z"/><path class="cls-1" d="M189.51,70v6.46a2.49,2.49,0,0,0,.37,1.62,2.38,2.38,0,0,0,1.7.41c.41,0,.89,0,1.43-.06v3.34a18.45,18.45,0,0,1-2.83.34,5.89,5.89,0,0,1-4-1.08c-.78-.73-1.18-2-1.18-3.92V70h-2.42V66.51h2.68l.36-4.51,3.89-.31v4.82h3.29V70Z"/><path class="cls-1" d="M223,70.52a14.57,14.57,0,0,1-3.37,6.57,2.89,2.89,0,0,0,2.12,1A10.58,10.58,0,0,0,223,78v3.68a8.5,8.5,0,0,1-2.07.29,5.6,5.6,0,0,1-4.47-2A10.08,10.08,0,0,1,210,82.2c-2.64,0-4.62-.66-5.91-2a6.28,6.28,0,0,1-1.95-4.53q0-4.11,5.12-6a11,11,0,0,1-1.55-2.35,4.51,4.51,0,0,1-.36-1.79A4.23,4.23,0,0,1,207,62.05a7.42,7.42,0,0,1,4.63-1.34,6.55,6.55,0,0,1,4.54,1.46,4.76,4.76,0,0,1,1.61,3.67q0,3.41-3.89,5L216.84,74a8.61,8.61,0,0,0,1.83-4.08Zm-13.27,1.93c-1.62.56-2.43,1.52-2.43,2.9a3,3,0,0,0,.88,2.12,3.08,3.08,0,0,0,2.34.92,5.36,5.36,0,0,0,3.45-1.26Zm2.17-4.14c1.48-.55,2.22-1.34,2.22-2.39a2,2,0,0,0-.6-1.46,2.24,2.24,0,0,0-1.66-.6,2.13,2.13,0,0,0-1.4.44,1.37,1.37,0,0,0-.55,1.13,3.18,3.18,0,0,0,1.13,2Z"/><path class="cls-1" d="M246.08,61.13V81.79h-4.16V79.4a4.7,4.7,0,0,1-4.22,2.71,4.63,4.63,0,0,1-4-2.06,9.76,9.76,0,0,1-1.47-5.73,10.46,10.46,0,0,1,1.47-6A4.8,4.8,0,0,1,238,66.19a4.3,4.3,0,0,1,3.76,1.92v-7Zm-4.37,11.78q0-3.6-2.19-3.6-2.61,0-2.61,5.08,0,4.53,2.44,4.53A2.11,2.11,0,0,0,241,78.1a3.45,3.45,0,0,0,.71-2.33Z"/><path class="cls-1" d="M263.53,74.91h-9.84c0,.27,0,.51,0,.71a3.27,3.27,0,0,0,.87,2.47,2.92,2.92,0,0,0,2.08.83,2.56,2.56,0,0,0,2.71-2.41l4.09.3q-1.71,5.31-6.95,5.3a7.66,7.66,0,0,1-3.88-.91A7.2,7.2,0,0,1,250,78.53a8.19,8.19,0,0,1-1-4.21A8.3,8.3,0,0,1,251,68.43a7.35,7.35,0,0,1,10.41-.16Q263.53,70.35,263.53,74.91Zm-9.85-2.62h5.43c-.14-2.1-1-3.15-2.59-3.15S253.88,70.19,253.68,72.29Z"/><path class="cls-1" d="M278.11,66.51l-5.24,15.28h-3.51l-5.25-15.28h4.69l2.94,9.68,3-9.68Z"/><path class="cls-1" d="M293.41,74.91h-9.84c0,.27,0,.51,0,.71a3.27,3.27,0,0,0,.87,2.47,2.92,2.92,0,0,0,2.08.83,2.56,2.56,0,0,0,2.71-2.41l4.09.3q-1.71,5.31-6.95,5.3a7.68,7.68,0,0,1-3.88-.91,7.2,7.2,0,0,1-2.64-2.67,8.19,8.19,0,0,1-1-4.21,8.3,8.3,0,0,1,2.08-5.89,7.35,7.35,0,0,1,10.41-.16Q293.41,70.35,293.41,74.91Zm-9.85-2.62H289c-.14-2.1-1-3.15-2.59-3.15S283.76,70.19,283.56,72.29Z"/><path class="cls-1" d="M296.26,81.79V61.13h4.51V81.79Z"/><path class="cls-1" d="M310.81,66.19a6.79,6.79,0,0,1,5.45,2.28,8.5,8.5,0,0,1,2,5.73,8.16,8.16,0,0,1-2,5.65,6.92,6.92,0,0,1-5.41,2.26,6.55,6.55,0,0,1-5.22-2.24,8.39,8.39,0,0,1-2-5.75,8.92,8.92,0,0,1,.88-4.14,7.42,7.42,0,0,1,2.43-2.75A6.86,6.86,0,0,1,310.81,66.19Zm.12,3a2.16,2.16,0,0,0-1.93,1,8.08,8.08,0,0,0-.65,4A8.91,8.91,0,0,0,309,78a2,2,0,0,0,1.93,1.19,2.18,2.18,0,0,0,1.86-1,7.23,7.23,0,0,0,.71-3.84,9,9,0,0,0-.63-4.09A2.07,2.07,0,0,0,310.93,69.14Z"/><path class="cls-1" d="M321.07,87V66.51h4.14v2.24a4.07,4.07,0,0,1,4-2.56,4.93,4.93,0,0,1,4.06,2A9.12,9.12,0,0,1,334.89,74c0,2.69-.54,4.72-1.6,6.09a5,5,0,0,1-4.16,2,3.88,3.88,0,0,1-3.69-2V87Zm4.37-11.86a8.53,8.53,0,0,0,.2,2.24,2.31,2.31,0,0,0,.83,1.12,2.18,2.18,0,0,0,1.38.49,2.1,2.1,0,0,0,1.65-1q.72-.94.72-4.17c0-3-.79-4.52-2.39-4.52a2.21,2.21,0,0,0-1.65.8,4,4,0,0,0-.74,2.72Z"/><path class="cls-1" d="M351.52,74.91h-9.84c0,.27,0,.51,0,.71a3.27,3.27,0,0,0,.87,2.47,2.92,2.92,0,0,0,2.08.83,2.56,2.56,0,0,0,2.71-2.41l4.09.3q-1.71,5.31-6.95,5.3a7.68,7.68,0,0,1-3.88-.91A7.2,7.2,0,0,1,338,78.53a8.19,8.19,0,0,1-1-4.21A8.3,8.3,0,0,1,339,68.43a7.35,7.35,0,0,1,10.41-.16Q351.53,70.35,351.52,74.91Zm-9.85-2.62h5.43c-.14-2.1-1-3.15-2.59-3.15S341.87,70.19,341.67,72.29Z"/><path class="cls-1" d="M358.74,81.79h-4.37V66.51h4.13v2.84q1-3.18,3.3-3.18c.22,0,.49,0,.82,0v4.45a4.46,4.46,0,0,0-2.14.42,3.09,3.09,0,0,0-1.25,1.52,7.36,7.36,0,0,0-.49,3Z"/></g></g></svg>