<svg xmlns="http://www.w3.org/2000/svg" viewBox="0 0 453.53 86.07"><defs><style>.cls-1{fill:#231f20;}.cls-2{fill:none;stroke:#231f20;stroke-miterlimit:10;stroke-width:11px;}</style></defs><g id="Layer_2" data-name="Layer 2"><g id="Layer_1-2" data-name="Layer 1"><path class="cls-1" d="M49,.74H63.59c6,0,10.42.82,13.35,2.48a23.13,23.13,0,0,1,7.87,7.84q3.48,5.35,3.48,13.55,0,10.31-6.08,17.21T65.46,48.73H49ZM60,9.56V39.69h4.63q6.13,0,9.12-4.59a19.31,19.31,0,0,0,3-10.77A19.17,19.17,0,0,0,75,16.26a11.18,11.18,0,0,0-4.23-5.2,11.68,11.68,0,0,0-6.07-1.5Z"/><path class="cls-1" d="M117.56.74l15,48H120.5l-3-9.88H102l-3,9.88H89.17l15.38-48ZM104.73,30h10.16l-5-16.84Z"/><path class="cls-1" d="M171.11.74l-14.49,48H144.54L130.12.74h12l9.6,34.31,10-34.31Z"/><path class="cls-1" d="M186.65.74v48H175.44V.74Z"/><path class="cls-1" d="M196.29.74h14.64q9,0,13.35,2.48a23.13,23.13,0,0,1,7.87,7.84q3.48,5.35,3.48,13.55,0,10.31-6.08,17.21T212.8,48.73H196.29Zm11,8.82V39.69H212q6.14,0,9.12-4.59a19.31,19.31,0,0,0,3-10.77,19.17,19.17,0,0,0-1.7-8.07,11.18,11.18,0,0,0-4.23-5.2,11.68,11.68,0,0,0-6.07-1.5Z"/><path class="cls-1" d="M298,.74v48H287V28.93H272v19.8H261V.74h11v18.7h15V.74Z"/><path class="cls-1" d="M318.88.74v48H307.66V.74Z"/><path class="cls-1" d="M367.22,18.6l-11.78.74q-.26-10.17-7.93-10.16-8.81,0-8.81,15.64,0,9,2.4,12.25a7.86,7.86,0,0,0,6.69,3.22q7,0,8.53-9.07l10.9.67Q366.16,40.5,360.8,45a21.52,21.52,0,0,1-28.62-2.09q-6-6.57-6-18.18,0-10.86,5.77-17.78T347.74,0Q365,0,367.22,18.6Z"/><path class="cls-1" d="M384.72.74V23.28l15-22.54h10.76L399,17.87l14.41,30.86H401l-9.57-20.84-6.74,9.83v11h-11V.74Z"/><path class="cls-1" d="M452.22,11.29l-9.56,3.19q-1.92-5.69-8.17-5.69-6.66,0-6.66,4.32A3.89,3.89,0,0,0,429.07,16q1.24,1.2,5.64,2.08a55.15,55.15,0,0,1,10.74,3A13.77,13.77,0,0,1,451.19,26a12.82,12.82,0,0,1,2.34,7.5,15,15,0,0,1-5,11.25q-5,4.74-14.84,4.74a22.6,22.6,0,0,1-12.56-3.35,16,16,0,0,1-6.83-10l10.41-2.35q1.76,6.7,9.75,6.71,3.85,0,5.75-1.49a4.43,4.43,0,0,0,1.9-3.57,3.71,3.71,0,0,0-1.72-3.27c-1.15-.78-3.36-1.5-6.64-2.18q-9.15-1.9-13.06-5.19t-3.89-9.61a14.28,14.28,0,0,1,4.65-10.8Q426.09,0,434.07,0,448.19,0,452.22,11.29Z"/><path class="cls-1" d="M48.59,86.07V65.62h4.15v2.24a4.07,4.07,0,0,1,4-2.56,5,5,0,0,1,4.07,2,9.16,9.16,0,0,1,1.58,5.79q0,4-1.6,6.09a5,5,0,0,1-4.15,2,3.86,3.86,0,0,1-3.69-2v6.86ZM53,74.21a8.65,8.65,0,0,0,.19,2.24A2.31,2.31,0,0,0,54,77.57a2.28,2.28,0,0,0,1.38.49,2.07,2.07,0,0,0,1.65-1c.49-.63.73-2,.73-4.17,0-3-.8-4.52-2.39-4.52a2.18,2.18,0,0,0-1.65.8A3.94,3.94,0,0,0,53,71.94Z"/><path class="cls-1" d="M69.69,60.24v7.45a4.31,4.31,0,0,1,4.13-2.39,5,5,0,0,1,2.65.67A3.76,3.76,0,0,1,78,67.7a8.31,8.31,0,0,1,.45,3.11V80.9H74V72.28a11.94,11.94,0,0,0-.13-2.12,1.67,1.67,0,0,0-.55-1,1.52,1.52,0,0,0-1.07-.39,2.67,2.67,0,0,0-1.68.66c-.55.44-.83,1.37-.83,2.81V80.9H65.32V60.24Z"/><path class="cls-1" d="M95.51,80.9H91.14a10.93,10.93,0,0,1-.21-2.39,6.26,6.26,0,0,1-2.29,2.17,6,6,0,0,1-2.59.54,5.09,5.09,0,0,1-3.47-1.16,4,4,0,0,1-1.32-3.14A4.79,4.79,0,0,1,82,74.27a5.08,5.08,0,0,1,2.48-1.9,23.87,23.87,0,0,1,6.22-1v-.88a2,2,0,0,0-2.22-2.22,2.33,2.33,0,0,0-2.64,2.22l-4.16-.39a4.69,4.69,0,0,1,2.47-3.69,9.74,9.74,0,0,1,4.66-1.09,11.61,11.61,0,0,1,2.94.36,5,5,0,0,1,2.15,1.09,3.86,3.86,0,0,1,1,1.54,10.08,10.08,0,0,1,.27,2.82V78A10.62,10.62,0,0,0,95.51,80.9Zm-4.78-7.32Q86,74,86,76.44a2.07,2.07,0,0,0,.5,1.38,1.76,1.76,0,0,0,1.42.59,2.44,2.44,0,0,0,2-1A3.72,3.72,0,0,0,90.73,75Z"/><path class="cls-1" d="M103.34,80.9H99V65.62h4.13v2.84q.95-3.18,3.3-3.18c.22,0,.49,0,.82,0v4.45a4.53,4.53,0,0,0-2.15.42,3.1,3.1,0,0,0-1.25,1.52,7.55,7.55,0,0,0-.48,3Z"/><path class="cls-1" d="M131.57,80.9h-4.51V72.44a15.32,15.32,0,0,0-.11-2.32,1.43,1.43,0,0,0-.55-.89,1.92,1.92,0,0,0-1.23-.36,2.72,2.72,0,0,0-1.52.53c-.51.35-.77,1.37-.77,3V80.9h-4.51V72.44a9.68,9.68,0,0,0-.17-2.37,1.66,1.66,0,0,0-.62-.87,2,2,0,0,0-1.18-.33,2.05,2.05,0,0,0-1.73.73,5,5,0,0,0-.57,2.84V80.9h-4.37V65.62H114V68a4.18,4.18,0,0,1,4.3-2.65A4.39,4.39,0,0,1,122.5,68a4.52,4.52,0,0,1,4.44-2.65,5.08,5.08,0,0,1,2.6.62,3.58,3.58,0,0,1,1.56,1.62,8.87,8.87,0,0,1,.47,3.43Z"/><path class="cls-1" d="M148.61,80.9h-4.37a10.93,10.93,0,0,1-.21-2.39,6.26,6.26,0,0,1-2.29,2.17,6,6,0,0,1-2.59.54,5.09,5.09,0,0,1-3.47-1.16,4,4,0,0,1-1.32-3.14,4.79,4.79,0,0,1,.77-2.65,5.1,5.1,0,0,1,2.47-1.9,24.06,24.06,0,0,1,6.23-1v-.88a2,2,0,0,0-2.22-2.22A2.33,2.33,0,0,0,139,70.47l-4.16-.39a4.69,4.69,0,0,1,2.47-3.69,9.74,9.74,0,0,1,4.66-1.09,11.61,11.61,0,0,1,2.94.36A5,5,0,0,1,147,66.75a3.86,3.86,0,0,1,1,1.54,10.08,10.08,0,0,1,.27,2.82V78A10.62,10.62,0,0,0,148.61,80.9Zm-4.78-7.32q-4.72.47-4.72,2.86a2,2,0,0,0,.5,1.38,1.75,1.75,0,0,0,1.41.59,2.45,2.45,0,0,0,2-1,3.72,3.72,0,0,0,.81-2.44Z"/><path class="cls-1" d="M165.51,75.17a6.45,6.45,0,0,1-2.15,4.38,7,7,0,0,1-4.86,1.67,7,7,0,0,1-5.28-2.14,8,8,0,0,1-2-5.73,8.19,8.19,0,0,1,2.08-5.82,7.23,7.23,0,0,1,5.56-2.23A6.62,6.62,0,0,1,163.47,67a6.12,6.12,0,0,1,2,4.21l-4.21.24c-.14-1.84-.94-2.76-2.39-2.76-1.79,0-2.68,1.47-2.68,4.39,0,2,.25,3.19.75,3.71a2.39,2.39,0,0,0,1.82.79c1.39,0,2.23-.89,2.5-2.65Z"/><path class="cls-1" d="M172.44,59.82v4.51h-4.51V59.82Zm0,5.8V80.9h-4.51V65.62Z"/><path class="cls-1" d="M187.59,69.31l-3.28.88a2.75,2.75,0,0,0-3-2.08c-1.51,0-2.27.46-2.27,1.38a1.06,1.06,0,0,0,.42.88,5.61,5.61,0,0,0,2.17.55,19.46,19.46,0,0,1,3.88.8,4,4,0,0,1,2,1.52,4.59,4.59,0,0,1,.73,2.65,4.77,4.77,0,0,1-1.79,3.85,7.67,7.67,0,0,1-5,1.48c-3.9,0-6.22-1.51-7-4.52l3.8-.56c.31,1.37,1.45,2,3.39,2a4,4,0,0,0,1.89-.4,1.21,1.21,0,0,0,.78-1.08q0-1.06-1.71-1.26-4.64-.57-6.1-1.77A4.13,4.13,0,0,1,175,70.32a4.51,4.51,0,0,1,1.7-3.6,7.16,7.16,0,0,1,4.75-1.42,7,7,0,0,1,3.88,1A6,6,0,0,1,187.59,69.31Z"/><path class="cls-1" d="M196.14,69.13v6.46a2.49,2.49,0,0,0,.37,1.62,2.38,2.38,0,0,0,1.7.41c.41,0,.89,0,1.43-.06V80.9a19.84,19.84,0,0,1-2.83.34,5.84,5.84,0,0,1-4-1.09c-.78-.72-1.18-2-1.18-3.91V69.13h-2.42V65.62h2.68l.36-4.52,3.89-.3v4.82h3.29v3.51Z"/><path class="cls-1" d="M229.58,69.63a14.57,14.57,0,0,1-3.37,6.57,2.89,2.89,0,0,0,2.11,1c.29,0,.71,0,1.26-.1v3.68a8.5,8.5,0,0,1-2.07.29,5.6,5.6,0,0,1-4.47-2,10.08,10.08,0,0,1-6.46,2.25c-2.64,0-4.62-.66-5.91-2a6.28,6.28,0,0,1-1.95-4.53c0-2.74,1.71-4.74,5.12-6a11.24,11.24,0,0,1-1.55-2.35,4.51,4.51,0,0,1-.36-1.79,4.22,4.22,0,0,1,1.74-3.52,7.36,7.36,0,0,1,4.63-1.34,6.51,6.51,0,0,1,4.54,1.46A4.76,4.76,0,0,1,224.45,65q0,3.4-3.89,5l2.91,3.16A8.61,8.61,0,0,0,225.3,69Zm-13.27,1.93c-1.62.56-2.43,1.52-2.43,2.89a3,3,0,0,0,.88,2.13,3.08,3.08,0,0,0,2.34.92,5.36,5.36,0,0,0,3.45-1.26Zm2.17-4.14c1.48-.55,2.22-1.34,2.22-2.39a2,2,0,0,0-.6-1.46,2.24,2.24,0,0,0-1.66-.6,2.13,2.13,0,0,0-1.4.44,1.37,1.37,0,0,0-.55,1.13,3.13,3.13,0,0,0,1.13,2Z"/><path class="cls-1" d="M252.71,60.24V80.9h-4.16V78.51a4.7,4.7,0,0,1-4.22,2.71,4.63,4.63,0,0,1-4-2.06,9.76,9.76,0,0,1-1.47-5.73,10.51,10.51,0,0,1,1.47-6,4.81,4.81,0,0,1,4.23-2.15,4.31,4.31,0,0,1,3.77,1.92v-7ZM248.34,72q0-3.6-2.19-3.6-2.61,0-2.61,5.08Q243.54,78,246,78a2.14,2.14,0,0,0,1.65-.82,3.45,3.45,0,0,0,.71-2.33Z"/><path class="cls-1" d="M270.16,74h-9.84c0,.27,0,.51,0,.71a3.24,3.24,0,0,0,.87,2.46,2.88,2.88,0,0,0,2.08.84A2.56,2.56,0,0,0,266,75.62l4.09.3q-1.71,5.31-6.95,5.3a7.66,7.66,0,0,1-3.88-.91,7.23,7.23,0,0,1-2.64-2.68,8.12,8.12,0,0,1-1-4.2,8.28,8.28,0,0,1,2.08-5.89,7.35,7.35,0,0,1,10.41-.16Q270.16,69.47,270.16,74Zm-9.85-2.62h5.43c-.14-2.1-1-3.15-2.59-3.15S260.51,69.3,260.31,71.4Z"/><path class="cls-1" d="M284.74,65.62,279.5,80.9H276l-5.25-15.28h4.69l2.94,9.68,3-9.68Z"/><path class="cls-1" d="M300,74H290.2c0,.27,0,.51,0,.71a3.24,3.24,0,0,0,.87,2.46,2.88,2.88,0,0,0,2.08.84,2.56,2.56,0,0,0,2.71-2.41l4.09.3q-1.71,5.31-6.95,5.3a7.68,7.68,0,0,1-3.88-.91,7.23,7.23,0,0,1-2.64-2.68,8.12,8.12,0,0,1-1-4.2,8.28,8.28,0,0,1,2.08-5.89,7.35,7.35,0,0,1,10.41-.16Q300,69.47,300,74Zm-9.85-2.62h5.43c-.14-2.1-1-3.15-2.59-3.15S290.39,69.3,290.19,71.4Z"/><path class="cls-1" d="M302.89,80.9V60.24h4.51V80.9Z"/><path class="cls-1" d="M317.44,65.3a6.79,6.79,0,0,1,5.45,2.28,8.47,8.47,0,0,1,2,5.72,8.17,8.17,0,0,1-2,5.66,6.92,6.92,0,0,1-5.41,2.26A6.58,6.58,0,0,1,312.19,79a8.39,8.39,0,0,1-2-5.75,8.86,8.86,0,0,1,.88-4.14,7.34,7.34,0,0,1,2.43-2.75A6.86,6.86,0,0,1,317.44,65.3Zm.12,3a2.16,2.16,0,0,0-1.93,1,8.06,8.06,0,0,0-.65,3.94,8.94,8.94,0,0,0,.62,3.89,2,2,0,0,0,1.93,1.18,2.17,2.17,0,0,0,1.86-1,7.23,7.23,0,0,0,.71-3.84,9,9,0,0,0-.63-4.09A2.07,2.07,0,0,0,317.56,68.25Z"/><path class="cls-1" d="M327.7,86.07V65.62h4.14v2.24a4.07,4.07,0,0,1,4-2.56,4.93,4.93,0,0,1,4.06,2,9.1,9.1,0,0,1,1.59,5.79c0,2.69-.54,4.72-1.6,6.09a5,5,0,0,1-4.16,2,3.88,3.88,0,0,1-3.69-2v6.86Zm4.37-11.86a8.53,8.53,0,0,0,.2,2.24,2.31,2.31,0,0,0,.83,1.12,2.24,2.24,0,0,0,1.38.49,2.1,2.1,0,0,0,1.65-1q.72-.94.72-4.17c0-3-.79-4.52-2.39-4.52a2.21,2.21,0,0,0-1.65.8,4,4,0,0,0-.74,2.72Z"/><path class="cls-1" d="M358.15,74h-9.84c0,.27,0,.51,0,.71a3.24,3.24,0,0,0,.87,2.46,2.88,2.88,0,0,0,2.08.84A2.56,2.56,0,0,0,354,75.62l4.09.3q-1.71,5.31-6.95,5.3a7.66,7.66,0,0,1-3.88-.91,7.23,7.23,0,0,1-2.64-2.68,8.12,8.12,0,0,1-1-4.2,8.28,8.28,0,0,1,2.08-5.89A7.35,7.35,0,0,1,356,67.38Q358.16,69.47,358.15,74ZM348.3,71.4h5.43c-.14-2.1-1-3.15-2.59-3.15S348.5,69.3,348.3,71.4Z"/><path class="cls-1" d="M365.37,80.9H361V65.62h4.13v2.84c.64-2.12,1.73-3.18,3.3-3.18.22,0,.49,0,.82,0v4.45a4.46,4.46,0,0,0-2.14.42,3,3,0,0,0-1.25,1.52,7.36,7.36,0,0,0-.49,3Z"/><line class="cls-2" x1="34.15" y1="0.67" x2="34.15" y2="40.57"/><line class="cls-2" x1="20.16" y1="16.21" x2="20.16" y2="40.57"/><line class="cls-2" x1="6.16" y1="28.8" x2="6.16" y2="40.98"/><line class="cls-2" y1="48.73" x2="39.9" y2="48.73"/><line class="cls-2" x1="15.54" y1="62.72" x2="39.9" y2="62.72"/><line class="cls-2" x1="28.13" y1="76.71" x2="40.31" y2="76.71"/></g></g></svg>