<svg xmlns="http://www.w3.org/2000/svg" viewBox="0 0 213.98 105.93">
  <defs>
    <style>
      .cls-1 {
        fill: #d2e49a;
      }
    </style>
  </defs>
  <g id="Layer_2" data-name="Layer 2">
    <g id="mortar-pestle-logo">
      <g>
        <path class="cls-1" d="M213.15,53.2l-38.1-21.36a1.62,1.62,0,0,0-2.41,1.42v8.36a1.61,1.61,0,0,0,.84,1.42l29,16-29,16.05a1.61,1.61,0,0,0-.84,1.42v8.27a1.61,1.61,0,0,0,1.62,1.62,1.58,1.58,0,0,0,.79-.21l38.1-21.35A1.63,1.63,0,0,0,214,63.4V54.61A1.61,1.61,0,0,0,213.15,53.2Z"/>
        <path class="cls-1" d="M40.54,31.86a1.6,1.6,0,0,0-1.61,0L.83,53.2A1.61,1.61,0,0,0,0,54.61V63.4a1.63,1.63,0,0,0,.83,1.41l38.1,21.35a1.61,1.61,0,0,0,.79.21,1.61,1.61,0,0,0,1.62-1.62V76.48a1.61,1.61,0,0,0-.84-1.42L11.46,59l29-16a1.61,1.61,0,0,0,.84-1.42V33.26A1.61,1.61,0,0,0,40.54,31.86Z"/>
        <path class="cls-1" d="M162.81,0A6.38,6.38,0,0,0,158,1.76L135.69,21.3H53c-1.87,0-3.28,1-3.28,2.29v10c0,1.31,1.41,2.3,3.28,2.3h1.32C51.29,55.35,56.42,74,68.08,86a42.73,42.73,0,0,0,6,5.1v11.06a4.22,4.22,0,0,0,.51,2.08,2.05,2.05,0,0,0,1.74,1.15c10.16.39,20.45.58,30.61.58h.43c10,0,20.22-.2,30.22-.58,1.31,0,2.3-1.39,2.3-3.23V91.06a43.22,43.22,0,0,0,6-5.1C157.57,74,162.69,55.35,159.7,35.85H161c1.87,0,3.28-1,3.28-2.3v-10a2.08,2.08,0,0,0-1.18-1.78,4.47,4.47,0,0,0-2.1-.51H156.3c3.57-4.17,6.74-7.62,9.88-10.72a6.21,6.21,0,0,0,.91-8.39A6,6,0,0,0,162.81,0Z"/>
      </g>
    </g>
  </g>
</svg>
