<svg xmlns="http://www.w3.org/2000/svg" viewBox="0 0 200.98 82.11">
  <defs>
    <style>
      .fill {
        fill: #d2e49a;
      }
    </style>
  </defs>
    <g id="mortar-pestle-logo">
      <g>
        <path class="fill" data-name="right" d="M161.26,73.43a1.63,1.63,0,0,1-1.62-1.62V63.53a1.62,1.62,0,0,1,.84-1.42l29-16-29-16a1.6,1.6,0,0,1-.84-1.42V20.31a1.63,1.63,0,0,1,1.62-1.62,1.56,1.56,0,0,1,.79.21l38.1,21.35a1.62,1.62,0,0,1,.83,1.41v8.79a1.63,1.63,0,0,1-.83,1.42l-38.1,21.35a1.66,1.66,0,0,1-.79.21Z"/>
       
        <path class="fill" data-name="left" d="M39.72,73.43a1.66,1.66,0,0,1-.79-.21L.83,51.86A1.61,1.61,0,0,1,0,50.45V41.66a1.63,1.63,0,0,1,.83-1.41L38.93,18.9a1.56,1.56,0,0,1,.79-.21,1.63,1.63,0,0,1,1.62,1.62v8.36a1.6,1.6,0,0,1-.84,1.42l-29,16,29,16a1.62,1.62,0,0,1,.84,1.42v8.28a1.59,1.59,0,0,1-.5,1.16,1.62,1.62,0,0,1-1.12.46Z"/>
      </g>
      <path id="mortar-pestle" class="fill" d="M142.76,0a4.86,4.86,0,0,0-3.41,1.37L121,17.45H57.12c-1,0-1.78.45-1.78,1v7.8c0,.56.8,1,1.78,1h2c-2.55,15.08,1.24,30,10.45,39.45a32.28,32.28,0,0,0,4.92,4.13v9.06a2.55,2.55,0,0,0,.29,1.24.85.85,0,0,0,.72.51q11.72.45,24.26.45,12.21,0,23.65-.45c.56,0,1-.78,1-1.75V70.85a32.77,32.77,0,0,0,4.92-4.13c9.2-9.43,13-24.37,10.44-39.45h2c1,0,1.79-.45,1.79-1v-7.8a.86.86,0,0,0-.53-.71,2.76,2.76,0,0,0-1.26-.3h-4.35c2.7-3.2,5.48-6.3,8.39-9.17a4.85,4.85,0,0,0,.71-6.56A4.64,4.64,0,0,0,142.76,0Z"/>
    </g>
</svg>
