<svg xmlns="http://www.w3.org/2000/svg" viewBox="0 0 112.62 123.68">
  <defs>
    <style>
      .cls-1 {
        fill: #d2e49a;
      }

      .cls-2 {
        fill: none;
        stroke: #fff;
        stroke-miterlimit: 10;
      }
    </style>
  </defs>
  <g id="Layer_2" data-name="Layer 2">
    <g id="mortar-pestle-logo">
      <path class="cls-1" d="M112,41.43a3.52,3.52,0,0,0-1.61-.38H95.57l15-30c1.68-3.37.72-7.28-2.16-8.71L104.94.55c-3-1.49-6.8.14-8.55,3.64L73.78,41.05H2.28C1,41.05,0,41.63,0,42.34v10c0,.72,1,1.3,2.28,1.3H4.77C1.51,72.87,6.36,92,18.12,104a42.1,42.1,0,0,0,6.28,5.28v11.58a3.26,3.26,0,0,0,.38,1.58,1.08,1.08,0,0,0,.92.65q15,.57,31,.58,15.6,0,30.22-.58c.72,0,1.29-1,1.29-2.23V109.29A41.66,41.66,0,0,0,94.5,104c11.76-12,16.61-31.14,13.35-50.41h2.49c1.26,0,2.28-.58,2.28-1.3v-10A1.11,1.11,0,0,0,112,41.43ZM16.12,87.32A1.57,1.57,0,0,1,15.31,86v-4.9a1.57,1.57,0,0,1,.81-1.37L38,67.43a1.57,1.57,0,0,1,2.33,1.37v4.36a1.57,1.57,0,0,1-.81,1.38l-16.21,9L39.5,92.41a1.56,1.56,0,0,1,.81,1.37V98.2a1.55,1.55,0,0,1-.77,1.35,1.53,1.53,0,0,1-.8.22,1.6,1.6,0,0,1-.76-.2Zm28.62,23.12a1.58,1.58,0,0,1-2.15.57l-3.47-2a1.58,1.58,0,0,1-.58-2.15L67.88,56.05A1.58,1.58,0,0,1,70,55.47l3.47,2a1.56,1.56,0,0,1,.57,2.14ZM97.3,86a1.56,1.56,0,0,1-.8,1.37L74.64,99.57a1.61,1.61,0,0,1-.77.2,1.52,1.52,0,0,1-.79-.22,1.55,1.55,0,0,1-.77-1.35V93.83a1.59,1.59,0,0,1,.8-1.37l16.22-9L73.12,74.59a1.56,1.56,0,0,1-.81-1.37V68.8a1.57,1.57,0,0,1,2.33-1.37L96.5,79.68a1.56,1.56,0,0,1,.8,1.37Z"/>
      <line class="cls-2" y1="53.6" x2="112.62" y2="53.6"/>
    </g>
  </g>
</svg>
