<svg xmlns="http://www.w3.org/2000/svg" viewBox="0 0 434.805 654.0756"><defs><style>.cls-1{fill:none;}.cls-1,.cls-2{stroke:#000;stroke-miterlimit:10;stroke-width:2.1906px;}</style></defs><g id="Layer_2" data-name="Layer 2"><g id="Layer_1-2" data-name="Layer 1"><path class="cls-1" d="M371.4225,68.5571H63.3825a5.0164,5.0164,0,0,1-5.0164-5.0164h0a5.0164,5.0164,0,0,1,5.0164-5.0164h308.04a5.0165,5.0165,0,0,1,5.0165,5.0164h0A5.0165,5.0165,0,0,1,371.4225,68.5571Z"/><circle class="cls-2" cx="299.9408" cy="63.5407" r="10.722"/><path class="cls-2" d="M295.8079,68.5571H62.2156c-2.1009,0-3.8041-2.2459-3.8041-5.0164h0c0-2.77,1.7032-5.0164,3.8041-5.0164H295.8079c2.101,0,3.8041,2.2459,3.8041,5.0164h0C299.612,66.3112,297.9089,68.5571,295.8079,68.5571Z"/><path d="M429.3036,432.6346A698.0636,698.0636,0,0,1,357.3307,359.43a879.7368,879.7368,0,0,1-73.0486-100.1064c-1.0173-1.6107-2.6892-2.5964-4.0564-3.8706-.4471,1.9634-1.2312,3.9027-1.296,5.8821-.4342,14.136-.7128,28.28-1.0757,42.4242-.0713,2.965-.2851,5.9221-.4277,8.8871-.5184.3847-1.0432.7773-1.5616,1.162a18.8578,18.8578,0,0,0-1.49-3.5741Q263.3519,294.2349,252.2,278.372a13.53,13.53,0,0,0-2.767-2.348c-.4925,1.3382-1.3608,2.6605-1.4191,4.0308-.4406,11.1951-.7193,22.3982-1.0757,33.6012-.2138,6.8357-.48,13.6633-.7646,21.6609-3.2011-4.1831-5.7412-7.4046-8.1971-10.7222-5.7478-7.7893-11.4371-15.6507-17.2173-23.4a9.9868,9.9868,0,0,0-2.6308-1.8752c-.48,1.13-1.0174,2.2278-1.4062,3.4058a7.31,7.31,0,0,0-.1425,1.9794c-.3176,13.88-.6027,27.7512-.9591,41.6229-.0972,3.7824-.3953,7.5488-.6609,12.3811-1.86-2.0355-3.0975-3.2376-4.1991-4.6079-7.0048-8.7028-13.9578-17.4778-21.0015-26.1405-.7452-.9136-1.944-1.2742-2.9354-1.8913a14.7223,14.7223,0,0,0-1.05,3.5341c-.4211,11.195-.7322,22.3981-1.0951,33.6012-.2268,7.2523-.486,14.5127-.7646,22.7828-1.5034-1.4665-2.3522-2.1958-3.11-3.0452-7.1863-8.0778-14.3336-16.2116-21.5588-24.2413a17.3208,17.3208,0,0,0-3.4538-2.4041c-.486,1.6428-1.3478,3.27-1.3932,4.9284-.4341,14.0079-.6869,28.0157-1.0627,42.0236-.1166,4.2793-.4342,8.5505-.6934,13.4388-1.4645-1.226-2.3911-1.8831-3.22-2.7086-7.16-7.1-14.2689-14.2642-21.4681-21.3a14.872,14.872,0,0,0-3.5834-2.0195,21.1138,21.1138,0,0,0-1.0757,4.3995c-.3952,12.7978-.6609,25.6036-1.0108,38.4094-.162,5.7939-.4342,11.58-.6934,18.2391-1.6718-1.194-2.6957-1.8272-3.6288-2.6045-7.0566-5.922-14.0809-11.9082-21.1765-17.7662-.9849-.8094-2.566-1.755-3.389-1.2982-.7646.4247-1.1988,2.62-1.2441,4.0549-.5314,17.47-.9591,34.9475-1.4321,52.4172-.0389,1.4024-.175,2.7968-.3046,4.8-1.4061-.7693-2.3781-1.2181-3.2918-1.8191q-10.8572-7.1641-21.6949-14.3685c-3.2983-2.1877-4.2184-1.6027-4.4647,2.909-.0648,1.202-.0518,2.4041-.0777,3.6061q-.6611,25.6037-1.3414,51.2072a35.668,35.668,0,0,1-.5378,3.7344c-1.5682-.6732-2.7864-1.146-3.9787-1.7069-6.9595-3.2856-13.906-6.6113-20.8655-9.8969-3.3242-1.5707-4.18-.9456-4.3027,3.2375q-.6416,21.8052-1.2117,43.6183c-.149,5.1448-.3175,10.2895-.4925,16.0113C18.3642,585.4708,9.1821,583.259,0,581.0393v73.0363H434.805V436.7937C432.9647,435.4153,431.0531,434.1732,429.3036,432.6346Z"/><path class="cls-1" d="M371.4663,16.8337H63.4263A5.0164,5.0164,0,0,1,58.41,11.8173h0a5.0165,5.0165,0,0,1,5.0164-5.0165h308.04a5.0165,5.0165,0,0,1,5.0164,5.0165h0A5.0164,5.0164,0,0,1,371.4663,16.8337Z"/><circle class="cls-2" cx="169.7989" cy="11.8173" r="10.722"/><path class="cls-2" d="M169.5372,16.8337H61.5465a5.5145,5.5145,0,0,1,0-10.0329H169.5372c.9712,0,1.7586,2.246,1.7586,5.0165C171.2958,11.8173,170.5084,16.8337,169.5372,16.8337Z"/><path class="cls-1" d="M371.4225,172.004H63.3825a5.0164,5.0164,0,0,1-5.0164-5.0164h0a5.0165,5.0165,0,0,1,5.0164-5.0165h308.04a5.0165,5.0165,0,0,1,5.0165,5.0165h0A5.0165,5.0165,0,0,1,371.4225,172.004Z"/><circle class="cls-2" cx="299.9408" cy="166.9876" r="10.722"/><path class="cls-2" d="M295.8079,172.004H62.2156c-2.1009,0-3.8041-2.2459-3.8041-5.0164h0c0-2.77,1.7032-5.0165,3.8041-5.0165H295.8079c2.101,0,3.8041,2.246,3.8041,5.0165h0C299.612,169.7581,297.9089,172.004,295.8079,172.004Z"/><path class="cls-1" d="M371.4663,120.2806H63.4263a5.0165,5.0165,0,0,1-5.0164-5.0165h0a5.0164,5.0164,0,0,1,5.0164-5.0164h308.04a5.0164,5.0164,0,0,1,5.0164,5.0164h0A5.0165,5.0165,0,0,1,371.4663,120.2806Z"/><circle class="cls-2" cx="169.7989" cy="115.2641" r="10.722"/><path class="cls-2" d="M169.5372,120.2806H61.5465a5.5145,5.5145,0,0,1,0-10.0329H169.5372c.9712,0,1.7586,2.246,1.7586,5.0164C171.2958,115.2641,170.5084,120.2806,169.5372,120.2806Z"/></g></g></svg>