<?xml version="1.0" encoding="utf-8"?>
<!-- Generator: Adobe Illustrator 25.2.3, SVG Export Plug-In . SVG Version: 6.00 Build 0)  -->
<svg version="1.1" id="Layer_1" xmlns="http://www.w3.org/2000/svg" xmlns:xlink="http://www.w3.org/1999/xlink" x="0px" y="0px"
	 viewBox="0 0 195.3 301" style="enable-background:new 0 0 195.3 301;" xml:space="preserve">
<style type="text/css">
	.st0{fill:none;stroke:#FFFFFF;stroke-width:1.0223;stroke-miterlimit:10;}
	.st1{fill:#FFFFFF;stroke:#FFFFFF;stroke-width:1.0223;stroke-miterlimit:10;}
	.st2{fill:#FFFFFF;}
</style>
<g id="Layer_2_1_">
	<g id="Layer_1-2">
		<path class="st0" d="M168.7,249.6H25.5c-1.3,0-2.3-1-2.3-2.3l0,0l0,0c0-1.3,1-2.3,2.3-2.3c0,0,0,0,0,0h143.3c1.3,0,2.3,1,2.3,2.3
			c0,0,0,0,0,0l0,0C171.1,248.6,170,249.6,168.7,249.6C168.7,249.6,168.7,249.6,168.7,249.6z"/>
		<path class="st1" d="M133.5,249.6H24.9c-1.1-0.2-1.9-1.2-1.8-2.3l0,0c-0.1-1.1,0.6-2.2,1.8-2.3h108.7c1.1,0.2,1.9,1.2,1.8,2.3l0,0
			C135.4,248.4,134.6,249.5,133.5,249.6z"/>
		<path class="st0" d="M168.8,225.4H25.5c-1.3,0-2.3-1-2.3-2.3l0,0c0-1.3,1-2.3,2.3-2.3h143.3c1.3,0,2.3,1,2.3,2.3c0,0,0,0,0,0l0,0
			C171.1,224.3,170,225.4,168.8,225.4C168.8,225.4,168.8,225.4,168.8,225.4z"/>
		<path class="st1" d="M74.7,225.4H24.4c-1.3-0.6-1.9-2.1-1.3-3.4c0.3-0.6,0.7-1,1.3-1.3h50.2c0.5,0,0.8,1,0.8,2.3
			C75.5,223,75.1,225.4,74.7,225.4z"/>
		<path class="st0" d="M168.7,297.7H25.5c-1.3,0-2.3-1-2.3-2.3l0,0l0,0c0-1.3,1-2.3,2.3-2.3h143.3c1.3,0,2.3,1,2.3,2.3l0,0
			C171.1,296.7,170,297.7,168.7,297.7C168.7,297.7,168.7,297.7,168.7,297.7z"/>
		<path class="st1" d="M133.5,297.7H24.9c-1.1-0.2-1.9-1.2-1.8-2.3l0,0c-0.1-1.1,0.6-2.2,1.8-2.3h108.7c1.1,0.2,1.9,1.2,1.8,2.3l0,0
			C135.4,296.5,134.6,297.5,133.5,297.7z"/>
		<path class="st0" d="M168.8,273.9H25.5c-1.3,0-2.3-1-2.3-2.3l0,0c0-1.3,1-2.3,2.3-2.3h143.3c1.3,0,2.3,1,2.3,2.3l0,0
			C171.1,272.9,170,273.9,168.8,273.9C168.8,273.9,168.8,273.9,168.8,273.9z"/>
		<circle class="st2" cx="135.8" cy="247.1" r="5.4"/>
		<circle class="st2" cx="74.7" cy="223.3" r="5.4"/>
		<circle class="st2" cx="135.8" cy="295.6" r="5.4"/>
		<circle class="st2" cx="74.7" cy="271.3" r="5.4"/>
		<path class="st1" d="M74.7,273.9H24.4c-1.3-0.6-1.9-2.1-1.3-3.4c0.3-0.6,0.7-1,1.3-1.3h50.2c0.5,0,0.8,1,0.8,2.3
			C75.5,271.6,75.1,273.9,74.7,273.9z"/>
		<path class="st2" d="M192.4,172.1l-16.7-0.1c-4.1-3.4-7.9-7.2-11.3-11.3c-8-9.6-14-20.2-19.1-31.2c-6.4-14.1-11.5-28.7-15.5-43.7
			c-2.7-10-5.3-20.1-7.6-30.3c-2.2-9.5-3.9-19.1-5.9-28.7c0-0.1-0.1-0.3-0.1-0.4l-0.3,0c0,1,0,2.1,0,3.1c-0.1,9.6-0.2,19.2-0.3,28.8
			c-0.1,8.1-0.2,16.1-0.3,24.2c-0.1,5.1-0.1,10.2-0.2,15.3c0,2.7-0.1,5.4-0.1,8.1c0,0.2,0,0.4-0.1,0.6c-0.1,0.2-0.4,0.6-0.6,0.6
			c-0.3,0-0.6-0.2-0.7-0.5c-0.4-1-0.7-2-1.1-3c-4.3-12.8-7.8-25.7-10.8-38.8c-1.8-7.9-3.5-15.7-5.2-23.6c-0.9-4.2-1.6-8.4-2.7-12.6
			c0,1.7,0,3.5,0,5.2c-0.1,7.2-0.1,14.4-0.2,21.6c-0.1,5.2-0.1,10.3-0.2,15.5c-0.1,7.8-0.1,15.6-0.2,23.4c-0.1,4.8-0.1,9.6-0.2,14.4
			c0,0.2,0.1,0.4,0,0.6c-0.2,0.3-0.4,0.5-0.7,0.7c-0.1,0.1-0.6-0.3-0.7-0.5c-0.3-0.6-0.5-1.3-0.7-1.9c-3.8-11.1-7.2-22.3-9.9-33.6
			C78.5,64,76.3,54,74.1,44c-0.7-3.2-1.3-6.4-1.9-9.7c0-0.2-0.1-0.4-0.3-0.6c0,0.3-0.1,0.6-0.1,0.8c0,6.5-0.1,13-0.1,19.5
			c-0.1,7.9-0.2,15.8-0.3,23.8c-0.1,10.4-0.2,20.8-0.4,31.2c0,1.7,0,3.5-0.1,5.2c0,0.2,0,0.4,0,0.6c-0.2,0.3-0.4,0.6-0.7,0.8
			c-0.3-0.2-0.7-0.4-0.8-0.7c-0.6-1.6-1.3-3.2-1.8-4.8c-2.1-6.3-4.3-12.5-6.1-18.9c-1.9-6.4-3.6-12.8-5.2-19.3
			c-1.9-7.6-3.6-15.3-5.4-22.9c-0.3-1.4-0.6-2.8-0.9-4.3l-0.3,0c0,0.3-0.1,0.7-0.1,1c-0.1,9.6-0.2,19.2-0.3,28.8
			c-0.1,7.9-0.2,15.8-0.2,23.8c-0.1,7.8-0.2,15.6-0.3,23.5c0,1.4,0,2.8-0.1,4.2c-0.1,0.5-0.3,0.9-0.6,1.3c-0.4-0.3-0.9-0.6-1-0.9
			c-1.2-2.9-2.4-5.7-3.6-8.6C39,106.2,35,94.2,31.8,82c-1.3-4.8-2.4-9.6-3.7-14.4c-0.1-0.4-0.3-0.7-0.5-1c-0.1,1.2-0.2,2.4-0.2,3.6
			c-0.1,7-0.1,14.1-0.1,21.1c0,5.4-0.1,10.9-0.2,16.3c-0.1,6.6,0.1,13.5-0.2,22.7c-0.3,10.7-0.7,11.3-1.1,11.4
			c-2.1,0.4-7.3-17.3-10-29.2c-1.4-6.2-2.3-11.5-2.9-15c-1,16.6-2.4,33.6-4.2,51.1c-0.8,7.7-1.7,15.3-2.6,22.8l-0.2,0
			C6,115.2,6.2,59,6.4,2.9C6.2,1.1,4.7-0.2,2.9,0C1.4,0.2,0.2,1.4,0.1,2.9C0,111.9,0,147.2,0.1,152c0,1.6,0,8.7,0,12.8
			c0,1.2-0.1,2.5-0.1,4.4c0,1.9,0,2.6,0.1,3.3c0.2,2.6,0.2,3.8,0.9,4.6c0.8,0.9,1.9,1,4.9,1c3.8,0.1,5.7,0,7.1,0c0,0,5.8,0,12.3,0
			c7,0,155,0.6,167.2,0c1.6,0,2.9-1.4,2.9-3C195.3,173.4,194,172.1,192.4,172.1L192.4,172.1z"/>
	</g>
</g>
</svg>
