<svg xmlns="http://www.w3.org/2000/svg" xmlns:xlink="http://www.w3.org/1999/xlink" viewBox="0 0 195.3309 300.9769"><defs><style>.cls-1,.cls-5{fill:none;}.cls-1,.cls-2,.cls-5{stroke:#fff;stroke-miterlimit:10;}.cls-1,.cls-2{stroke-width:1.0223px;}.cls-2,.cls-3{fill:#fff;}.cls-4{fill:url(#linear-gradient);}.cls-5{stroke-width:0.75px;}</style><linearGradient id="linear-gradient" x1="91.6641" y1="26.4265" x2="91.6641" y2="138.8144" gradientUnits="userSpaceOnUse"><stop offset="0" stop-color="#fff"/><stop offset="1" stop-color="#fff" stop-opacity="0"/></linearGradient></defs><g id="Layer_2" data-name="Layer 2"><g id="Layer_1-2" data-name="Layer 1"><path class="cls-1" d="M168.7341,249.6436H25.4532A2.3334,2.3334,0,0,1,23.12,247.31h0a2.3334,2.3334,0,0,1,2.3334-2.3334H168.7341a2.3334,2.3334,0,0,1,2.3334,2.3334h0A2.3334,2.3334,0,0,1,168.7341,249.6436Z"/><path class="cls-2" d="M133.5042,249.6436H24.8517a2.1108,2.1108,0,0,1-1.7694-2.3333h0a2.1109,2.1109,0,0,1,1.7694-2.3334H133.5042a2.1109,2.1109,0,0,1,1.7694,2.3334h0A2.1108,2.1108,0,0,1,133.5042,249.6436Z"/><path class="cls-1" d="M168.7545,225.3769H25.4735a2.3333,2.3333,0,0,1-2.3333-2.3333h0a2.3333,2.3333,0,0,1,2.3333-2.3333h143.281a2.3333,2.3333,0,0,1,2.3334,2.3333h0A2.3333,2.3333,0,0,1,168.7545,225.3769Z"/><path class="cls-2" d="M74.6728,225.3769H24.4422a2.565,2.565,0,0,1,0-4.6666H74.6728c.4517,0,.818,1.0447.818,2.3333C75.4908,223.0436,75.1245,225.3769,74.6728,225.3769Z"/><path class="cls-1" d="M168.7341,297.71H25.4532a2.3334,2.3334,0,0,1-2.3334-2.3334h0a2.3334,2.3334,0,0,1,2.3334-2.3333H168.7341a2.3334,2.3334,0,0,1,2.3334,2.3333h0A2.3334,2.3334,0,0,1,168.7341,297.71Z"/><path class="cls-2" d="M133.5042,297.71H24.8517a2.1109,2.1109,0,0,1-1.7694-2.3334h0a2.1108,2.1108,0,0,1,1.7694-2.3333H133.5042a2.1108,2.1108,0,0,1,1.7694,2.3333h0A2.1109,2.1109,0,0,1,133.5042,297.71Z"/><path class="cls-1" d="M168.7545,273.91H25.4735a2.3334,2.3334,0,0,1-2.3333-2.3334h0a2.3334,2.3334,0,0,1,2.3333-2.3333h143.281a2.3334,2.3334,0,0,1,2.3334,2.3333h0A2.3334,2.3334,0,0,1,168.7545,273.91Z"/><circle class="cls-3" cx="135.8132" cy="247.0769" r="5.3667"/><circle class="cls-3" cx="74.6799" cy="223.2769" r="5.3667"/><circle class="cls-3" cx="135.8132" cy="295.6103" r="5.3667"/><circle class="cls-3" cx="74.6799" cy="271.3436" r="5.3667"/><path class="cls-2" d="M74.6728,273.91H24.4422a2.5651,2.5651,0,0,1,0-4.6667H74.6728c.4517,0,.818,1.0447.818,2.3333C75.4908,271.5769,75.1245,273.91,74.6728,273.91Z"/><path class="cls-4" d="M5.834,110.43c2.3933,6.0073,4.6715,12.0552,7.2483,17.998a140.5228,140.5228,0,0,0,11.912,21.9708c.2128.32.704.49,1.0654.73.1829-.3756.5191-.7491.5257-1.1272q.1715-9.8319.2686-19.6647c.083-7.579.1431-15.1582.2244-22.7372.0583-5.4282.1566-10.8561.1981-16.2844.0539-7.0344.0592-14.0691.1105-21.1035.0087-1.2006.1421-2.4.218-3.6a2.1452,2.1452,0,0,1,.53,1.0256c1.2184,4.7905,2.356,9.5989,3.6616,14.37a347.13,347.13,0,0,0,11.7193,35.9457c1.1423,2.8942,2.343,5.77,3.5763,8.6339.1607.3732.6782.6216,1.03.9279a3.8619,3.8619,0,0,0,.6189-1.252c.1046-1.3939.096-2.7953.1121-4.1939q.1355-11.7266.2606-23.453.1245-11.88.2348-23.761.132-14.3923.2533-28.7847c.0031-.35.0465-.6993.0711-1.049l.3123-.0167c.2892,1.4182.5463,2.8426.873,4.2538,1.7713,7.6514,3.47,15.318,5.37,22.9435,1.61,6.4593,3.3309,12.9014,5.2408,19.2933,1.89,6.3258,4.0659,12.5827,6.145,18.8622.53,1.6015,1.1424,3.1826,1.7811,4.7519.1162.2855.5437.4683.8275.6986a6.8738,6.8738,0,0,0,.6616-.8485,1.3289,1.3289,0,0,0,.0448-.6069q.0356-2.6118.0665-5.2236.1878-15.618.3736-31.2361.1371-11.88.2534-23.7608c.056-6.4883.075-12.9768.1144-19.4652.0017-.282.0439-.5638.0672-.8458a.85.85,0,0,1,.3238.5507c.6459,3.2241,1.2188,6.4615,1.9452,9.6708,2.2554,9.9648,4.4739,19.9377,6.8847,29.8723,2.7522,11.3418,6.1053,22.5475,9.9342,33.6351a17.4732,17.4732,0,0,0,.7376,1.9347c.1126.2327.5694.5648.69.5129a1.681,1.681,0,0,0,.6747-.7c.0975-.1614.0407-.4012.0438-.6059.0735-4.8125.16-9.6248.2149-14.4374.09-7.7839.154-15.5679.239-23.3517.0563-5.1548.1364-10.3092.1943-15.4639q.1215-10.8063.2235-21.6127c.0167-1.7431.0025-3.4865.0025-5.23,1.0654,4.191,1.816,8.3985,2.7143,12.58,1.6914,7.8738,3.41,15.7437,5.2223,23.5957,3.0166,13.0726,6.5977,26.0205,10.8488,38.8146.3367,1.0135.6742,2.0288,1.0827,3.0194a.9451.9451,0,0,0,.73.4712c.2389-.0327.4669-.3743.6139-.6224a1.2793,1.2793,0,0,0,.0561-.6052q.0614-4.0449.1176-8.09.1047-7.6291.2045-15.2583.1386-12.0852.2555-24.1705.1391-14.3911.26-28.7825c.0091-1.0359.0012-2.072.0012-3.1081l.3359-.0133c.0416.1447.0936.2878.1232.4345,1.9362,9.5681,3.6857,19.1708,5.8557,28.6956q3.4613,15.1926,7.5866,30.261a283.3384,283.3384,0,0,0,15.5041,43.653c5.0726,11.0474,11.0721,21.6387,19.0659,31.24a89.1855,89.1855,0,0,0,13.0032,12.7614H5.834Z"/><path class="cls-3" d="M191.79,173.4673v3.8384H2.396V3.0913H5.8317V106.2285a217.8787,217.8787,0,0,0,13.4423,31.753c1.5976,3.0131,3.3841,5.95,5.0934,8.9242a1.7369,1.7369,0,0,0,.7816.7005c.0344-.3071.0859-.6237.0945-.9308.0344-5.0283.06-10.047.1031-15.0656.0515-5.5657.1288-11.1217.18-16.6874q.1161-12.1917.2148-24.3737.1418-15.0561.3006-30.1121a4.4975,4.4975,0,0,1,.0945-1.3242c.0859-.2687.4466-.48.6785-.71.2491.2207.6442.4126.7215.6717.3522,1.2283.6185,2.4662.9019,3.704A414.4118,414.4118,0,0,0,42.654,111.6886c1.2626,3.4353,2.6455,6.8323,3.9854,10.2389a1.7108,1.7108,0,0,0,.627.8156c.0773-1.4394.2148-2.8692.2234-4.299.06-9.4328.0687-18.856.1546-28.2792.103-11.1313.2834-22.253.4122-33.3843.0773-6.4869.12-12.9737.18-19.4606a2.4781,2.4781,0,0,1,.0258-.9116,4.4282,4.4282,0,0,1,.6785-.9212c.2663.2783.713.5277.7817.854.4638,1.9672.8159,3.9535,1.2368,5.93.9534,4.4525,1.8725,8.9242,2.8946,13.3576,1.6749,7.2545,3.3241,14.509,5.1622,21.7252C61.8,88.2745,65.0548,99.08,68.8857,109.731c.103.2879.2233.5662.3349.8444.1289-.01.2577-.01.378-.01v-4.52c.0257-4.3374.0343-8.6748.0687-13.0121q.1031-12.0765.2147-24.1722.1159-11.6735.2577-23.347.1159-9.9894.2491-19.9691c.0086-.547-.1976-1.3435.6957-1.3722.2749-.01.7645.8156.8589,1.305,1.3142,6.5444,2.5253,13.1177,3.8652,19.6621,2.8688,13.9909,6.0984,27.9242,10.101,41.704,1.5976,5.508,3.35,10.9873,5.0419,16.4762a2.58,2.58,0,0,0,.6614,1.1419c.0258-.2687.0773-.5373.0773-.806.0344-4.6445.0516-9.2889.0859-13.9333q.09-10.0326.2062-20.0748.1031-11.112.2233-22.2242c.0773-8.1661.1374-16.3227.2233-24.4792.0086-1.2283.0515-2.4566.1718-3.6753.0257-.2879.4037-.5565.627-.8252.2491.2591.6614.4894.7129.7772.6442,3.1955,1.2025,6.4,1.8209,9.5864,1.2627,6.42,2.3964,12.8682,3.848,19.2495,2.6541,11.5919,5.4027,23.1742,8.3231,34.7277,1.5031,5.95,3.4786,11.803,5.248,17.7045a1.2988,1.2988,0,0,0,.4982.7293,6.57,6.57,0,0,0,.12-.8253c.06-4.4717.1289-8.9434.1632-13.4151.043-4.4333.0258-8.8762.06-13.31.0687-7.9262.1717-15.8429.2576-23.7595q.1159-11.27.24-22.5409c.043-3.5121.0859-7.0338.18-10.5459.0172-.3839.4123-.7581.627-1.1324.2921.3359.7645.6526.8332,1.0268,1.8295,9.4808,3.41,19,5.4628,28.4424,2.5939,11.9277,5.4456,23.7979,8.4089,35.6489a297.8234,297.8234,0,0,0,9.6887,31.0429c5.2309,14.154,11.3722,27.9434,20.2192,40.6388a91.4239,91.4239,0,0,0,19.7553,20.9768Zm-185.958,0H177.4972a88.7669,88.7669,0,0,1-13.0042-12.753c-7.9966-9.6056-13.9919-20.1995-19.0682-31.2444a283.214,283.214,0,0,1-15.5037-43.652q-4.1227-15.0561-7.5843-30.2656c-2.1731-9.5192-3.9253-19.1247-5.8579-28.6919-.0258-.1439-.0859-.2879-.12-.4318-.1116,0-.2233.01-.3349.01,0,1.0364,0,2.0727-.0086,3.1091q-.116,14.3939-.2577,28.7878-.116,12.0765-.2577,24.1626c-.0515,5.0859-.1288,10.1717-.1975,15.2576-.043,2.6964-.0773,5.3929-.12,8.0893a1.2122,1.2122,0,0,1-.06.6142c-.146.24-.3694.5853-.61.6141a.9272.9272,0,0,1-.73-.47c-.4123-.9884-.7473-2.0055-1.0823-3.0131-4.2517-12.801-7.8334-25.7459-10.8483-38.8156-1.8123-7.8591-3.53-15.7278-5.2222-23.5964-.9019-4.1839-1.6492-8.3869-2.7143-12.58,0,1.7368.0086,3.4833-.0085,5.23q-.1032,10.81-.2234,21.61c-.0515,5.1531-.1374,10.3061-.1889,15.4687q-.1288,11.6735-.24,23.3469c-.0516,4.8172-.1375,9.6248-.2148,14.4419a1.2789,1.2789,0,0,1-.0429.6046,1.6813,1.6813,0,0,1-.6786.7005c-.12.048-.5754-.2783-.6871-.5182a17.2543,17.2543,0,0,1-.7387-1.9288c-3.8308-11.0929-7.1806-22.301-9.9292-33.6338-2.4136-9.9414-4.63-19.9116-6.8886-29.8721-.73-3.2147-1.297-6.4485-1.9412-9.6728a.8872.8872,0,0,0-.3264-.5565c-.0257.2879-.0687.5661-.0687.8444-.0429,6.4965-.06,12.9833-.1117,19.47q-.1031,11.8749-.2576,23.76-.18,15.6174-.3694,31.2348c-.0257,1.7464-.0429,3.4833-.0687,5.23a1.28,1.28,0,0,1-.0429.6046,6.5813,6.5813,0,0,1-.6614.8444c-.2835-.23-.7129-.4126-.8332-.7005-.6356-1.5641-1.2454-3.1474-1.778-4.75-2.0786-6.2757-4.2516-12.5323-6.1413-18.856-1.9154-6.4-3.6333-12.8394-5.248-19.2974-1.8983-7.6288-3.599-15.296-5.3683-22.9439-.3264-1.4107-.5841-2.8309-.8676-4.2511-.1116,0-.2147.01-.3178.0192-.0257.3455-.0687.6909-.0687,1.046Q49.4739,60.4654,49.345,74.85q-.103,11.8894-.2319,23.7692-.1159,11.7167-.2577,23.4525c-.0171,1.3914-.0085,2.7924-.1116,4.1934a3.9229,3.9229,0,0,1-.6184,1.2475c-.3522-.3071-.8761-.5566-1.0308-.9212-1.2368-2.8692-2.4393-5.748-3.5817-8.6364A349.4041,349.4041,0,0,1,31.7971,82.0083c-1.3055-4.7692-2.4479-9.5767-3.659-14.3747a2.2307,2.2307,0,0,0-.5325-1.0268c-.0773,1.2091-.2062,2.4086-.2148,3.6081-.0515,7.0338-.06,14.0677-.1116,21.1015-.043,5.4313-.1461,10.853-.1976,16.2843-.0859,7.5808-.146,15.1616-.2319,22.7328-.0687,6.554-.146,13.1177-.2663,19.6717-.0086.3742-.3435.7485-.5239,1.1227-.3608-.24-.85-.4126-1.0651-.7293a140.6028,140.6028,0,0,1-11.9133-21.9747c-2.5768-5.94-4.853-11.9853-7.2494-17.9924Z"/><path class="cls-5" d="M179.696,173.4673a91.4239,91.4239,0,0,1-19.7553-20.9768c-8.847-12.6954-14.9883-26.4848-20.2192-40.6388a297.8234,297.8234,0,0,1-9.6887-31.0429c-2.9633-11.851-5.815-23.7212-8.4089-35.6489-2.0529-9.4424-3.6333-18.9616-5.4628-28.4424-.0687-.3742-.5411-.6909-.8332-1.0268-.2147.3743-.61.7485-.627,1.1324-.0945,3.5121-.1374,7.0338-.18,10.5459q-.1288,11.27-.24,22.5409c-.0859,7.9166-.1889,15.8333-.2576,23.7595-.0344,4.4334-.0172,8.8763-.06,13.31-.0343,4.4717-.103,8.9434-.1632,13.4151a6.57,6.57,0,0,1-.12.8253,1.2988,1.2988,0,0,1-.4982-.7293c-1.7694-5.9015-3.7449-11.755-5.248-17.7045-2.92-11.5535-5.669-23.1358-8.3231-34.7277-1.4516-6.3813-2.5853-12.83-3.848-19.2495-.6184-3.1859-1.1767-6.3909-1.8209-9.5864-.0515-.2878-.4638-.5181-.7129-.7772-.2233.2687-.6013.5373-.627.8252-.12,1.2187-.1632,2.447-.1718,3.6753-.0859,8.1565-.146,16.3131-.2233,24.4792q-.116,11.1121-.2233,22.2242-.1032,10.0326-.2062,20.0748c-.0343,4.6444-.0515,9.2888-.0859,13.9333,0,.2687-.0515.5373-.0773.806a2.58,2.58,0,0,1-.6614-1.1419C89.2594,97.832,87.5072,92.3527,85.91,86.8447c-4.0026-13.78-7.2322-27.7131-10.101-41.704-1.34-6.5444-2.551-13.1177-3.8652-19.6621-.0944-.4894-.584-1.3146-.8589-1.305-.8933.0287-.6871.8252-.6957,1.3722q-.1418,9.975-.2491,19.9691-.1289,11.6735-.2577,23.347-.116,12.0909-.2147,24.1722c-.0344,4.3373-.043,8.6747-.0687,13.0121v4.52c-.12,0-.2491,0-.378.01-.1116-.2782-.2319-.5565-.3349-.8444C65.0548,99.08,61.8,88.2745,59.0166,77.3543c-1.8381-7.2162-3.4873-14.4707-5.1622-21.7252-1.0221-4.4334-1.9412-8.9051-2.8946-13.3576-.4209-1.9768-.773-3.9631-1.2368-5.93-.0687-.3263-.5154-.5757-.7817-.854a4.4282,4.4282,0,0,0-.6785.9212,2.4781,2.4781,0,0,0-.0258.9116c-.06,6.4869-.1031,12.9737-.18,19.4606-.1288,11.1313-.3092,22.253-.4122,33.3843-.0859,9.4232-.0945,18.8464-.1546,28.2792-.0086,1.43-.1461,2.86-.2234,4.299a1.7108,1.7108,0,0,1-.627-.8156c-1.34-3.4066-2.7228-6.8036-3.9854-10.2389A414.4118,414.4118,0,0,1,28.4387,62.778c-.2834-1.2378-.55-2.4757-.9019-3.704-.0773-.2591-.4724-.451-.7215-.6717-.2319.23-.5926.4414-.6785.71a4.4975,4.4975,0,0,0-.0945,1.3242q-.1547,15.0561-.3006,30.1121-.116,12.1773-.2148,24.3737c-.0515,5.5657-.1288,11.1217-.18,16.6874-.043,5.0186-.0687,10.0373-.1031,15.0656-.0086.3071-.06.6237-.0945.9308a1.7369,1.7369,0,0,1-.7816-.7005c-1.7093-2.9747-3.4958-5.9111-5.0934-8.9242a217.8787,217.8787,0,0,1-13.4423-31.753V3.0913H2.396V177.3057H191.79v-3.8384Z"/><path class="cls-3" d="M192.4478,172.0959l-186.6139-.68q.2687-84.2752.537-168.55a3.17,3.17,0,0,0-6.3138.0386c-.0638,109.0126-.0449,144.3423,0,149.0838.0151,1.5863,0,8.7467,0,12.7957,0,1.1882-.0582,2.4619-.0571,4.3664.0012,1.9436.0166,2.6275.0571,3.2762.16,2.5541.24,3.8312.8835,4.5607.7638.8652,1.9112.9733,4.8673,1.0382,3.8265.084,5.7336,0,7.0629,0,0,0,5.803.0019,12.342.0415,7.0078.0426,154.9574.63,167.235-.0416a2.9656,2.9656,0,0,0,0-5.9289Z"/></g></g></svg>