<?xml version="1.0" encoding="utf-8"?>
<!-- Generator: Adobe Illustrator 25.2.3, SVG Export Plug-In . SVG Version: 6.00 Build 0)  -->
<svg version="1.1" id="Layer_1" xmlns="http://www.w3.org/2000/svg" xmlns:xlink="http://www.w3.org/1999/xlink" x="0px" y="0px"
	 viewBox="0 0 195.3 183.5" style="enable-background:new 0 0 195.3 183.5;" xml:space="preserve">
<style type="text/css">
	.st0{fill:#515151;}
</style>
<symbol  id="slider" viewBox="-71.8 -6.4 117.6 12.8">
	<g>
		<circle class="st0" cx="-32.5" cy="0" r="6.4"/>
	</g>
	<path class="st0" d="M-39.6,3h-29.9c-1.3,0-2.3-1.4-2.3-3.2c0-1.8,1-3.2,2.3-3.2h30.2c-0.5,1-0.8,2.2-0.8,3.4
		C-40.2,1.1-39.9,2.1-39.6,3z"/>
	<path class="st0" d="M43.5,3H19.8H-8.6h-16.9c0.4-0.9,0.6-1.9,0.6-3c0-1.2-0.3-2.4-0.8-3.4h17.1h28.4h23.7c1.3,0,2.3,1.4,2.3,3.2
		S44.8,3,43.5,3z"/>
</symbol>
<use xlink:href="#slider"  width="117.6" height="12.8" x="-71.8" y="-6.4" transform="matrix(-1.2687 0 0 -1.2687 81.1729 159.7714)" style="overflow:visible;"/>
<use xlink:href="#slider"  width="117.6" height="12.8" x="-71.8" y="-6.4" transform="matrix(1.2687 0 0 -1.2687 114.158 115.7714)" style="overflow:visible;"/>
<use xlink:href="#slider"  width="117.6" height="12.8" x="-71.8" y="-6.4" transform="matrix(-1.2687 0 0 -1.2687 81.1729 71.7714)" style="overflow:visible;"/>
<use xlink:href="#slider"  width="117.6" height="12.8" x="-71.8" y="-6.4" transform="matrix(1.2687 0 0 -1.2687 114.158 27.7714)" style="overflow:visible;"/>
</svg>
