<svg xmlns="http://www.w3.org/2000/svg" viewBox="0 0 404.58 49.46"><defs><style>.fill{fill:#231f20;}</style></defs><g id="Layer_2" data-name="Layer 2"><g id="Layer_1-2" data-name="Layer 1"><path class="cls-1" d="M0,.74H14.65q9,0,13.34,2.48a23.13,23.13,0,0,1,7.87,7.84q3.48,5.35,3.48,13.55,0,10.31-6.08,17.21T16.51,48.73H0ZM11,9.56V39.69h4.63q6.14,0,9.12-4.59a19.31,19.31,0,0,0,3-10.77,19,19,0,0,0-1.7-8.07,11.12,11.12,0,0,0-4.23-5.2,11.64,11.64,0,0,0-6.06-1.5Z"/><path class="cls-1" d="M68.62.74l15,48H71.55l-3-9.88H53.08l-3,9.88H40.22L55.6.74ZM55.78,30H66l-5-16.84Z"/><path class="cls-1" d="M122.17.74l-14.5,48H95.59L81.18.74h12l9.6,34.31,10-34.31Z"/><path class="cls-1" d="M137.71.74v48H126.49V.74Z"/><path class="cls-1" d="M147.34.74H162q9,0,13.34,2.48a23.13,23.13,0,0,1,7.87,7.84q3.48,5.35,3.48,13.55,0,10.31-6.08,17.21t-16.75,6.91H147.34Zm11,8.82V39.69H163q6.13,0,9.12-4.59a19.31,19.31,0,0,0,3-10.77,19,19,0,0,0-1.7-8.07,11.12,11.12,0,0,0-4.23-5.2,11.64,11.64,0,0,0-6.06-1.5Z"/><path class="cls-1" d="M249.08.74v48H238V28.93h-15v19.8H212V.74h11v18.7h15V.74Z"/><path class="cls-1" d="M269.93.74v48H258.71V.74Z"/><path class="cls-1" d="M318.27,18.6l-11.78.74q-.24-10.17-7.93-10.16-8.81,0-8.8,15.64,0,9,2.39,12.25a7.87,7.87,0,0,0,6.7,3.22q7,0,8.52-9.07l10.9.67q-1,8.61-6.42,13.09a21.5,21.5,0,0,1-28.61-2.09q-6-6.57-6-18.18,0-10.86,5.76-17.78T298.79,0Q316.08,0,318.27,18.6Z"/><path class="cls-1" d="M335.78.74V23.28l15-22.54h10.76L350.06,17.87l14.4,30.86H352.09l-9.58-20.84-6.73,9.83v11h-11V.74Z"/><path class="cls-1" d="M403.28,11.29l-9.57,3.19q-1.92-5.69-8.17-5.69-6.66,0-6.66,4.32A3.88,3.88,0,0,0,380.12,16c.84.8,2.71,1.49,5.64,2.08a55.15,55.15,0,0,1,10.74,3A13.71,13.71,0,0,1,402.24,26a12.82,12.82,0,0,1,2.34,7.5,15,15,0,0,1-5,11.25q-5,4.74-14.84,4.74a22.6,22.6,0,0,1-12.56-3.35,16,16,0,0,1-6.83-10l10.41-2.35q1.75,6.7,9.75,6.71c2.58,0,4.49-.5,5.76-1.49a4.45,4.45,0,0,0,1.89-3.57,3.71,3.71,0,0,0-1.72-3.27c-1.15-.78-3.36-1.5-6.63-2.18q-9.17-1.9-13.06-5.19t-3.9-9.61a14.28,14.28,0,0,1,4.65-10.8C375.6,1.46,379.8,0,385.12,0Q399.23,0,403.28,11.29Z"/></g></g></svg>